<svg width="10" height="6" viewBox="0 0 10 6" fill="none" xmlns="http://www.w3.org/2000/svg">
<path d="M1.27665 0.646447C1.08139 0.451184 0.764804 0.451184 0.569542 0.646447C0.37428 0.841709 0.37428 1.15829 0.569542 1.35355L1.27665 0.646447ZM4.9231 5L4.56954 5.35355L4.9231 5.70711L5.27665 5.35355L4.9231 5ZM9.27665 1.35355C9.47191 1.15829 9.47191 0.841709 9.27665 0.646447C9.08139 0.451184 8.7648 0.451184 8.56954 0.646447L9.27665 1.35355ZM0.569542 1.35355L4.56954 5.35355L5.27665 4.64645L1.27665 0.646447L0.569542 1.35355ZM5.27665 5.35355L9.27665 1.35355L8.56954 0.646447L4.56954 4.64645L5.27665 5.35355Z" fill="#EBEBEE"/>
</svg>
