<svg width="1064" height="1416" viewBox="0 0 1064 1416" fill="none" xmlns="http://www.w3.org/2000/svg">
<g opacity="0.07">
<path fill-rule="evenodd" clip-rule="evenodd" d="M753.918 162.136L418.152 871.391L1000.99 1147.31L1229.79 205.141L753.918 162.136ZM756.715 190.268L445.784 847.061L985.509 1102.57L1197.39 230.091L756.715 190.268Z" fill="#2D2D34"/>
<path fill-rule="evenodd" clip-rule="evenodd" d="M646.82 203.94L311.054 913.195L893.889 1189.11L1122.69 246.945L646.82 203.94ZM649.617 232.072L338.687 888.865L878.411 1144.37L1090.29 271.896L649.617 232.072Z" fill="#C41230"/>
<path fill-rule="evenodd" clip-rule="evenodd" d="M541.433 255.045L220.285 971.038L808.657 1234.94L1018.09 288.281L541.433 255.045ZM544.807 283.114L247.413 946.146L792.264 1190.53L986.202 313.891L544.807 283.114Z" fill="#4E4E54"/>
</g>
</svg>
