<svg width="1417" height="420" viewBox="0 0 1417 420" fill="none" xmlns="http://www.w3.org/2000/svg">
<path fill-rule="evenodd" clip-rule="evenodd" d="M1152.63 34.8176L447 757.952L1041.24 1337.81L1714.08 286.304L1152.63 34.8176ZM1144.26 70.2431L490.829 739.889L1041.12 1276.85L1664.18 303.127L1144.26 70.2431Z" fill="#222226"/>
<path d="M517 747.952L1222.63 24.8177L1784.08 276.304L1111.24 1327.81L517 747.952Z" fill="url(#paint0_linear_351_5531)"/>
<path fill-rule="evenodd" clip-rule="evenodd" d="M662.377 733.364L643.389 794.421L672.049 780.923L669.807 743.601L1143.07 257.912L1337.95 467.299L1417.97 429.611L1148.75 191.692L662.377 733.364Z" fill="#1D1D21"/>
<path fill-rule="evenodd" clip-rule="evenodd" d="M490.886 440.697L720 647.865L704.834 652.218L208.294 207.451L86.4902 829.728L6.10352e-05 854.557L193.724 172L452.676 406.147L691.565 236.266L691.416 239.528L490.886 440.697Z" fill="#3B3F45"/>
<path fill-rule="evenodd" clip-rule="evenodd" d="M739.755 1020.75L998.966 768.906L377.604 175.009L131.397 727.533L376.758 106.871L1047.75 748.205L752.418 1026.26L739.755 1020.75Z" fill="#C41230"/>
<defs>
<linearGradient id="paint0_linear_351_5531" x1="1209.92" y1="44.5" x2="1538.13" y2="890.33" gradientUnits="userSpaceOnUse">
<stop stop-color="#0A0A0A"/>
<stop offset="0.554697"/>
</linearGradient>
</defs>
</svg>
