<svg width="1440" height="420" viewBox="0 0 1440 420" fill="none" xmlns="http://www.w3.org/2000/svg">
<path fill-rule="evenodd" clip-rule="evenodd" d="M1175.63 34.8176L470 757.952L1064.24 1337.81L1737.08 286.304L1175.63 34.8176ZM1167.26 70.2431L513.828 739.889L1064.11 1276.85L1687.18 303.127L1167.26 70.2431Z" fill="#222226"/>
<path fill-rule="evenodd" clip-rule="evenodd" d="M75.1919 151.777L290.397 311.913L760.638 -488.347L100.223 -584.733L694.512 -471.887L259.055 269.179L75.1919 151.777ZM-128.644 0.100937L-48.8905 -440.079L-305.618 -131.586L-128.644 0.100937Z" fill="#C41230"/>
<path d="M540 747.952L1245.63 24.8173L1807.08 276.304L1134.24 1327.81L540 747.952Z" fill="url(#paint0_linear_312_6311)"/>
<path fill-rule="evenodd" clip-rule="evenodd" d="M1189.62 463.382L584.202 -115.773L278.001 703L1189.62 463.382ZM931.531 456.623L619.5 -58.4999L360.5 501.5L931.531 456.623Z" fill="#3B3F45"/>
<path d="M1515.9 80.0739L740.001 426.649L1548.48 225.62L1515.9 80.0739Z" fill="#686E77"/>
<defs>
<linearGradient id="paint0_linear_312_6311" x1="1232.92" y1="44.4996" x2="1561.13" y2="890.329" gradientUnits="userSpaceOnUse">
<stop stop-color="#0A0A0A"/>
<stop offset="0.554697"/>
</linearGradient>
</defs>
</svg>
