<svg width="1250" height="220" viewBox="0 0 1250 220" fill="none" xmlns="http://www.w3.org/2000/svg">
<path fill-rule="evenodd" clip-rule="evenodd" d="M61.4512 744.976L0 807.952L527.504 1322.68L61.4512 744.976ZM324.014 475.899L708 109.5L1233.26 389.148L1267.08 336.304L705.626 84.8176L324.014 475.899Z" fill="#3B3F45"/>
<path fill-rule="evenodd" clip-rule="evenodd" d="M171.451 724.976L110 787.952L637.504 1302.68L171.451 724.976ZM434.014 455.899L818 89.5001L1343.26 369.148L1377.08 316.304L815.626 64.8176L434.014 455.899Z" fill="#2A2C30"/>
<path fill-rule="evenodd" clip-rule="evenodd" d="M220 767.952L281.451 704.976L747.504 1282.68L220 767.952ZM822.277 170.38L544.014 435.899L809.708 163.612L822.277 170.38ZM845.979 147.765L928 69.5001L1453.26 349.148L1487.08 296.304L925.626 44.8176L831.536 141.242L845.979 147.765Z" fill="#101114"/>
<path d="M350 747.952L1055.63 24.8177L1617.08 276.304L944.241 1327.81L350 747.952Z" fill="url(#paint0_linear_310_5598)"/>
<defs>
<linearGradient id="paint0_linear_310_5598" x1="1042.92" y1="44.5" x2="1371.13" y2="890.33" gradientUnits="userSpaceOnUse">
<stop stop-color="#0A0A0A"/>
<stop offset="0.554697"/>
</linearGradient>
</defs>
</svg>
