<svg width="1250" height="219" viewBox="0 0 1250 219" fill="none" xmlns="http://www.w3.org/2000/svg">
<path fill-rule="evenodd" clip-rule="evenodd" d="M61.4515 743.976L0 806.952L527.506 1321.69L61.4515 743.976ZM324.007 474.906L708 108.5L1233.27 388.148L1267.08 335.304L705.626 83.8176L324.007 474.906Z" fill="#3B3F45"/>
<path fill-rule="evenodd" clip-rule="evenodd" d="M171.451 723.976L110 786.952L637.506 1301.69L171.451 723.976ZM434.007 454.906L818 88.5001L1343.27 368.148L1377.08 315.304L815.626 63.8176L434.007 454.906Z" fill="#2A2C30"/>
<path fill-rule="evenodd" clip-rule="evenodd" d="M220 766.952L281.451 703.976L747.506 1281.69L220 766.952ZM822.278 169.38L544.007 434.906L809.708 162.612L822.278 169.38ZM845.979 146.765L928 68.5001L1453.27 348.148L1487.08 295.304L925.626 43.8176L831.536 140.242L845.979 146.765Z" fill="#101114"/>
<path d="M350 746.952L1055.63 23.8177L1617.08 275.304L944.241 1326.81L350 746.952Z" fill="url(#paint0_linear_301_6157)"/>
<defs>
<linearGradient id="paint0_linear_301_6157" x1="1042.92" y1="43.5" x2="1371.13" y2="889.33" gradientUnits="userSpaceOnUse">
<stop stop-color="#0A0A0A"/>
<stop offset="0.554697"/>
</linearGradient>
</defs>
</svg>
