<svg width="1440" height="420" viewBox="0 0 1440 420" fill="none" xmlns="http://www.w3.org/2000/svg">
<path fill-rule="evenodd" clip-rule="evenodd" d="M1175.63 34.8176L470 757.952L1064.24 1337.81L1737.08 286.304L1175.63 34.8176ZM1167.26 70.2431L513.829 739.889L1064.12 1276.85L1687.18 303.127L1167.26 70.2431Z" fill="#222226"/>
<path d="M540 747.952L1245.63 24.8174L1807.08 276.304L1134.24 1327.81L540 747.952Z" fill="url(#paint0_linear_301_6155)"/>
<path fill-rule="evenodd" clip-rule="evenodd" d="M773.5 612.5L280.886 141.252L40.1143 808.667L773.5 612.5ZM563.5 607L284 160L118.5 636.5L563.5 607Z" fill="#3B3F45"/>
<path fill-rule="evenodd" clip-rule="evenodd" d="M355.192 91.7771L570.397 251.913L1040.64 -548.347L380.223 -644.733L974.512 -531.886L539.055 209.18L355.192 91.7771ZM151.356 -59.8987L231.109 -500.079L-25.6177 -191.586L151.356 -59.8987Z" fill="#C41230"/>
<path fill-rule="evenodd" clip-rule="evenodd" d="M1036.57 956.773L1048.9 1019.51L1170.74 854.166L1062.45 990.583L1037.93 951.087L1036.57 956.773ZM1054.81 880.915L1221.2 295.391L1510.5 393.094L1556.81 330.247L1206.83 248.979L1054.81 880.915Z" fill="#1D1D21"/>
<path fill-rule="evenodd" clip-rule="evenodd" d="M1181.72 713.024L1226.04 759.112L1239.03 554.132L1221.78 727.447L1179.79 707.502L1181.72 713.024ZM1156.01 639.355L979.094 56.9298L1275.25 -17.4533L1280.19 -95.3647L941.9 25.6728L1156.01 639.355Z" fill="#3B3F45"/>
<defs>
<linearGradient id="paint0_linear_301_6155" x1="1232.92" y1="44.4997" x2="1561.13" y2="890.329" gradientUnits="userSpaceOnUse">
<stop stop-color="#0A0A0A"/>
<stop offset="0.554697"/>
</linearGradient>
</defs>
</svg>
