<svg width="1440" height="420" viewBox="0 0 1440 420" fill="none" xmlns="http://www.w3.org/2000/svg">
<path fill-rule="evenodd" clip-rule="evenodd" d="M1175.63 34.8176L470 757.952L1064.24 1337.81L1737.08 286.304L1175.63 34.8176ZM1167.26 70.2431L513.829 739.889L1064.12 1276.85L1687.18 303.127L1167.26 70.2431Z" fill="#222226"/>
<path d="M540 747.952L1245.63 24.8177L1807.08 276.304L1134.24 1327.81L540 747.952Z" fill="url(#paint0_linear_317_5531)"/>
<path fill-rule="evenodd" clip-rule="evenodd" d="M197 561.758L953.055 -218.44L1317.95 804.879L1188.93 776.897L935.964 -176.845L210.593 564.706L197 561.758Z" fill="#2B2B31"/>
<path d="M1474 106L1163 407L1195 469L1479 106H1474Z" fill="#2B2B31"/>
<path fill-rule="evenodd" clip-rule="evenodd" d="M18.201 1484.14L259.712 231.922L564.862 182.209L512 236.5L515.697 235.937L275.497 275.069L51.8509 1434.66L1004.76 1618.45L985.223 159.445L535.242 232.753L588.708 178.324L1026.13 107.062L1047.22 1682.61L18.201 1484.14Z" fill="#C41230"/>
<path fill-rule="evenodd" clip-rule="evenodd" d="M146.992 323.374L-100.373 1574.45L927.708 1777.73L913.984 202.101L146.992 323.374ZM162.576 366.595L-66.4923 1525.13L885.544 1713.37L872.835 254.292L162.576 366.595Z" fill="#4E4E54"/>
<defs>
<linearGradient id="paint0_linear_317_5531" x1="1232.92" y1="44.5" x2="1561.13" y2="890.33" gradientUnits="userSpaceOnUse">
<stop stop-color="#0A0A0A"/>
<stop offset="0.554697"/>
</linearGradient>
</defs>
</svg>
