<svg width="11" height="7" viewBox="0 0 11 7" fill="none" xmlns="http://www.w3.org/2000/svg">
<path d="M2.02595 0.792893C1.63543 0.402369 1.00227 0.402369 0.611741 0.792893C0.221217 1.18342 0.221217 1.81658 0.611741 2.20711L2.02595 0.792893ZM5.31885 5.5L4.61174 6.20711L5.31885 6.91421L6.02595 6.20711L5.31885 5.5ZM10.026 2.20711C10.4165 1.81658 10.4165 1.18342 10.026 0.792893C9.63543 0.402369 9.00227 0.402369 8.61174 0.792893L10.026 2.20711ZM0.611741 2.20711L4.61174 6.20711L6.02595 4.79289L2.02595 0.792893L0.611741 2.20711ZM6.02595 6.20711L10.026 2.20711L8.61174 0.792893L4.61174 4.79289L6.02595 6.20711Z" fill="white"/>
</svg>
