<svg width="35" height="24" viewBox="0 0 35 24" fill="none" xmlns="http://www.w3.org/2000/svg">
<path fill-rule="evenodd" clip-rule="evenodd" d="M14 1C12.8954 1 12 1.89543 12 3V3.5C12 3.67265 12.0219 3.84019 12.063 4H21.937C21.9781 3.84019 22 3.67265 22 3.5V3C22 1.89543 21.1046 1 20 1H14Z" fill="white"/>
<path d="M9 4.5H25C25.8284 4.5 26.5 5.17157 26.5 6V18C26.5 18.8284 25.8284 19.5 25 19.5H9C8.17157 19.5 7.5 18.8284 7.5 18V6C7.5 5.17157 8.17157 4.5 9 4.5Z" stroke="white" stroke-linecap="round" stroke-linejoin="round"/>
<path d="M15.3721 7.65087C15.8038 7.23413 16.3894 7 17 7C17.6106 7 18.1962 7.23413 18.6279 7.65087C19.0597 8.06762 19.3022 8.63285 19.3022 9.22222C19.3022 9.81159 19.0597 10.3768 18.6279 10.7936C18.1962 11.2103 17.6106 11.4444 17 11.4444C16.3894 11.4444 15.8038 11.2103 15.3721 10.7936C14.9403 10.3768 14.6977 9.81159 14.6977 9.22222C14.6977 8.63285 14.9403 8.06762 15.3721 7.65087Z" fill="#EBEBEE"/>
<path d="M13.0079 14.0022C12.9158 13.1667 13.6456 12.5556 14.41 12.5556H19.59C20.3555 12.5556 21.0842 13.1667 20.9921 14.0022C20.9242 14.6233 20.7227 15.3956 20.0896 16.0089C19.4484 16.6289 18.4573 17 17 17C15.5427 17 14.5515 16.6289 13.9104 16.0089C13.2784 15.3956 13.077 14.6244 13.0079 14.0022Z" fill="#EBEBEE"/>
</svg>
