<svg width="25" height="25" viewBox="0 0 25 25" fill="none" xmlns="http://www.w3.org/2000/svg">
<path fill-rule="evenodd" clip-rule="evenodd" d="M5.52529 1.36207C4.98106 1.36425 4.54441 1.8006 4.53754 2.3448C4.52234 3.5476 4.5 5.73359 4.5 8.19101V14.9621H5.5H6.5L6.50392 11.8323L6.50785 8.70252L6.88931 9.49002C7.09908 9.9231 7.29238 10.2775 7.31892 10.2775C7.34538 10.2775 8.05446 9.92633 8.89454 9.49713L10.4221 8.71673L11.0764 8.81899C11.4363 8.8752 11.7308 8.93659 11.7308 8.95541C11.7308 8.97423 11.3371 9.7064 10.8559 10.5826C9.65785 12.764 9.65354 12.7739 9.65562 13.3233C9.657 13.6782 9.708 13.8876 9.86715 14.1918C10.0493 14.5397 10.2785 14.7438 11.6082 15.7419C12.4503 16.3741 13.168 16.9389 13.2031 16.997C13.3588 17.2547 13.2265 17.7664 12.4688 19.8396C12.0285 21.044 11.6437 22.0941 11.6135 22.1733C11.5624 22.3074 11.6251 22.3156 12.5398 22.2944L13.5211 22.2717L14.2955 20.1717C15.0678 18.0778 15.0701 18.0696 15.0735 17.3448C15.0786 16.2626 14.8895 15.9163 13.6535 14.7438C13.125 14.2426 12.6813 13.7968 12.6675 13.7533C12.6262 13.6233 14.128 10.8238 14.199 10.8984C14.2348 10.936 14.4298 11.218 14.6321 11.5249C15.318 12.5654 15.9576 12.8621 17.514 12.8621H18.5V17.5871V22.3121H19.5H20.5V11.8121V2.31213C20.5 1.75985 20.0545 1.31229 19.5022 1.31338C16.1711 1.31999 8.2849 1.351 5.52529 1.36207ZM18.5 7.08713V10.7621H17.5556C16.8358 10.7621 16.5715 10.733 16.4445 10.6396C16.3529 10.5722 15.9941 10.098 15.6472 9.58597C15.3002 9.0739 14.8824 8.53444 14.7185 8.3872C14.4335 8.131 13.3129 7.57805 12 7.0457C10.8193 6.56698 10.2242 6.6883 8.07692 7.84556C7.35769 8.23317 6.70862 8.57434 6.63462 8.60374C6.50815 8.65382 6.5 8.49866 6.5 6.03463V3.41213H12.5H18.5V7.08713ZM14.7569 4.01265C14.3062 4.1607 13.9935 4.41642 13.7668 4.82261C13.3726 5.52893 13.4449 6.39914 13.9465 6.98318C14.6512 7.80396 15.756 7.83239 16.5022 7.04901C17.0226 6.50253 17.1549 5.89991 16.9162 5.16402C16.7571 4.67391 16.1783 4.11442 15.6992 3.98778C15.2771 3.87615 15.1634 3.87914 14.7569 4.01265ZM8.99138 15.6706L8.752 15.9717L6.626 15.9956L4.5 16.0194V17.0704V18.1213L6.71154 18.0965C8.91446 18.0718 8.92469 18.0709 9.34615 17.8606C9.86285 17.6027 10.2998 17.2408 10.5832 16.8363L10.7964 16.532L10.0727 15.949C9.67469 15.6283 9.32246 15.3668 9.28992 15.3677C9.25738 15.3686 9.12308 15.505 8.99138 15.6706ZM4.5 20.7371V22.3121H5.5H6.5V20.7371V19.1621H5.5H4.5V20.7371Z" fill="white"/>
</svg>
