<svg width="49" height="48" viewBox="0 0 49 48" fill="none" xmlns="http://www.w3.org/2000/svg">
<g clip-path="url(#clip0_219_3823)">
<path d="M26.379 38.3129L39.8024 24.9018L41.9436 22.7612C46.3983 18.3059 46.3983 11.0882 41.9436 6.64822C39.7162 4.42021 36.8086 3.30717 33.8867 3.30717C31.1585 3.30717 28.4431 4.2781 26.2819 6.21997L23.69 8.78878L21.5784 6.66301C19.351 4.44915 16.4433 3.33609 13.5215 3.33609C10.5997 3.33609 7.69272 4.44915 5.46472 6.66301C1.02478 11.1171 1.02478 18.3348 5.46472 22.7754L7.59175 24.9018L23.69 41" stroke="black" stroke-width="1.5" stroke-miterlimit="10" stroke-linecap="square"/>
<path d="M43.5977 21.9709H47.999" stroke="black" stroke-width="1.5" stroke-miterlimit="10" stroke-linecap="square"/>
<path d="M5.29102 21.971H13.7021L16.4169 15.2285L21.3423 28.9097L23.045 23.9187L23.7092 21.971H26.8304L28.9503 17.8468L32.1017 24.9372L33.6462 21.971H38.2224" stroke="black" stroke-width="1.5" stroke-miterlimit="10" stroke-linecap="square"/>
<path d="M0 21.9709H5.29062" stroke="black" stroke-width="1.5" stroke-miterlimit="10" stroke-linecap="square"/>
<path d="M37 46C42.5228 46 47 41.5228 47 36C47 30.4772 42.5228 26 37 26C31.4772 26 27 30.4772 27 36C27 41.5228 31.4772 46 37 46Z" fill="#3FAB5D"/>
<path d="M33 36.5L36 39.5L41 33.5" stroke="white" stroke-linecap="round" stroke-linejoin="round"/>
</g>
<defs>
<clipPath id="clip0_219_3823">
<rect width="48" height="48" fill="white" transform="translate(0.5)"/>
</clipPath>
</defs>
</svg>
