<svg width="49" height="48" viewBox="0 0 49 48" fill="none" xmlns="http://www.w3.org/2000/svg">
<g clip-path="url(#clip0_215_4555)">
<path d="M45.9688 3.89941H3.03125C2.36016 3.90021 1.71679 4.16715 1.24226 4.64168C0.767733 5.11621 0.500794 5.75958 0.5 6.43066L0.5 33.5694C0.500794 34.2405 0.767733 34.8839 1.24226 35.3584C1.71679 35.8329 2.36016 36.0999 3.03125 36.1007H45.9688C46.6398 36.0999 47.2832 35.8329 47.7577 35.3584C48.2323 34.8839 48.4992 34.2405 48.5 33.5694V6.43066C48.4992 5.75958 48.2323 5.11621 47.7577 4.64168C47.2832 4.16715 46.6398 3.90021 45.9688 3.89941ZM3.03125 5.21191H45.9688C46.2919 5.21231 46.6016 5.34084 46.8301 5.56932C47.0586 5.79779 47.1871 6.10755 47.1875 6.43066V9.15054H1.8125V6.43066C1.8129 6.10755 1.94143 5.79779 2.1699 5.56932C2.39838 5.34084 2.70814 5.21231 3.03125 5.21191ZM47.1875 13.7327H1.8125V10.463H47.1875V13.7327ZM45.9688 34.7882H3.03125C2.70814 34.7878 2.39838 34.6592 2.1699 34.4308C1.94143 34.2023 1.8129 33.8925 1.8125 33.5694V15.0444H47.1875V33.5694C47.1871 33.8925 47.0586 34.2023 46.8301 34.4308C46.6016 34.6592 46.2919 34.7878 45.9688 34.7882Z" fill="black"/>
<path d="M40.7466 23.0574C40.5116 22.8224 40.2325 22.636 39.9255 22.5087C39.6184 22.3815 39.2893 22.3161 38.9569 22.3161C38.6245 22.3161 38.2954 22.3815 37.9883 22.5087C37.6812 22.636 37.4022 22.8224 37.1672 23.0574L36.0133 24.2128L34.8583 23.0574C34.6233 22.8224 34.3442 22.6359 34.0371 22.5087C33.73 22.3815 33.4009 22.316 33.0685 22.316C32.736 22.316 32.4069 22.3815 32.0998 22.5087C31.7927 22.6359 31.5136 22.8224 31.2786 23.0574L28.7927 25.5437C28.3188 26.0188 28.0527 26.6624 28.0527 27.3334C28.0527 28.0044 28.3188 28.648 28.7927 29.1231L31.2786 31.6093C31.5136 31.8444 31.7927 32.0308 32.0998 32.158C32.4069 32.2852 32.736 32.3507 33.0685 32.3507C33.4009 32.3507 33.73 32.2852 34.0371 32.158C34.3442 32.0308 34.6233 31.8444 34.8583 31.6093L36.0133 30.4539L37.1683 31.6093C37.4033 31.8444 37.6824 32.0308 37.9894 32.158C38.2965 32.2852 38.6256 32.3507 38.958 32.3507C39.2904 32.3507 39.6195 32.2852 39.9266 32.158C40.2337 32.0308 40.5127 31.8444 40.7477 31.6093L43.234 29.1231C43.7078 28.648 43.9739 28.0044 43.9739 27.3334C43.9739 26.6624 43.7078 26.0188 43.234 25.5437L40.7466 23.0574ZM33.9291 30.6812C33.6967 30.903 33.3878 31.0268 33.0666 31.0268C32.7453 31.0268 32.4364 30.903 32.2041 30.6812L29.7182 28.1953C29.4897 27.9664 29.3613 27.6562 29.3613 27.3328C29.3613 27.0094 29.4897 26.6992 29.7182 26.4703L32.2041 23.9844C32.4364 23.7625 32.7453 23.6386 33.0666 23.6386C33.3879 23.6386 33.6968 23.7625 33.9291 23.9844L36.4146 26.4707C36.5281 26.5838 36.6182 26.7182 36.6796 26.8662C36.7411 27.0142 36.7727 27.1729 36.7727 27.3332C36.7727 27.4934 36.7411 27.6521 36.6796 27.8001C36.6182 27.9481 36.5281 28.0826 36.4146 28.1957L35.548 29.0623L33.9291 30.6812ZM42.3047 28.1953L39.8188 30.6812C39.5865 30.9032 39.2776 31.027 38.9563 31.027C38.635 31.027 38.3261 30.9032 38.0938 30.6812L36.94 29.5251L37.3427 29.1223C37.5778 28.8873 37.7644 28.6083 37.8916 28.3012C38.0189 27.9941 38.0844 27.6649 38.0844 27.3324C38.0844 27 38.0189 26.6708 37.8916 26.3637C37.7644 26.0566 37.5778 25.7776 37.3427 25.5426L36.94 25.1394L38.0953 23.9844C38.3275 23.7623 38.6365 23.6383 38.9578 23.6383C39.2792 23.6383 39.5881 23.7623 39.8203 23.9844L42.3062 26.4703C42.5345 26.6994 42.6626 27.0097 42.6624 27.3331C42.6621 27.6566 42.5334 27.9666 42.3047 28.1953Z" fill="black"/>
<path d="M22.4405 31.0382H4.90625C4.7322 31.0382 4.56528 31.1073 4.44221 31.2304C4.31914 31.3535 4.25 31.5204 4.25 31.6945C4.25 31.8685 4.31914 32.0354 4.44221 32.1585C4.56528 32.2816 4.7322 32.3507 4.90625 32.3507H22.4405C22.6145 32.3507 22.7815 32.2816 22.9045 32.1585C23.0276 32.0354 23.0968 31.8685 23.0968 31.6945C23.0968 31.5204 23.0276 31.3535 22.9045 31.2304C22.7815 31.1073 22.6145 31.0382 22.4405 31.0382Z" fill="black"/>
<path d="M22.4405 27.8293H4.90625C4.7322 27.8293 4.56528 27.8985 4.44221 28.0216C4.31914 28.1446 4.25 28.3115 4.25 28.4856C4.25 28.6596 4.31914 28.8266 4.44221 28.9496C4.56528 29.0727 4.7322 29.1418 4.90625 29.1418H22.4405C22.6145 29.1418 22.7815 29.0727 22.9045 28.9496C23.0276 28.8266 23.0968 28.6596 23.0968 28.4856C23.0968 28.3115 23.0276 28.1446 22.9045 28.0216C22.7815 27.8985 22.6145 27.8293 22.4405 27.8293Z" fill="black"/>
<path d="M22.4405 24.6204H4.90625C4.7322 24.6204 4.56528 24.6895 4.44221 24.8126C4.31914 24.9356 4.25 25.1026 4.25 25.2766C4.25 25.4507 4.31914 25.6176 4.44221 25.7406C4.56528 25.8637 4.7322 25.9329 4.90625 25.9329H22.4405C22.6145 25.9329 22.7815 25.8637 22.9045 25.7406C23.0276 25.6176 23.0968 25.4507 23.0968 25.2766C23.0968 25.1026 23.0276 24.9356 22.9045 24.8126C22.7815 24.6895 22.6145 24.6204 22.4405 24.6204Z" fill="black"/>
<path d="M37 46C42.5228 46 47 41.5228 47 36C47 30.4772 42.5228 26 37 26C31.4772 26 27 30.4772 27 36C27 41.5228 31.4772 46 37 46Z" fill="#3FAB5D"/>
<path d="M33 36.5L36 39.5L41 33.5" stroke="white" stroke-linecap="round" stroke-linejoin="round"/>
</g>
<defs>
<clipPath id="clip0_215_4555">
<rect width="48" height="48" fill="white" transform="translate(0.5)"/>
</clipPath>
</defs>
</svg>
