<svg width="49" height="48" viewBox="0 0 49 48" fill="none" xmlns="http://www.w3.org/2000/svg">
<g clip-path="url(#clip0_215_4566)">
<path d="M38.3047 0H10.6953C10.0242 0.00079395 9.38086 0.267733 8.90633 0.742263C8.4318 1.21679 8.16486 1.86016 8.16406 2.53125V30.1395C8.16486 30.8106 8.4318 31.454 8.90633 31.9285C9.38086 32.403 10.0242 32.67 10.6953 32.6707H17.1292V35.4611C17.1292 35.6352 17.1983 35.8021 17.3214 35.9252C17.4445 36.0482 17.6114 36.1174 17.7854 36.1174H21.6641V47.3426C21.6641 47.5167 21.7332 47.6836 21.8563 47.8067C21.9793 47.9297 22.1463 47.9989 22.3203 47.9989H26.6797C26.7659 47.9989 26.8512 47.982 26.9309 47.949C27.0105 47.9161 27.0829 47.8677 27.1438 47.8068C27.2048 47.7458 27.2531 47.6735 27.2861 47.5938C27.319 47.5142 27.336 47.4288 27.3359 47.3426V36.1174H31.2149C31.389 36.1174 31.5559 36.0482 31.679 35.9252C31.802 35.8021 31.8712 35.6352 31.8712 35.4611V32.6707H38.3047C38.9758 32.67 39.6191 32.403 40.0937 31.9285C40.5682 31.454 40.8351 30.8106 40.8359 30.1395V2.53013C40.8348 1.85923 40.5678 1.21615 40.0933 0.741865C39.6188 0.267578 38.9756 0.000793301 38.3047 0V0ZM26.0234 46.6875H22.9766V36.1174H26.0234V46.6875ZM30.5587 34.8049H18.4417V32.6707H30.5587V34.8049ZM39.5234 30.1395C39.523 30.4626 39.3945 30.7724 39.166 31.0008C38.9376 31.2293 38.6278 31.3579 38.3047 31.3582H10.6953C10.3722 31.3579 10.0624 31.2293 9.83396 31.0008C9.60549 30.7724 9.47696 30.4626 9.47656 30.1395V2.53013C9.47696 2.20701 9.60549 1.89725 9.83396 1.66878C10.0624 1.4403 10.3722 1.31177 10.6953 1.31138H38.3047C38.6278 1.31177 38.9376 1.4403 39.166 1.66878C39.3945 1.89725 39.523 2.20701 39.5234 2.53013V30.1395Z" fill="black"/>
<path d="M37.1797 3H11.8203C11.6463 3 11.4793 3.06914 11.3563 3.19221C11.2332 3.31528 11.1641 3.4822 11.1641 3.65625V29.0145C11.1641 29.1885 11.2332 29.3555 11.3563 29.4785C11.4793 29.6016 11.6463 29.6707 11.8203 29.6707H37.1797C37.2659 29.6708 37.3512 29.6539 37.4309 29.6209C37.5105 29.5879 37.5829 29.5396 37.6438 29.4786C37.7048 29.4177 37.7531 29.3453 37.7861 29.2657C37.819 29.1861 37.836 29.1007 37.8359 29.0145V3.65513C37.8357 3.48124 37.7665 3.31455 37.6434 3.1917C37.5204 3.06885 37.3536 2.9999 37.1797 3ZM36.5234 28.3594H12.4766V4.3125H36.5234V28.3594Z" fill="black"/>
<path d="M20.6914 15.4913H25.7194C26.5802 15.4913 27.4057 15.1493 28.0144 14.5406C28.6231 13.932 28.965 13.1064 28.965 12.2456C28.965 11.3848 28.6231 10.5593 28.0144 9.95062C27.4057 9.34195 26.5802 9 25.7194 9H20.6914C20.6052 8.99995 20.5199 9.01689 20.4402 9.04985C20.3606 9.08282 20.2882 9.13115 20.2273 9.1921C20.1663 9.25305 20.118 9.32541 20.085 9.40506C20.052 9.4847 20.0351 9.57006 20.0352 9.65625V14.835C20.0352 15.009 20.1043 15.176 20.2274 15.299C20.3504 15.4221 20.5174 15.4913 20.6914 15.4913ZM21.3477 10.3125H25.7194C26.2321 10.3125 26.7238 10.5162 27.0863 10.8787C27.4489 11.2412 27.6525 11.7329 27.6525 12.2456C27.6525 12.7583 27.4489 13.25 27.0863 13.6126C26.7238 13.9751 26.2321 14.1788 25.7194 14.1788H21.3477V10.3125Z" fill="black"/>
<path d="M17.6914 26.6707H20.6914C20.8655 26.6707 21.0324 26.6016 21.1554 26.4785C21.2785 26.3555 21.3477 26.1885 21.3477 26.0145V18.4912H25.7194C27.3758 18.4912 28.9644 17.8332 30.1357 16.6619C31.307 15.4907 31.965 13.9021 31.965 12.2456C31.965 10.5892 31.307 9.00058 30.1357 7.8293C28.9644 6.65802 27.3758 6 25.7194 6H17.6914C17.6052 5.99995 17.5199 6.01689 17.4402 6.04985C17.3606 6.08282 17.2882 6.13115 17.2273 6.1921C17.1663 6.25305 17.118 6.32541 17.085 6.40506C17.052 6.4847 17.0351 6.57006 17.0352 6.65625V26.0145C17.0351 26.1007 17.052 26.1861 17.085 26.2657C17.118 26.3453 17.1663 26.4177 17.2273 26.4786C17.2882 26.5396 17.3606 26.5879 17.4402 26.6209C17.5199 26.6539 17.6052 26.6708 17.6914 26.6707ZM18.3477 7.3125H25.7194C27.0278 7.3125 28.2825 7.83224 29.2077 8.75738C30.1328 9.68252 30.6525 10.9373 30.6525 12.2456C30.6525 13.554 30.1328 14.8087 29.2077 15.7339C28.2825 16.659 27.0278 17.1788 25.7194 17.1788H20.6914C20.6052 17.1787 20.5199 17.1956 20.4402 17.2286C20.3606 17.2616 20.2882 17.3099 20.2273 17.3709C20.1663 17.4318 20.118 17.5042 20.085 17.5838C20.052 17.6634 20.0351 17.7488 20.0352 17.835V25.3582H18.3477V7.3125Z" fill="black"/>
<path d="M37 46C42.5228 46 47 41.5228 47 36C47 30.4772 42.5228 26 37 26C31.4772 26 27 30.4772 27 36C27 41.5228 31.4772 46 37 46Z" fill="#3FAB5D"/>
<path d="M33 36.5L36 39.5L41 33.5" stroke="white" stroke-linecap="round" stroke-linejoin="round"/>
</g>
<defs>
<clipPath id="clip0_215_4566">
<rect width="48" height="48" fill="white" transform="translate(0.5)"/>
</clipPath>
</defs>
</svg>
