<svg width="20" height="18" viewBox="0 0 20 18" fill="none" xmlns="http://www.w3.org/2000/svg">
<path d="M18.3672 8.43281L9.5125 0.747656C9.44453 0.689062 9.35781 0.65625 9.26641 0.65625H7.19219C7.01875 0.65625 6.93906 0.871875 7.07031 0.984375L15.2781 8.10938H1.5625C1.45937 8.10938 1.375 8.19375 1.375 8.29688V9.70312C1.375 9.80625 1.45937 9.89062 1.5625 9.89062H15.2758L7.06797 17.0156C6.93672 17.1305 7.01641 17.3438 7.18984 17.3438H9.33438C9.37891 17.3438 9.42344 17.3273 9.45625 17.2969L18.3672 9.56719C18.4483 9.49663 18.5134 9.40949 18.558 9.31164C18.6025 9.2138 18.6256 9.10752 18.6256 9C18.6256 8.89248 18.6025 8.7862 18.558 8.68836C18.5134 8.59051 18.4483 8.50337 18.3672 8.43281V8.43281Z" fill="#C41230" stroke="#C41230"/>
</svg>
