<svg width="18" height="18" viewBox="0 0 18 18" fill="none" xmlns="http://www.w3.org/2000/svg">
<path d="M0.632812 8.46699L9.4875 0.781836C9.55547 0.723242 9.64219 0.69043 9.73359 0.69043H11.8078C11.9812 0.69043 12.0609 0.906055 11.9297 1.01855L3.72187 8.14355H17.4375C17.5406 8.14355 17.625 8.22793 17.625 8.33105V9.7373C17.625 9.84043 17.5406 9.9248 17.4375 9.9248H3.72422L11.932 17.0498C12.0633 17.1646 11.9836 17.3779 11.8102 17.3779H9.66562C9.62109 17.3779 9.57656 17.3615 9.54375 17.3311L0.632812 9.60137C0.551675 9.53081 0.486619 9.44367 0.442038 9.34582C0.397457 9.24798 0.374388 9.1417 0.374388 9.03418C0.374388 8.92666 0.397457 8.82038 0.442038 8.72254C0.486619 8.62469 0.551675 8.53755 0.632812 8.46699V8.46699Z" fill="#EBEBEE"/>
</svg>
