<svg width="36" height="34" viewBox="0 0 36 34" fill="none" xmlns="http://www.w3.org/2000/svg">
<path d="M34.7344 15.8656L17.025 0.495312C16.8891 0.378125 16.7156 0.3125 16.5328 0.3125H12.3844C12.0375 0.3125 11.8781 0.74375 12.1406 0.96875L28.5563 15.2188H1.125C0.91875 15.2188 0.75 15.3875 0.75 15.5938V18.4062C0.75 18.6125 0.91875 18.7812 1.125 18.7812H28.5516L12.1359 33.0312C11.8734 33.2609 12.0328 33.6875 12.3797 33.6875H16.6688C16.7578 33.6875 16.8469 33.6547 16.9125 33.5938L34.7344 18.1344C34.8966 17.9933 35.0268 17.819 35.1159 17.6233C35.2051 17.4276 35.2512 17.215 35.2512 17C35.2512 16.785 35.2051 16.5724 35.1159 16.3767C35.0268 16.181 34.8966 16.0067 34.7344 15.8656Z" fill="#828286"/>
</svg>
