<svg width="36" height="34" viewBox="0 0 36 34" fill="none" xmlns="http://www.w3.org/2000/svg">
<path d="M34.7343 15.8656L17.0249 0.495312C16.8889 0.378125 16.7155 0.3125 16.5327 0.3125H12.3843C12.0374 0.3125 11.878 0.74375 12.1405 0.96875L28.5561 15.2188H1.12488C0.918628 15.2188 0.749878 15.3875 0.749878 15.5938V18.4062C0.749878 18.6125 0.918628 18.7812 1.12488 18.7812H28.5514L12.1358 33.0312C11.8733 33.2609 12.0327 33.6875 12.3796 33.6875H16.6686C16.7577 33.6875 16.8468 33.6547 16.9124 33.5938L34.7343 18.1344C34.8965 17.9933 35.0266 17.819 35.1158 17.6233C35.205 17.4276 35.2511 17.215 35.2511 17C35.2511 16.785 35.205 16.5724 35.1158 16.3767C35.0266 16.181 34.8965 16.0067 34.7343 15.8656Z" fill="#4B4748"/>
</svg>
