<svg width="36" height="34" viewBox="0 0 36 34" fill="none" xmlns="http://www.w3.org/2000/svg">
<path d="M1.26562 15.8656L18.975 0.495312C19.1109 0.378125 19.2844 0.3125 19.4672 0.3125H23.6156C23.9625 0.3125 24.1219 0.74375 23.8594 0.96875L7.44375 15.2188H34.875C35.0813 15.2188 35.25 15.3875 35.25 15.5938V18.4062C35.25 18.6125 35.0813 18.7812 34.875 18.7812H7.44844L23.8641 33.0312C24.1266 33.2609 23.9672 33.6875 23.6203 33.6875H19.3312C19.2422 33.6875 19.1531 33.6547 19.0875 33.5938L1.26562 18.1344C1.10335 17.9933 0.973239 17.819 0.884076 17.6233C0.794914 17.4276 0.748775 17.215 0.748775 17C0.748775 16.785 0.794914 16.5724 0.884076 16.3767C0.973239 16.181 1.10335 16.0067 1.26562 15.8656V15.8656Z" fill="white"/>
</svg>
