<svg width="14" height="9" viewBox="0 0 14 9" fill="none" xmlns="http://www.w3.org/2000/svg">
<path d="M0.635559 0.793031C0.823086 0.60556 1.07739 0.500244 1.34256 0.500244C1.60772 0.500244 1.86203 0.60556 2.04955 0.793031L6.99954 5.74303L11.9495 0.793031C12.1381 0.610873 12.3907 0.510078 12.6529 0.512356C12.9151 0.514635 13.1659 0.619804 13.3513 0.805212C13.5367 0.99062 13.6419 1.24143 13.6442 1.50363C13.6465 1.76583 13.5457 2.01843 13.3635 2.20703L7.70654 7.86403C7.51901 8.0515 7.2647 8.15682 6.99954 8.15682C6.73438 8.15682 6.48007 8.0515 6.29254 7.86403L0.635559 2.20703C0.448089 2.0195 0.342773 1.76519 0.342773 1.50003C0.342773 1.23487 0.448089 0.980558 0.635559 0.793031Z" fill="white"/>
</svg>
