<svg width="18" height="18" viewBox="0 0 18 18" fill="none" xmlns="http://www.w3.org/2000/svg">
<path d="M17.3672 8.46699L8.5125 0.781836C8.44453 0.723242 8.35781 0.69043 8.26641 0.69043H6.19219C6.01875 0.69043 5.93906 0.906055 6.07031 1.01855L14.2781 8.14355H0.5625C0.459375 8.14355 0.375 8.22793 0.375 8.33105V9.7373C0.375 9.84043 0.459375 9.9248 0.5625 9.9248H14.2758L6.06797 17.0498C5.93672 17.1646 6.01641 17.3779 6.18984 17.3779H8.33438C8.37891 17.3779 8.42344 17.3615 8.45625 17.3311L17.3672 9.60137C17.4483 9.53081 17.5134 9.44367 17.558 9.34582C17.6025 9.24798 17.6256 9.1417 17.6256 9.03418C17.6256 8.92666 17.6025 8.82038 17.558 8.72254C17.5134 8.62469 17.4483 8.53755 17.3672 8.46699V8.46699Z" fill="white"/>
</svg>
