<svg width="6" height="10" viewBox="0 0 6 10" fill="none" xmlns="http://www.w3.org/2000/svg">
<path d="M0.646447 8.64645C0.451184 8.84171 0.451184 9.15829 0.646447 9.35355C0.841709 9.54882 1.15829 9.54882 1.35355 9.35355L0.646447 8.64645ZM5 5L5.35355 5.35355L5.70711 5L5.35355 4.64645L5 5ZM1.35355 0.646446C1.15829 0.451184 0.841709 0.451184 0.646447 0.646446C0.451184 0.841708 0.451184 1.15829 0.646447 1.35355L1.35355 0.646446ZM1.35355 9.35355L5.35355 5.35355L4.64645 4.64645L0.646447 8.64645L1.35355 9.35355ZM5.35355 4.64645L1.35355 0.646446L0.646447 1.35355L4.64645 5.35355L5.35355 4.64645Z" fill="#1A1B1D"/>
</svg>
