<svg width="21" height="20" viewBox="0 0 21 20" fill="none" xmlns="http://www.w3.org/2000/svg">
<path d="M18.848 11.0817L15.5822 12.93L12.653 10.0192L15.6055 7.08501L18.848 8.92001C19.0394 9.02822 19.1986 9.1853 19.3094 9.3752C19.4201 9.56509 19.4785 9.781 19.4785 10.0008C19.4785 10.2207 19.4201 10.4366 19.3094 10.6265C19.1986 10.8164 19.0394 10.9735 18.848 11.0817ZM1.61384 0.770008C1.552 0.920141 1.52029 1.08097 1.52051 1.24334V18.7575C1.52051 18.9383 1.55801 19.1067 1.62384 19.2575L10.9197 10.0183L1.61384 0.770008ZM11.7863 9.15751L14.5013 6.45918L3.37468 0.162508C3.13618 0.0254543 2.85842 -0.0271037 2.58634 0.0133414L11.7863 9.15751ZM11.7863 10.88L2.61968 19.9908C2.86801 20.0208 3.12968 19.9775 3.37468 19.8383L14.478 13.555L11.7863 10.88Z" fill="white"/>
</svg>
