<svg width="24" height="24" viewBox="0 0 24 24" fill="none" xmlns="http://www.w3.org/2000/svg">
<path d="M22.1482 9.65625H16.1482C16.0451 9.65625 15.9607 9.74062 15.9607 9.84375V10.9688C15.9607 11.0719 16.0451 11.1562 16.1482 11.1562H22.1482C22.2514 11.1562 22.3357 11.0719 22.3357 10.9688V9.84375C22.3357 9.74062 22.2514 9.65625 22.1482 9.65625ZM19.0076 12.8438H16.1482C16.0451 12.8438 15.9607 12.9281 15.9607 13.0312V14.1562C15.9607 14.2594 16.0451 14.3438 16.1482 14.3438H19.0076C19.1107 14.3438 19.1951 14.2594 19.1951 14.1562V13.0312C19.1951 12.9281 19.1107 12.8438 19.0076 12.8438ZM11.1865 7.55859H10.1717C10.0264 7.55859 9.90918 7.67578 9.90918 7.82109V13.6336C9.90918 13.718 9.94902 13.7953 10.017 13.8445L13.5068 16.3898C13.624 16.4742 13.7881 16.4508 13.8725 16.3336L14.4748 15.5109V15.5086C14.5592 15.3914 14.5334 15.2273 14.4162 15.143L11.4467 12.9961V7.82109C11.449 7.67578 11.3295 7.55859 11.1865 7.55859Z" fill="black"/>
<path d="M18.8625 15.7945H17.5078C17.3766 15.7945 17.2523 15.8625 17.182 15.975C16.8844 16.4461 16.5375 16.882 16.1391 17.2805C15.4523 17.9672 14.6531 18.5062 13.7648 18.8812C12.8438 19.2703 11.8664 19.4672 10.8586 19.4672C9.84844 19.4672 8.8711 19.2703 7.95235 18.8812C7.06407 18.5062 6.26485 17.9672 5.57814 17.2805C4.89142 16.5938 4.35236 15.7945 3.97736 14.9063C3.5883 13.9875 3.39142 13.0102 3.39142 12C3.39142 10.9899 3.5883 10.0149 3.97736 9.09376C4.35236 8.20548 4.89142 7.40626 5.57814 6.71955C6.26485 6.03283 7.06407 5.49377 7.95235 5.11877C8.8711 4.7297 9.85079 4.53283 10.8586 4.53283C11.8688 4.53283 12.8461 4.7297 13.7648 5.11877C14.6531 5.49377 15.4523 6.03283 16.1391 6.71955C16.5375 7.11798 16.8844 7.55392 17.182 8.02501C17.2523 8.13751 17.3766 8.20548 17.5078 8.20548H18.8625C19.0242 8.20548 19.1273 8.03673 19.0547 7.89376C17.5266 4.85392 14.4281 2.87814 10.9688 2.8383C5.90392 2.77502 1.69689 6.92111 1.68752 11.9813C1.67814 17.0508 5.78673 21.1641 10.8563 21.1641C14.3602 21.1641 17.5102 19.1812 19.0547 16.1063C19.1273 15.9633 19.0219 15.7945 18.8625 15.7945Z" fill="black"/>
</svg>
