<svg width="48" height="48" viewBox="0 0 48 48" fill="none" xmlns="http://www.w3.org/2000/svg">
<rect width="48" height="48" rx="4" fill="#828286"/>
<path d="M32.5003 13H13.8337C13.5242 13 13.2275 13.1229 13.0087 13.3417C12.7899 13.5605 12.667 13.8572 12.667 14.1667V17.1883C12.667 17.7985 12.9155 18.3982 13.3472 18.8298L19.667 25.1497V34C19.6672 34.1988 19.7182 34.3942 19.815 34.5678C19.9119 34.7413 20.0515 34.8873 20.2205 34.9919C20.3896 35.0964 20.5825 35.1561 20.781 35.1653C20.9796 35.1744 21.1772 35.1327 21.3552 35.0442L26.0218 32.7108C26.4173 32.5125 26.667 32.1088 26.667 31.6667V25.1497L32.9868 18.8298C33.4185 18.3982 33.667 17.7985 33.667 17.1883V14.1667C33.667 13.8572 33.5441 13.5605 33.3253 13.3417C33.1065 13.1229 32.8097 13 32.5003 13ZM24.6755 23.8418C24.5669 23.95 24.4809 24.0785 24.4222 24.2201C24.3635 24.3617 24.3334 24.5134 24.3337 24.6667V30.9457L22.0003 32.1123V24.6667C22.0005 24.5134 21.9705 24.3617 21.9118 24.2201C21.8531 24.0785 21.767 23.95 21.6585 23.8418L15.0003 17.1883V15.3333H31.3348L31.3372 17.1802L24.6755 23.8418Z" fill="white"/>
</svg>
