<svg width="65" height="64" viewBox="0 0 65 64" fill="none" xmlns="http://www.w3.org/2000/svg">
<path d="M19.25 35H30.25V47H6.25V44H22.25C22.7799 43.9984 23.2877 43.7872 23.6625 43.4125C24.0372 43.0377 24.2484 42.5299 24.25 42V40C24.2484 39.4701 24.0372 38.9623 23.6625 38.5875C23.2877 38.2128 22.7799 38.0016 22.25 38H6.25V35H19.25Z" fill="black"/>
<path d="M58.25 51V54H42.25C41.7201 54.0016 41.2123 54.2128 40.8375 54.5875C40.4628 54.9623 40.2516 55.4701 40.25 56V58C40.2516 58.5299 40.4628 59.0377 40.8375 59.4125C41.2123 59.7872 41.7201 59.9984 42.25 60H58.25V63H34.25V51H58.25Z" fill="black"/>
<path d="M24.25 40V42C24.2484 42.5299 24.0372 43.0377 23.6625 43.4125C23.2877 43.7872 22.7799 43.9984 22.25 44H4.25V38H22.25C22.7799 38.0016 23.2877 38.2128 23.6625 38.5875C24.0372 38.9623 24.2484 39.4701 24.25 40Z" fill="#B82126"/>
<path d="M60.25 54V60H42.25C41.7201 59.9984 41.2123 59.7872 40.8375 59.4125C40.4628 59.0377 40.2516 58.5299 40.25 58V56C40.2516 55.4701 40.4628 54.9623 40.8375 54.5875C41.2123 54.2128 41.7201 54.0016 42.25 54H60.25Z" fill="#B82126"/>
<path d="M18.25 16H34.25V17L34.26 17.1C33.1288 17.3285 32.1115 17.9413 31.3806 18.8344C30.6497 19.7275 30.2502 20.8459 30.25 22V35H19.25V29C19.25 24 10.25 20 10.25 20H14.25C15.3109 20 16.3283 19.5786 17.0784 18.8284C17.8286 18.0783 18.25 17.0609 18.25 16Z" fill="#85181C"/>
<path d="M50.25 36H54.25C54.25 36 45.25 40 45.25 45V51H34.25L30.25 47V32H46.25C46.25 33.0609 46.6714 34.0783 47.4216 34.8284C48.1717 35.5786 49.1891 36 50.25 36Z" fill="#85181C"/>
<path d="M34.25 6V16H18.25V13C18.2484 12.4701 18.0372 11.9623 17.6625 11.5875C17.2877 11.2128 16.7799 11.0016 16.25 11H7.25C2.25 11 2.25 16 2.25 16V6C2.25 4.67392 2.77678 3.40215 3.71447 2.46447C4.65215 1.52678 5.92392 1 7.25 1H29.25C29.9066 1 30.5568 1.12933 31.1634 1.3806C31.77 1.63188 32.3212 2.00017 32.7855 2.46447C33.2498 2.92876 33.6181 3.47995 33.8694 4.08658C34.1207 4.69321 34.25 5.34339 34.25 6Z" fill="#B82126"/>
<path d="M18.25 13V16C18.25 17.0609 17.8286 18.0783 17.0784 18.8284C16.3283 19.5786 15.3109 20 14.25 20H10.25C10.25 20 19.25 24 19.25 29V35H6.25L2.25 31V16C2.25 16 2.25 11 7.25 11H16.25C16.7799 11.0016 17.2877 11.2128 17.6625 11.5875C18.0372 11.9623 18.2484 12.4701 18.25 13Z" fill="#B82126"/>
<path d="M62.25 32V47L58.25 51H45.25V45C45.25 40 54.25 36 54.25 36H50.25C49.1891 36 48.1717 35.5786 47.4216 34.8284C46.6714 34.0783 46.25 33.0609 46.25 32V29C46.2516 28.4701 46.4628 27.9623 46.8375 27.5875C47.2123 27.2128 47.7201 27.0016 48.25 27H57.25C62.25 27 62.25 32 62.25 32Z" fill="#B82126"/>
<path d="M62.25 22V32C62.25 32 62.25 27 57.25 27H48.25C47.7201 27.0016 47.2123 27.2128 46.8375 27.5875C46.4628 27.9623 46.2516 28.4701 46.25 29V32H30.25V22C30.2502 20.8459 30.6497 19.7275 31.3806 18.8344C32.1115 17.9413 33.1288 17.3285 34.26 17.1C34.5854 17.0311 34.9174 16.9976 35.25 17H57.25C58.5761 17 59.8479 17.5268 60.7855 18.4645C61.7232 19.4021 62.25 20.6739 62.25 22Z" fill="#B82126"/>
<path d="M57.25 27H48.25C47.7201 27.0016 47.2123 27.2128 46.8375 27.5875C46.4628 27.9623 46.2516 28.4701 46.25 29V32C46.25 33.0609 46.6714 34.0783 47.4216 34.8284C48.1717 35.5786 49.1891 36 50.25 36H51.25C50.4544 36 49.6913 35.6839 49.1287 35.1213C48.5661 34.5587 48.25 33.7956 48.25 33V32C48.25 31.4696 48.4607 30.9609 48.8358 30.5858C49.2109 30.2107 49.7196 30 50.25 30H57.25C57.7804 30 58.2891 30.2107 58.6642 30.5858C59.0393 30.9609 59.25 31.4696 59.25 32V47C58.6098 47.6403 58.2501 48.5086 58.25 49.414V51L62.25 47V32C62.25 32 62.25 27 57.25 27Z" fill="#E0282E"/>
<path d="M57.25 17H35.25C34.9174 16.9976 34.5854 17.0311 34.26 17.1C33.2991 17.296 32.4171 17.7702 31.7236 18.4636C31.0302 19.1571 30.556 20.0391 30.36 21H56.25C56.7804 21 57.2891 21.2107 57.6642 21.5858C58.0393 21.9609 58.25 22.4696 58.25 23V27.081C62.243 27.7 62.25 32 62.25 32V22C62.25 20.6739 61.7232 19.4021 60.7855 18.4645C59.8479 17.5268 58.5761 17 57.25 17Z" fill="#E0282E"/>
<path d="M58.25 25H47.25C46.4544 25 45.6913 25.3161 45.1287 25.8787C44.5661 26.4413 44.25 27.2044 44.25 28C44.25 28.2652 44.1446 28.5196 43.9571 28.7071C43.7696 28.8946 43.5152 29 43.25 29H30.25V32H46.25V29C46.2516 28.4701 46.4628 27.9623 46.8375 27.5875C47.2123 27.2128 47.7201 27.0016 48.25 27H57.25C62.25 27 62.25 32 62.25 32V29C62.25 27.9391 61.8286 26.9217 61.0784 26.1716C60.3283 25.4214 59.3109 25 58.25 25Z" fill="#9A1C20"/>
<path d="M50.25 36C49.1891 36 48.1717 35.5786 47.4216 34.8284C46.6714 34.0783 46.25 33.0609 46.25 32H30.25V35H41.082C42.2349 35.0177 43.3368 35.4786 44.159 36.287L44.171 36.299C44.28 36.4029 44.3651 36.5294 44.4203 36.6695C44.4755 36.8097 44.4996 36.9602 44.4907 37.1106C44.4819 37.2609 44.4404 37.4076 44.3691 37.5403C44.2978 37.673 44.1985 37.7886 44.078 37.879L43.65 38.2C42.9048 38.7589 42.3 39.4836 41.8834 40.3167C41.4669 41.1499 41.25 42.0685 41.25 43V44C41.25 44.7956 40.9339 45.5587 40.3713 46.1213C39.8087 46.6839 39.0456 47 38.25 47H30.25L34.25 51H45.25V45C45.25 40 54.25 36 54.25 36H50.25Z" fill="#741213"/>
<path d="M30.25 31H26.25C25.4544 31 24.6913 30.6839 24.1287 30.1213C23.5661 29.5587 23.25 28.7956 23.25 28V27C23.25 26.0685 23.0331 25.1499 22.6166 24.3167C22.2 23.4836 21.5952 22.7589 20.85 22.2L20.422 21.879C20.3015 21.7886 20.2022 21.673 20.1309 21.5403C20.0596 21.4076 20.0181 21.2609 20.0093 21.1106C20.0004 20.9602 20.0245 20.8097 20.0797 20.6695C20.1349 20.5294 20.22 20.4029 20.329 20.299L20.341 20.287C21.1632 19.4786 22.2651 19.0177 23.418 19H31.268C31.9965 18.0236 33.0572 17.3477 34.25 17.1V16H18.25C18.25 17.0609 17.8286 18.0783 17.0784 18.8284C16.3283 19.5786 15.3109 20 14.25 20H10.25C10.25 20 19.25 24 19.25 29V35H30.25V31Z" fill="#741213"/>
<path d="M27.268 19C26.6095 19.8616 26.2518 20.9155 26.25 22V31H30.25V22C30.2523 20.9156 30.6099 19.8619 31.268 19H27.268Z" fill="#741213"/>
<path d="M30.25 32V31H26.25V32V35H30.25V32Z" fill="#5E0F0F"/>
<path d="M30.26 17.1C29.0636 17.3453 27.9988 18.0215 27.268 19H31.268C31.6191 18.5329 32.0493 18.1308 32.539 17.812C32.554 17.803 32.567 17.791 32.581 17.782C32.8044 17.6422 33.0385 17.5202 33.281 17.417C33.317 17.402 33.35 17.38 33.387 17.365C33.6661 17.2509 33.9549 17.1622 34.25 17.1V17H31.25C30.9174 16.9976 30.5854 17.0311 30.26 17.1Z" fill="#5E0F0F"/>
<path d="M59.25 47H45.25V51H58.25V49.414C58.2501 48.5086 58.6098 47.6403 59.25 47Z" fill="#9A1C20"/>
<path d="M7.25 11H16.25C16.7799 11.0016 17.2877 11.2128 17.6625 11.5875C18.0372 11.9623 18.2484 12.4701 18.25 13V16C18.25 17.0609 17.8286 18.0783 17.0784 18.8284C16.3283 19.5786 15.3109 20 14.25 20H13.25C14.0456 20 14.8087 19.6839 15.3713 19.1213C15.9339 18.5587 16.25 17.7956 16.25 17V16C16.25 15.4696 16.0393 14.9609 15.6642 14.5858C15.2891 14.2107 14.7804 14 14.25 14H7.25C6.71957 14 6.21086 14.2107 5.83579 14.5858C5.46071 14.9609 5.25 15.4696 5.25 16V31C5.89016 31.6403 6.24986 32.5086 6.25 33.414V35L2.25 31V16C2.25 16 2.25 11 7.25 11Z" fill="#E0282E"/>
<path d="M5.25 31H19.25V35H6.25V33.414C6.24986 32.5086 5.89016 31.6403 5.25 31Z" fill="#9A1C20"/>
<path d="M2.25 27.5C2.25 28.3284 2.92157 29 3.75 29C4.57843 29 5.25 28.3284 5.25 27.5L5.25 18.5C5.25 17.6716 4.57843 17 3.75 17C2.92157 17 2.25 17.6716 2.25 18.5L2.25 27.5Z" fill="#F52C32"/>
<path d="M7.25 0.999999H29.25C29.5826 0.997587 29.9146 1.03111 30.24 1.1C31.2009 1.29597 32.0829 1.77018 32.7764 2.46362C33.4698 3.15706 33.944 4.03911 34.14 5H8.25C7.71957 5 7.21086 5.21071 6.83579 5.58579C6.46071 5.96086 6.25 6.46957 6.25 7V11.081C2.257 11.7 2.25 16 2.25 16V6C2.25 4.67392 2.77678 3.40215 3.71447 2.46447C4.65215 1.52678 5.92392 0.999999 7.25 0.999999Z" fill="#E0282E"/>
<path d="M6.25 9H17.25C18.0456 9 18.8087 9.31607 19.3713 9.87868C19.9339 10.4413 20.25 11.2044 20.25 12C20.25 12.2652 20.3554 12.5196 20.5429 12.7071C20.7304 12.8946 20.9848 13 21.25 13H34.25V16H18.25V13C18.2484 12.4701 18.0372 11.9623 17.6625 11.5875C17.2877 11.2128 16.7799 11.0016 16.25 11H7.25C2.25 11 2.25 16 2.25 16V13C2.25 11.9391 2.67143 10.9217 3.42157 10.1716C4.17172 9.42143 5.18913 9 6.25 9Z" fill="#9A1C20"/>
<path d="M42.25 60C41.7201 59.9984 41.2123 59.7872 40.8375 59.4125C40.4628 59.0377 40.2516 58.5299 40.25 58V60C40.2516 60.5299 40.4628 61.0377 40.8375 61.4125C41.2123 61.7872 41.7201 61.9984 42.25 62H58.25V60H42.25Z" fill="#1A1B1D"/>
<path d="M58.25 51H34.25V63H38.25V57C38.25 55.9391 38.6714 54.9217 39.4216 54.1716C40.1717 53.4214 41.1891 53 42.25 53H58.25V51Z" fill="#1A1B1D"/>
<path d="M22.25 44C22.7799 43.9984 23.2877 43.7872 23.6625 43.4125C24.0372 43.0377 24.2484 42.5299 24.25 42V44C24.2484 44.5299 24.0372 45.0377 23.6625 45.4125C23.2877 45.7872 22.7799 45.9984 22.25 46H6.25V44H22.25Z" fill="#1A1B1D"/>
<path d="M6.25 35H30.25V47H26.25V41C26.25 39.9391 25.8286 38.9217 25.0784 38.1716C24.3283 37.4214 23.3109 37 22.25 37H6.25V35Z" fill="#1A1B1D"/>
<path d="M62.25 34.5C62.25 33.6716 61.5784 33 60.75 33C59.9216 33 59.25 33.6716 59.25 34.5V43.5C59.25 44.3284 59.9216 45 60.75 45C61.5784 45 62.25 44.3284 62.25 43.5V34.5Z" fill="#F52C32"/>
<path d="M39.25 17H37.25C36.1454 17 35.25 17.8954 35.25 19C35.25 20.1046 36.1454 21 37.25 21H39.25C40.3546 21 41.25 20.1046 41.25 19C41.25 17.8954 40.3546 17 39.25 17Z" fill="#F52C32"/>
<path d="M53.25 17H44.25C43.1454 17 42.25 17.8954 42.25 19C42.25 20.1046 43.1454 21 44.25 21H53.25C54.3546 21 55.25 20.1046 55.25 19C55.25 17.8954 54.3546 17 53.25 17Z" fill="#F52C32"/>
<path d="M25.25 5L27.25 5C28.3546 5 29.25 4.10457 29.25 3C29.25 1.89543 28.3546 1 27.25 1H25.25C24.1454 1 23.25 1.89543 23.25 3C23.25 4.10457 24.1454 5 25.25 5Z" fill="#F52C32"/>
<path d="M11.25 5L20.25 5C21.3546 5 22.25 4.10457 22.25 3C22.25 1.89543 21.3546 1 20.25 1L11.25 1C10.1454 1 9.25 1.89543 9.25 3C9.25 4.10457 10.1454 5 11.25 5Z" fill="#F52C32"/>
<path d="M57.5513 44.31C58.1923 43.6686 57.988 42.4251 57.0949 41.5327C56.2019 40.6403 54.9583 40.4368 54.3172 41.0783C53.6762 41.7197 53.8805 42.9632 54.7736 43.8556C55.6666 44.7481 56.9102 44.9515 57.5513 44.31Z" fill="#F6FAFD"/>
<path d="M52.744 44.5185C53.0661 44.1962 52.9636 43.5716 52.5151 43.1235C52.0666 42.6753 51.442 42.5733 51.1199 42.8956C50.7978 43.2179 50.9003 43.8424 51.3488 44.2906C51.7973 44.7388 52.4219 44.8408 52.744 44.5185Z" fill="#F6FAFD"/>
<path d="M60.25 54H57.25V60H60.25V54Z" fill="#E0282E"/>
<path d="M43.25 58C43.8023 58 44.25 57.5523 44.25 57C44.25 56.4477 43.8023 56 43.25 56C42.6977 56 42.25 56.4477 42.25 57C42.25 57.5523 42.6977 58 43.25 58Z" fill="black"/>
<path d="M4.25 44H7.25L7.25 38H4.25L4.25 44Z" fill="#E0282E"/>
<path d="M21.25 42C21.8023 42 22.25 41.5523 22.25 41C22.25 40.4477 21.8023 40 21.25 40C20.6977 40 20.25 40.4477 20.25 41C20.25 41.5523 20.6977 42 21.25 42Z" fill="black"/>
<path d="M62.25 44V47L58.25 51H34.25L30.25 47V22C30.25 20.6739 30.7768 19.4021 31.7145 18.4645C32.6521 17.5268 33.9239 17 35.25 17H57.25C58.5761 17 59.8479 17.5268 60.7855 18.4645C61.7232 19.4021 62.25 20.6739 62.25 22V42" stroke="white" stroke-width="2" stroke-linejoin="round"/>
<path d="M34.25 51V63H58.25V60" stroke="white" stroke-width="2" stroke-linejoin="round"/>
<path d="M42.25 54H60.25V60H42.25C41.7196 60 41.2109 59.7893 40.8358 59.4142C40.4607 59.0391 40.25 58.5304 40.25 58V56C40.25 55.4696 40.4607 54.9609 40.8358 54.5858C41.2109 54.2107 41.7196 54 42.25 54Z" stroke="white" stroke-width="2" stroke-linejoin="round"/>
<path d="M58.25 51V54" stroke="white" stroke-width="2" stroke-linejoin="round"/>
<path d="M62.25 32C62.25 32 62.25 27 57.25 27H48.25C47.7196 27 47.2109 27.2107 46.8358 27.5858C46.4607 27.9609 46.25 28.4696 46.25 29V32C46.25 33.0609 46.6714 34.0783 47.4216 34.8284C48.1717 35.5786 49.1891 36 50.25 36H54.25C54.25 36 45.25 40 45.25 45" stroke="white" stroke-width="2" stroke-linejoin="round"/>
<path d="M30.25 32H43.25" stroke="white" stroke-width="2" stroke-linejoin="round"/>
<path d="M27.25 35H6.25L2.25 31V6C2.25 4.67392 2.77678 3.40215 3.71447 2.46447C4.65215 1.52678 5.92392 1 7.25 1H29.25C29.9066 1 30.5568 1.12933 31.1634 1.3806C31.77 1.63188 32.3212 2.00017 32.7855 2.46447C33.2498 2.92876 33.6181 3.47995 33.8694 4.08658C34.1207 4.69321 34.25 5.34339 34.25 6V14" stroke="white" stroke-width="2" stroke-linejoin="round"/>
<path d="M27.25 47H6.25V44" stroke="white" stroke-width="2" stroke-linejoin="round"/>
<path d="M22.25 44H4.25V38H22.25C22.7804 38 23.2891 38.2107 23.6642 38.5858C24.0393 38.9609 24.25 39.4696 24.25 40V42C24.25 42.5304 24.0393 43.0391 23.6642 43.4142C23.2891 43.7893 22.7804 44 22.25 44V44Z" stroke="white" stroke-width="2" stroke-linejoin="round"/>
<path d="M6.25 35V38" stroke="white" stroke-width="2" stroke-linejoin="round"/>
<path d="M2.25 16C2.25 16 2.25 11 7.25 11H16.25C16.7804 11 17.2891 11.2107 17.6642 11.5858C18.0393 11.9609 18.25 12.4696 18.25 13V16C18.25 17.0609 17.8286 18.0783 17.0784 18.8284C16.3283 19.5786 15.3109 20 14.25 20H10.25C10.25 20 19.25 24 19.25 29" stroke="white" stroke-width="2" stroke-linejoin="round"/>
<path d="M26.25 16H18.25" stroke="white" stroke-width="2" stroke-linejoin="round"/>
<path d="M30.25 16H28.25" stroke="white" stroke-width="2" stroke-linejoin="round"/>
</svg>
