<svg width="64" height="64" viewBox="0 0 64 64" fill="none" xmlns="http://www.w3.org/2000/svg">
<path d="M43 58C43.5523 58 44 57.5523 44 57C44 56.4477 43.5523 56 43 56C42.4477 56 42 56.4477 42 57C42 57.5523 42.4477 58 43 58Z" fill="white"/>
<path d="M21 42C21.5523 42 22 41.5523 22 41C22 40.4477 21.5523 40 21 40C20.4477 40 20 40.4477 20 41C20 41.5523 20.4477 42 21 42Z" fill="white"/>
<path d="M62 44V47L58 51H34L30 47V22C30 20.6739 30.5268 19.4021 31.4645 18.4645C32.4021 17.5268 33.6739 17 35 17H57C58.3261 17 59.5979 17.5268 60.5355 18.4645C61.4732 19.4021 62 20.6739 62 22V42" stroke="white" stroke-width="2" stroke-linejoin="round"/>
<path d="M34 51V63H58V60" stroke="white" stroke-width="2" stroke-linejoin="round"/>
<path d="M42 54H60V60H42C41.4696 60 40.9609 59.7893 40.5858 59.4142C40.2107 59.0391 40 58.5304 40 58V56C40 55.4696 40.2107 54.9609 40.5858 54.5858C40.9609 54.2107 41.4696 54 42 54Z" stroke="white" stroke-width="2" stroke-linejoin="round"/>
<path d="M58 51V54" stroke="white" stroke-width="2" stroke-linejoin="round"/>
<path d="M62 32C62 32 62 27 57 27H48C47.4696 27 46.9609 27.2107 46.5858 27.5858C46.2107 27.9609 46 28.4696 46 29V32C46 33.0609 46.4214 34.0783 47.1716 34.8284C47.9217 35.5786 48.9391 36 50 36H54C54 36 45 40 45 45" stroke="white" stroke-width="2" stroke-linejoin="round"/>
<path d="M30 32H43" stroke="white" stroke-width="2" stroke-linejoin="round"/>
<path d="M27 35H6L2 31V6C2 4.67392 2.52678 3.40215 3.46447 2.46447C4.40215 1.52678 5.67392 1 7 1H29C29.6566 1 30.3068 1.12933 30.9134 1.3806C31.52 1.63188 32.0712 2.00017 32.5355 2.46447C32.9998 2.92876 33.3681 3.47995 33.6194 4.08658C33.8707 4.69321 34 5.34339 34 6V14" stroke="white" stroke-width="2" stroke-linejoin="round"/>
<path d="M27 47H6V44" stroke="white" stroke-width="2" stroke-linejoin="round"/>
<path d="M22 44H4V38H22C22.5304 38 23.0391 38.2107 23.4142 38.5858C23.7893 38.9609 24 39.4696 24 40V42C24 42.5304 23.7893 43.0391 23.4142 43.4142C23.0391 43.7893 22.5304 44 22 44V44Z" stroke="white" stroke-width="2" stroke-linejoin="round"/>
<path d="M6 35V38" stroke="white" stroke-width="2" stroke-linejoin="round"/>
<path d="M2 16C2 16 2 11 7 11H16C16.5304 11 17.0391 11.2107 17.4142 11.5858C17.7893 11.9609 18 12.4696 18 13V16C18 17.0609 17.5786 18.0783 16.8284 18.8284C16.0783 19.5786 15.0609 20 14 20H10C10 20 19 24 19 29" stroke="white" stroke-width="2" stroke-linejoin="round"/>
<path d="M26 16H18" stroke="white" stroke-width="2" stroke-linejoin="round"/>
<path d="M30 16H28" stroke="white" stroke-width="2" stroke-linejoin="round"/>
</svg>
