<svg width="64" height="64" viewBox="0 0 64 64" fill="none" xmlns="http://www.w3.org/2000/svg">
<path d="M7.33333 36.3906L5.444 38.276C6.94543 39.7734 8.97944 40.6144 11.1 40.6144C13.2206 40.6144 15.2546 39.7734 16.756 38.276L14.8707 36.3906C13.8707 37.3892 12.5152 37.9502 11.102 37.9502C9.68877 37.9502 8.33332 37.3892 7.33333 36.3906Z" fill="white"/>
<path d="M56.6667 47.6093L58.552 45.7239C57.0507 44.2261 55.0167 43.3849 52.896 43.3849C50.7753 43.3849 48.7412 44.2261 47.24 45.7239C46.2398 46.7238 44.8835 47.2855 43.4693 47.2855C42.0551 47.2855 40.6988 46.7238 39.6987 45.7239L37.8133 47.6093C39.3135 49.109 41.348 49.9516 43.4693 49.9516C45.5906 49.9516 47.6251 49.109 49.1253 47.6093C50.1255 46.6094 51.4818 46.0477 52.896 46.0477C54.3102 46.0477 55.6665 46.6094 56.6667 47.6093Z" fill="white"/>
<path d="M18.964 28.944C19.9875 29.9606 21.2669 30.6816 22.6667 31.0306V33.3333H25.3333V30.6666H38.6667V33.3333H41.3333V30.9973C42.6977 31.3815 44.1401 31.3936 45.5107 31.0323C46.8813 30.671 48.1303 29.9495 49.128 28.9426C50.1282 27.9428 51.4845 27.3811 52.8987 27.3811C54.3129 27.3811 55.6692 27.9428 56.6693 28.9426L58.5547 27.0573C57.0534 25.5595 55.0193 24.7183 52.8987 24.7183C50.778 24.7183 48.7439 25.5595 47.2427 27.0573C46.486 27.8192 45.5151 28.3324 44.4594 28.5287C43.4037 28.725 42.3133 28.595 41.3333 28.156V20H58.6667V17.3333H41.3333V13.3333C41.3333 12.2724 41.7548 11.255 42.5049 10.5049C43.2551 9.75472 44.2725 9.33329 45.3333 9.33329C46.3942 9.33329 47.4116 9.75472 48.1618 10.5049C48.9119 11.255 49.3333 12.2724 49.3333 13.3333H52C52 11.5652 51.2976 9.86949 50.0474 8.61925C48.7971 7.369 47.1014 6.66663 45.3333 6.66663C43.5652 6.66663 41.8695 7.369 40.6193 8.61925C39.369 9.86949 38.6667 11.5652 38.6667 13.3333V17.3333H36V20H38.6667V22.6666H25.3333V20H33.3333V17.3333H25.3333V13.3333C25.3333 12.2724 25.7548 11.255 26.5049 10.5049C27.2551 9.75472 28.2725 9.33329 29.3333 9.33329C30.3942 9.33329 31.4116 9.75472 32.1618 10.5049C32.9119 11.255 33.3333 12.2724 33.3333 13.3333H36C36 11.5652 35.2976 9.86949 34.0474 8.61925C32.7971 7.369 31.1014 6.66663 29.3333 6.66663C27.5652 6.66663 25.8695 7.369 24.6193 8.61925C23.369 9.86949 22.6667 11.5652 22.6667 13.3333V17.3333H5.33333V20H22.6667V28.2333C21.986 27.9708 21.3671 27.5699 20.8493 27.056C19.3492 25.5566 17.315 24.7143 15.194 24.7143C13.073 24.7143 11.0388 25.5566 9.53867 27.056C8.64372 27.9478 7.45985 28.4911 6.20008 28.5879C4.94031 28.6846 3.68736 28.3287 2.66667 27.584V17.3333H0V54.6666C0 55.0202 0.140476 55.3594 0.390524 55.6094C0.640573 55.8595 0.979711 56 1.33333 56H62.6667C63.0203 56 63.3594 55.8595 63.6095 55.6094C63.8595 55.3594 64 55.0202 64 54.6666V17.3333H61.3333V34.7066C59.8723 34.0822 58.258 33.9088 56.6977 34.2089C55.1374 34.509 53.7025 35.2688 52.5773 36.3906C51.5772 37.3905 50.2209 37.9522 48.8067 37.9522C47.3925 37.9522 46.0361 37.3905 45.036 36.3906C43.5329 34.8964 41.4995 34.0577 39.38 34.0577C37.2605 34.0577 35.2271 34.8964 33.724 36.3906C32.7239 37.3905 31.3675 37.9522 29.9533 37.9522C28.5391 37.9522 27.1828 37.3905 26.1827 36.3906L24.2973 38.276C25.7988 39.7734 27.8328 40.6144 29.9533 40.6144C32.0739 40.6144 34.1079 39.7734 35.6093 38.276C36.6125 37.2839 37.9665 36.7275 39.3773 36.7275C40.7882 36.7275 42.1422 37.2839 43.1453 38.276C44.6456 39.7757 46.68 40.6182 48.8013 40.6182C50.9226 40.6182 52.9571 39.7757 54.4573 38.276C55.3525 37.383 56.5373 36.8392 57.7981 36.7426C59.0588 36.6461 60.3126 37.0031 61.3333 37.7493V53.3333H2.66667V49.3013C4.12684 49.9335 5.74386 50.1103 7.30614 49.8084C8.86841 49.5065 10.3032 48.74 11.4227 47.6093C12.4228 46.6094 13.7791 46.0478 15.1933 46.0478C16.6075 46.0478 17.9639 46.6094 18.964 47.6093C20.4654 49.1068 22.4994 49.9477 24.62 49.9477C26.7406 49.9477 28.7746 49.1068 30.276 47.6093L28.3907 45.724C27.3905 46.7238 26.0342 47.2855 24.62 47.2855C23.2058 47.2855 21.8495 46.7238 20.8493 45.724C19.3491 44.2242 17.3146 43.3817 15.1933 43.3817C13.072 43.3817 11.0376 44.2242 9.53733 45.724C8.64314 46.6163 7.45987 47.1603 6.20038 47.258C4.9409 47.3558 3.68786 47.001 2.66667 46.2573V30.6346C4.12684 31.2669 5.74386 31.4436 7.30614 31.1417C8.86841 30.8398 10.3032 30.0734 11.4227 28.9426C12.4228 27.9428 13.7791 27.3811 15.1933 27.3811C16.6075 27.3811 17.9639 27.9441 18.964 28.944ZM38.6667 28H25.3333V25.3333H38.6667V28Z" fill="white"/>
</svg>
