<svg width="64" height="64" viewBox="0 0 64 64" fill="none" xmlns="http://www.w3.org/2000/svg">
<g clip-path="url(#clip0_296_8149)">
<path d="M0 25.3333V36C0 36.7072 0.280952 37.3855 0.781049 37.8856C1.28115 38.3857 1.95942 38.6666 2.66667 38.6666H4V36H2.66667V25.3333H4V22.6666H2.66667C1.95942 22.6666 1.28115 22.9476 0.781049 23.4477C0.280952 23.9478 0 24.626 0 25.3333H0Z" fill="white"/>
<path d="M61.3333 22.6666H60V25.3333H61.3333V36H60V38.6666H61.3333C62.0406 38.6666 62.7189 38.3857 63.219 37.8856C63.7191 37.3855 64 36.7072 64 36V25.3333C64 24.626 63.7191 23.9478 63.219 23.4477C62.7189 22.9476 62.0406 22.6666 61.3333 22.6666Z" fill="white"/>
<path d="M56 16H53.3333V13.3333C53.3333 12.626 53.0524 11.9478 52.5523 11.4477C52.0522 10.9476 51.3739 10.6666 50.6667 10.6666H45.3333C44.9798 10.6667 44.6407 10.8072 44.3907 11.0573L43.0573 12.3906C42.8073 12.6406 42.6668 12.9797 42.6667 13.3333V25.3333H21.3333V13.3333C21.3333 12.9797 21.1927 12.6406 20.9427 12.3906L19.6093 11.0573C19.3594 10.8072 19.0203 10.6667 18.6667 10.6666H13.3333C12.6261 10.6666 11.9478 10.9476 11.4477 11.4477C10.9476 11.9478 10.6667 12.626 10.6667 13.3333V16H8.00001C7.29277 16 6.61449 16.2809 6.11439 16.781C5.61429 17.2811 5.33334 17.9594 5.33334 18.6666V42.6666C5.33334 43.3739 5.61429 44.0522 6.11439 44.5522C6.61449 45.0523 7.29277 45.3333 8.00001 45.3333H10.6667V48C10.6667 48.7072 10.9476 49.3855 11.4477 49.8856C11.9478 50.3857 12.6261 50.6666 13.3333 50.6666H18.6667C19.0203 50.6666 19.3594 50.526 19.6093 50.276L20.9427 48.9426C21.1927 48.6926 21.3333 48.3536 21.3333 48V36H42.6667V48C42.6668 48.3536 42.8073 48.6926 43.0573 48.9426L44.3907 50.276C44.6407 50.526 44.9798 50.6666 45.3333 50.6666H50.6667C51.3739 50.6666 52.0522 50.3857 52.5523 49.8856C53.0524 49.3855 53.3333 48.7072 53.3333 48V45.3333H56C56.7073 45.3333 57.3855 45.0523 57.8856 44.5522C58.3857 44.0522 58.6667 43.3739 58.6667 42.6666V18.6666C58.6667 17.9594 58.3857 17.2811 57.8856 16.781C57.3855 16.2809 56.7073 16 56 16ZM18.6667 47.448L18.1147 48H13.3333V44C13.3333 43.6463 13.1929 43.3072 12.9428 43.0572C12.6928 42.8071 12.3536 42.6666 12 42.6666H8.00001V18.6666H10.6667V33.3333H13.3333V13.3333H18.1147L18.6667 13.8853V47.448ZM21.3333 28H42.6667V33.3333H21.3333V28ZM56 42.6666H53.3333V28H50.6667V48H45.8853L45.3333 47.448V13.8853L45.8853 13.3333H50.6667V17.3333C50.6667 17.6869 50.8072 18.0261 51.0572 18.2761C51.3073 18.5262 51.6464 18.6666 52 18.6666H56V42.6666Z" fill="white"/>
<path d="M53.3333 22.6666H50.6667V25.3333H53.3333V22.6666Z" fill="white"/>
<path d="M13.3333 36H10.6667V38.6667H13.3333V36Z" fill="white"/>
</g>
<defs>
<clipPath id="clip0_296_8149">
<rect width="64" height="64" fill="white"/>
</clipPath>
</defs>
</svg>
