<svg width="65" height="65" viewBox="0 0 65 65" fill="none" xmlns="http://www.w3.org/2000/svg">
<g clip-path="url(#clip0_238_9408)">
<path d="M63.5 59.9985H1.5V63.9985H63.5V59.9985Z" fill="#7A828B"/>
<path d="M63.5 61.9985H1.5V63.9985H63.5V61.9985Z" fill="#414952"/>
<path d="M39.5001 4.99854V9.99854L36.5001 7.99854C36.3606 7.80718 36.2068 7.62667 36.0401 7.45854C35.403 6.82785 34.6089 6.37901 33.7401 6.15854C33.5793 5.79308 33.4975 5.39779 33.5001 4.99854C33.5001 4.20289 33.8161 3.43982 34.3787 2.87721C34.9413 2.31461 35.7044 1.99854 36.5001 1.99854C37.2957 1.99854 38.0588 2.31461 38.6214 2.87721C39.184 3.43982 39.5001 4.20289 39.5001 4.99854Z" fill="#B82126"/>
<path d="M25.2695 35.3485L23.0695 38.6485L18.7695 35.2185L21.4995 24.9985L30.4995 22.9985L32.4995 24.9985L34.4995 22.9985L43.4995 24.9985L46.2295 35.2185L41.9295 38.6485L39.7295 35.3485C39.0992 36.4795 38.6823 37.7167 38.4995 38.9985H26.4995C26.3168 37.7167 25.8998 36.4795 25.2695 35.3485Z" fill="#E0282E"/>
<path d="M21.4995 26.9985L30.4995 24.9985L32.4995 26.9985L34.4995 24.9985L43.4995 26.9985L45.7895 35.5695L46.2295 35.2185L43.4995 24.9985L34.4995 22.9985L32.4995 24.9985L30.4995 22.9985L21.4995 24.9985L18.7695 35.2185L19.2095 35.5695L21.4995 26.9985Z" fill="#F9686C"/>
<path d="M36.5 59.9985H28.5C29.0255 59.9992 29.5459 59.8962 30.0315 59.6954C30.5171 59.4946 30.9583 59.2 31.3299 58.8284C31.7015 58.4569 31.9961 58.0156 32.1969 57.53C32.3976 57.0444 32.5007 56.524 32.5 55.9985C32.5 57.0594 32.9214 58.0768 33.6716 58.827C34.4217 59.5771 35.4391 59.9985 36.5 59.9985Z" fill="#B82126"/>
<path d="M26.5002 51.9985V59.9985H14.5002C13.7086 59.9992 12.9347 59.7649 12.2763 59.3254C11.6179 58.8859 11.1047 58.261 10.8017 57.5297C10.4987 56.7984 10.4195 55.9936 10.5741 55.2173C10.7287 54.441 11.1102 53.728 11.6702 53.1685C11.9472 52.8971 12.2601 52.6649 12.6002 52.4785C13.1844 52.1645 13.837 51.9996 14.5002 51.9985H26.5002Z" fill="#B82126"/>
<path d="M52.05 52.3185C52.7763 52.6212 53.3966 53.1323 53.8326 53.7873C54.2687 54.4423 54.5009 55.2117 54.5 55.9985C54.5007 56.524 54.3976 57.0444 54.1969 57.53C53.9961 58.0156 53.7015 58.4569 53.3299 58.8284C52.9583 59.2 52.5171 59.4946 52.0315 59.6954C51.5459 59.8962 51.0255 59.9992 50.5 59.9985H38.5V51.9985H50.5C51.0334 51.9952 51.5615 52.1043 52.05 52.3185Z" fill="#B82126"/>
<path d="M39.5 46.9985L40.5 51.9985H36.5C35.9745 51.9979 35.4541 52.1009 34.9685 52.3017C34.4829 52.5025 34.0417 52.7971 33.6701 53.1686C33.2985 53.5402 33.0039 53.9814 32.8031 54.467C32.6024 54.9526 32.4993 55.4731 32.5 55.9985C32.5 54.9377 32.0786 53.9203 31.3284 53.1701C30.5783 52.42 29.5609 51.9985 28.5 51.9985H24.5L25.5 46.9985H39.5Z" fill="#B82126"/>
<path d="M28.5 51.9985C29.5609 51.9985 30.5783 52.42 31.3284 53.1701C32.0786 53.9203 32.5 54.9377 32.5 55.9985C32.5 57.0594 32.0786 58.0768 31.3284 58.827C30.5783 59.5771 29.5609 59.9985 28.5 59.9985H26.5V51.9985H28.5Z" fill="#1A1B1D"/>
<path d="M38.5 51.9985V59.9985H36.5C35.4391 59.9985 34.4217 59.5771 33.6716 58.827C32.9214 58.0768 32.5 57.0594 32.5 55.9985C32.5 54.9377 32.9214 53.9203 33.6716 53.1701C34.4217 52.42 35.4391 51.9985 36.5 51.9985H38.5Z" fill="#1A1B1D"/>
<path d="M10.8002 54.4985C10.5515 55.105 10.4561 55.7633 10.5225 56.4154C10.5889 57.0675 10.815 57.6932 11.1809 58.237C11.5467 58.7808 12.041 59.2261 12.62 59.5334C13.199 59.8406 13.8447 60.0004 14.5002 59.9985H26.5002V56.9985H14.5002C13.7048 56.9969 12.9279 56.7582 12.2689 56.3129C11.6098 55.8676 11.0985 55.2359 10.8002 54.4985Z" fill="#85181C"/>
<path d="M53.33 55.8285C52.5777 56.5762 51.5606 56.9966 50.5 56.9985H38.5V59.9985H50.5C51.0255 59.9992 51.5459 59.8962 52.0315 59.6954C52.5171 59.4946 52.9583 59.2 53.3299 58.8284C53.7015 58.4569 53.9961 58.0156 54.1969 57.53C54.3976 57.0444 54.5007 56.524 54.5 55.9985C54.4975 55.4858 54.3956 54.9785 54.2 54.5045C53.999 54.9983 53.7034 55.4481 53.33 55.8285Z" fill="#85181C"/>
<path d="M31.33 55.8285C30.5777 56.5762 29.5606 56.9966 28.5 56.9985H26.5V59.9985H28.5C29.155 59.9992 29.8001 59.8386 30.3784 59.531C30.9567 59.2234 31.4504 58.7783 31.816 58.2348C32.1816 57.6913 32.4079 57.0662 32.4749 56.4146C32.5418 55.7631 32.4474 55.105 32.2 54.4985C31.9999 54.9946 31.7043 55.4465 31.33 55.8285Z" fill="black"/>
<path d="M32.8002 54.4985C32.5515 55.105 32.4561 55.7633 32.5225 56.4154C32.5889 57.0675 32.815 57.6932 33.1808 58.237C33.5467 58.7808 34.041 59.2261 34.62 59.5334C35.1989 59.8406 35.8447 60.0004 36.5002 59.9985H38.5002V56.9985H36.5002C35.7048 56.9969 34.9279 56.7582 34.2689 56.3129C33.6098 55.8676 33.0985 55.2359 32.8002 54.4985Z" fill="black"/>
<path d="M34.5 19.5885V22.9985L32.5 24.9985L30.5 22.9985V19.5885C31.1321 19.8591 31.8125 19.9985 32.5 19.9985C33.1875 19.9985 33.8679 19.8591 34.5 19.5885Z" fill="#1A1B1D"/>
<path d="M23.07 38.6485L21.5 40.9985L11.5 50.9985L9.5 47.9985L17.5 39.9985L18.77 35.2185L23.07 38.6485Z" fill="#1A1B1D"/>
<path d="M55.4997 47.9985L53.4997 50.9985L53.4397 50.9385L43.4997 40.9985L41.9297 38.6485L46.2297 35.2185L47.4997 39.9985L55.4997 47.9985Z" fill="#1A1B1D"/>
<path d="M38.5 46.9985H26.5C26.5 43.9985 27.5 41.9985 27.5 38.9985H37.5C37.5 41.9985 38.5 43.9985 38.5 46.9985Z" fill="#1A1B1D"/>
<path d="M26.646 44.9985C26.551 45.661 26.5022 46.3293 26.5 46.9985H38.5C38.4978 46.3293 38.449 45.661 38.354 44.9985H26.646Z" fill="black"/>
<path d="M30.5 19.5885C29.6094 19.1958 28.8519 18.5531 28.3194 17.7384C27.7869 16.9236 27.5022 15.9719 27.5 14.9985V10.9985C27.5 9.67245 28.0268 8.40068 28.9645 7.463C29.9021 6.52532 31.1739 5.99853 32.5 5.99853C32.9187 5.99562 33.3358 6.04944 33.74 6.15853C34.6089 6.379 35.403 6.82784 36.04 7.45853C36.2067 7.62667 36.3605 7.80718 36.5 7.99853C37.153 8.86198 37.5043 9.91599 37.5 10.9985V14.9985C37.4978 15.9719 37.2131 16.9236 36.6806 17.7384C36.1481 18.5531 35.3906 19.1958 34.5 19.5885C33.8679 19.8591 33.1875 19.9985 32.5 19.9985C31.8125 19.9985 31.1321 19.8591 30.5 19.5885Z" fill="#1A1B1D"/>
<path d="M34.5 17.5885C33.8679 17.8591 33.1875 17.9985 32.5 17.9985C31.8125 17.9985 31.1321 17.8591 30.5 17.5885C29.6094 17.1958 28.8519 16.5531 28.3194 15.7384C27.7869 14.9236 27.5022 13.9719 27.5 12.9985V14.9985C27.5022 15.9719 27.7869 16.9236 28.3194 17.7384C28.8519 18.5531 29.6094 19.1958 30.5 19.5885C31.1321 19.8591 31.8125 19.9985 32.5 19.9985C33.1875 19.9985 33.8679 19.8591 34.5 19.5885C35.3906 19.1958 36.1481 18.5531 36.6806 17.7384C37.2131 16.9236 37.4978 15.9719 37.5 14.9985V12.9985C37.4978 13.9719 37.2131 14.9236 36.6806 15.7384C36.1481 16.5531 35.3906 17.1958 34.5 17.5885Z" fill="#CCCCCC"/>
<path d="M42.1311 39.7745L40.8691 38.2225L41.2991 37.8725L45.8691 34.2235L47.1311 35.7735L46.8611 35.9935L42.1311 39.7745Z" fill="white"/>
<path d="M22.8691 39.7745L17.8691 35.7735L19.1311 34.2235L19.4011 34.4425L24.1311 38.2225L22.8691 39.7745Z" fill="white"/>
<path d="M32.5 25.9985C32.2348 25.9985 31.9805 25.8931 31.793 25.7055L29.793 23.7055L31.207 22.2915L32.5 23.5845L33.793 22.2915L35.207 23.7055L33.207 25.7055C33.0195 25.8931 32.7652 25.9985 32.5 25.9985Z" fill="white"/>
<path d="M32.5 20.9985C31.7113 21.0013 30.9299 20.848 30.2007 20.5475C29.4715 20.2469 28.8089 19.8051 28.2512 19.2474C27.6935 18.6897 27.2517 18.0271 26.9511 17.2979C26.6506 16.5687 26.4973 15.7872 26.5 14.9985V10.9985C26.5016 9.40772 27.1343 7.88252 28.2592 6.75765C29.384 5.63277 30.9092 5.00012 32.5 4.99853C33.0088 4.99636 33.5155 5.06364 34.006 5.19853L33.475 7.12653C33.1573 7.04009 32.8293 6.99704 32.5 6.99853C31.4392 6.99853 30.4218 7.41996 29.6716 8.17011C28.9215 8.92025 28.5 9.93767 28.5 10.9985V14.9985C28.5027 15.7782 28.7313 16.5403 29.1581 17.1927C29.585 17.8451 30.1917 18.3598 30.905 18.6745C31.4119 18.8867 31.9561 18.9955 32.5056 18.9945C33.0552 18.9934 33.5989 18.8826 34.105 18.6685C34.816 18.3534 35.4205 17.8391 35.8455 17.1878C36.2705 16.5366 36.4978 15.7762 36.5 14.9985V10.9985C36.5051 10.1322 36.2239 9.28853 35.7 8.59853L37.3 7.39853C38.0852 8.43386 38.5069 9.6992 38.5 10.9985V14.9985C38.5027 15.7872 38.3493 16.5686 38.0487 17.2978C37.7481 18.0269 37.3062 18.6894 36.7486 19.2471C36.1909 19.8047 35.5284 20.2466 34.7993 20.5472C34.0701 20.8478 33.2887 21.0012 32.5 20.9985Z" fill="white"/>
<path d="M39.5 10.9985C39.3025 10.9982 39.1095 10.9398 38.945 10.8305L35.945 8.83053C35.8483 8.76582 35.7634 8.68498 35.694 8.59154C35.5851 8.44028 35.4644 8.29784 35.333 8.16553C34.8249 7.66328 34.1923 7.30535 33.5 7.12854C33.3527 7.09165 33.2157 7.0217 33.0994 6.92397C32.9832 6.82625 32.8907 6.70333 32.829 6.56454C32.6101 6.0716 32.498 5.5379 32.5 4.99854C32.5 3.93767 32.9215 2.92025 33.6716 2.17011C34.4217 1.41996 35.4392 0.998535 36.5 0.998535C37.5609 0.998535 38.5783 1.41996 39.3285 2.17011C40.0786 2.92025 40.5 3.93767 40.5 4.99854V9.99854C40.5 10.2638 40.3947 10.5181 40.2071 10.7056C40.0196 10.8932 39.7652 10.9985 39.5 10.9985ZM37.2 7.26054L38.5 8.13054V4.99854C38.5 4.4681 38.2893 3.95939 37.9142 3.58432C37.5392 3.20925 37.0305 2.99854 36.5 2.99854C35.9696 2.99854 35.4609 3.20925 35.0858 3.58432C34.7107 3.95939 34.5 4.4681 34.5 4.99854C34.4999 5.11792 34.5107 5.23708 34.532 5.35454C35.361 5.65209 36.1152 6.12677 36.742 6.74554C36.9052 6.90754 37.0582 7.07954 37.2 7.26054Z" fill="white"/>
<path d="M38.5 39.9985H26.5C26.2348 39.9985 25.9804 39.8932 25.7929 39.7056C25.6054 39.5181 25.5 39.2638 25.5 38.9985C25.4025 38.1679 25.1447 37.364 24.741 36.6315C24.61 36.3405 24.476 36.0415 24.347 35.7315C23.8156 34.5571 23.5274 33.2873 23.5 31.9985V30.9985H25.5V31.9985C25.5311 33.0239 25.7671 34.0327 26.194 34.9655C26.314 35.2535 26.441 35.5355 26.565 35.8105C26.9097 36.5109 27.1838 37.2438 27.383 37.9985H37.617C37.8162 37.2438 38.0903 36.5109 38.435 35.8105C38.559 35.5355 38.686 35.2535 38.807 34.9625C39.2335 34.0307 39.4691 33.0229 39.5 31.9985V30.9985H41.5V31.9985C41.473 33.2869 41.1852 34.5565 40.654 35.7305C40.524 36.0415 40.39 36.3405 40.254 36.6305C39.8519 37.3637 39.5958 38.1679 39.5 38.9985C39.5 39.2638 39.3946 39.5181 39.2071 39.7056C39.0196 39.8932 38.7652 39.9985 38.5 39.9985Z" fill="white"/>
<path d="M27.5 46.9985H25.5C25.5265 45.5842 25.7008 44.1766 26.02 42.7985C26.3112 41.5519 26.4721 40.2784 26.5 38.9985H28.5C28.4735 40.4128 28.2992 41.8205 27.98 43.1985C27.6888 44.4452 27.5279 45.7187 27.5 46.9985Z" fill="white"/>
<path d="M39.5 46.9985H37.5C37.4721 45.7187 37.3112 44.4452 37.02 43.1985C36.7008 41.8205 36.5265 40.4128 36.5 38.9985H38.5C38.5279 40.2784 38.6888 41.5519 38.98 42.7985C39.2992 44.1766 39.4735 45.5842 39.5 46.9985Z" fill="white"/>
<path d="M39.5195 52.1985L38.6795 47.9985H26.3195L25.4795 52.1985L23.5195 51.7985L24.5195 46.7985C24.5656 46.5727 24.6884 46.3697 24.867 46.2239C25.0455 46.0781 25.269 45.9985 25.4995 45.9985H39.4995C39.7301 45.9985 39.9535 46.0781 40.1321 46.2239C40.3107 46.3697 40.4334 46.5727 40.4795 46.7985L41.4795 51.7985L39.5195 52.1985Z" fill="white"/>
<path d="M28.5 60.9985V58.9985C29.2957 58.9985 30.0587 58.6825 30.6213 58.1199C31.1839 57.5572 31.5 56.7942 31.5 55.9985C31.5 55.2029 31.1839 54.4398 30.6213 53.8772C30.0587 53.3146 29.2957 52.9985 28.5 52.9985H14.5C14.0019 53 13.5118 53.1239 13.073 53.3595C12.8176 53.4998 12.5821 53.6736 12.373 53.8765C11.9529 54.2964 11.6668 54.8315 11.5511 55.4141C11.4354 55.9967 11.4952 56.6005 11.723 57.1491C11.9508 57.6976 12.3363 58.1662 12.8307 58.4955C13.3251 58.8247 13.906 58.9998 14.5 58.9985V60.9985C13.5113 60.9991 12.5446 60.7065 11.7221 60.1578C10.8996 59.6091 10.2583 58.8288 9.87919 57.9156C9.5001 57.0024 9.40025 55.9974 9.59227 55.0275C9.7843 54.0576 10.2596 53.1664 10.958 52.4665C11.302 52.1276 11.691 51.8375 12.114 51.6045C12.8472 51.2088 13.6669 51.0006 14.5 50.9985H28.5C29.8261 50.9985 31.0979 51.5253 32.0355 52.463C32.9732 53.4007 33.5 54.6725 33.5 55.9985C33.5 57.3246 32.9732 58.5964 32.0355 59.5341C31.0979 60.4718 29.8261 60.9985 28.5 60.9985Z" fill="white"/>
<path d="M50.5 60.9985V58.9985C50.8942 58.9993 51.2847 58.9223 51.649 58.7718C52.0133 58.6213 52.3444 58.4003 52.6231 58.1216C52.9018 57.8429 53.1228 57.5119 53.2733 57.1475C53.4237 56.7832 53.5008 56.3927 53.5 55.9985C53.5017 55.409 53.3284 54.8322 53.0019 54.3414C52.6753 53.8506 52.2104 53.4677 51.666 53.2415C51.2986 53.0798 50.9014 52.997 50.5 52.9985H36.5C35.7044 52.9985 34.9413 53.3146 34.3787 53.8772C33.8161 54.4398 33.5 55.2029 33.5 55.9985C33.5 56.7942 33.8161 57.5572 34.3787 58.1198C34.9413 58.6825 35.7044 58.9985 36.5 58.9985V60.9985C35.1739 60.9985 33.9021 60.4717 32.9645 59.5341C32.0268 58.5964 31.5 57.3246 31.5 55.9985C31.5 54.6724 32.0268 53.4007 32.9645 52.463C33.9021 51.5253 35.1739 50.9985 36.5 50.9985H50.5C51.1739 50.9963 51.8408 51.135 52.458 51.4055C53.2092 51.7259 53.8706 52.2254 54.3842 52.8604C54.8978 53.4953 55.248 54.2464 55.4043 55.048C55.5606 55.8496 55.5181 56.6773 55.2806 57.4587C55.0432 58.2401 54.6179 58.9514 54.042 59.5305C53.1024 60.4698 51.8285 60.9978 50.5 60.9985Z" fill="white"/>
<path d="M27.5 51.9985H25.5V59.9985H27.5V51.9985Z" fill="white"/>
<path d="M39.5 51.9985H37.5V59.9985H39.5V51.9985Z" fill="white"/>
<path d="M53.5 51.9985C53.2377 51.9974 52.9863 51.8933 52.8 51.7085L42.8 41.7085C42.7538 41.6621 42.7119 41.6116 42.675 41.5575L38.675 35.5515L40.345 34.4515L44.287 40.3635L53.354 49.4325L54.223 48.1325L46.803 40.7125C46.6786 40.588 46.5892 40.4327 46.544 40.2625L42.69 25.8435L34.283 23.9755C34.0608 23.9261 33.862 23.8024 33.7197 23.6247C33.5773 23.4471 33.4998 23.2262 33.5 22.9985V18.9985H35.5V22.1985L43.717 24.0235C43.8957 24.0633 44.06 24.1514 44.1921 24.2782C44.3242 24.405 44.4189 24.5656 44.466 24.7425L48.4 39.4815L56.21 47.2915C56.3735 47.455 56.4753 47.6701 56.4981 47.9002C56.5209 48.1303 56.4633 48.3612 56.335 48.5535L54.335 51.5535C54.2533 51.6777 54.1449 51.782 54.0177 51.859C53.8906 51.936 53.7479 51.9836 53.6 51.9985C53.567 51.9985 53.533 51.9985 53.5 51.9985Z" fill="white"/>
<path d="M11.5 51.9985C11.467 51.9985 11.435 51.9985 11.4 51.9935C11.2529 51.9789 11.1109 51.9319 10.9841 51.8558C10.8574 51.7797 10.7491 51.6765 10.667 51.5535L8.66703 48.5535C8.53875 48.3612 8.4811 48.1303 8.50389 47.9002C8.52669 47.6701 8.62851 47.455 8.79203 47.2915L16.602 39.4815L20.533 24.7405C20.5801 24.5636 20.6748 24.403 20.8069 24.2762C20.939 24.1494 21.1033 24.0613 21.282 24.0215L29.5 22.1985V18.9985H31.5V22.9985C31.5002 23.2262 31.4227 23.4471 31.2804 23.6247C31.138 23.8024 30.9393 23.9261 30.717 23.9755L22.31 25.8435L18.466 40.2555C18.4208 40.4257 18.3315 40.581 18.207 40.7055L10.787 48.1255L11.655 49.4255L20.723 40.3565L24.665 34.4445L26.335 35.5445L22.335 41.5505C22.2981 41.6046 22.2562 41.6551 22.21 41.7015L12.21 51.7015C12.1172 51.7955 12.0066 51.8701 11.8847 51.9211C11.7629 51.972 11.6321 51.9984 11.5 51.9985Z" fill="white"/>
<path d="M63.5 64.9985H1.5C1.23478 64.9985 0.98043 64.8932 0.792893 64.7056C0.605357 64.5181 0.5 64.2638 0.5 63.9985V59.9985C0.5 59.7333 0.605357 59.479 0.792893 59.2914C0.98043 59.1039 1.23478 58.9985 1.5 58.9985H63.5C63.7652 58.9985 64.0196 59.1039 64.2071 59.2914C64.3946 59.479 64.5 59.7333 64.5 59.9985V63.9985C64.5 64.2638 64.3946 64.5181 64.2071 64.7056C64.0196 64.8932 63.7652 64.9985 63.5 64.9985ZM2.5 62.9985H62.5V60.9985H2.5V62.9985Z" fill="white"/>
</g>
<defs>
<clipPath id="clip0_238_9408">
<rect width="64" height="64" fill="white" transform="translate(0.5 0.998535)"/>
</clipPath>
</defs>
</svg>
