<svg width="65" height="64" viewBox="0 0 65 64" fill="none" xmlns="http://www.w3.org/2000/svg">
<g clip-path="url(#clip0_149_3304)">
<path d="M13.25 57C15.4591 57 17.25 55.2091 17.25 53C17.25 50.7909 15.4591 49 13.25 49C11.0409 49 9.25 50.7909 9.25 53C9.25 55.2091 11.0409 57 13.25 57Z" fill="#E9EDF5"/>
<path d="M32.1 51.8001C33.23 55.1701 29.14 56.6701 29.14 56.6701C28.5014 56.8834 27.8332 56.9947 27.16 57.0001C26.4518 57.055 25.7459 56.867 25.1588 56.4671C24.5717 56.0672 24.1383 55.4792 23.93 54.8001C22.8 51.4301 23.3 47.4601 21.61 42.4001L26.51 40.6101C28.21 45.6601 30.97 48.4301 32.1 51.8001Z" fill="#974D4A"/>
<path d="M47.25 44C47.25 50 49.25 54 49.25 58C49.25 62 44.25 62 44.25 62C44.25 62 39.25 62 39.25 58C39.25 54 41.25 50 41.25 44H47.25Z" fill="#AD5855"/>
<path d="M29.83 37.7101L28.15 40.0101L26.51 40.6101L21.61 42.4001L19.16 43.3001L13.94 41.4301L28.5 36.0901C28.9061 36.6596 29.3505 37.2008 29.83 37.7101Z" fill="#6E3835"/>
<path d="M55.25 40L49.25 44H47.25H41.25H38.25L33.25 40H55.25Z" fill="#6E3835"/>
<path d="M13.94 41.43L13.26 41.68C7.56 39.85 4.82 36.15 2.6 29.5C-0.99 18.8 2.72 9.59003 12.2 6.12003C18.65 3.76003 24.59 5.21003 28.86 9.73003C26.3645 13.6963 25.1077 18.3162 25.25 23C25.25 28.58 26.06 32.7 28.5 36.09L13.94 41.43Z" fill="#9A1C20"/>
<path d="M63.25 23C63.25 30.89 61.62 35.86 56.08 40H32.42C31.4905 39.3149 30.6237 38.5486 29.83 37.71C29.3505 37.2007 28.9061 36.6595 28.5 36.09C26.06 32.7 25.25 28.58 25.25 23C25.1077 18.3162 26.3645 13.6962 28.86 9.73C32.13 4.83 37.47 2 44.25 2C55.85 2 63.25 10.3 63.25 23Z" fill="#E0282E"/>
<path d="M14.25 55C13.6632 55.0058 13.0825 54.8811 12.5498 54.6351C12.0171 54.389 11.5457 54.0276 11.1698 53.5771C10.7938 53.1266 10.5226 52.5982 10.3758 52.03C10.229 51.4619 10.2103 50.8682 10.321 50.292C9.89882 50.7469 9.58849 51.294 9.41464 51.8897C9.2408 52.4855 9.20823 53.1136 9.31951 53.7242C9.43079 54.3348 9.68287 54.911 10.0557 55.4071C10.4286 55.9033 10.912 56.3057 11.4675 56.5824C12.023 56.8591 12.6354 57.0025 13.256 57.0012C13.8767 56.9999 14.4884 56.854 15.0428 56.575C15.5972 56.296 16.0789 55.8916 16.4497 55.3939C16.8205 54.8963 17.0702 54.319 17.179 53.708C16.807 54.1146 16.3545 54.4394 15.8503 54.6618C15.3461 54.8842 14.8011 54.9994 14.25 55Z" fill="#CDD2E1"/>
<path d="M42.139 37C40.1711 37.0215 38.2729 36.2725 36.85 34.913L36.827 34.891C36.3512 34.4248 35.9079 33.9266 35.5 33.4C33.06 30.276 32.25 26.482 32.25 21.342C32.1208 16.9875 33.3856 12.7055 35.86 9.12C37.2522 7.24364 39.0105 5.6691 41.0286 4.49156C43.0466 3.31401 45.2825 2.55792 47.601 2.269C46.4924 2.09495 45.3722 2.00503 44.25 2C37.47 2 32.13 4.83 28.86 9.73C26.3645 13.6962 25.1077 18.3162 25.25 23C25.25 28.58 26.06 32.7 28.5 36.09C28.9061 36.6595 29.3505 37.2007 29.83 37.71C30.6237 38.5486 31.4905 39.3149 32.42 40H56.08C57.2623 39.1285 58.3386 38.1216 59.287 37H42.139Z" fill="#B82126"/>
<path d="M41.25 57C41.5786 54.0983 42.0755 51.2181 42.738 48.374C42.8802 47.7014 43.2495 47.0983 43.784 46.6659C44.3185 46.2336 44.9856 45.9985 45.673 46H47.33C47.282 45.356 47.25 44.694 47.25 44H41.25C41.25 50 39.25 54 39.25 58C39.25 62 44.25 62 44.25 62C44.25 62 47.288 61.991 48.625 60.089C43.119 60.847 41.25 58.928 41.25 57Z" fill="#974D4A"/>
<path d="M33.25 40L38.25 44H41.25L39.957 42.707C39.8172 42.5671 39.722 42.389 39.6834 42.195C39.6449 42.0011 39.6647 41.8 39.7403 41.6173C39.816 41.4346 39.9441 41.2785 40.1085 41.1686C40.273 41.0587 40.4663 41 40.664 41H53.75L55.25 40H33.25Z" fill="#61312F"/>
<path d="M26.25 54.0001C25.538 53.2881 24.826 48.0131 24.475 45.0341C24.4068 44.4504 24.5331 43.8605 24.8344 43.3559C25.1356 42.8513 25.5949 42.4601 26.141 42.2431L27.001 41.9001C26.833 41.4801 26.663 41.0641 26.51 40.6101L21.61 42.4001C23.3 47.4601 22.8 51.4301 23.93 54.8001C24.1383 55.4792 24.5717 56.0672 25.1588 56.4671C25.7459 56.867 26.4518 57.055 27.16 57.0001C27.8332 56.9947 28.5014 56.8834 29.14 56.6701C29.14 56.6701 32.409 55.4621 32.283 52.7901C30.166 54.2421 28.25 56.0001 26.25 54.0001Z" fill="#80413E"/>
<path d="M28.5 36.0901L23.161 38.0481L13.94 41.4301L15.696 42.0591L22.424 39.4721C22.8421 39.3161 23.2955 39.2802 23.7329 39.3686C24.1703 39.4569 24.5743 39.666 24.899 39.9721L24.91 39.9821C25.228 40.2751 25.565 40.5531 25.91 40.8241L26.51 40.6061L28.15 40.0061L29.83 37.7061C29.3506 37.1981 28.9063 36.6582 28.5 36.0901Z" fill="#61312F"/>
<path d="M19.884 14.1071C18.25 18.4988 17.9625 23.278 19.058 27.8341C19.958 32.1471 21.177 35.4541 23.158 38.0481L28.5 36.0901C26.06 32.7001 25.25 28.5801 25.25 23.0001C25.1077 18.3162 26.3645 13.6963 28.86 9.73005C27.833 8.63436 26.6544 7.69145 25.36 6.93005C22.9124 8.77633 21.0183 11.2588 19.884 14.1071Z" fill="#85181C"/>
<path d="M59.5515 20.3106C60.1925 19.6692 59.9882 18.4257 59.0951 17.5333C58.2021 16.6409 56.9585 16.4374 56.3175 17.0789C55.6765 17.7203 55.8808 18.9638 56.7738 19.8562C57.6669 20.7487 58.9105 20.9521 59.5515 20.3106Z" fill="#F6FAFD"/>
<path d="M56.7438 14.5194C57.0659 14.1971 56.9634 13.5725 56.5149 13.1243C56.0665 12.6762 55.4418 12.5741 55.1197 12.8964C54.7977 13.2187 54.9001 13.8433 55.3486 14.2915C55.7971 14.7396 56.4217 14.8417 56.7438 14.5194Z" fill="#F6FAFD"/>
<path d="M14.7441 52.5189C15.0662 52.1966 14.9637 51.572 14.5153 51.1238C14.0668 50.6757 13.4421 50.5736 13.1201 50.8959C12.798 51.2182 12.9005 51.8428 13.3489 52.291C13.7974 52.7391 14.4221 52.8412 14.7441 52.5189Z" fill="#F6FAFD"/>
<path d="M47.0827 57.6136C47.2439 57.4522 47.1928 57.1398 46.9686 56.9157C46.7444 56.6916 46.4319 56.6408 46.2706 56.8021C46.1094 56.9634 46.1605 57.2759 46.3847 57.5C46.609 57.7241 46.9215 57.7749 47.0827 57.6136Z" fill="#F6FAFD"/>
<path d="M57.25 6.86005C61.081 10.5371 63.25 16.1241 63.25 23.0001C63.25 30.8901 61.62 35.8601 56.08 40.0001H32.42C31.4905 39.315 30.6237 38.5486 29.83 37.7101C29.3505 37.2008 28.9061 36.6596 28.5 36.0901C26.06 32.7001 25.25 28.5801 25.25 23.0001C25.1077 18.3162 26.3645 13.6963 28.86 9.73005C32.13 4.83005 37.47 2.00005 44.25 2.00005C48.0278 1.91841 51.7445 2.96272 54.927 5.00005" stroke="white" stroke-width="2" stroke-linejoin="round"/>
<path d="M33.25 40L38.25 44H49.25L55.25 40" stroke="white" stroke-width="2" stroke-linejoin="round"/>
<path d="M47.25 44C47.25 50 49.25 54 49.25 58C49.25 62 44.25 62 44.25 62C44.25 62 39.25 62 39.25 58C39.25 54.706 40.607 51.411 41.085 47" stroke="white" stroke-width="2" stroke-linejoin="round"/>
<path d="M25.485 7C25.9926 7.30417 26.4818 7.63808 26.95 8" stroke="white" stroke-width="2" stroke-linejoin="round"/>
<path d="M26.25 36.915L13.94 41.43L13.26 41.68C7.56 39.85 4.82 36.15 2.6 29.5C-0.99 18.8 2.72 9.59001 12.2 6.12001C14.1191 5.34029 16.1763 4.95769 18.2474 4.99533C20.3185 5.03297 22.3605 5.49007 24.25 6.33901" stroke="white" stroke-width="2" stroke-linejoin="round"/>
<path d="M28.15 40.01L26.51 40.61L21.61 42.4L19.16 43.3L13.94 41.43" stroke="white" stroke-width="2" stroke-linejoin="round"/>
<path d="M26.515 40.6001C28.209 45.6551 30.974 48.4261 32.103 51.8001C33.232 55.1741 29.144 56.6671 29.144 56.6671C29.144 56.6671 25.055 58.1671 23.926 54.7951C22.797 51.4231 23.303 47.4561 21.609 42.4011" stroke="white" stroke-width="2" stroke-linejoin="round"/>
<path d="M13.25 57C15.4591 57 17.25 55.2091 17.25 53C17.25 50.7909 15.4591 49 13.25 49C11.0409 49 9.25 50.7909 9.25 53C9.25 55.2091 11.0409 57 13.25 57Z" stroke="white" stroke-width="2" stroke-linejoin="round"/>
<path d="M36.25 57H5.25" stroke="white" stroke-width="2" stroke-linejoin="round"/>
<path d="M3.25 57H1.25" stroke="white" stroke-width="2" stroke-linejoin="round"/>
</g>
<defs>
<clipPath id="clip0_149_3304">
<rect width="64" height="64" fill="white" transform="translate(0.25)"/>
</clipPath>
</defs>
</svg>
