<svg width="64" height="63" viewBox="0 0 64 63" fill="none" xmlns="http://www.w3.org/2000/svg">
<path d="M13 56.9985C15.2091 56.9985 17 55.2077 17 52.9985C17 50.7894 15.2091 48.9985 13 48.9985C10.7909 48.9985 9 50.7894 9 52.9985C9 55.2077 10.7909 56.9985 13 56.9985Z" fill="#E9EDF5"/>
<path d="M31.8504 51.7985C32.9804 55.1685 28.8904 56.6685 28.8904 56.6685C28.2518 56.8818 27.5836 56.9932 26.9104 56.9985C26.2021 57.0534 25.4963 56.8654 24.9092 56.4655C24.3221 56.0656 23.8887 55.4777 23.6804 54.7985C22.5504 51.4285 23.0504 47.4585 21.3604 42.3985L26.2604 40.6085C27.9604 45.6585 30.7204 48.4285 31.8504 51.7985Z" fill="#974D4A"/>
<path d="M47 43.9985C47 49.9985 49 53.9985 49 57.9985C49 61.9985 44 61.9985 44 61.9985C44 61.9985 39 61.9985 39 57.9985C39 53.9985 41 49.9985 41 43.9985H47Z" fill="#AD5855"/>
<path d="M29.5804 37.7085L27.9004 40.0085L26.2604 40.6085L21.3604 42.3985L18.9104 43.2985L13.6904 41.4285L28.2504 36.0885C28.6566 36.658 29.1009 37.1993 29.5804 37.7085Z" fill="#6E3835"/>
<path d="M55 39.9985L49 43.9985H47H41H38L33 39.9985H55Z" fill="#6E3835"/>
<path d="M13.6897 41.4285L13.0097 41.6785C7.30975 39.8485 4.56975 36.1485 2.34975 29.4985C-1.24025 18.7985 2.46975 9.58853 11.9497 6.11853C18.3997 3.75853 24.3397 5.20853 28.6097 9.72853C26.1143 13.6948 24.8574 18.3147 24.9997 22.9985C24.9997 28.5785 25.8097 32.6985 28.2497 36.0885L13.6897 41.4285Z" fill="#9A1C20"/>
<path d="M63.0001 22.9985C63.0001 30.8885 61.3701 35.8585 55.8301 39.9985H32.1701C31.2406 39.3135 30.3739 38.5471 29.5801 37.7085C29.1006 37.1993 28.6563 36.658 28.2501 36.0885C25.8101 32.6985 25.0001 28.5785 25.0001 22.9985C24.8578 18.3147 26.1147 13.6948 28.6101 9.72853C31.8801 4.82853 37.2201 1.99854 44.0001 1.99854C55.6001 1.99854 63.0001 10.2985 63.0001 22.9985Z" fill="#E0282E"/>
<path d="M14.0001 54.9985C13.4133 55.0043 12.8326 54.8797 12.2999 54.6336C11.7672 54.3875 11.2958 54.0262 10.9199 53.5757C10.5439 53.1251 10.2727 52.5967 10.1259 52.0286C9.97912 51.4604 9.9604 50.8668 10.0711 50.2905C9.64891 50.7454 9.33858 51.2925 9.16473 51.8883C8.99089 52.4841 8.95831 53.1122 9.0696 53.7227C9.18088 54.3333 9.43296 54.9095 9.80582 55.4057C10.1787 55.9018 10.6621 56.3042 11.2176 56.5809C11.7731 56.8576 12.3855 57.001 13.0061 56.9998C13.6267 56.9985 14.2385 56.8526 14.7929 56.5736C15.3473 56.2946 15.829 55.8902 16.1998 55.3925C16.5706 54.8948 16.8203 54.3176 16.9291 53.7065C16.5571 54.1131 16.1046 54.4379 15.6004 54.6603C15.0961 54.8828 14.5512 54.9979 14.0001 54.9985Z" fill="#CDD2E1"/>
<path d="M41.8891 36.9985C39.9213 37.02 38.0231 36.271 36.6001 34.9115L36.5771 34.8895C36.1014 34.4233 35.658 33.9252 35.2501 33.3985C32.8101 30.2745 32.0001 26.4805 32.0001 21.3405C31.8709 16.986 33.1357 12.704 35.6101 9.11854C37.0024 7.24218 38.7607 5.66763 40.7787 4.49009C42.7967 3.31255 45.0326 2.55646 47.3511 2.26754C46.2425 2.09348 45.1223 2.00356 44.0001 1.99854C37.2201 1.99854 31.8801 4.82853 28.6101 9.72853C26.1147 13.6948 24.8578 18.3147 25.0001 22.9985C25.0001 28.5785 25.8101 32.6985 28.2501 36.0885C28.6563 36.658 29.1006 37.1993 29.5801 37.7085C30.3739 38.5471 31.2406 39.3135 32.1701 39.9985H55.8301C57.0125 39.127 58.0888 38.1202 59.0371 36.9985H41.8891Z" fill="#B82126"/>
<path d="M41 56.9985C41.3286 54.0968 41.8255 51.2166 42.488 48.3725C42.6302 47.6999 42.9995 47.0968 43.534 46.6645C44.0685 46.2322 44.7356 45.997 45.423 45.9985H47.08C47.032 45.3545 47 44.6925 47 43.9985H41C41 49.9985 39 53.9985 39 57.9985C39 61.9985 44 61.9985 44 61.9985C44 61.9985 47.038 61.9895 48.375 60.0875C42.869 60.8455 41 58.9265 41 56.9985Z" fill="#974D4A"/>
<path d="M33 39.9985L38 43.9985H41L39.707 42.7055C39.5672 42.5657 39.472 42.3875 39.4334 42.1936C39.3949 41.9996 39.4147 41.7986 39.4903 41.6159C39.566 41.4332 39.6941 41.277 39.8585 41.1671C40.023 41.0572 40.2163 40.9986 40.414 40.9985H53.5L55 39.9985H33Z" fill="#61312F"/>
<path d="M26.0004 53.9985C25.2884 53.2865 24.5764 48.0115 24.2254 45.0325C24.1572 44.4488 24.2835 43.8589 24.5847 43.3543C24.8859 42.8497 25.3452 42.4586 25.8914 42.2415L26.7514 41.8985C26.5834 41.4785 26.4134 41.0625 26.2604 40.6085L21.3604 42.3985C23.0504 47.4585 22.5504 51.4285 23.6804 54.7985C23.8887 55.4777 24.3221 56.0656 24.9092 56.4655C25.4963 56.8654 26.2021 57.0534 26.9104 56.9985C27.5836 56.9932 28.2518 56.8818 28.8904 56.6685C28.8904 56.6685 32.1594 55.4605 32.0334 52.7885C29.9164 54.2405 28.0004 55.9985 26.0004 53.9985Z" fill="#80413E"/>
<path d="M28.2504 36.0885L22.9114 38.0465L13.6904 41.4285L15.4464 42.0575L22.1744 39.4705C22.5925 39.3145 23.0459 39.2786 23.4833 39.367C23.9208 39.4554 24.3247 39.6644 24.6494 39.9705L24.6604 39.9805C24.9784 40.2735 25.3154 40.5515 25.6604 40.8225L26.2604 40.6045L27.9004 40.0045L29.5804 37.7045C29.1011 37.1966 28.6567 36.6567 28.2504 36.0885Z" fill="#61312F"/>
<path d="M19.6344 14.1055C18.0004 18.4973 17.7129 23.2765 18.8084 27.8325C19.7084 32.1455 20.9274 35.4525 22.9084 38.0465L28.2504 36.0885C25.8104 32.6985 25.0004 28.5785 25.0004 22.9985C24.8581 18.3147 26.1149 13.6948 28.6104 9.72854C27.5834 8.63285 26.4048 7.68993 25.1104 6.92854C22.6628 8.77481 20.7687 11.2573 19.6344 14.1055Z" fill="#85181C"/>
<path d="M59.3019 20.3092C59.9429 19.6677 59.7386 18.4243 58.8456 17.5318C57.9525 16.6394 56.7089 16.436 56.0679 17.0774C55.4269 17.7189 55.6312 18.9623 56.5242 19.8548C57.4173 20.7472 58.6609 20.9506 59.3019 20.3092Z" fill="#F6FAFD"/>
<path d="M56.4934 14.5178C56.8154 14.1955 56.713 13.5709 56.2645 13.1227C55.816 12.6746 55.1914 12.5725 54.8693 12.8948C54.5472 13.2171 54.6497 13.8417 55.0982 14.2899C55.5467 14.738 56.1713 14.8401 56.4934 14.5178Z" fill="#F6FAFD"/>
<path d="M14.4944 52.5173C14.8164 52.195 14.7139 51.5704 14.2655 51.1223C13.817 50.6741 13.1923 50.5721 12.8703 50.8944C12.5482 51.2167 12.6507 51.8412 13.0992 52.2894C13.5476 52.7376 14.1723 52.8396 14.4944 52.5173Z" fill="#F6FAFD"/>
<path d="M46.8325 57.612C46.9937 57.4507 46.9426 57.1382 46.7184 56.9141C46.4942 56.69 46.1817 56.6392 46.0204 56.8005C45.8592 56.9619 45.9103 57.2743 46.1345 57.4984C46.3588 57.7225 46.6713 57.7734 46.8325 57.612Z" fill="#F6FAFD"/>
<path d="M57.0001 6.85853C60.8311 10.5355 63.0001 16.1225 63.0001 22.9985C63.0001 30.8885 61.3701 35.8585 55.8301 39.9985H32.1701C31.2406 39.3135 30.3739 38.5471 29.5801 37.7085C29.1006 37.1993 28.6563 36.658 28.2501 36.0885C25.8101 32.6985 25.0001 28.5785 25.0001 22.9985C24.8578 18.3147 26.1147 13.6948 28.6101 9.72853C31.8801 4.82853 37.2201 1.99853 44.0001 1.99853C47.778 1.91689 51.4947 2.9612 54.6771 4.99853" stroke="white" stroke-width="2" stroke-linejoin="round"/>
<path d="M33 39.9985L38 43.9985H49L55 39.9985" stroke="white" stroke-width="2" stroke-linejoin="round"/>
<path d="M47 43.9985C47 49.9985 49 53.9985 49 57.9985C49 61.9985 44 61.9985 44 61.9985C44 61.9985 39 61.9985 39 57.9985C39 54.7045 40.357 51.4095 40.835 46.9985" stroke="white" stroke-width="2" stroke-linejoin="round"/>
<path d="M25.2354 6.99854C25.743 7.3027 26.2322 7.63662 26.7004 7.99854" stroke="white" stroke-width="2" stroke-linejoin="round"/>
<path d="M25.9997 36.9135L13.6897 41.4285L13.0097 41.6785C7.30975 39.8485 4.56975 36.1485 2.34975 29.4985C-1.24025 18.7985 2.46975 9.58854 11.9497 6.11854C13.8688 5.33881 15.9261 4.95622 17.9972 4.99386C20.0683 5.0315 22.1103 5.4886 23.9997 6.33754" stroke="white" stroke-width="2" stroke-linejoin="round"/>
<path d="M27.9004 40.0085L26.2604 40.6085L21.3604 42.3985L18.9104 43.2985L13.6904 41.4285" stroke="white" stroke-width="2" stroke-linejoin="round"/>
<path d="M26.2654 40.5985C27.9594 45.6535 30.7244 48.4245 31.8534 51.7985C32.9824 55.1725 28.8944 56.6655 28.8944 56.6655C28.8944 56.6655 24.8054 58.1655 23.6764 54.7935C22.5474 51.4215 23.0534 47.4545 21.3594 42.3995" stroke="white" stroke-width="2" stroke-linejoin="round"/>
<path d="M13 56.9985C15.2091 56.9985 17 55.2077 17 52.9985C17 50.7894 15.2091 48.9985 13 48.9985C10.7909 48.9985 9 50.7894 9 52.9985C9 55.2077 10.7909 56.9985 13 56.9985Z" stroke="white" stroke-width="2" stroke-linejoin="round"/>
<path d="M36 56.9985H5" stroke="white" stroke-width="2" stroke-linejoin="round"/>
<path d="M3 56.9985H1" stroke="white" stroke-width="2" stroke-linejoin="round"/>
</svg>
