<svg width="65" height="65" viewBox="0 0 65 65" fill="none" xmlns="http://www.w3.org/2000/svg">
<g clip-path="url(#clip0_238_9344)">
<path d="M51.5 52.9985C58.1274 52.9985 63.5 47.626 63.5 40.9985C63.5 34.3711 58.1274 28.9985 51.5 28.9985C44.8726 28.9985 39.5 34.3711 39.5 40.9985C39.5 47.626 44.8726 52.9985 51.5 52.9985Z" fill="#333940"/>
<path d="M51.5 48.9985C55.9183 48.9985 59.5 45.4168 59.5 40.9985C59.5 36.5803 55.9183 32.9985 51.5 32.9985C47.0817 32.9985 43.5 36.5803 43.5 40.9985C43.5 45.4168 47.0817 48.9985 51.5 48.9985Z" fill="#1A1B1D"/>
<path d="M51.5 43.9985C53.1569 43.9985 54.5 42.6554 54.5 40.9985C54.5 39.3417 53.1569 37.9985 51.5 37.9985C49.8431 37.9985 48.5 39.3417 48.5 40.9985C48.5 42.6554 49.8431 43.9985 51.5 43.9985Z" fill="#9A1C20"/>
<path d="M51.5 42.9985C52.6046 42.9985 53.5 42.1031 53.5 40.9985C53.5 39.894 52.6046 38.9985 51.5 38.9985C50.3954 38.9985 49.5 39.894 49.5 40.9985C49.5 42.1031 50.3954 42.9985 51.5 42.9985Z" fill="#B82126"/>
<path d="M13.5 52.9985C20.1274 52.9985 25.5 47.626 25.5 40.9985C25.5 34.3711 20.1274 28.9985 13.5 28.9985C6.87258 28.9985 1.5 34.3711 1.5 40.9985C1.5 47.626 6.87258 52.9985 13.5 52.9985Z" fill="#333940"/>
<path d="M13.5 48.9985C17.9183 48.9985 21.5 45.4168 21.5 40.9985C21.5 36.5803 17.9183 32.9985 13.5 32.9985C9.08172 32.9985 5.5 36.5803 5.5 40.9985C5.5 45.4168 9.08172 48.9985 13.5 48.9985Z" fill="#1A1B1D"/>
<path d="M13.5 43.9985C15.1569 43.9985 16.5 42.6554 16.5 40.9985C16.5 39.3417 15.1569 37.9985 13.5 37.9985C11.8431 37.9985 10.5 39.3417 10.5 40.9985C10.5 42.6554 11.8431 43.9985 13.5 43.9985Z" fill="#9A1C20"/>
<path d="M13.5 42.9985C14.6046 42.9985 15.5 42.1031 15.5 40.9985C15.5 39.894 14.6046 38.9985 13.5 38.9985C12.3954 38.9985 11.5 39.894 11.5 40.9985C11.5 42.1031 12.3954 42.9985 13.5 42.9985Z" fill="#B82126"/>
<path d="M30.5 43.9985C32.1569 43.9985 33.5 42.6554 33.5 40.9985C33.5 39.3417 32.1569 37.9985 30.5 37.9985C28.8431 37.9985 27.5 39.3417 27.5 40.9985C27.5 42.6554 28.8431 43.9985 30.5 43.9985Z" fill="#B82126"/>
<path d="M37 15.9985H40.5L43.5 13.9985H47.5V18.9985H37C36.6022 18.9985 36.2206 18.8405 35.9393 18.5592C35.658 18.2779 35.5 17.8964 35.5 17.4985C35.5 17.1007 35.658 16.7192 35.9393 16.4379C36.2206 16.1566 36.6022 15.9985 37 15.9985Z" fill="#B82126"/>
<path d="M41.6997 17.1985L40.9997 17.6625C40.671 17.8817 40.2847 17.9986 39.8897 17.9985H36.9997C36.7897 17.9989 36.5822 18.0436 36.3907 18.1298C36.1993 18.216 36.0282 18.3416 35.8887 18.4985C36.0282 18.6555 36.1993 18.7811 36.3907 18.8673C36.5822 18.9534 36.7897 18.9982 36.9997 18.9985H47.4997V15.9985H45.6627C44.2521 15.9981 42.873 16.4156 41.6997 17.1985Z" fill="#9A1C20"/>
<path d="M30.5 43.9985C32.1569 43.9985 33.5 42.6554 33.5 40.9985C33.5 39.3417 32.1569 37.9985 30.5 37.9985C28.8431 37.9985 27.5 39.3417 27.5 40.9985C27.5 42.6554 28.8431 43.9985 30.5 43.9985Z" fill="#B82126"/>
<path d="M30.5 42.9985C31.6046 42.9985 32.5 42.1031 32.5 40.9985C32.5 39.894 31.6046 38.9985 30.5 38.9985C29.3954 38.9985 28.5 39.894 28.5 40.9985C28.5 42.1031 29.3954 42.9985 30.5 42.9985Z" fill="#9A1C20"/>
<path d="M13.5 52.9985C20.1274 52.9985 25.5 47.626 25.5 40.9985C25.5 34.3711 20.1274 28.9985 13.5 28.9985C6.87258 28.9985 1.5 34.3711 1.5 40.9985C1.5 47.626 6.87258 52.9985 13.5 52.9985Z" stroke="white" stroke-width="2" stroke-linejoin="round"/>
<path d="M13.5 48.9985C17.9183 48.9985 21.5 45.4168 21.5 40.9985C21.5 36.5803 17.9183 32.9985 13.5 32.9985C9.08172 32.9985 5.5 36.5803 5.5 40.9985C5.5 45.4168 9.08172 48.9985 13.5 48.9985Z" stroke="white" stroke-width="2" stroke-linejoin="round"/>
<path d="M51.5 52.9985C58.1274 52.9985 63.5 47.626 63.5 40.9985C63.5 34.3711 58.1274 28.9985 51.5 28.9985C44.8726 28.9985 39.5 34.3711 39.5 40.9985C39.5 47.626 44.8726 52.9985 51.5 52.9985Z" stroke="white" stroke-width="2" stroke-linejoin="round"/>
<path d="M51.5 48.9985C55.9183 48.9985 59.5 45.4168 59.5 40.9985C59.5 36.5803 55.9183 32.9985 51.5 32.9985C47.0817 32.9985 43.5 36.5803 43.5 40.9985C43.5 45.4168 47.0817 48.9985 51.5 48.9985Z" stroke="white" stroke-width="2" stroke-linejoin="round"/>
<path d="M49.5 40.9985H33.5" stroke="white" stroke-width="2" stroke-linejoin="round"/>
<path d="M21.5 22.9985H42.5L50.498 38.9945" stroke="white" stroke-width="2" stroke-linejoin="round"/>
<path d="M31.5 38.9985L42.5 22.9985V18.9985" stroke="white" stroke-width="2" stroke-linejoin="round"/>
<path d="M14.5 38.9985L25.5 14.9985C25.5056 14.7344 25.4577 14.4718 25.3591 14.2266C25.2606 13.9814 25.1135 13.7587 24.9267 13.5719C24.7398 13.385 24.5171 13.2379 24.2719 13.1394C24.0268 13.0409 23.7642 12.9929 23.5 12.9985H16.5C15.7044 12.9985 14.9413 13.3146 14.3787 13.8772C13.8161 14.4398 13.5 15.2029 13.5 15.9985C13.5 16.7942 13.8161 17.5572 14.3787 18.1199C14.9413 18.6825 15.7044 18.9985 16.5 18.9985H20.5" stroke="white" stroke-width="2" stroke-linejoin="round"/>
<path d="M37 15.9985H40.5L43.5 13.9985H47.5V18.9985H37C36.6022 18.9985 36.2206 18.8405 35.9393 18.5592C35.658 18.2779 35.5 17.8964 35.5 17.4985C35.5 17.1007 35.658 16.7192 35.9393 16.4379C36.2206 16.1566 36.6022 15.9985 37 15.9985V15.9985Z" stroke="white" stroke-width="2" stroke-linejoin="round"/>
<path d="M30.5 43.9985C32.1569 43.9985 33.5 42.6554 33.5 40.9985C33.5 39.3417 32.1569 37.9985 30.5 37.9985C28.8431 37.9985 27.5 39.3417 27.5 40.9985C27.5 42.6554 28.8431 43.9985 30.5 43.9985Z" stroke="white" stroke-width="2" stroke-linejoin="round"/>
<path d="M30.5 37.9985V32.9985" stroke="white" stroke-width="2" stroke-linejoin="round"/>
<path d="M28.5 32.9985H32.5" stroke="white" stroke-width="2" stroke-linejoin="round"/>
<path d="M30.5 43.9985V48.9985" stroke="white" stroke-width="2" stroke-linejoin="round"/>
<path d="M28.5 48.9985H32.5" stroke="white" stroke-width="2" stroke-linejoin="round"/>
<path d="M29.5 38.9985L21.5 23.9985" stroke="white" stroke-width="2" stroke-linejoin="round"/>
<path d="M29.5 40.9985H31.5" stroke="white" stroke-width="2" stroke-linejoin="round"/>
<path d="M13.5 43.9985C15.1569 43.9985 16.5 42.6554 16.5 40.9985C16.5 39.3417 15.1569 37.9985 13.5 37.9985C11.8431 37.9985 10.5 39.3417 10.5 40.9985C10.5 42.6554 11.8431 43.9985 13.5 43.9985Z" stroke="white" stroke-width="2" stroke-linejoin="round"/>
<path d="M51.5 43.9985C53.1569 43.9985 54.5 42.6554 54.5 40.9985C54.5 39.3417 53.1569 37.9985 51.5 37.9985C49.8431 37.9985 48.5 39.3417 48.5 40.9985C48.5 42.6554 49.8431 43.9985 51.5 43.9985Z" stroke="white" stroke-width="2" stroke-linejoin="round"/>
<path d="M1.5 52.9985H63.5" stroke="white" stroke-width="2" stroke-linejoin="round"/>
</g>
<defs>
<clipPath id="clip0_238_9344">
<rect width="64" height="64" fill="white" transform="translate(0.5 0.998535)"/>
</clipPath>
</defs>
</svg>
