<svg width="449" height="283" viewBox="0 0 449 283" fill="none" xmlns="http://www.w3.org/2000/svg">
<g clip-path="url(#clip0_235_4158)">
<path d="M211.823 17.6593C213.252 12.3246 218.736 9.15877 224.07 10.5882L404.734 58.9969C410.069 60.4264 413.235 65.9097 411.805 71.2444L383.335 177.496C381.906 182.831 376.422 185.997 371.088 184.567L190.424 136.159C185.089 134.729 181.923 129.246 183.353 123.911L211.823 17.6593Z" fill="black"/>
<g clip-path="url(#clip1_235_4158)">
<path d="M233.417 111.9C232.599 111.681 231.75 111.939 231.471 112.982C231.191 114.025 231.797 114.673 232.661 114.904C233.116 115.026 233.413 115.008 233.71 114.991L233.795 114.674C233.44 114.724 233.11 114.684 232.701 114.575C231.973 114.38 231.582 113.838 231.789 113.067C231.995 112.296 232.65 112.035 233.332 112.217C233.696 112.315 233.956 112.433 234.284 112.667L234.369 112.349C234.12 112.186 233.826 112.01 233.417 111.9ZM237.906 113.151L237.542 113.054L236.777 115.91L237.14 116.007L239.569 114.034L238.914 116.482L239.232 116.568L239.997 113.712L239.588 113.602L237.262 115.554L237.906 113.151ZM245.452 115.173L244.687 118.029L244.369 117.944L245.049 115.405L243.776 115.064C242.966 117.18 242.708 117.596 242.162 117.45L242.026 117.414L242.099 117.142L242.19 117.166C242.508 117.251 242.705 117.061 243.543 114.662L245.452 115.173ZM250.011 116.346C249.556 116.224 249.214 116.23 248.768 116.256L248.683 116.574C249.038 116.523 249.38 116.517 249.88 116.651C250.471 116.81 250.786 117.089 250.604 117.769L250.543 117.995C250.319 117.741 249.98 117.553 249.48 117.419C248.798 117.236 248.201 117.465 248.055 118.009C247.885 118.643 248.254 119.082 248.982 119.277C249.391 119.387 249.791 119.348 250.215 119.219L250.176 119.549L250.449 119.622L250.898 117.944C251.199 117.005 250.875 116.578 250.011 116.346ZM249.112 118.972C248.749 118.875 248.285 118.605 248.419 118.106C248.528 117.698 249.031 117.639 249.486 117.76C249.849 117.858 250.234 118.058 250.458 118.313L250.313 118.857C250.094 118.944 249.612 119.106 249.112 118.972ZM261.058 119.306C260.558 119.172 260.306 119.202 259.964 119.207L259.879 119.525C260.279 119.486 260.564 119.514 260.927 119.611C261.518 119.77 261.843 120.197 261.694 120.934L260.057 120.496L259.984 120.768L261.621 121.206C261.405 121.829 260.932 122.139 260.25 121.957C259.887 121.859 259.547 121.671 259.253 121.495L259.168 121.813C259.462 121.988 259.756 122.164 260.165 122.274C260.984 122.493 261.754 122.165 262.021 121.168C262.346 120.137 261.876 119.526 261.058 119.306ZM266.918 123.986L267.282 124.084L268.047 121.228L267.683 121.13L267.343 122.4L265.57 121.924L265.91 120.655L265.592 120.57L264.827 123.426L265.145 123.511L265.485 122.242L267.258 122.717L266.918 123.986ZM271.077 123.74L273.486 124.386L273.547 124.159C273.778 123.298 273.502 122.689 272.639 122.458C271.82 122.239 271.017 122.509 270.738 123.552C270.458 124.595 271.019 125.231 271.837 125.45C272.428 125.608 272.725 125.591 273.08 125.54L273.177 125.177C272.674 125.237 272.331 125.242 271.967 125.145C271.57 124.99 270.858 124.556 271.077 123.74ZM272.566 122.73C273.202 122.9 273.366 123.382 273.208 123.971L271.162 123.423C271.414 122.664 272.066 122.596 272.566 122.73ZM278.424 123.96C278.015 123.85 277.615 123.889 277.294 123.997L277.276 123.7L277.048 123.64L275.979 127.629L276.298 127.714L276.662 126.354C276.841 126.596 277.168 126.83 277.577 126.94C278.396 127.159 279.211 126.843 279.478 125.845C279.803 124.815 279.243 124.179 278.424 123.96ZM277.662 126.622C277.162 126.488 276.938 126.234 276.759 125.992L277.197 124.359C277.485 124.194 277.885 124.155 278.339 124.277C279.021 124.46 279.367 124.99 279.172 125.715C278.978 126.44 278.39 126.817 277.662 126.622ZM284.737 126.04L284.822 125.723L283.049 125.247L282.284 128.104L282.648 128.201L283.328 125.662L284.737 126.04ZM288.141 126.612L287.777 126.514L287.012 129.37L287.376 129.468L289.805 127.495L289.149 129.943L289.467 130.028L290.232 127.172L289.823 127.063L287.497 129.015L288.141 126.612ZM295.961 128.707L294.824 128.402C293.778 128.122 293.317 128.388 293.147 129.022C293.014 129.521 293.292 129.936 293.768 130.16C293.147 130.48 292.525 130.799 292.455 130.878L292.91 130.999C293.371 130.734 293.774 130.502 294.211 130.327C294.574 130.425 294.859 130.453 295.099 130.468L294.819 131.511L295.183 131.608L295.961 128.707ZM294.217 129.94C293.581 129.77 293.368 129.47 293.478 129.062C293.599 128.609 293.933 128.455 294.706 128.662L295.478 128.869L295.151 130.093C294.944 130.135 294.626 130.05 294.217 129.94ZM305.792 131.293C305.383 131.183 304.995 131.176 304.653 131.182L304.568 131.499C304.968 131.461 305.344 131.513 305.662 131.598C306.207 131.744 306.341 131.974 306.268 132.246C306.183 132.564 305.849 132.717 305.395 132.595L304.576 132.376L304.503 132.648L305.276 132.855C305.913 133.026 306.067 133.359 305.994 133.631C305.909 133.948 305.667 134.126 304.985 133.943C304.576 133.834 304.282 133.658 303.976 133.527L303.891 133.844C304.185 134.02 304.491 134.151 304.9 134.261C305.809 134.504 306.224 134.227 306.358 133.728C306.467 133.32 306.222 132.963 305.825 132.808C306.213 132.815 306.534 132.706 306.644 132.298C306.798 131.903 306.565 131.5 305.792 131.293ZM312.089 135.798L311.634 135.676L312.327 133.092L310.372 132.569C309.762 134.3 309.467 134.853 309.27 135.043L308.861 134.933L308.533 136.157L308.851 136.243L309.107 135.291L311.652 135.973L311.397 136.925L311.716 137.01L312.044 135.786L312.089 135.798ZM311.316 135.591L309.634 135.14C309.946 134.884 310.162 134.261 310.651 132.983L311.924 133.324L311.316 135.591ZM317.021 134.302C316.203 134.082 315.388 134.398 315.12 135.396C314.853 136.393 315.401 137.074 316.22 137.294C317.084 137.525 317.854 137.197 318.121 136.2C318.388 135.202 317.84 134.521 317.021 134.302ZM316.936 134.619C317.664 134.814 317.952 135.377 317.757 136.102C317.587 136.737 317.123 137.196 316.305 136.976C315.441 136.745 315.269 136.116 315.439 135.481C315.645 134.71 316.255 134.436 316.936 134.619ZM323.022 135.91C322.613 135.8 322.213 135.839 321.892 135.947L321.874 135.65L321.646 135.59L320.577 139.579L320.941 139.676L321.306 138.316C321.484 138.559 321.812 138.792 322.221 138.902C323.039 139.121 323.855 138.805 324.122 137.808C324.356 136.753 323.795 136.117 323.022 135.91ZM322.26 138.572C321.76 138.438 321.536 138.184 321.357 137.942L321.795 136.31C322.083 136.144 322.437 136.093 322.937 136.227C323.574 136.398 323.965 136.94 323.77 137.665C323.576 138.39 322.988 138.767 322.26 138.572ZM328.978 137.505C328.16 137.286 327.344 137.602 327.077 138.599C326.81 139.597 327.358 140.278 328.176 140.497C329.04 140.729 329.81 140.401 330.077 139.403C330.345 138.406 329.796 137.725 328.978 137.505ZM328.893 137.823C329.62 138.018 329.908 138.581 329.714 139.306C329.544 139.941 329.08 140.399 328.261 140.18C327.443 139.961 327.225 139.319 327.395 138.685C327.602 137.914 328.211 137.64 328.893 137.823ZM333.603 138.793L332.838 141.649L334.111 141.99C335.065 142.246 335.456 142.059 335.602 141.515C335.711 141.107 335.421 140.738 335.012 140.628C335.4 140.635 335.709 140.572 335.818 140.164C335.927 139.756 335.694 139.354 334.876 139.134L333.603 138.793ZM333.836 139.196L334.745 139.44C335.336 139.598 335.482 139.783 335.409 140.055C335.324 140.372 335.048 140.492 334.548 140.358L333.593 140.103L333.836 139.196ZM333.508 140.42L334.463 140.676C335.099 140.846 335.266 141.134 335.181 141.451C335.084 141.814 334.865 141.901 334.138 141.706L333.229 141.463L333.508 140.42ZM340.44 141.646C339.94 141.512 339.54 141.55 339.23 141.613L339.558 140.389L339.24 140.304L338.487 143.114C339.054 143.364 339.327 143.437 339.69 143.534C340.736 143.814 341.197 143.549 341.367 142.914C341.467 142.358 341.167 141.841 340.44 141.646ZM339.763 143.262C339.399 143.165 339.093 143.034 338.878 142.928L339.145 141.93C339.455 141.867 339.9 141.841 340.264 141.939C340.855 142.097 341.1 142.454 341.003 142.817C340.869 143.316 340.536 143.469 339.763 143.262ZM344.589 143.438L346.998 144.083L347.059 143.856C347.29 142.995 347.014 142.387 346.15 142.155C345.378 141.948 344.574 142.219 344.295 143.262C344.015 144.304 344.576 144.94 345.394 145.16C345.985 145.318 346.328 145.313 346.637 145.25L346.734 144.887C346.231 144.946 345.934 144.964 345.525 144.854C345.082 144.687 344.415 144.266 344.589 143.438ZM346.077 142.427C346.714 142.598 346.877 143.079 346.719 143.668L344.674 143.12C344.971 142.374 345.623 142.306 346.077 142.427Z" fill="white"/>
<path d="M233.865 95.4997C233.585 96.5424 232.491 97.1723 231.445 96.8921L223.853 94.8578L225.372 89.1911L232.964 91.2254C234.009 91.5055 234.642 92.5983 234.363 93.641L233.865 95.4997ZM233.7 103.57L234.065 102.21L232.132 98.874C233.857 98.8017 235.304 97.5858 235.729 95.9992L236.239 94.0951C236.798 92.0098 235.474 89.8573 233.474 89.3213L224.018 86.7876L220.471 100.025L222.38 100.537L223.401 96.7287L229.629 98.3976L232.382 103.217L233.7 103.57ZM247.086 103.075C246.807 104.118 245.712 104.748 244.667 104.468L238.984 102.945C237.938 102.665 237.305 101.572 237.585 100.529L239.103 94.8626C239.382 93.8199 240.477 93.19 241.523 93.4702L247.205 94.9928C248.251 95.273 248.884 96.3658 248.605 97.4085L247.086 103.075ZM250.456 97.9533C251.003 95.9132 249.692 93.7155 247.646 93.1673L242.009 91.6568C239.917 91.0964 237.786 92.3231 237.227 94.4084L235.709 100.075C235.138 102.206 236.37 104.334 238.462 104.894L244.144 106.417C246.236 106.977 248.413 105.763 248.983 103.632L250.502 97.9654L250.456 97.9533ZM257.108 108.044L264.977 101.407L262.341 111.244L264.251 111.756L267.798 98.5183L265.888 98.0067L258.019 104.644L254.523 94.9614L252.613 94.4497L249.066 107.687L250.976 108.199L253.612 98.3614L257.108 108.044ZM278.062 103.309C279.107 103.59 279.74 104.682 279.461 105.725L278.453 109.488L268.997 106.954L270.005 103.191C270.284 102.149 271.379 101.519 272.425 101.799L278.062 103.309ZM281.37 106.237C281.884 104.139 280.606 101.999 278.605 101.463L272.923 99.9402C270.786 99.3677 268.676 100.697 268.141 102.692L265.614 112.121L267.524 112.633L268.544 108.825L277.955 111.346L276.934 115.155L278.844 115.666L281.37 106.237ZM296.984 106.339L295.075 105.827L292.39 115.846L285.619 103.293L283.709 102.782L280.162 116.019L282.072 116.531L284.793 106.376L291.528 119.065L293.437 119.576L296.984 106.339ZM297.282 110.5L299.191 111.012L300.2 107.249L298.29 106.737L297.282 110.5ZM312.051 120.483C312.61 118.397 311.286 116.245 309.286 115.709L303.603 114.186C302.558 113.906 301.925 112.813 302.204 111.77C302.483 110.728 303.578 110.098 304.624 110.378L310.306 111.901C311.352 112.181 311.985 113.274 311.706 114.316L313.615 114.828C314.128 112.73 312.85 110.59 310.85 110.054L305.167 108.532C303.03 107.959 300.875 109.276 300.34 111.271C299.769 113.402 301.105 115.509 303.151 116.057L308.833 117.58C309.879 117.86 310.512 118.953 310.233 119.995C309.953 121.038 308.859 121.668 307.813 121.388L302.13 119.865C301.085 119.585 300.452 118.492 300.731 117.449L298.822 116.938C298.342 119.093 299.529 121.209 301.62 121.769L307.303 123.292C309.394 123.852 311.505 122.523 312.051 120.483ZM326.779 122.437L332.461 123.959L331.951 125.863C331.672 126.906 330.577 127.536 329.532 127.256L323.849 125.733C322.803 125.453 322.17 124.36 322.45 123.317L323.968 117.651C324.248 116.608 325.342 115.978 326.388 116.258L332.07 117.781C333.116 118.061 333.749 119.154 333.47 120.197L335.379 120.708C335.892 118.611 334.614 116.47 332.614 115.934L326.931 114.412C324.795 113.839 322.639 115.157 322.104 117.151L320.586 122.818C320.015 124.949 321.338 127.101 323.384 127.649L329.067 129.172C331.204 129.745 333.314 128.415 333.861 126.375L334.869 122.612L327.322 120.59L326.824 122.449L326.779 122.437ZM349.091 123.362L349.844 120.551L347.935 120.04L347.388 122.08L341.275 125.981L337.944 119.501L338.491 117.461L336.581 116.949L335.828 119.76L339.847 127.493L338.729 131.664L340.639 132.175L341.756 128.005L349.091 123.362ZM355.078 134.295L362.947 127.658L360.311 137.495L362.221 138.007L365.768 124.769L363.858 124.258L355.989 130.895L352.493 121.212L350.584 120.701L347.037 133.938L348.946 134.45L351.582 124.612L355.078 134.295Z" fill="white"/>
<path d="M296.858 80.2613C296.141 82.936 293.376 84.5273 290.693 83.8086L271.236 78.5949L275.135 64.0427L294.593 69.2564C297.275 69.9751 298.874 72.7358 298.157 75.4105L296.858 80.2613ZM296.523 100.968L297.446 97.5223L292.482 88.9525C296.893 88.6766 300.617 85.6901 301.722 81.5647L303.022 76.7139C304.467 71.3192 300.984 65.77 295.892 64.4056L271.57 57.8885L262.472 91.8437L267.336 93.1471L269.936 83.4457L285.938 87.7335L293.068 100.042L296.523 100.968Z" fill="white"/>
<path d="M329.427 94.1872L328.127 99.0379C327.41 101.713 324.645 103.304 321.963 102.585L307.37 98.675C304.687 97.9563 303.088 95.1956 303.805 92.5209L307.704 77.9686C308.421 75.2939 311.186 73.7026 313.868 74.4213L328.462 78.3316C331.144 79.0503 332.743 81.811 332.026 84.4857L336.891 85.7891C338.2 80.3578 334.944 74.8695 329.761 73.4808L315.168 69.5706C309.713 68.1088 304.212 71.5425 302.84 76.6652L298.941 91.2174C297.471 96.7029 300.887 102.137 306.07 103.526L320.663 107.436C326.119 108.898 331.619 105.464 332.991 100.341L335.591 90.6399L316.133 85.4262L329.427 94.1872Z" fill="white"/>
<path fill-rule="evenodd" clip-rule="evenodd" d="M224.663 70.1972L292.303 71.0724L286.591 79.114L224.663 70.1972Z" fill="#F5333F"/>
<path fill-rule="evenodd" clip-rule="evenodd" d="M286.591 79.114L319.951 100.637L292.303 71.0724L286.591 79.114Z" fill="black"/>
<path fill-rule="evenodd" clip-rule="evenodd" d="M319.951 100.637L372.71 97.7679L314.116 94.4092L319.951 100.637Z" fill="#F5333F"/>
<path d="M274.661 65.8107L269.797 64.5073L266.371 77.2915L271.236 78.5949L274.661 65.8107Z" fill="white"/>
<path d="M329.427 94.1873L328.127 99.038C327.848 100.081 327.274 100.947 326.522 101.572L331.841 102.997C332.357 102.164 332.736 101.293 332.992 100.341L334.291 95.4907L329.427 94.1873Z" fill="white"/>
<path fill-rule="evenodd" clip-rule="evenodd" d="M297.446 97.5223C295.355 96.962 278.565 96.156 278.565 96.156L296.523 100.968L297.446 97.5223Z" fill="white"/>
<path d="M254.403 122.868L254.542 116.346L255.179 122.881L254.403 122.868Z" fill="white"/>
<path d="M300.55 128.673L300.41 135.195L299.774 128.66L300.55 128.673Z" fill="white"/>
</g>
<rect x="312.463" y="-104.355" width="170.625" height="256.952" transform="rotate(60 312.463 -104.355)" fill="url(#paint0_linear_235_4158)" fill-opacity="0.15"/>
</g>
<g clip-path="url(#clip2_235_4158)">
<path d="M14.5882 137.61C13.1588 132.276 16.3246 126.792 21.6593 125.363L202.323 76.954C207.658 75.5246 213.141 78.6904 214.571 84.0251L243.041 190.277C244.47 195.612 241.304 201.095 235.97 202.524L55.3057 250.933C49.9711 252.363 44.4877 249.197 43.0583 243.862L14.5882 137.61Z" fill="#C41230"/>
<g clip-path="url(#clip3_235_4158)">
<path d="M80.4098 208.428C79.5915 208.647 78.9856 209.295 79.2649 210.338C79.5443 211.381 80.3932 211.639 81.257 211.408C81.7116 211.286 81.9601 211.122 82.2085 210.958L82.1235 210.641C81.8417 210.862 81.5356 210.993 81.1265 211.103C80.3991 211.297 79.7897 211.023 79.5832 210.253C79.3767 209.482 79.8129 208.928 80.4948 208.745C80.8585 208.648 81.1434 208.62 81.5436 208.659L81.4585 208.341C81.1615 208.324 80.8189 208.318 80.4098 208.428ZM84.9227 207.267L84.559 207.365L85.3242 210.221L85.6879 210.123L86.805 207.2L87.4609 209.648L87.7792 209.563L87.0139 206.707L86.6047 206.817L85.5665 209.67L84.9227 207.267ZM92.4693 205.245L93.2346 208.101L92.9164 208.186L92.2361 205.648L90.9632 205.989C91.3189 208.226 91.304 208.716 90.7585 208.862L90.6221 208.898L90.5492 208.626L90.6401 208.602C90.9584 208.517 91.034 208.253 90.5599 205.757L92.4693 205.245ZM97.0034 203.982C96.5487 204.103 96.2548 204.279 95.8821 204.525L95.9671 204.842C96.2489 204.621 96.5428 204.445 97.0429 204.311C97.6339 204.153 98.0462 204.237 98.2284 204.917L98.2892 205.143C97.9678 205.035 97.5798 205.042 97.0797 205.176C96.3978 205.359 95.9949 205.855 96.1407 206.399C96.3107 207.034 96.8504 207.229 97.5778 207.035C97.9869 206.925 98.3142 206.692 98.6171 206.367L98.7476 206.673L99.0204 206.599L98.571 204.922C98.3613 203.958 97.8671 203.75 97.0034 203.982ZM97.5382 206.705C97.1745 206.803 96.638 206.801 96.5044 206.302C96.395 205.894 96.8011 205.591 97.2557 205.469C97.6194 205.371 98.0528 205.352 98.3742 205.461L98.52 206.005C98.3746 206.189 98.0383 206.571 97.5382 206.705ZM108.051 201.022C107.551 201.156 107.347 201.307 107.054 201.483L107.139 201.8C107.466 201.567 107.726 201.449 108.09 201.351C108.681 201.193 109.175 201.4 109.415 202.114L107.779 202.552L107.851 202.824L109.488 202.386C109.613 203.032 109.358 203.538 108.676 203.721C108.313 203.818 107.925 203.825 107.582 203.819L107.667 204.137C108.01 204.142 108.352 204.148 108.761 204.038C109.58 203.819 110.083 203.149 109.815 202.152C109.581 201.097 108.869 200.802 108.051 201.022ZM115.465 202.144L115.829 202.047L115.064 199.191L114.7 199.288L115.04 200.558L113.267 201.033L112.927 199.763L112.609 199.849L113.374 202.705L113.692 202.62L113.352 201.35L115.125 200.875L115.465 202.144ZM118.944 199.852L121.354 199.206L121.293 198.98C121.062 198.118 120.519 197.729 119.655 197.961C118.837 198.18 118.277 198.816 118.556 199.859C118.835 200.901 119.639 201.172 120.457 200.953C121.048 200.794 121.297 200.631 121.578 200.409L121.481 200.047C121.075 200.35 120.781 200.526 120.418 200.623C119.996 200.687 119.163 200.668 118.944 199.852ZM119.728 198.233C120.365 198.062 120.747 198.397 120.905 198.986L118.859 199.534C118.698 198.752 119.228 198.367 119.728 198.233ZM125.417 196.368C125.008 196.478 124.681 196.711 124.456 196.966L124.293 196.718L124.065 196.779L125.134 200.768L125.452 200.683L125.088 199.323C125.364 199.444 125.764 199.482 126.173 199.372C126.992 199.153 127.54 198.472 127.273 197.474C127.039 196.42 126.235 196.149 125.417 196.368ZM126.088 199.055C125.588 199.189 125.267 199.081 124.991 198.96L124.554 197.328C124.72 197.041 125.047 196.807 125.502 196.686C126.184 196.503 126.748 196.789 126.942 197.514C127.137 198.24 126.816 198.86 126.088 199.055ZM131.924 195.013L131.839 194.696L130.066 195.171L130.832 198.027L131.195 197.93L130.515 195.391L131.924 195.013ZM135.158 193.807L134.794 193.904L135.56 196.76L135.923 196.663L137.04 193.74L137.696 196.188L138.014 196.102L137.249 193.246L136.84 193.356L135.802 196.209L135.158 193.807ZM142.977 191.712L141.841 192.016C140.795 192.296 140.529 192.756 140.699 193.391C140.832 193.89 141.281 194.11 141.806 194.066C141.427 194.654 141.048 195.241 141.027 195.344L141.482 195.222C141.748 194.762 141.981 194.359 142.272 193.99C142.636 193.892 142.897 193.774 143.112 193.668L143.391 194.71L143.755 194.613L142.977 191.712ZM142.084 193.651C141.448 193.822 141.114 193.668 141.005 193.26C140.883 192.807 141.095 192.507 141.868 192.3L142.641 192.093L142.969 193.317C142.812 193.457 142.493 193.542 142.084 193.651ZM152.785 189.035C152.376 189.145 152.036 189.333 151.743 189.509L151.828 189.826C152.155 189.593 152.506 189.45 152.825 189.365C153.37 189.218 153.601 189.351 153.673 189.623C153.758 189.94 153.546 190.24 153.092 190.362L152.274 190.581L152.346 190.853L153.119 190.646C153.756 190.476 154.056 190.687 154.129 190.959C154.214 191.276 154.093 191.551 153.411 191.734C153.002 191.844 152.659 191.838 152.329 191.878L152.414 192.196C152.756 192.201 153.087 192.161 153.496 192.051C154.405 191.808 154.626 191.36 154.492 190.861C154.383 190.453 153.992 190.266 153.571 190.331C153.91 190.143 154.134 189.888 154.025 189.48C153.961 189.06 153.558 188.828 152.785 189.035ZM160.491 189.788L160.036 189.91L159.344 187.326L157.389 187.85C157.726 189.655 157.748 190.28 157.672 190.544L157.263 190.653L157.591 191.877L157.909 191.792L157.654 190.84L160.2 190.158L160.455 191.11L160.773 191.025L160.445 189.801L160.491 189.788ZM159.718 189.996L158.036 190.446C158.178 190.068 158.053 189.421 157.838 188.07L159.11 187.729L159.718 189.996ZM164.014 186.026C163.196 186.245 162.647 186.927 162.915 187.924C163.182 188.922 163.997 189.237 164.816 189.018C165.68 188.787 166.182 188.118 165.915 187.12C165.648 186.123 164.832 185.807 164.014 186.026ZM164.099 186.344C164.827 186.149 165.357 186.492 165.551 187.218C165.722 187.852 165.549 188.482 164.731 188.701C163.867 188.932 163.403 188.474 163.233 187.839C163.026 187.068 163.417 186.526 164.099 186.344ZM170.015 184.418C169.606 184.528 169.279 184.761 169.054 185.016L168.891 184.768L168.663 184.829L169.732 188.818L170.096 188.721L169.732 187.361C170.007 187.481 170.408 187.52 170.817 187.41C171.635 187.191 172.183 186.51 171.916 185.512C171.591 184.482 170.788 184.211 170.015 184.418ZM170.686 187.105C170.186 187.239 169.865 187.131 169.589 187.01L169.152 185.378C169.318 185.091 169.6 184.87 170.1 184.736C170.737 184.565 171.346 184.839 171.54 185.564C171.735 186.29 171.414 186.91 170.686 187.105ZM175.971 182.822C175.152 183.042 174.604 183.723 174.871 184.72C175.138 185.718 175.954 186.034 176.772 185.814C177.636 185.583 178.139 184.914 177.872 183.916C177.604 182.919 176.789 182.603 175.971 182.822ZM176.056 183.14C176.783 182.945 177.314 183.289 177.508 184.014C177.678 184.649 177.506 185.278 176.687 185.497C175.869 185.716 175.359 185.27 175.189 184.635C174.983 183.865 175.374 183.323 176.056 183.14ZM180.62 181.625L181.385 184.481L182.658 184.14C183.613 183.884 183.858 183.527 183.712 182.983C183.603 182.575 183.166 182.401 182.757 182.51C183.097 182.322 183.333 182.113 183.224 181.705C183.114 181.297 182.711 181.065 181.893 181.284L180.62 181.625ZM181.023 181.857L181.932 181.614C182.523 181.455 182.742 181.543 182.814 181.815C182.9 182.132 182.721 182.374 182.221 182.508L181.266 182.764L181.023 181.857ZM181.351 183.081L182.306 182.826C182.942 182.655 183.23 182.821 183.315 183.138C183.412 183.501 183.267 183.686 182.54 183.88L181.63 184.124L181.351 183.081ZM187.967 180.677C187.467 180.811 187.14 181.044 186.903 181.254L186.575 180.029L186.257 180.115L187.01 182.925C187.626 182.858 187.898 182.785 188.262 182.687C189.308 182.407 189.574 181.947 189.404 181.312C189.213 180.78 188.694 180.482 187.967 180.677ZM188.189 182.415C187.825 182.513 187.495 182.553 187.256 182.568L186.988 181.571C187.225 181.362 187.597 181.116 187.961 181.019C188.552 180.86 188.943 181.047 189.04 181.41C189.174 181.908 188.962 182.208 188.189 182.415ZM192.456 180.154L194.865 179.509L194.805 179.282C194.574 178.421 194.031 178.032 193.167 178.263C192.394 178.47 191.834 179.106 192.113 180.149C192.393 181.192 193.196 181.462 194.014 181.243C194.605 181.085 194.899 180.909 195.136 180.7L195.039 180.337C194.633 180.64 194.384 180.804 193.975 180.914C193.508 180.99 192.72 180.958 192.456 180.154ZM193.24 178.535C193.877 178.365 194.259 178.7 194.417 179.289L192.371 179.837C192.255 179.042 192.786 178.657 193.24 178.535Z" fill="white"/>
<path d="M72.5973 194.001C72.8767 195.044 72.2438 196.136 71.1981 196.417L63.606 198.451L62.0876 192.784L69.6797 190.75C70.7253 190.47 71.8199 191.1 72.0993 192.142L72.5973 194.001ZM76.4899 201.072L76.1254 199.712L72.7841 197.789C74.2417 196.864 74.8864 195.088 74.4613 193.502L73.9511 191.597C73.3923 189.512 71.1699 188.31 69.1695 188.846L59.7135 191.38L63.2605 204.617L65.1699 204.105L64.1495 200.297L70.3778 198.629L75.1715 201.426L76.4899 201.072ZM87.8351 193.951C88.1145 194.994 87.4815 196.086 86.4359 196.367L80.7532 197.889C79.7076 198.169 78.613 197.54 78.3336 196.497L76.8152 190.83C76.5358 189.787 77.1688 188.695 78.2144 188.414L83.8971 186.892C84.9428 186.612 86.0373 187.241 86.3167 188.284L87.8351 193.951ZM88.1928 187.83C87.6462 185.79 85.4116 184.542 83.3658 185.091L77.7285 186.601C75.6373 187.161 74.4046 189.289 74.9634 191.375L76.4818 197.042C77.0527 199.172 79.1843 200.399 81.2755 199.839L86.9582 198.316C89.0495 197.756 90.3276 195.615 89.7567 193.485L88.2383 187.818L88.1928 187.83ZM98.9986 193.243L102.495 183.561L105.131 193.398L107.04 192.886L103.493 179.649L101.584 180.16L98.0876 189.843L90.2184 183.206L88.309 183.717L91.856 196.955L93.7654 196.443L91.1294 186.606L98.9986 193.243ZM114.778 178.666C115.823 178.386 116.918 179.016 117.197 180.058L118.206 183.821L108.75 186.355L107.741 182.592C107.462 181.549 108.095 180.457 109.141 180.176L114.778 178.666ZM119.107 179.547C118.503 177.473 116.326 176.259 114.325 176.795L108.643 178.318C106.506 178.89 105.343 181.097 105.877 183.091L108.404 192.521L110.313 192.009L109.293 188.201L118.704 185.68L119.724 189.488L121.633 188.976L119.107 179.547ZM132.68 171.828L130.77 172.34L133.455 182.359L121.314 174.874L119.405 175.385L122.952 188.623L124.861 188.111L122.14 177.956L134.317 185.577L136.227 185.066L132.68 171.828ZM135.018 175.283L136.928 174.772L135.92 171.009L134.01 171.52L135.018 175.283ZM152.8 176.544C152.241 174.458 150.019 173.256 148.019 173.792L142.336 175.315C141.29 175.595 140.196 174.965 139.916 173.922C139.637 172.88 140.27 171.787 141.315 171.507L146.998 169.984C148.044 169.704 149.138 170.334 149.418 171.376L151.327 170.865C150.723 168.791 148.546 167.577 146.546 168.113L140.863 169.636C138.726 170.208 137.518 172.427 138.052 174.422C138.623 176.552 140.833 177.709 142.879 177.161L148.562 175.638C149.608 175.358 150.702 175.988 150.982 177.031C151.261 178.074 150.628 179.166 149.582 179.446L143.9 180.969C142.854 181.249 141.759 180.619 141.48 179.577L139.571 180.088C140.233 182.195 142.319 183.434 144.41 182.873L150.093 181.351C152.184 180.79 153.347 178.584 152.8 176.544ZM166.532 170.872L172.214 169.349L172.724 171.253C173.004 172.296 172.371 173.389 171.325 173.669L165.643 175.192C164.597 175.472 163.502 174.842 163.223 173.799L161.705 168.133C161.425 167.09 162.058 165.997 163.104 165.717L168.787 164.194C169.832 163.914 170.927 164.544 171.206 165.587L173.115 165.075C172.511 163.002 170.334 161.787 168.334 162.323L162.651 163.846C160.515 164.419 159.306 166.637 159.841 168.632L161.359 174.299C161.93 176.43 164.152 177.632 166.198 177.084L171.881 175.561C174.018 174.988 175.181 172.782 174.634 170.742L173.626 166.979L166.079 169.001L166.577 170.86L166.532 170.872ZM186.317 160.517L185.564 157.707L183.655 158.218L184.201 160.258L180.858 166.693L174.733 162.747L174.186 160.707L172.277 161.218L173.03 164.029L180.377 168.717L181.495 172.888L183.404 172.376L182.286 168.205L186.317 160.517ZM196.969 166.992L200.465 157.309L203.101 167.147L205.01 166.635L201.463 153.398L199.554 153.909L196.058 163.592L188.189 156.955L186.279 157.466L189.826 170.704L191.736 170.192L189.1 160.355L196.969 166.992Z" fill="white"/>
<path d="M119.531 149.308C120.248 151.982 118.649 154.743 115.967 155.462L96.509 160.676L92.6098 146.123L112.067 140.91C114.75 140.191 117.515 141.782 118.232 144.457L119.531 149.308ZM129.595 167.407L128.672 163.962L120.088 159.022C123.77 156.578 125.501 152.13 124.396 148.004L123.096 143.154C121.65 137.759 115.859 134.695 110.768 136.059L86.4456 142.576L95.5439 176.531L100.408 175.228L97.8088 165.526L113.811 161.238L126.14 168.333L129.595 167.407Z" fill="white"/>
<path d="M154.7 145.083L156 149.934C156.717 152.609 155.118 155.37 152.435 156.088L137.842 159.998C135.16 160.717 132.395 159.126 131.678 156.451L127.779 141.899C127.062 139.224 128.661 136.463 131.343 135.745L145.936 131.835C148.619 131.116 151.384 132.707 152.101 135.382L156.965 134.078C155.383 128.72 149.819 125.595 144.637 126.984L130.043 130.894C124.588 132.356 121.542 138.08 122.914 143.202L126.813 157.755C128.283 163.24 133.959 166.238 139.142 164.849L153.735 160.939C159.19 159.477 162.237 153.753 160.864 148.631L158.265 138.929L138.807 144.143L154.7 145.083Z" fill="white"/>
<path fill-rule="evenodd" clip-rule="evenodd" d="M51.9767 176.69L110.993 143.627L110.067 153.447L51.9767 176.69Z" fill="#F5333F"/>
<path fill-rule="evenodd" clip-rule="evenodd" d="M110.067 153.447L149.719 155.407L110.993 143.627L110.067 153.447Z" fill="#C41230"/>
<path fill-rule="evenodd" clip-rule="evenodd" d="M149.719 155.407L193.975 126.542L141.552 152.931L149.719 155.407Z" fill="#F5333F"/>
<path d="M93.0835 147.891L88.2191 149.195L91.6446 161.979L96.509 160.676L93.0835 147.891Z" fill="white"/>
<path d="M154.7 145.083L156 149.934C156.279 150.977 156.216 152.014 155.877 152.931L161.196 151.506C161.226 150.526 161.119 149.583 160.864 148.631L159.565 143.78L154.7 145.083Z" fill="white"/>
<path fill-rule="evenodd" clip-rule="evenodd" d="M128.672 163.962C126.58 164.522 111.637 172.219 111.637 172.219L129.595 167.407L128.672 163.962Z" fill="white"/>
<path d="M104.068 207.434L100.928 201.715L104.747 207.057L104.068 207.434Z" fill="white"/>
<path d="M146.935 189.388L150.075 195.106L146.256 189.764L146.935 189.388Z" fill="white"/>
</g>
<rect x="158.592" y="-49.7638" width="170.625" height="364.147" transform="rotate(60 158.592 -49.7638)" fill="url(#paint1_linear_235_4158)" fill-opacity="0.15"/>
</g>
<g filter="url(#filter0_f_235_4158)">
<rect x="48" y="266" width="246" height="3" rx="1.5" fill="url(#paint2_linear_235_4158)" fill-opacity="0.6"/>
</g>
<g filter="url(#filter1_f_235_4158)">
<rect x="168" y="253" width="246" height="10" rx="5" fill="url(#paint3_linear_235_4158)" fill-opacity="0.2"/>
</g>
<defs>
<filter id="filter0_f_235_4158" x="40" y="258" width="262" height="19" filterUnits="userSpaceOnUse" color-interpolation-filters="sRGB">
<feFlood flood-opacity="0" result="BackgroundImageFix"/>
<feBlend mode="normal" in="SourceGraphic" in2="BackgroundImageFix" result="shape"/>
<feGaussianBlur stdDeviation="4" result="effect1_foregroundBlur_235_4158"/>
</filter>
<filter id="filter1_f_235_4158" x="153" y="238" width="276" height="40" filterUnits="userSpaceOnUse" color-interpolation-filters="sRGB">
<feFlood flood-opacity="0" result="BackgroundImageFix"/>
<feBlend mode="normal" in="SourceGraphic" in2="BackgroundImageFix" result="shape"/>
<feGaussianBlur stdDeviation="7.5" result="effect1_foregroundBlur_235_4158"/>
</filter>
<linearGradient id="paint0_linear_235_4158" x1="397.776" y1="-104.355" x2="397.776" y2="152.596" gradientUnits="userSpaceOnUse">
<stop stop-color="white"/>
<stop offset="0.822917" stop-color="white" stop-opacity="0"/>
</linearGradient>
<linearGradient id="paint1_linear_235_4158" x1="243.905" y1="-49.7638" x2="243.905" y2="314.383" gradientUnits="userSpaceOnUse">
<stop offset="0.104167" stop-color="white"/>
<stop offset="0.678749" stop-color="white" stop-opacity="0"/>
</linearGradient>
<linearGradient id="paint2_linear_235_4158" x1="48" y1="269" x2="294" y2="269" gradientUnits="userSpaceOnUse">
<stop/>
<stop offset="1" stop-opacity="0.2"/>
</linearGradient>
<linearGradient id="paint3_linear_235_4158" x1="168" y1="263.002" x2="414" y2="263.002" gradientUnits="userSpaceOnUse">
<stop stop-opacity="0.5"/>
<stop offset="0.822917"/>
<stop offset="1" stop-opacity="0.3"/>
</linearGradient>
<clipPath id="clip0_235_4158">
<path d="M211.823 17.6593C213.252 12.3246 218.736 9.15877 224.07 10.5882L404.734 58.9969C410.069 60.4264 413.235 65.9097 411.805 71.2444L383.335 177.496C381.906 182.831 376.422 185.997 371.088 184.567L190.424 136.159C185.089 134.729 181.923 129.246 183.353 123.911L211.823 17.6593Z" fill="white"/>
</clipPath>
<clipPath id="clip1_235_4158">
<rect width="154.375" height="75.5625" fill="white" transform="translate(231.744 43.7675) rotate(15)"/>
</clipPath>
<clipPath id="clip2_235_4158">
<path d="M14.5882 137.61C13.1588 132.276 16.3246 126.792 21.6593 125.363L202.323 76.954C207.658 75.5246 213.141 78.6904 214.571 84.0251L243.041 190.277C244.47 195.612 241.304 201.095 235.97 202.524L55.3057 250.933C49.9711 252.363 44.4877 249.197 43.0583 243.862L14.5882 137.61Z" fill="white"/>
</clipPath>
<clipPath id="clip3_235_4158">
<rect width="154.375" height="75.5625" fill="white" transform="translate(44.8948 150.26) rotate(-15)"/>
</clipPath>
</defs>
</svg>
