<svg width="49" height="48" viewBox="0 0 49 48" fill="none" xmlns="http://www.w3.org/2000/svg">
<g clip-path="url(#clip0_216_4617)">
<path d="M41.7151 5.57645C41.2214 5.57734 40.7371 5.71082 40.3126 5.96294C40.1159 5.32634 39.6973 4.78142 39.1329 4.4272C38.5686 4.07297 37.8959 3.93293 37.2371 4.03252C36.5782 4.13211 35.977 4.46472 35.5426 4.96993C35.1081 5.47514 34.8693 6.11942 34.8695 6.78573V10.5218H32.7851V9.73122C32.7852 9.64332 32.7698 9.55609 32.7395 9.47356C32.631 8.9308 32.338 8.4423 31.9104 8.09094C31.4827 7.73957 30.9466 7.54698 30.3931 7.54583C30.0089 7.54624 29.6305 7.64028 29.2908 7.81981C29.1538 7.49756 28.947 7.20969 28.6854 6.97694C28.4238 6.74418 28.1139 6.57233 27.7779 6.47376C27.4419 6.37519 27.0882 6.35236 26.7423 6.4069C26.3964 6.46143 26.0669 6.59199 25.7776 6.78917C25.5749 6.50723 25.3133 6.27281 25.0108 6.10223C24.7084 5.93165 24.3724 5.829 24.0263 5.80141C23.6802 5.77383 23.3322 5.82197 23.0066 5.94249C22.6809 6.06301 22.3855 6.25302 22.1407 6.4993C22.0637 6.57783 21.992 6.66132 21.926 6.74923C21.5946 6.50686 21.204 6.35849 20.7953 6.3198C20.4631 6.28658 20.1277 6.32329 19.8106 6.42757C19.4936 6.53185 19.2018 6.70139 18.9542 6.92526C18.7067 7.14914 18.5087 7.42239 18.3731 7.72742C18.2376 8.03245 18.1674 8.36249 18.1671 8.69628V10.5214H14.1257V6.78531C14.1242 6.04768 13.8307 5.34066 13.3094 4.81876C12.7882 4.29686 12.0815 4.00249 11.3439 4C10.75 4.00119 10.172 4.19176 9.69387 4.54401C9.21574 4.89625 8.86241 5.39181 8.68526 5.95865C8.2601 5.70794 7.77544 5.57595 7.28187 5.57645C6.54382 5.57782 5.83645 5.87187 5.31493 6.39411C4.79341 6.91636 4.50034 7.62414 4.5 8.36219V17.7067C4.50045 18.4446 4.79358 19.1523 5.31508 19.6744C5.83659 20.1966 6.5439 20.4906 7.28187 20.492C7.77549 20.4917 8.25998 20.3589 8.68483 20.1076C8.88129 20.7445 9.29975 21.2897 9.86414 21.6441C10.4285 21.9985 11.1014 22.1387 11.7603 22.0391C12.4193 21.9394 13.0206 21.6067 13.455 21.1012C13.8894 20.5958 14.128 19.9513 14.1275 19.2848V15.5453H15.7662C15.9693 17.8605 16.9646 20.0348 18.5841 21.7017V38.2027C18.5841 38.402 18.6633 38.5931 18.8042 38.7341C18.9452 38.875 19.1363 38.9542 19.3356 38.9542H30.0036C30.1023 38.9542 30.2001 38.9348 30.2913 38.8971C30.3825 38.8593 30.4653 38.804 30.5351 38.7342C30.6049 38.6644 30.6603 38.5815 30.698 38.4903C30.7358 38.3991 30.7552 38.3014 30.7551 38.2027V21.7339C30.8758 21.5531 30.9913 21.3835 31.0987 21.2211C32.2186 19.567 32.8946 18.5685 32.7829 16.0503V15.5453H34.8674V19.2848C34.8689 20.0225 35.1623 20.7296 35.6836 21.2516C36.2048 21.7736 36.9115 22.0681 37.6493 22.0706C38.2442 22.07 38.8234 21.8793 39.3024 21.5263C39.7813 21.1733 40.135 20.6766 40.3117 20.1085C40.7366 20.3595 41.2212 20.492 41.7147 20.492C42.4532 20.4912 43.1611 20.1975 43.6833 19.6753C44.2055 19.1531 44.4992 18.4451 44.5 17.7067V8.36219C44.4993 7.62372 44.2057 6.91568 43.6836 6.39343C43.1615 5.87118 42.4536 5.57736 41.7151 5.57645ZM7.28015 18.9889C6.94066 18.988 6.61539 18.8525 6.37566 18.6122C6.13592 18.3718 6.0013 18.0461 6.0013 17.7067V8.36219C6.00118 8.02262 6.13576 7.69687 6.37551 7.4564C6.61525 7.21593 6.94059 7.08038 7.28015 7.07947C7.44832 7.07975 7.61478 7.11315 7.77004 7.17777C7.9253 7.24238 8.06631 7.33694 8.18502 7.45606C8.30374 7.57517 8.39783 7.71649 8.46192 7.87197C8.52601 8.02744 8.55886 8.19402 8.55857 8.36219V17.7067C8.55858 18.0461 8.42401 18.3716 8.18437 18.612C7.94473 18.8524 7.61957 18.9879 7.28015 18.9889ZM12.6227 19.2848C12.6227 19.6245 12.4878 19.9502 12.2477 20.1903C12.0075 20.4305 11.6818 20.5654 11.3422 20.5654C11.0025 20.5654 10.6768 20.4305 10.4367 20.1903C10.1965 19.9502 10.0616 19.6245 10.0616 19.2848V6.78359C10.062 6.44364 10.1973 6.11775 10.4377 5.87737C10.678 5.637 11.0039 5.50175 11.3439 5.5013C11.6829 5.50378 12.0072 5.63978 12.2466 5.87982C12.486 6.11986 12.6212 6.44458 12.6227 6.78359V19.2848ZM14.1257 12.0244H18.1671V14.0427H14.1257V12.0244ZM29.8563 20.3786C29.7069 20.5998 29.5467 20.8359 29.3766 21.0923C29.2954 21.2154 29.2521 21.3596 29.2521 21.5071V37.4511H20.0854V21.3719C20.085 21.2608 20.0602 21.1513 20.0128 21.0509C19.9653 20.9505 19.8965 20.8617 19.811 20.7908C19.7183 20.714 17.6845 18.9911 17.2774 15.5453H18.9187C19.0174 15.5454 19.1151 15.526 19.2063 15.4882C19.2975 15.4505 19.3804 15.3951 19.4502 15.3253C19.52 15.2555 19.5753 15.1727 19.6131 15.0815C19.6508 14.9903 19.6702 14.8925 19.6702 14.7938V8.69628C19.6706 8.57183 19.6971 8.44884 19.7482 8.33533C19.7992 8.22181 19.8736 8.1203 19.9664 8.0374C20.0592 7.95449 20.1684 7.89205 20.287 7.85412C20.4055 7.81618 20.5307 7.80362 20.6544 7.81723C20.8797 7.85259 21.0845 7.96866 21.2306 8.14382C21.3767 8.31898 21.4541 8.54128 21.4484 8.76929C21.4484 8.9686 21.5276 9.15975 21.6686 9.30068C21.8095 9.44162 22.0006 9.5208 22.2 9.5208C22.3993 9.5208 22.5904 9.44162 22.7314 9.30068C22.8723 9.15975 22.9515 8.9686 22.9515 8.76929V8.18526C22.9505 7.95228 23.041 7.72823 23.2035 7.56129C23.3721 7.39202 23.601 7.29657 23.84 7.2959C24.0752 7.2967 24.3005 7.39079 24.4664 7.55753C24.6324 7.72426 24.7254 7.95002 24.725 8.18526V8.76929C24.725 8.9686 24.8042 9.15975 24.9451 9.30068C25.0861 9.44162 25.2772 9.5208 25.4765 9.5208C25.6758 9.5208 25.867 9.44162 26.0079 9.30068C26.1489 9.15975 26.228 8.9686 26.228 8.76929C26.2282 8.64513 26.2544 8.52239 26.3048 8.40894C26.3552 8.29549 26.4289 8.19385 26.5209 8.11054C26.6125 8.02704 26.7206 7.96381 26.8383 7.92496C26.9559 7.88611 27.0804 7.87252 27.2037 7.88508C27.431 7.91768 27.6384 8.03276 27.7864 8.20842C27.9343 8.38407 28.0124 8.60801 28.0059 8.83757V9.73122C28.0087 9.93188 28.0906 10.1233 28.2337 10.264C28.3768 10.4047 28.5696 10.4833 28.7703 10.4827C28.9531 10.4827 29.1296 10.4161 29.2669 10.2953C29.4041 10.1746 29.4926 10.0079 29.5158 9.82655C29.5432 9.61476 29.6458 9.41986 29.8048 9.27731C29.9658 9.13083 30.1754 9.04928 30.3931 9.04842C30.6091 9.04925 30.8175 9.12854 30.9794 9.27152C31.1414 9.41449 31.2459 9.61143 31.2735 9.82569C31.2735 9.84072 31.2777 9.85532 31.2803 9.86864V14.7938V14.8007V16.0834C31.3731 18.1378 30.9299 18.7923 29.8563 20.3786ZM34.8678 14.0423H32.7851V12.024H34.8678V14.0423ZM38.9337 19.2848C38.9333 19.6248 38.7981 19.9508 38.5578 20.1913C38.3174 20.4318 37.9914 20.5671 37.6514 20.5675C37.3123 20.5651 36.9879 20.429 36.7485 20.1889C36.5091 19.9487 36.374 19.6239 36.3725 19.2848V6.78359C36.3725 6.44396 36.5075 6.11824 36.7476 5.87809C36.9878 5.63793 37.3135 5.50302 37.6531 5.50302C37.9927 5.50302 38.3185 5.63793 38.5586 5.87809C38.7988 6.11824 38.9337 6.44396 38.9337 6.78359V19.2848ZM42.9974 17.7067C43.0005 17.8768 42.9697 18.0458 42.9068 18.2039C42.8438 18.3619 42.75 18.5059 42.6308 18.6273C42.5116 18.7487 42.3694 18.8451 42.2125 18.9109C42.0556 18.9768 41.8872 19.0107 41.7171 19.0107C41.5469 19.0107 41.3785 18.9768 41.2216 18.9109C41.0647 18.8451 40.9225 18.7487 40.8033 18.6273C40.6841 18.5059 40.5903 18.3619 40.5273 18.2039C40.4644 18.0458 40.4336 17.8768 40.4367 17.7067V8.36219C40.4336 8.19207 40.4644 8.02305 40.5273 7.86498C40.5903 7.70691 40.6841 7.56297 40.8033 7.44156C40.9225 7.32016 41.0647 7.22373 41.2216 7.1579C41.3785 7.09207 41.5469 7.05816 41.7171 7.05816C41.8872 7.05816 42.0556 7.09207 42.2125 7.1579C42.3694 7.22373 42.5116 7.32016 42.6308 7.44156C42.75 7.56297 42.8438 7.70691 42.9068 7.86498C42.9697 8.02305 43.0005 8.19207 42.9974 8.36219V17.7067Z" fill="black"/>
<path d="M37 46C42.5228 46 47 41.5228 47 36C47 30.4772 42.5228 26 37 26C31.4772 26 27 30.4772 27 36C27 41.5228 31.4772 46 37 46Z" fill="#3FAB5D"/>
<path d="M33 36.5L36 39.5L41 33.5" stroke="white" stroke-linecap="round" stroke-linejoin="round"/>
</g>
<defs>
<clipPath id="clip0_216_4617">
<rect width="48" height="48" fill="white" transform="translate(0.5)"/>
</clipPath>
</defs>
</svg>
