<svg width="49" height="48" viewBox="0 0 49 48" fill="none" xmlns="http://www.w3.org/2000/svg">
<g clip-path="url(#clip0_220_3857)">
<path d="M24.9998 44C24.543 43.9996 24.105 43.8179 23.7819 43.4949C23.4588 43.1719 23.277 42.7339 23.2765 42.277V41.9786L22.6517 42.603C22.4925 42.7665 22.3023 42.8966 22.0924 42.986C21.8824 43.0753 21.6568 43.1221 21.4287 43.1236C21.2005 43.125 20.9743 43.0812 20.7632 42.9945C20.5521 42.9079 20.3603 42.7802 20.199 42.6189C20.0376 42.4575 19.9099 42.2657 19.8233 42.0546C19.7366 41.8435 19.6928 41.6174 19.6943 41.3892C19.6957 41.161 19.7425 40.9354 19.8319 40.7254C19.9212 40.5155 20.0514 40.3254 20.2148 40.1661L23.2765 37.1044V35.6576L20.1064 38.8277C19.9472 38.9911 19.7571 39.1213 19.5471 39.2106C19.3372 39.3 19.1116 39.3467 18.8834 39.3482C18.6552 39.3497 18.429 39.3058 18.2179 39.2192C18.0068 39.1325 17.815 39.0048 17.6537 38.8435C17.4924 38.6822 17.3647 38.4904 17.278 38.2793C17.1914 38.0682 17.1475 37.842 17.149 37.6138C17.1505 37.3857 17.1972 37.16 17.2866 36.9501C17.3759 36.7401 17.5061 36.55 17.6695 36.3908L23.2765 30.7838V29.2152C23.0207 29.1307 22.7715 29.0273 22.5309 28.906L13.2946 38.1423C13.1353 38.3057 12.9452 38.4359 12.7353 38.5253C12.5253 38.6146 12.2997 38.6614 12.0715 38.6629C11.8434 38.6643 11.6172 38.6205 11.4061 38.5338C11.195 38.4472 11.0032 38.3195 10.8419 38.1581C10.6805 37.9968 10.5528 37.805 10.4662 37.5939C10.3795 37.3828 10.3357 37.1566 10.3371 36.9285C10.3386 36.7003 10.3854 36.4747 10.4747 36.2647C10.5641 36.0548 10.6943 35.8647 10.8577 35.7054L20.094 26.4691C19.9727 26.2285 19.8693 25.9793 19.7848 25.7235H18.2162L12.6092 31.3305C12.45 31.4939 12.2599 31.6241 12.0499 31.7134C11.84 31.8028 11.6143 31.8495 11.3862 31.851C11.158 31.8525 10.9318 31.8086 10.7207 31.722C10.5096 31.6353 10.3178 31.5076 10.1565 31.3463C9.99515 31.185 9.86745 30.9932 9.78081 30.7821C9.69417 30.571 9.65031 30.3448 9.65178 30.1166C9.65326 29.8885 9.70003 29.6628 9.78938 29.4529C9.87873 29.2429 10.0089 29.0528 10.1723 28.8936L13.3424 25.7235H11.8956L8.83389 28.7852C8.51015 29.1056 8.07274 29.2848 7.61727 29.2836C7.1618 29.2824 6.72532 29.101 6.40323 28.7789C6.08115 28.4569 5.89965 28.0204 5.89841 27.565C5.89717 27.1095 6.07629 26.6721 6.39662 26.3483L7.02141 25.7235H6.72332C6.26626 25.7235 5.82793 25.5419 5.50475 25.2187C5.18156 24.8956 5 24.4572 5 24.0002C5 23.5431 5.18156 23.1048 5.50475 22.7816C5.82793 22.4584 6.26626 22.2768 6.72332 22.2768H7.02141L6.39696 21.6521C6.08065 21.3275 5.90493 20.8914 5.90785 20.4382C5.91077 19.985 6.0921 19.5512 6.41256 19.2307C6.73303 18.9103 7.16683 18.7289 7.62003 18.726C8.07322 18.7231 8.50932 18.8988 8.83389 19.2151L11.8956 22.2768H13.3424L10.1723 19.1068C10.0089 18.9475 9.87873 18.7574 9.78938 18.5475C9.70003 18.3375 9.65326 18.1119 9.65178 17.8837C9.65031 17.6555 9.69417 17.4293 9.78081 17.2183C9.86745 17.0072 9.99515 16.8154 10.1565 16.654C10.3178 16.4927 10.5096 16.365 10.7207 16.2784C10.9318 16.1917 11.158 16.1479 11.3862 16.1493C11.6143 16.1508 11.84 16.1976 12.0499 16.2869C12.2599 16.3763 12.45 16.5064 12.6092 16.6698L18.2162 22.2768H19.7848C19.8693 22.021 19.9727 21.7718 20.094 21.5313L10.8577 12.2949C10.6943 12.1357 10.5641 11.9456 10.4747 11.7356C10.3854 11.5257 10.3386 11.3 10.3371 11.0719C10.3357 10.8437 10.3795 10.6175 10.4662 10.4064C10.5528 10.1953 10.6805 10.0035 10.8419 9.84219C11.0032 9.68084 11.195 9.55315 11.4061 9.46651C11.6172 9.37986 11.8434 9.33601 12.0715 9.33748C12.2997 9.33895 12.5253 9.38572 12.7353 9.47507C12.9452 9.56443 13.1353 9.69459 13.2946 9.858L22.5309 19.0943C22.7715 18.973 23.0207 18.8696 23.2765 18.7851V17.2166L17.6695 11.6096C17.5061 11.4503 17.3759 11.2602 17.2866 11.0503C17.1972 10.8403 17.1505 10.6147 17.149 10.3865C17.1475 10.1583 17.1914 9.93214 17.278 9.72105C17.3647 9.50996 17.4924 9.31818 17.6537 9.15683C17.815 8.99549 18.0068 8.86779 18.2179 8.78115C18.429 8.69451 18.6552 8.65065 18.8834 8.65212C19.1116 8.65359 19.3372 8.70036 19.5471 8.78972C19.7571 8.87907 19.9472 9.00923 20.1064 9.17264L23.2765 12.3427V10.896L20.2148 7.83423C20.0514 7.67498 19.9212 7.48486 19.8319 7.2749C19.7425 7.06494 19.6957 6.83933 19.6943 6.61116C19.6928 6.38299 19.7366 6.15679 19.8233 5.9457C19.9099 5.73461 20.0376 5.54283 20.199 5.38148C20.3603 5.22014 20.5521 5.09244 20.7632 5.0058C20.9743 4.91916 21.2005 4.8753 21.4287 4.87677C21.6568 4.87824 21.8824 4.92501 22.0924 5.01437C22.3023 5.10372 22.4925 5.23388 22.6517 5.39729L23.2765 6.02175V5.72332C23.2765 5.26627 23.4581 4.82793 23.7813 4.50475C24.1044 4.18156 24.5428 4 24.9998 4C25.4569 4 25.8952 4.18156 26.2184 4.50475C26.5416 4.82793 26.7232 5.26627 26.7232 5.72332V6.02175L27.3479 5.39729C27.5072 5.23388 27.6973 5.10372 27.9073 5.01437C28.1172 4.92501 28.3428 4.87824 28.571 4.87677C28.7992 4.8753 29.0254 4.91916 29.2365 5.0058C29.4476 5.09244 29.6393 5.22014 29.8007 5.38148C29.962 5.54283 30.0897 5.73461 30.1764 5.9457C30.263 6.15679 30.3069 6.38299 30.3054 6.61116C30.3039 6.83933 30.2572 7.06494 30.1678 7.2749C30.0785 7.48486 29.9483 7.67498 29.7849 7.83423L26.7232 10.896V12.3427L29.8932 9.17264C30.0525 9.00923 30.2426 8.87907 30.4525 8.78972C30.6625 8.70036 30.8881 8.65359 31.1163 8.65212C31.3445 8.65065 31.5707 8.69451 31.7817 8.78115C31.9928 8.86779 32.1846 8.99549 32.346 9.15683C32.5073 9.31818 32.635 9.50996 32.7216 9.72105C32.8083 9.93214 32.8521 10.1583 32.8507 10.3865C32.8492 10.6147 32.8024 10.8403 32.7131 11.0503C32.6237 11.2602 32.4936 11.4503 32.3302 11.6096L26.7232 17.2166V18.7851C26.979 18.8696 27.2282 18.973 27.4687 19.0943L36.7051 9.858C36.8643 9.69459 37.0544 9.56443 37.2644 9.47507C37.4743 9.38572 37.7 9.33895 37.9281 9.33748C38.1563 9.33601 38.3825 9.37986 38.5936 9.46651C38.8047 9.55315 38.9965 9.68084 39.1578 9.84219C39.3192 10.0035 39.4469 10.1953 39.5335 10.4064C39.6201 10.6175 39.664 10.8437 39.6625 11.0719C39.661 11.3 39.6143 11.5257 39.5249 11.7356C39.4356 11.9456 39.3054 12.1357 39.142 12.2949L29.9057 21.5313C30.027 21.7718 30.1304 22.021 30.2149 22.2768H31.7834L37.3904 16.6698C37.5497 16.5064 37.7398 16.3763 37.9498 16.2869C38.1597 16.1976 38.3853 16.1508 38.6135 16.1493C38.8417 16.1479 39.0679 16.1917 39.2789 16.2784C39.49 16.365 39.6818 16.4927 39.8432 16.654C40.0045 16.8154 40.1322 17.0072 40.2189 17.2183C40.3055 17.4293 40.3493 17.6555 40.3479 17.8837C40.3464 18.1119 40.2996 18.3375 40.2103 18.5475C40.1209 18.7574 39.9908 18.9475 39.8274 19.1068L36.6573 22.2768H38.104L41.1658 19.2151C41.4895 18.8947 41.9269 18.7156 42.3824 18.7167C42.8379 18.7179 43.2743 18.8994 43.5964 19.2214C43.9185 19.5434 44.1 19.9799 44.1013 20.4354C44.1025 20.8908 43.9234 21.3283 43.603 21.6521L42.9782 22.2768H43.2763C43.7334 22.2768 44.1717 22.4584 44.4949 22.7816C44.8181 23.1048 44.9997 23.5431 44.9997 24.0002C44.9997 24.4572 44.8181 24.8956 44.4949 25.2187C44.1717 25.5419 43.7334 25.7235 43.2763 25.7235H42.9782L43.6027 26.3483C43.919 26.6728 44.0947 27.109 44.0918 27.5621C44.0889 28.0153 43.9076 28.4491 43.5871 28.7696C43.2666 29.0901 42.8328 29.2714 42.3796 29.2743C41.9264 29.2772 41.4903 29.1015 41.1658 28.7852L38.104 25.7235H36.6573L39.8274 28.8936C39.9908 29.0528 40.1209 29.2429 40.2103 29.4529C40.2996 29.6628 40.3464 29.8885 40.3479 30.1166C40.3493 30.3448 40.3055 30.571 40.2189 30.7821C40.1322 30.9932 40.0045 31.185 39.8432 31.3463C39.6818 31.5076 39.49 31.6353 39.2789 31.722C39.0679 31.8086 38.8417 31.8525 38.6135 31.851C38.3853 31.8495 38.1597 31.8028 37.9498 31.7134C37.7398 31.6241 37.5497 31.4939 37.3904 31.3305L31.7834 25.7235H30.2149C30.1304 25.9793 30.027 26.2285 29.9057 26.4691L39.142 35.7054C39.3054 35.8647 39.4356 36.0548 39.5249 36.2647C39.6143 36.4747 39.661 36.7003 39.6625 36.9285C39.664 37.1566 39.6201 37.3828 39.5335 37.5939C39.4469 37.805 39.3192 37.9968 39.1578 38.1581C38.9965 38.3195 38.8047 38.4472 38.5936 38.5338C38.3825 38.6205 38.1563 38.6643 37.9281 38.6629C37.7 38.6614 37.4743 38.6146 37.2644 38.5253C37.0544 38.4359 36.8643 38.3057 36.7051 38.1423L27.4687 28.906C27.2282 29.0273 26.979 29.1307 26.7232 29.2152V30.7838L32.3302 36.3908C32.4936 36.55 32.6237 36.7401 32.7131 36.9501C32.8024 37.16 32.8492 37.3857 32.8507 37.6138C32.8521 37.842 32.8083 38.0682 32.7216 38.2793C32.635 38.4904 32.5073 38.6822 32.346 38.8435C32.1846 39.0048 31.9928 39.1325 31.7817 39.2192C31.5707 39.3058 31.3445 39.3497 31.1163 39.3482C30.8881 39.3467 30.6625 39.3 30.4525 39.2106C30.2426 39.1213 30.0525 38.9911 29.8932 38.8277L26.7232 35.6576V37.1044L29.7849 40.1661C29.9483 40.3254 30.0785 40.5155 30.1678 40.7254C30.2572 40.9354 30.3039 41.161 30.3054 41.3892C30.3069 41.6174 30.263 41.8435 30.1764 42.0546C30.0897 42.2657 29.962 42.4575 29.8007 42.6189C29.6393 42.7802 29.4476 42.9079 29.2365 42.9945C29.0254 43.0812 28.7992 43.125 28.571 43.1236C28.3428 43.1221 28.1172 43.0753 27.9073 42.986C27.6973 42.8966 27.5072 42.7665 27.3479 42.603L26.7232 41.9786V42.277C26.7226 42.7339 26.5409 43.1719 26.2178 43.4949C25.8947 43.8179 25.4567 43.9996 24.9998 44ZM23.8653 39.9683C23.9426 39.9682 24.0192 39.9834 24.0907 40.013C24.1621 40.0426 24.2271 40.0859 24.2817 40.1406C24.3364 40.1953 24.3798 40.2602 24.4094 40.3317C24.4389 40.4031 24.4541 40.4797 24.4541 40.5571V42.277C24.4541 42.4218 24.5116 42.5606 24.6139 42.6629C24.7163 42.7653 24.8551 42.8227 24.9998 42.8227C25.1446 42.8227 25.2834 42.7653 25.3857 42.6629C25.4881 42.5606 25.5456 42.4218 25.5456 42.277V40.5571C25.5455 40.4406 25.5799 40.3267 25.6446 40.2298C25.7093 40.1329 25.8012 40.0574 25.9089 40.0129C26.0165 39.9683 26.1349 39.9567 26.2491 39.9795C26.3634 40.0023 26.4683 40.0584 26.5505 40.1409L28.1803 41.7703C28.2841 41.8698 28.4223 41.9253 28.5661 41.9253C28.7098 41.9253 28.848 41.8698 28.9518 41.7703C29.054 41.6679 29.1114 41.5291 29.1114 41.3844C29.1114 41.2397 29.054 41.1009 28.9518 40.9985L25.7178 37.7645C25.6074 37.6541 25.5453 37.5044 25.5452 37.3483V34.2364C25.5451 34.12 25.5796 34.0061 25.6443 33.9092C25.7089 33.8123 25.8009 33.7368 25.9085 33.6922C26.0161 33.6477 26.1346 33.636 26.2488 33.6588C26.363 33.6816 26.4679 33.7378 26.5502 33.8202L30.7259 37.9967C30.8289 38.096 30.9667 38.151 31.1098 38.1497C31.2529 38.1484 31.3897 38.091 31.4909 37.9898C31.592 37.8886 31.6494 37.7517 31.6506 37.6086C31.6518 37.4656 31.5968 37.3277 31.4974 37.2248L25.7182 31.4439C25.6077 31.3335 25.5456 31.1838 25.5456 31.0277V28.7708C25.5458 28.6384 25.5906 28.5099 25.6727 28.4062C25.7549 28.3024 25.8696 28.2293 25.9984 28.1988C26.4447 28.0929 26.871 27.916 27.2611 27.6749C27.3739 27.6053 27.5069 27.5759 27.6386 27.5913C27.7702 27.6066 27.8928 27.666 27.9865 27.7597L37.5378 37.311C37.6401 37.4133 37.779 37.4708 37.9237 37.4708C38.0684 37.4708 38.2073 37.4133 38.3096 37.311C38.412 37.2086 38.4695 37.0698 38.4695 36.925C38.4695 36.7803 38.412 36.6415 38.3096 36.5391L28.7584 26.9869C28.6646 26.8932 28.6052 26.7706 28.5898 26.6389C28.5744 26.5073 28.6039 26.3743 28.6736 26.2615C28.9147 25.8713 29.0916 25.445 29.1974 24.9988C29.228 24.87 29.3011 24.7552 29.4048 24.6731C29.5086 24.5909 29.637 24.5461 29.7694 24.5459H32.0263C32.1825 24.546 32.3322 24.6081 32.4425 24.7185L38.2225 30.4981C38.3248 30.6005 38.4636 30.658 38.6084 30.658C38.7531 30.658 38.8919 30.6005 38.9943 30.4981C39.0966 30.3958 39.1541 30.2569 39.1541 30.1122C39.1541 29.9674 39.0966 29.8286 38.9943 29.7263L34.8199 25.5509C34.7375 25.4686 34.6813 25.3637 34.6585 25.2495C34.6357 25.1352 34.6473 25.0168 34.6919 24.9092C34.7365 24.8016 34.812 24.7096 34.9089 24.6449C35.0057 24.5803 35.1196 24.5458 35.2361 24.5459H38.348C38.5041 24.546 38.6538 24.6081 38.7642 24.7185L41.9982 27.9525C42.0485 28.0046 42.1087 28.0462 42.1753 28.0748C42.2419 28.1034 42.3135 28.1184 42.386 28.1191C42.4585 28.1197 42.5303 28.1059 42.5974 28.0784C42.6645 28.051 42.7254 28.0104 42.7767 27.9592C42.8279 27.9079 42.8684 27.847 42.8958 27.7799C42.9233 27.7128 42.937 27.6409 42.9364 27.5684C42.9357 27.496 42.9207 27.4244 42.892 27.3578C42.8634 27.2912 42.8218 27.231 42.7696 27.1807L41.1405 25.5509C41.0581 25.4686 41.0019 25.3637 40.9791 25.2495C40.9563 25.1352 40.968 25.0168 41.0125 24.9092C41.0571 24.8016 41.1326 24.7096 41.2295 24.6449C41.3264 24.5803 41.4403 24.5458 41.5567 24.5459H43.2763C43.4211 24.5459 43.5599 24.4884 43.6622 24.3861C43.7646 24.2837 43.8221 24.1449 43.8221 24.0002C43.8221 23.8554 43.7646 23.7166 43.6622 23.6143C43.5599 23.5119 43.4211 23.4544 43.2763 23.4544H41.5567C41.4403 23.4545 41.3264 23.4201 41.2295 23.3554C41.1326 23.2907 41.0571 23.1988 41.0125 23.0911C40.968 22.9835 40.9563 22.8651 40.9791 22.7509C41.0019 22.6366 41.0581 22.5317 41.1405 22.4495L42.77 20.8197C42.8207 20.769 42.8609 20.7088 42.8883 20.6426C42.9157 20.5764 42.9298 20.5054 42.9298 20.4338C42.9298 20.3621 42.9157 20.2911 42.8883 20.2249C42.8609 20.1587 42.8207 20.0985 42.77 20.0478C42.7193 19.9972 42.6591 19.957 42.5929 19.9295C42.5267 19.9021 42.4557 19.888 42.3841 19.888C42.3124 19.888 42.2414 19.9021 42.1752 19.9295C42.109 19.957 42.0488 19.9972 41.9982 20.0478L38.7642 23.2818C38.6538 23.3923 38.5041 23.4544 38.348 23.4544H35.2361C35.1196 23.4545 35.0057 23.4201 34.9089 23.3554C34.812 23.2907 34.7365 23.1988 34.6919 23.0911C34.6473 22.9835 34.6357 22.8651 34.6585 22.7509C34.6813 22.6366 34.7375 22.5317 34.8199 22.4495L38.9963 18.2741C39.0957 18.1711 39.1506 18.0333 39.1493 17.8902C39.148 17.7471 39.0906 17.6103 38.9894 17.5091C38.8882 17.408 38.7514 17.3506 38.6083 17.3494C38.4652 17.3482 38.3274 17.4032 38.2245 17.5026L32.4435 23.2818C32.3332 23.3923 32.1835 23.4544 32.0273 23.4544H29.7704C29.638 23.4542 29.5096 23.4094 29.4058 23.3273C29.3021 23.2451 29.229 23.1304 29.1984 23.0016C29.0926 22.5553 28.9157 22.129 28.6746 21.7389C28.6049 21.6261 28.5754 21.4931 28.5908 21.3614C28.6062 21.2298 28.6656 21.1072 28.7594 21.0135L38.3106 11.4622C38.413 11.3599 38.4705 11.221 38.4705 11.0763C38.4705 10.9316 38.413 10.7927 38.3106 10.6904C38.2083 10.588 38.0695 10.5305 37.9247 10.5305C37.78 10.5305 37.6411 10.588 37.5388 10.6904L27.9865 20.2416C27.8928 20.3354 27.7702 20.3947 27.6386 20.4101C27.5069 20.4255 27.3739 20.396 27.2611 20.3264C26.871 20.0853 26.4447 19.9084 25.9984 19.8026C25.8696 19.772 25.7549 19.6989 25.6727 19.5952C25.5906 19.4914 25.5458 19.363 25.5456 19.2306V16.9727C25.5456 16.8165 25.6077 16.6668 25.7182 16.5565L31.4974 10.7775C31.5482 10.7269 31.5886 10.6667 31.6161 10.6005C31.6437 10.5342 31.6579 10.4632 31.658 10.3914C31.6582 10.3197 31.6441 10.2486 31.6168 10.1823C31.5894 10.116 31.5493 10.0557 31.4986 10.0049C31.448 9.95405 31.3878 9.91371 31.3215 9.88616C31.2553 9.8586 31.1843 9.84436 31.1125 9.84425C31.0408 9.84414 30.9697 9.85816 30.9034 9.88552C30.837 9.91287 30.7768 9.95303 30.7259 10.0037L26.5505 14.1801C26.4683 14.2625 26.3634 14.3187 26.2491 14.3415C26.1349 14.3643 26.0165 14.3527 25.9089 14.3081C25.8012 14.2635 25.7093 14.188 25.6446 14.0911C25.5799 13.9943 25.5455 13.8804 25.5456 13.7639V10.652C25.5456 10.4959 25.6077 10.3462 25.7182 10.2358L28.9522 7.00184C29.0543 6.89937 29.1116 6.7606 29.1116 6.61593C29.1116 6.47126 29.0543 6.33249 28.9522 6.23002C28.8482 6.13076 28.71 6.07538 28.5662 6.07538C28.4225 6.07538 28.2843 6.13076 28.1803 6.23002L26.5505 7.85946C26.4683 7.94191 26.3634 7.99809 26.2491 8.02088C26.1349 8.04366 26.0165 8.03204 25.9089 7.98747C25.8012 7.9429 25.7093 7.8674 25.6446 7.77052C25.5799 7.67364 25.5455 7.55975 25.5456 7.44327V5.72332C25.5456 5.57858 25.4881 5.43977 25.3857 5.33743C25.2834 5.23508 25.1446 5.17759 24.9998 5.17759C24.8551 5.17759 24.7163 5.23508 24.6139 5.33743C24.5116 5.43977 24.4541 5.57858 24.4541 5.72332V7.44327C24.4542 7.55975 24.4197 7.67364 24.3551 7.77052C24.2904 7.8674 24.1984 7.9429 24.0908 7.98747C23.9832 8.03204 23.8648 8.04366 23.7505 8.02088C23.6363 7.99809 23.5314 7.94191 23.4491 7.85946L21.8193 6.23002C21.7155 6.13055 21.5773 6.07502 21.4336 6.07502C21.2898 6.07502 21.1516 6.13055 21.0478 6.23002C20.9457 6.33245 20.8883 6.47124 20.8883 6.61593C20.8883 6.76062 20.9457 6.89941 21.0478 7.00184L24.2818 10.2358C24.3923 10.3462 24.4544 10.4959 24.4544 10.652V13.7639C24.4545 13.8804 24.4201 13.9943 24.3554 14.0911C24.2907 14.188 24.1988 14.2635 24.0911 14.3081C23.9835 14.3527 23.8651 14.3643 23.7509 14.3415C23.6366 14.3187 23.5317 14.2625 23.4495 14.1801L19.2737 10.0037C19.1711 9.90133 19.032 9.84394 18.8871 9.84413C18.7422 9.84432 18.6032 9.90208 18.5009 10.0047C18.3985 10.1073 18.3411 10.2464 18.3413 10.3913C18.3415 10.5363 18.3993 10.6752 18.5019 10.7775L24.2815 16.5565C24.3919 16.6668 24.454 16.8165 24.4541 16.9727V19.2296C24.4539 19.362 24.4091 19.4904 24.3269 19.5942C24.2448 19.6979 24.13 19.771 24.0012 19.8016C23.555 19.9074 23.1287 20.0843 22.7385 20.3254C22.6257 20.395 22.4927 20.4245 22.3611 20.4091C22.2295 20.3937 22.1069 20.3343 22.0131 20.2406L12.4619 10.6904C12.4112 10.6397 12.351 10.5995 12.2848 10.5721C12.2186 10.5447 12.1476 10.5305 12.076 10.5305C12.0043 10.5305 11.9333 10.5447 11.8671 10.5721C11.8009 10.5995 11.7407 10.6397 11.69 10.6904C11.6394 10.7411 11.5992 10.8012 11.5717 10.8674C11.5443 10.9337 11.5302 11.0046 11.5302 11.0763C11.5302 11.148 11.5443 11.2189 11.5717 11.2852C11.5992 11.3514 11.6394 11.4115 11.69 11.4622L21.2413 21.0135C21.3351 21.1072 21.3945 21.2298 21.4098 21.3614C21.4252 21.4931 21.3957 21.6261 21.3261 21.7389C21.085 22.129 20.9081 22.5553 20.8022 23.0016C20.7717 23.1304 20.6986 23.2451 20.5948 23.3273C20.4911 23.4094 20.3626 23.4542 20.2303 23.4544H17.9723C17.8162 23.4544 17.6665 23.3923 17.5561 23.2818L11.7772 17.5026C11.6749 17.4 11.536 17.3422 11.3911 17.342C11.2462 17.3417 11.1071 17.3991 11.0045 17.5014C10.9019 17.6037 10.8441 17.7426 10.8439 17.8875C10.8437 18.0324 10.901 18.1714 11.0033 18.2741L15.1784 22.4495C15.2609 22.5317 15.317 22.6366 15.3398 22.7509C15.3626 22.8651 15.351 22.9835 15.3064 23.0911C15.2618 23.1988 15.1863 23.2907 15.0895 23.3554C14.9926 23.4201 14.8787 23.4545 14.7622 23.4544H11.6517C11.4956 23.4544 11.3459 23.3923 11.2355 23.2818L8.00151 20.0478C7.95116 19.9957 7.89093 19.9541 7.82434 19.9255C7.75775 19.8969 7.68613 19.8819 7.61365 19.8813C7.54118 19.8806 7.46932 19.8945 7.40224 19.9219C7.33517 19.9494 7.27424 19.9899 7.223 20.0412C7.17177 20.0924 7.13126 20.1534 7.10383 20.2205C7.07641 20.2875 7.06262 20.3594 7.06327 20.4319C7.06392 20.5044 7.079 20.576 7.10763 20.6426C7.13626 20.7091 7.17787 20.7693 7.23002 20.8197L8.85913 22.4495C8.94158 22.5317 8.99775 22.6366 9.02054 22.7509C9.04333 22.8651 9.0317 22.9835 8.98713 23.0911C8.94257 23.1988 8.86706 23.2907 8.77018 23.3554C8.67331 23.4201 8.55941 23.4545 8.44293 23.4544H6.72332C6.57858 23.4544 6.43977 23.5119 6.33743 23.6143C6.23509 23.7166 6.17759 23.8554 6.17759 24.0002C6.17759 24.1449 6.23509 24.2837 6.33743 24.3861C6.43977 24.4884 6.57858 24.5459 6.72332 24.5459H8.44293C8.55941 24.5458 8.67331 24.5803 8.77018 24.6449C8.86706 24.7096 8.94257 24.8016 8.98713 24.9092C9.0317 25.0168 9.04333 25.1352 9.02054 25.2495C8.99775 25.3637 8.94158 25.4686 8.85913 25.5509L7.22968 27.1807C7.12733 27.283 7.06983 27.4218 7.06983 27.5666C7.06983 27.7113 7.12733 27.8501 7.22968 27.9525C7.33203 28.0548 7.47085 28.1123 7.61559 28.1123C7.76034 28.1123 7.89916 28.0548 8.00151 27.9525L11.2355 24.7185C11.3459 24.6081 11.4956 24.546 11.6517 24.5459H14.7636C14.88 24.5458 14.9939 24.5803 15.0908 24.6449C15.1877 24.7096 15.2632 24.8016 15.3078 24.9092C15.3523 25.0168 15.364 25.1352 15.3412 25.2495C15.3184 25.3637 15.2622 25.4686 15.1798 25.5509L11.0033 29.7263C10.901 29.8289 10.8436 29.968 10.8438 30.1129C10.844 30.2578 10.9017 30.3968 11.0044 30.4991C11.107 30.6015 11.246 30.6589 11.391 30.6587C11.5359 30.6585 11.6748 30.6007 11.7772 30.4981L17.5561 24.7185C17.6665 24.6081 17.8162 24.546 17.9723 24.5459H20.2293C20.3616 24.5461 20.4901 24.5909 20.5938 24.6731C20.6976 24.7552 20.7707 24.87 20.8012 24.9988C20.9071 25.445 21.084 25.8713 21.3251 26.2615C21.3947 26.3743 21.4242 26.5073 21.4088 26.6389C21.3934 26.7706 21.3341 26.8932 21.2403 26.9869L11.69 36.5381C11.5877 36.6405 11.5302 36.7793 11.5302 36.924C11.5302 37.0688 11.5877 37.2076 11.69 37.3099C11.7924 37.4123 11.9312 37.4698 12.076 37.4698C12.2207 37.4698 12.3595 37.4123 12.4619 37.3099L22.0131 27.7587C22.1069 27.665 22.2295 27.6056 22.3611 27.5902C22.4927 27.5749 22.6257 27.6043 22.7385 27.6739C23.1287 27.915 23.555 28.0919 24.0012 28.1978C24.13 28.2283 24.2448 28.3014 24.3269 28.4052C24.4091 28.5089 24.4539 28.6374 24.4541 28.7697V31.0267C24.454 31.1828 24.3919 31.3325 24.2815 31.4429L18.5019 37.2228C18.3995 37.3252 18.342 37.464 18.342 37.6087C18.342 37.7535 18.3995 37.8923 18.5019 37.9946C18.6042 38.097 18.7431 38.1545 18.8878 38.1545C19.0326 38.1545 19.1714 38.097 19.2737 37.9946L23.4491 33.8196C23.5314 33.7371 23.6363 33.681 23.7505 33.6582C23.8648 33.6354 23.9832 33.647 24.0908 33.6916C24.1984 33.7361 24.2904 33.8116 24.3551 33.9085C24.4197 34.0054 24.4542 34.1193 24.4541 34.2358V37.3476C24.454 37.5038 24.3919 37.6535 24.2815 37.7638L21.0475 40.9978C20.9454 41.1003 20.8881 41.2391 20.8881 41.3837C20.8881 41.5284 20.9454 41.6672 21.0475 41.7696C21.1514 41.8691 21.2896 41.9245 21.4334 41.9245C21.5772 41.9245 21.7154 41.8691 21.8193 41.7696L23.4491 40.1402C23.5038 40.0856 23.5687 40.0423 23.6401 40.0128C23.7115 39.9833 23.788 39.9682 23.8653 39.9683ZM24.9998 27.2278C24.3615 27.2278 23.7374 27.0385 23.2067 26.6838C22.6759 26.3292 22.2622 25.8251 22.0179 25.2353C21.7736 24.6456 21.7097 23.9966 21.8342 23.3705C21.9588 22.7444 22.2662 22.1693 22.7176 21.7179C23.169 21.2665 23.7441 20.9591 24.3702 20.8346C24.9963 20.71 25.6452 20.774 26.235 21.0183C26.8247 21.2625 27.3288 21.6762 27.6835 22.207C28.0381 22.7378 28.2274 23.3618 28.2274 24.0002C28.2268 24.856 27.8866 25.6766 27.2814 26.2817C26.6762 26.8869 25.8557 27.2271 24.9998 27.2278ZM24.9998 21.9502C24.5944 21.9502 24.198 22.0704 23.8609 22.2956C23.5238 22.5209 23.261 22.8411 23.1059 23.2157C22.9507 23.5903 22.9101 24.0024 22.9892 24.4001C23.0683 24.7978 23.2636 25.163 23.5503 25.4497C23.837 25.7364 24.2022 25.9317 24.5999 26.0108C24.9976 26.0899 25.4097 26.0493 25.7843 25.8941C26.1589 25.739 26.4791 25.4762 26.7044 25.1391C26.9296 24.802 27.0498 24.4056 27.0498 24.0002C27.0492 23.4567 26.833 22.9356 26.4487 22.5513C26.0644 22.167 25.5433 21.9508 24.9998 21.9502Z" fill="black"/>
<path d="M37 46C42.5228 46 47 41.5228 47 36C47 30.4772 42.5228 26 37 26C31.4772 26 27 30.4772 27 36C27 41.5228 31.4772 46 37 46Z" fill="#3FAB5D"/>
<path d="M33 36.5L36 39.5L41 33.5" stroke="white" stroke-linecap="round" stroke-linejoin="round"/>
</g>
<defs>
<clipPath id="clip0_220_3857">
<rect width="48" height="48" fill="white" transform="translate(0.5)"/>
</clipPath>
</defs>
</svg>
