<svg width="49" height="48" viewBox="0 0 49 48" fill="none" xmlns="http://www.w3.org/2000/svg">
<g clip-path="url(#clip0_136_5337)">
<path d="M11.1566 4H8.64205C7.18393 4 6 5.16426 6 6.60378V44.3963C6 45.837 7.18393 47 8.64205 47H39.3579C40.8161 47 42 45.837 42 44.3963V6.60378C42 5.16426 40.8161 4 39.3579 4C39.3579 4 37.5039 4 36.3158 4" stroke="black" stroke-width="1.5" stroke-miterlimit="10" stroke-linecap="square"/>
<path d="M36.5606 9H38V43H10V9H15.0284" stroke="black" stroke-width="1.5" stroke-miterlimit="10" stroke-linecap="square"/>
<path d="M15.457 17.7079V14.0712H32.548V17.7079H15.457Z" stroke="black" stroke-width="1.5" stroke-miterlimit="10" stroke-linecap="square"/>
<path d="M27 1V4.0072H34V9H14V4.0072H20V1H27Z" stroke="black" stroke-width="1.5" stroke-miterlimit="10" stroke-linecap="square"/>
<path d="M20.791 21.7079H30.9725" stroke="black" stroke-width="1.5" stroke-miterlimit="10" stroke-linecap="square"/>
<path d="M20.791 30.7988H30.9725" stroke="black" stroke-width="1.5" stroke-miterlimit="10" stroke-linecap="square"/>
<path d="M20.791 35.1621H30.9725" stroke="black" stroke-width="1.5" stroke-miterlimit="10" stroke-linecap="square"/>
<path d="M20.791 26.0715H30.9725" stroke="black" stroke-width="1.5" stroke-miterlimit="10" stroke-linecap="square"/>
<path d="M17.9393 21.7078C17.9393 22.2896 17.4664 22.7625 16.8847 22.7625C16.3016 22.7625 15.8301 22.2896 15.8301 21.7078C15.8301 21.1254 16.3016 20.6532 16.8847 20.6532C17.4664 20.6532 17.9393 21.1254 17.9393 21.7078Z" fill="black"/>
<path d="M17.9393 26.0716C17.9393 26.6534 17.4664 27.1256 16.8847 27.1256C16.3016 27.1256 15.8301 26.6534 15.8301 26.0716C15.8301 25.4892 16.3016 25.0164 16.8847 25.0164C17.4664 25.0164 17.9393 25.4892 17.9393 26.0716Z" fill="black"/>
<path d="M17.9393 30.7988C17.9393 31.3812 17.4664 31.8528 16.8847 31.8528C16.3016 31.8528 15.8301 31.3812 15.8301 30.7988C15.8301 30.2158 16.3016 29.7436 16.8847 29.7436C17.4664 29.7436 17.9393 30.2158 17.9393 30.7988Z" fill="black"/>
<path d="M17.9393 35.1622C17.9393 35.7446 17.4664 36.2168 16.8847 36.2168C16.3016 36.2168 15.8301 35.7446 15.8301 35.1622C15.8301 34.5798 16.3016 34.1082 16.8847 34.1082C17.4664 34.1082 17.9393 34.5798 17.9393 35.1622Z" fill="black"/>
<path d="M37 46C42.5228 46 47 41.5228 47 36C47 30.4772 42.5228 26 37 26C31.4772 26 27 30.4772 27 36C27 41.5228 31.4772 46 37 46Z" fill="#3FAB5D"/>
<path d="M33 36.5L36 39.5L41 33.5" stroke="white" stroke-linecap="round" stroke-linejoin="round"/>
</g>
<defs>
<clipPath id="clip0_136_5337">
<rect width="48" height="48" fill="white" transform="translate(0.5)"/>
</clipPath>
</defs>
</svg>
