<svg width="113" height="56" viewBox="0 0 113 56" fill="none" xmlns="http://www.w3.org/2000/svg">
<path d="M14.0913 48.4521C13.4711 48.4521 12.9199 48.8 12.9199 49.6C12.9199 50.4 13.4711 50.7478 14.1257 50.7478C14.4702 50.7478 14.6769 50.6782 14.8836 50.6087V50.3652C14.6425 50.4695 14.4013 50.5043 14.0913 50.5043C13.54 50.5043 13.1611 50.1913 13.1611 49.6C13.1611 49.0087 13.5745 48.6956 14.0913 48.6956C14.3669 48.6956 14.5736 48.7304 14.8492 48.8348V48.5913C14.6425 48.5217 14.4013 48.4521 14.0913 48.4521ZM17.5019 48.4869H17.2263V50.6782H17.5019L18.8455 48.8V50.6782H19.0867V48.4869H18.7766L17.5019 50.3304V48.4869ZM23.2208 48.4869V50.6782H22.9797V48.7304H22.015C21.8428 50.4 21.7394 50.7478 21.326 50.7478H21.2227V50.5391H21.2916C21.5327 50.5391 21.6361 50.3652 21.7739 48.4869H23.2208ZM26.666 48.4521C26.3214 48.4521 26.0803 48.5217 25.7702 48.6261V48.8695C26.0114 48.7652 26.2525 48.6956 26.6315 48.6956C27.0794 48.6956 27.355 48.8348 27.355 49.3565V49.5304C27.1483 49.3913 26.8727 49.3217 26.4937 49.3217C25.9769 49.3217 25.598 49.6 25.598 50.0174C25.598 50.5043 25.9425 50.7478 26.4937 50.7478C26.8038 50.7478 27.0794 50.6435 27.355 50.4695L27.3894 50.713H27.5961V49.4261C27.6306 48.6956 27.3205 48.4521 26.666 48.4521ZM26.5282 50.5043C26.2525 50.5043 25.8736 50.4 25.8736 50.0174C25.8736 49.7043 26.2181 49.5652 26.5626 49.5652C26.8382 49.5652 27.1483 49.6348 27.355 49.7739V50.1913C27.2172 50.2956 26.9071 50.5043 26.5282 50.5043ZM35.0376 48.4521C34.6586 48.4521 34.4864 48.5217 34.2452 48.5913V48.8348C34.5208 48.7304 34.7275 48.6956 35.0032 48.6956C35.451 48.6956 35.7611 48.9391 35.7955 49.4956H34.5553V49.7043H35.7955C35.7611 50.1913 35.4855 50.5043 34.9687 50.5043C34.6931 50.5043 34.4175 50.4348 34.1763 50.3652V50.6087C34.4175 50.6782 34.6586 50.7478 34.9687 50.7478C35.5888 50.7478 36.0711 50.3652 36.0711 49.6C36.1056 48.8 35.6577 48.4521 35.0376 48.4521ZM40.0675 50.6782H40.3431V48.4869H40.0675V49.4608H38.7239V48.4869H38.4827V50.6782H38.7239V49.7043H40.0675V50.6782ZM42.9614 49.7043H44.7873V49.5304C44.7873 48.8695 44.4772 48.4869 43.8227 48.4869C43.2025 48.4869 42.6858 48.8348 42.6858 49.6348C42.6858 50.4348 43.2025 50.7826 43.8227 50.7826C44.2705 50.7826 44.4772 50.713 44.7184 50.6087V50.3304C44.3739 50.4695 44.1327 50.5391 43.8571 50.5391C43.5471 50.5043 42.9614 50.3304 42.9614 49.7043ZM43.8227 48.6956C44.305 48.6956 44.5117 49.0087 44.5117 49.4608H42.9614C42.9958 48.8695 43.4437 48.6956 43.8227 48.6956ZM48.198 48.4521C47.8879 48.4521 47.6123 48.5565 47.4056 48.6956L47.3367 48.4869H47.1644V51.5478H47.4056V50.5043C47.5779 50.6434 47.8535 50.7478 48.1635 50.7478C48.7836 50.7478 49.3004 50.3652 49.3004 49.6C49.3349 48.8 48.8181 48.4521 48.198 48.4521ZM48.1635 50.5043C47.7846 50.5043 47.5779 50.3652 47.4056 50.2261V48.9739C47.5779 48.8 47.8535 48.6956 48.198 48.6956C48.7147 48.6956 49.0592 49.0087 49.0592 49.5652C49.0592 50.1217 48.7147 50.5043 48.1635 50.5043ZM53.0556 48.7304V48.4869H51.712V50.6782H51.9876V48.7304H53.0556ZM55.5705 48.4869H55.2949V50.6782H55.5705L56.9141 48.8V50.6782H57.1553V48.4869H56.8452L55.5705 50.3304V48.4869ZM61.4961 48.4869H60.6349C59.8425 48.4869 59.5669 48.7652 59.5669 49.2521C59.5669 49.6348 59.8425 49.8782 60.2214 49.9478C59.8425 50.2956 59.4635 50.6434 59.4291 50.713H59.7736C60.0492 50.4348 60.2903 50.1913 60.566 49.9826C60.8416 49.9826 61.0483 49.9478 61.2205 49.913V50.713H61.4961V48.4869ZM60.4971 49.7043C60.0147 49.7043 59.808 49.5304 59.808 49.2174C59.808 48.8695 60.0147 48.6956 60.6004 48.6956H61.1861V49.6348C61.0483 49.7043 60.8071 49.7043 60.4971 49.7043ZM68.9376 48.4521C68.6275 48.4521 68.3519 48.5217 68.1108 48.5913V48.8348C68.3864 48.7304 68.662 48.6956 68.9032 48.6956C69.3166 48.6956 69.4544 48.8348 69.4544 49.0435C69.4544 49.2869 69.2477 49.4608 68.9032 49.4608H68.283V49.6695H68.8687C69.351 49.6695 69.5233 49.8782 69.5233 50.0869C69.5233 50.3304 69.3855 50.5043 68.8687 50.5043C68.5586 50.5043 68.3175 50.4348 68.0763 50.4V50.6435C68.3175 50.713 68.5586 50.7478 68.8687 50.7478C69.5577 50.7478 69.7989 50.4695 69.7989 50.0869C69.7989 49.7739 69.5577 49.5652 69.2477 49.5304C69.5233 49.4608 69.73 49.3217 69.73 49.0087C69.7644 48.6956 69.5233 48.4521 68.9376 48.4521ZM74.2431 50.4695H73.8986V48.4869H72.4172C72.3138 49.8434 72.2105 50.2956 72.1071 50.4695H71.7971V51.4087H72.0382V50.6782H73.9675V51.4087H74.2086V50.4695H74.2431ZM73.6574 50.4695H72.3827C72.555 50.2261 72.5894 49.7391 72.6928 48.7304H73.6574V50.4695ZM77.4471 48.4521C76.8269 48.4521 76.3102 48.8348 76.3102 49.6C76.3102 50.3652 76.8269 50.7478 77.4471 50.7478C78.1016 50.7478 78.5839 50.3652 78.5839 49.6C78.5839 48.8348 78.0672 48.4521 77.4471 48.4521ZM77.4471 48.6956C77.9983 48.6956 78.3083 49.0435 78.3083 49.6C78.3083 50.0869 78.0672 50.5043 77.4471 50.5043C76.7925 50.5043 76.5513 50.0869 76.5513 49.6C76.5513 49.0087 76.9303 48.6956 77.4471 48.6956ZM81.9946 48.4521C81.6846 48.4521 81.409 48.5565 81.2022 48.6956L81.1333 48.4869H80.9611V51.5478H81.2367V50.5043C81.4089 50.6434 81.6846 50.7478 81.9946 50.7478C82.6147 50.7478 83.1315 50.3652 83.1315 49.6C83.0971 48.8 82.5803 48.4521 81.9946 48.4521ZM81.9602 50.5043C81.5812 50.5043 81.3745 50.3652 81.2022 50.2261V48.9739C81.3745 48.8 81.6157 48.6956 81.9946 48.6956C82.4769 48.6956 82.8559 49.0087 82.8559 49.5652C82.8559 50.1217 82.5114 50.5043 81.9602 50.5043ZM86.5077 48.4521C85.8876 48.4521 85.3708 48.8348 85.3708 49.6C85.3708 50.3652 85.8876 50.7478 86.5077 50.7478C87.1623 50.7478 87.6446 50.3652 87.6446 49.6C87.6446 48.8348 87.1279 48.4521 86.5077 48.4521ZM86.5077 48.6956C87.0589 48.6956 87.369 49.0435 87.369 49.6C87.369 50.0869 87.1279 50.5043 86.5077 50.5043C85.8876 50.5043 85.612 50.0869 85.612 49.6C85.612 49.0087 85.991 48.6956 86.5077 48.6956ZM90.0217 48.4869V50.6782H90.9864C91.7099 50.6782 91.951 50.4695 91.951 50.0521C91.951 49.7391 91.6754 49.5304 91.3654 49.5304C91.641 49.4608 91.8477 49.3565 91.8477 49.0435C91.8477 48.7304 91.6065 48.4869 90.9864 48.4869H90.0217ZM90.2629 48.7304H90.9519C91.3998 48.7304 91.5376 48.8348 91.5376 49.0435C91.5376 49.2869 91.3653 49.4261 90.9864 49.4261H90.2629V48.7304ZM90.2629 49.6695H90.9864C91.4687 49.6695 91.641 49.8434 91.641 50.0869C91.641 50.3652 91.5032 50.4695 90.9519 50.4695H90.2629V49.6695ZM95.3961 49.2174C95.0172 49.2174 94.7416 49.3217 94.5349 49.4261V48.4869H94.2937V50.6435C94.7416 50.713 94.9483 50.713 95.2239 50.713C96.0163 50.713 96.2919 50.4348 96.2919 49.9478C96.2574 49.5304 95.9474 49.2174 95.3961 49.2174ZM95.2239 50.5043C94.9483 50.5043 94.7071 50.4695 94.5349 50.4348V49.6695C94.7416 49.5652 95.0516 49.4608 95.3272 49.4608C95.7751 49.4608 96.0163 49.6695 96.0163 49.9478C96.0163 50.3304 95.8096 50.5043 95.2239 50.5043ZM98.669 49.7043H100.495V49.5304C100.495 48.8695 100.185 48.4869 99.5303 48.4869C98.9446 48.4869 98.4279 48.8348 98.4279 49.6348C98.4279 50.4348 98.9446 50.7826 99.5647 50.7826C100.013 50.7826 100.254 50.713 100.46 50.6087V50.3304C100.116 50.4695 99.9093 50.5391 99.5992 50.5391C99.2547 50.5043 98.7035 50.3304 98.669 49.7043ZM99.5303 48.6956C100.013 48.6956 100.219 49.0087 100.219 49.4608H98.669C98.7379 48.8695 99.1858 48.6956 99.5303 48.6956Z" fill="white"/>
<path d="M11.3003 36.6261C11.3003 37.4261 10.6457 38.087 9.85335 38.087H4.1V33.7392H9.85335C10.6457 33.7392 11.3003 34.4001 11.3003 35.2001V36.6261ZM12.7128 42.4348V41.3914L10.7146 39.374C11.9204 38.9914 12.7128 37.8435 12.7128 36.6261V35.1653C12.7128 33.5653 11.3692 32.2783 9.85335 32.2783H2.6875L2.6875 42.4348H4.13445V39.5131H8.85427L11.7137 42.4348H12.7128ZM22.0835 39.5131C22.0835 40.3131 21.429 40.974 20.6366 40.974H16.3302C15.5378 40.974 14.8832 40.3131 14.8832 39.5131V35.1653C14.8832 34.3653 15.5378 33.7044 16.3302 33.7044H20.6366C21.429 33.7044 22.0835 34.3653 22.0835 35.1653V39.5131ZM23.496 35.2001C23.496 33.6348 22.1524 32.3131 20.6021 32.3131H16.3302C14.7454 32.3131 13.4707 33.6001 13.4707 35.2001V39.5479C13.4707 41.1827 14.7454 42.4696 16.3302 42.4696H20.6366C22.2213 42.4696 23.5305 41.1827 23.5305 39.5479V35.2001H23.496ZM30.1107 41.1479L34.4171 34.887V42.4348H35.864V32.2783H34.4171L30.1107 38.5392L25.8043 32.2783H24.3573V42.4348H25.8043V34.887L30.1107 41.1479ZM44.029 33.7392C44.8213 33.7392 45.4759 34.4001 45.4759 35.2001V38.087H38.3101V35.2001C38.3101 34.4001 38.9646 33.7392 39.757 33.7392H44.029ZM46.9229 35.2001C46.8884 33.6001 45.5793 32.3131 44.0634 32.3131H39.757C38.1378 32.3131 36.8976 33.6696 36.8976 35.2001V42.4348H38.3445V39.5131H45.4759V42.4348H46.9229V35.2001ZM57.9817 32.2783H56.5348V39.9653L49.3689 32.2783H47.9219V42.4348H49.3689V34.6435L56.5348 42.4348H57.9817V32.2783ZM58.9808 35.2001H60.4277V32.3131H58.9808V35.2001ZM71.3143 39.5131C71.3143 37.9131 69.9707 36.6261 68.4549 36.6261H64.1485C63.3561 36.6261 62.7015 35.9653 62.7015 35.1653C62.7015 34.3653 63.3561 33.7044 64.1485 33.7044H68.4549C69.2472 33.7044 69.9018 34.3653 69.9018 35.1653H71.3488C71.3143 33.5653 70.0052 32.2783 68.4893 32.2783H64.1829C62.5637 32.2783 61.289 33.6348 61.289 35.1653C61.289 36.8001 62.6326 38.0522 64.1829 38.0522H68.4893C69.2817 38.0522 69.9363 38.7131 69.9363 39.5131C69.9363 40.3131 69.2817 40.974 68.4893 40.974H64.1829C63.3905 40.974 62.736 40.3131 62.736 39.5131H61.289C61.3579 41.1479 62.5982 42.4348 64.1829 42.4348H68.4893C70.0741 42.4348 71.3143 41.0783 71.3143 39.5131ZM82.0975 38.087H86.404V39.5479C86.404 40.3479 85.7494 41.0087 84.957 41.0087H80.6506C79.8582 41.0087 79.2037 40.3479 79.2037 39.5479V35.2001C79.2037 34.4001 79.8582 33.7392 80.6506 33.7392H84.957C85.7494 33.7392 86.404 34.4001 86.404 35.2001H87.8509C87.8165 33.6001 86.5073 32.3131 84.9915 32.3131H80.6851C79.0658 32.3131 77.7911 33.6696 77.7911 35.2001V39.5479C77.7911 41.1827 79.1348 42.4696 80.6851 42.4696H84.9915C86.6107 42.4696 87.8509 41.1131 87.8509 39.5479V36.6609H82.132V38.087H82.0975ZM98.0485 34.4696V32.3131H96.6015V33.8783L93.0186 37.8435L89.4357 33.8435V32.2783H87.9887V34.4348L92.2951 39.2001V42.4001H93.7421V39.2001L98.0485 34.4696ZM104.353 41.1479L108.659 34.887V42.4348H110.106V32.2783H108.659L104.353 38.5392L100.047 32.2783H98.5997V42.4348H100.047V34.887L104.353 41.1479Z" fill="white"/>
<path d="M52.9517 13.6348C52.9517 15.687 51.298 17.3566 49.2654 17.3566H34.5203V6.19134H49.2654C51.298 6.19134 52.9517 7.86091 52.9517 9.91308V13.6348ZM56.6379 28.5218V25.8783L51.5047 20.6957C54.5709 19.6522 56.6379 16.8 56.6379 13.6348V9.91308C56.6379 5.77395 53.1239 2.4696 49.2654 2.4696L30.834 2.4696V28.5218H34.5203V21.0783H46.6471L54.0197 28.5218H56.6379Z" fill="white"/>
<path d="M78.6177 17.3566V21.0783C78.6177 23.1305 76.964 24.8 74.9314 24.8H63.8726C61.8399 24.8 60.1863 23.1305 60.1863 21.0783V9.91308C60.1863 7.86091 61.8399 6.19134 63.8726 6.19134H74.9314C76.964 6.19134 78.6177 7.86091 78.6177 9.91308H82.304C82.2006 5.77395 78.8588 2.4696 74.9314 2.4696L63.8726 2.4696C59.7384 2.4696 56.5 5.98265 56.5 9.91308V21.0783C56.5 25.287 59.9451 28.5218 63.8726 28.5218H74.9314C79.0655 28.5218 82.304 25.0087 82.304 21.0783V13.6348H67.5588L78.6177 17.3566Z" fill="white"/>
<path fill-rule="evenodd" clip-rule="evenodd" d="M0 20.2782L47.9906 7.93042L45.4756 14.7826L0 20.2782Z" fill="#F5333F"/>
<path fill-rule="evenodd" clip-rule="evenodd" d="M45.4766 14.7826L73.1409 23.7913L47.9915 7.93042L45.4766 14.7826Z" fill="black"/>
<path fill-rule="evenodd" clip-rule="evenodd" d="M73.1395 23.7913L109.899 11.6174L67.834 20.4522L73.1395 23.7913Z" fill="#F5333F"/>
<path d="M34.5203 7.54785H30.834V17.3565H34.5203V7.54785Z" fill="white"/>
<path d="M78.6175 17.3566V21.0783C78.6175 21.8783 78.3763 22.6087 77.9629 23.2H81.9937C82.2004 22.5044 82.3038 21.8087 82.3038 21.0783V17.3566H78.6175Z" fill="white"/>
<path fill-rule="evenodd" clip-rule="evenodd" d="M56.6375 25.8783C55.0528 25.8783 43.0293 28.5218 43.0293 28.5218H56.6375V25.8783Z" fill="white"/>
<path d="M31.006 52.2783L29.8691 47.5826L31.5573 52.1392L31.006 52.2783Z" fill="white"/>
<path d="M64.7348 47.5826L65.8717 52.2783L64.1836 47.7218L64.7348 47.5826Z" fill="white"/>
</svg>
