<svg width="64" height="64" viewBox="0 0 64 64" fill="none" xmlns="http://www.w3.org/2000/svg">
<path d="M59.3015 20.3107C59.9425 19.6692 59.7382 18.4258 58.8451 17.5333C57.9521 16.6409 56.7085 16.4375 56.0675 17.0789C55.4264 17.7204 55.6308 18.9639 56.5238 19.8563C57.4169 20.7487 58.6605 20.9522 59.3015 20.3107Z" fill="#F6FAFD"/>
<path d="M56.4938 14.5193C56.8159 14.197 56.7134 13.5724 56.2649 13.1243C55.8165 12.6761 55.1918 12.5741 54.8697 12.8964C54.5477 13.2186 54.6501 13.8432 55.0986 14.2914C55.5471 14.7396 56.1717 14.8416 56.4938 14.5193Z" fill="#F6FAFD"/>
<path d="M14.4941 52.5188C14.8162 52.1965 14.7137 51.5719 14.2653 51.1238C13.8168 50.6756 13.1921 50.5736 12.8701 50.8959C12.548 51.2182 12.6505 51.8427 13.0989 52.2909C13.5474 52.7391 14.1721 52.8411 14.4941 52.5188Z" fill="#F6FAFD"/>
<path d="M46.8327 57.6135C46.9939 57.4522 46.9428 57.1397 46.7186 56.9156C46.4944 56.6916 46.1819 56.6407 46.0206 56.802C45.8594 56.9634 45.9105 57.2758 46.1347 57.4999C46.359 57.724 46.6715 57.7749 46.8327 57.6135Z" fill="#F6FAFD"/>
<path d="M57 6.86005C60.831 10.5371 63 16.1241 63 23.0001C63 30.8901 61.37 35.8601 55.83 40.0001H32.17C31.2405 39.315 30.3737 38.5486 29.58 37.7101C29.1005 37.2008 28.6561 36.6596 28.25 36.0901C25.81 32.7001 25 28.5801 25 23.0001C24.8577 18.3162 26.1145 13.6963 28.61 9.73005C31.88 4.83005 37.22 2.00005 44 2.00005C47.7778 1.91841 51.4945 2.96272 54.677 5.00005" stroke="white" stroke-width="2" stroke-linejoin="round"/>
<path d="M33 40.0001L38 44.0001H49L55 40.0001" stroke="white" stroke-width="2" stroke-linejoin="round"/>
<path d="M47 44.0001C47 50.0001 49 54.0001 49 58.0001C49 62.0001 44 62.0001 44 62.0001C44 62.0001 39 62.0001 39 58.0001C39 54.7061 40.357 51.4111 40.835 47.0001" stroke="white" stroke-width="2" stroke-linejoin="round"/>
<path d="M25.235 7.00006C25.7426 7.30423 26.2318 7.63815 26.7 8.00006" stroke="white" stroke-width="2" stroke-linejoin="round"/>
<path d="M26 36.915L13.69 41.43L13.01 41.68C7.31 39.85 4.57 36.15 2.35 29.5C-1.24 18.8 2.47 9.59001 11.95 6.12001C13.8691 5.34029 15.9263 4.95769 17.9974 4.99533C20.0685 5.03297 22.1105 5.49007 24 6.33901" stroke="white" stroke-width="2" stroke-linejoin="round"/>
<path d="M27.9 40.0101L26.26 40.6101L21.36 42.4001L18.91 43.3001L13.69 41.4301" stroke="white" stroke-width="2" stroke-linejoin="round"/>
<path d="M26.265 40.6C27.959 45.655 30.724 48.426 31.853 51.8C32.982 55.174 28.894 56.667 28.894 56.667C28.894 56.667 24.805 58.167 23.676 54.795C22.547 51.423 23.053 47.456 21.359 42.401" stroke="white" stroke-width="2" stroke-linejoin="round"/>
<path d="M13 57.0001C15.2091 57.0001 17 55.2092 17 53.0001C17 50.7909 15.2091 49.0001 13 49.0001C10.7909 49.0001 9 50.7909 9 53.0001C9 55.2092 10.7909 57.0001 13 57.0001Z" stroke="white" stroke-width="2" stroke-linejoin="round"/>
<path d="M36 57.0001H5" stroke="white" stroke-width="2" stroke-linejoin="round"/>
<path d="M3 57.0001H1" stroke="white" stroke-width="2" stroke-linejoin="round"/>
</svg>
