<svg width="64" height="64" viewBox="0 0 64 64" fill="none" xmlns="http://www.w3.org/2000/svg">
<g clip-path="url(#clip0_298_6219)">
<path d="M13.531 30.868H50.469C50.5931 30.868 50.7157 30.8417 50.8288 30.7907C50.9419 30.7397 51.0429 30.6652 51.125 30.5722C51.2071 30.4791 51.2685 30.3697 51.305 30.2512C51.3416 30.1326 51.3525 30.0076 51.337 29.8845L49.5545 15.6345C49.4669 14.939 49.1286 14.2994 48.6031 13.8355C48.0776 13.3715 47.401 13.1152 46.7 13.1145H17.3C16.5995 13.1154 15.9233 13.3717 15.3982 13.8353C14.873 14.2989 14.5348 14.938 14.447 15.633L12.6645 29.883C12.649 30.0061 12.6599 30.1311 12.6965 30.2497C12.7331 30.3682 12.7944 30.4776 12.8765 30.5707C12.9586 30.6637 13.0596 30.7382 13.1727 30.7892C13.2858 30.8402 13.4084 30.8665 13.5325 30.8665L13.531 30.868ZM16.181 15.85C16.2155 15.5776 16.3482 15.3272 16.5542 15.1457C16.7603 14.9643 17.0255 14.8643 17.3 14.8645H46.7C46.9744 14.8644 47.2394 14.9645 47.4453 15.1459C47.6511 15.3274 47.7837 15.5778 47.818 15.85L49.478 29.118H14.522L16.181 15.85Z" fill="white"/>
<path d="M15 33.85H12.2185C11.5888 33.8506 10.9851 34.1011 10.5399 34.5463C10.0946 34.9916 9.84417 35.5953 9.84351 36.225V38.5C9.8443 39.1296 10.0948 39.7333 10.54 40.1785C10.9852 40.6237 11.5889 40.8742 12.2185 40.875H15C15.6297 40.8742 16.2333 40.6237 16.6785 40.1785C17.1237 39.7333 17.3742 39.1296 17.375 38.5V36.2265C17.3747 35.5965 17.1245 34.9924 16.6792 34.5469C16.2339 34.1013 15.63 33.8506 15 33.85ZM15.625 38.5C15.6249 38.6657 15.559 38.8246 15.4418 38.9418C15.3246 39.059 15.1657 39.1248 15 39.125H12.2185C12.0528 39.1248 11.8939 39.059 11.7767 38.9418C11.6595 38.8246 11.5936 38.6657 11.5935 38.5V36.2265C11.5936 36.0608 11.6595 35.9019 11.7767 35.7847C11.8939 35.6675 12.0528 35.6016 12.2185 35.6015H15C15.1657 35.6016 15.3246 35.6675 15.4418 35.7847C15.559 35.9019 15.6249 36.0608 15.625 36.2265V38.5Z" fill="white"/>
<path d="M51.781 33.85H49C48.3703 33.8506 47.7666 34.1011 47.3214 34.5463C46.8761 34.9916 46.6257 35.5953 46.625 36.225V38.5C46.6258 39.1296 46.8763 39.7333 47.3215 40.1785C47.7667 40.6237 48.3704 40.8742 49 40.875H51.781C52.4107 40.8743 53.0144 40.6239 53.4596 40.1786C53.9049 39.7334 54.1553 39.1297 54.156 38.5V36.2265C54.1559 35.5965 53.9057 34.9923 53.4603 34.5467C53.015 34.1011 52.411 33.8505 51.781 33.85ZM52.406 38.5C52.406 38.6657 52.3402 38.8247 52.2229 38.9419C52.1057 39.0591 51.9468 39.125 51.781 39.125H49C48.8342 39.125 48.6753 39.0591 48.5581 38.9419C48.4408 38.8247 48.375 38.6657 48.375 38.5V36.2265C48.3748 36.1443 48.3908 36.0628 48.4221 35.9868C48.4535 35.9108 48.4995 35.8418 48.5575 35.7836C48.6156 35.7254 48.6845 35.6792 48.7605 35.6477C48.8364 35.6162 48.9178 35.6 49 35.6H51.781C51.9468 35.6 52.1057 35.6658 52.2229 35.783C52.3402 35.9002 52.406 36.0592 52.406 36.225V38.5Z" fill="white"/>
<path d="M38.3945 33.85H25.6055C24.9758 33.8506 24.3721 34.1011 23.9269 34.5463C23.4816 34.9916 23.2312 35.5953 23.2305 36.225V38.5C23.2313 39.1296 23.4818 39.7333 23.927 40.1785C24.3722 40.6237 24.9759 40.8742 25.6055 40.875H38.3945C39.0241 40.8742 39.6278 40.6237 40.073 40.1785C40.5182 39.7333 40.7687 39.1296 40.7695 38.5V36.2265C40.7692 35.5965 40.519 34.9924 40.0737 34.5469C39.6284 34.1013 39.0244 33.8506 38.3945 33.85ZM39.0195 38.5C39.0194 38.6657 38.9535 38.8246 38.8363 38.9418C38.7191 39.059 38.5602 39.1248 38.3945 39.125H25.6055C25.4397 39.125 25.2808 39.0591 25.1636 38.9419C25.0463 38.8247 24.9805 38.6657 24.9805 38.5V36.2265C24.9805 36.0607 25.0463 35.9017 25.1636 35.7845C25.2808 35.6673 25.4397 35.6015 25.6055 35.6015H38.3945C38.5602 35.6016 38.7191 35.6675 38.8363 35.7847C38.9535 35.9019 39.0194 36.0608 39.0195 36.2265V38.5Z" fill="white"/>
<path d="M64.0625 25.6185V23.056C64.0616 22.2938 63.7584 21.5631 63.2194 21.0241C62.6804 20.4851 61.9497 20.1819 61.1875 20.181H59.4935C57.8617 20.1797 56.2653 20.6565 54.9015 21.5525L54.3695 21.9025L53.5235 15.1375C53.3136 13.4753 52.5049 11.9466 51.2488 10.8378C49.9927 9.7291 48.3754 9.11639 46.7 9.1145C38.6343 9.1145 29.984 9.1145 17.3 9.1145C15.6248 9.11635 14.0077 9.72884 12.7517 10.8373C11.4956 11.9457 10.6867 13.474 10.4765 15.136L9.6305 21.9L9.0985 21.55C7.73473 20.654 6.1383 20.1772 4.5065 20.1785H2.8125C2.05029 20.1794 1.31956 20.4826 0.780591 21.0216C0.241625 21.5606 -0.0615738 22.2913 -0.0625 23.0535V25.616C-0.0615738 26.3782 0.241625 27.1089 0.780591 27.6479C1.31956 28.1869 2.05029 28.4901 2.8125 28.491H8.8055L8.6645 29.6215L5.5045 33.3215C4.21031 34.8391 3.4996 36.7685 3.5 38.763V43.1265C2.56365 43.1265 1.66566 43.4985 1.00356 44.1606C0.341462 44.8227 -0.0305 45.7206 -0.0305 46.657C-0.0305 47.5933 0.341462 48.4913 1.00356 49.1534C1.66566 49.8155 2.56365 50.1875 3.5 50.1875V57.163C3.50106 58.0578 3.85698 58.9156 4.48968 59.5483C5.12239 60.181 5.98022 60.5369 6.875 60.538H13.225C14.1198 60.5369 14.9776 60.181 15.6103 59.5483C16.243 58.9156 16.5989 58.0578 16.6 57.163V50.189H47.4V57.163C47.4011 58.0578 47.757 58.9156 48.3897 59.5483C49.0224 60.181 49.8802 60.5369 50.775 60.538H57.125C58.0198 60.5369 58.8776 60.181 59.5103 59.5483C60.143 58.9156 60.4989 58.0578 60.5 57.163V50.1875C61.4363 50.1875 62.3343 49.8155 62.9964 49.1534C63.6585 48.4913 64.0305 47.5933 64.0305 46.657C64.0305 45.7206 63.6585 44.8227 62.9964 44.1606C62.3343 43.4985 61.4363 43.1265 60.5 43.1265V38.763C60.4993 36.77 59.7887 34.8425 58.4955 33.326L55.3355 29.626L55.194 28.4955H61.1875C61.9501 28.4946 62.6811 28.1911 63.2201 27.6517C63.7591 27.1123 64.0621 26.3811 64.0625 25.6185ZM1.6875 25.6185V23.056C1.68776 22.7577 1.80638 22.4717 2.0173 22.2608C2.22822 22.0499 2.51421 21.9313 2.8125 21.931H4.5065C5.79727 21.9299 7.0601 22.3069 8.139 23.0155L9.389 23.835L9.0255 26.7435H2.8125C2.51425 26.7431 2.22834 26.6245 2.01744 26.4136C1.80655 26.2027 1.6879 25.9167 1.6875 25.6185ZM14.85 57.163C14.8495 57.5938 14.6781 58.0068 14.3735 58.3115C14.0688 58.6161 13.6558 58.7875 13.225 58.788H6.875C6.44419 58.7875 6.03117 58.6161 5.72654 58.3115C5.4219 58.0068 5.25053 57.5938 5.25 57.163V50.189H14.85V57.163ZM58.75 57.163C58.7495 57.5938 58.5781 58.0068 58.2735 58.3115C57.9688 58.6161 57.5558 58.7875 57.125 58.788H50.775C50.3442 58.7875 49.9312 58.6161 49.6265 58.3115C49.3219 58.0068 49.1505 57.5938 49.15 57.163V50.189H58.75V57.163ZM62.25 46.657C62.2495 47.1295 62.0616 47.5824 61.7275 47.9165C61.3934 48.2506 60.9405 48.4385 60.468 48.439H3.532C3.05938 48.439 2.60613 48.2513 2.27194 47.9171C1.93775 47.5829 1.75 47.1296 1.75 46.657C1.75 46.1844 1.93775 45.7311 2.27194 45.3969C2.60613 45.0627 3.05938 44.875 3.532 44.875H60.468C60.9405 44.8755 61.3934 45.0634 61.7275 45.3975C62.0616 45.7316 62.2495 46.1845 62.25 46.657ZM57.1645 34.4625C58.1871 35.6619 58.7492 37.1863 58.75 38.7625V43.125H5.25V38.763C5.25055 37.1868 5.81266 35.6623 6.8355 34.463L10.1655 30.563C10.2765 30.433 10.3469 30.2732 10.368 30.1035L12.213 15.3535C12.3696 14.1144 12.9726 12.975 13.909 12.1486C14.8455 11.3223 16.0511 10.8657 17.3 10.8645H46.7C47.9486 10.8662 49.1538 11.3229 50.0899 12.1493C51.026 12.9756 51.6288 14.1147 51.7855 15.3535L52.806 23.51L53.333 27.726L53.63 30.099C53.6511 30.2687 53.7215 30.4285 53.8325 30.5585L57.1645 34.4625ZM54.959 26.6125L54.609 23.835L55.859 23.0155C56.9379 22.3069 58.2007 21.9299 59.4915 21.931H61.1855C61.4838 21.9313 61.7698 22.0499 61.9807 22.2608C62.1916 22.4717 62.3102 22.7577 62.3105 23.056V25.6185C62.3101 25.9167 62.1914 26.2027 61.9806 26.4136C61.7697 26.6245 61.4837 26.7431 61.1855 26.7435H54.9755L54.959 26.6125Z" fill="white"/>
</g>
<defs>
<clipPath id="clip0_298_6219">
<rect width="64" height="64" fill="white"/>
</clipPath>
</defs>
</svg>
