<svg width="65" height="64" viewBox="0 0 65 64" fill="none" xmlns="http://www.w3.org/2000/svg">
<g clip-path="url(#clip0_149_3399)">
<path d="M24.25 29.92V29.3333H40.25V33.3333L40.17 35.4133C41.7471 35.5292 43.2292 36.2111 44.3433 37.3333C45.5935 38.5831 47.2889 39.2852 49.0567 39.2852C50.8244 39.2852 52.5198 38.5831 53.77 37.3333C54.9735 36.1304 56.5919 35.4338 58.2929 35.3867C59.9939 35.3396 61.6484 35.9455 62.9167 37.08V54.6667H1.58333V28.2533C2.8516 29.3878 4.50608 29.9937 6.20707 29.9466C7.90806 29.8995 9.52647 29.203 10.73 28C11.9802 26.7502 13.6756 26.0481 15.4433 26.0481C17.2111 26.0481 18.9065 26.7502 20.1567 28C21.2524 29.1022 22.702 29.7821 24.25 29.92Z" fill="#B82126"/>
<path d="M40.25 28.9733V24H62.9167V37.08C61.6484 35.9455 59.9939 35.3396 58.2929 35.3867C56.5919 35.4338 54.9735 36.1304 53.77 37.3333C52.5198 38.5831 50.8244 39.2852 49.0567 39.2852C47.2889 39.2852 45.5935 38.5831 44.3433 37.3333C43.2292 36.2111 41.7471 35.5292 40.17 35.4133L40.25 33.3333V28.9733Z" fill="#E0282E"/>
<path d="M62.9167 18.6666V24H40.25V18.6666H58.9167H62.9167Z" fill="#1A1B1D"/>
<path d="M40.25 28.9733V29.3333H24.25V24H40.25V28.9733Z" fill="#E0282E"/>
<path d="M40.25 18.6666V24H24.25V18.6666H33.5833H36.25H40.25Z" fill="#1A1B1D"/>
<path d="M24.25 29.3333V29.92C22.702 29.7821 21.2524 29.1022 20.1567 28C18.9065 26.7502 17.2111 26.0481 15.4433 26.0481C13.6756 26.0481 11.9802 26.7502 10.73 28C9.52647 29.203 7.90806 29.8995 6.20707 29.9466C4.50608 29.9937 2.8516 29.3878 1.58333 28.2533V24H24.25V29.3333Z" fill="#E0282E"/>
<path d="M24.25 18.6666V24H1.58333V18.6666H5.58333H24.25Z" fill="#1A1B1D"/>
<path d="M7.58333 36.3906L5.694 38.276C7.19543 39.7734 9.22944 40.6144 11.35 40.6144C13.4706 40.6144 15.5046 39.7734 17.006 38.276L15.1207 36.3906C14.1207 37.3892 12.7652 37.9502 11.352 37.9502C9.93877 37.9502 8.58332 37.3892 7.58333 36.3906Z" fill="white"/>
<path d="M56.9167 47.6093L58.802 45.724C57.3007 44.2262 55.2667 43.385 53.146 43.385C51.0253 43.385 48.9913 44.2262 47.49 45.724C46.4899 46.7238 45.1335 47.2855 43.7193 47.2855C42.3051 47.2855 40.9488 46.7238 39.9487 45.724L38.0633 47.6093C39.5636 49.1091 41.598 49.9516 43.7193 49.9516C45.8406 49.9516 47.8751 49.1091 49.3753 47.6093C50.3755 46.6095 51.7318 46.0478 53.146 46.0478C54.5602 46.0478 55.9165 46.6095 56.9167 47.6093Z" fill="white"/>
<path d="M19.214 28.944C20.2375 29.9606 21.5169 30.6816 22.9167 31.0306V33.3333H25.5833V30.6666H38.9167V33.3333H41.5833V30.9973C42.9477 31.3815 44.3901 31.3936 45.7607 31.0323C47.1313 30.671 48.3803 29.9495 49.378 28.9426C50.3782 27.9428 51.7345 27.3811 53.1487 27.3811C54.5629 27.3811 55.9192 27.9428 56.9193 28.9426L58.8047 27.0573C57.3034 25.5595 55.2693 24.7183 53.1487 24.7183C51.028 24.7183 48.9939 25.5595 47.4927 27.0573C46.736 27.8192 45.7651 28.3324 44.7094 28.5287C43.6537 28.725 42.5633 28.595 41.5833 28.156V20H58.9167V17.3333H41.5833V13.3333C41.5833 12.2724 42.0048 11.255 42.7549 10.5049C43.5051 9.75472 44.5225 9.33329 45.5833 9.33329C46.6442 9.33329 47.6616 9.75472 48.4118 10.5049C49.1619 11.255 49.5833 12.2724 49.5833 13.3333H52.25C52.25 11.5652 51.5476 9.86949 50.2974 8.61925C49.0471 7.369 47.3514 6.66663 45.5833 6.66663C43.8152 6.66663 42.1195 7.369 40.8693 8.61925C39.619 9.86949 38.9167 11.5652 38.9167 13.3333V17.3333H36.25V20H38.9167V22.6666H25.5833V20H33.5833V17.3333H25.5833V13.3333C25.5833 12.2724 26.0048 11.255 26.7549 10.5049C27.5051 9.75472 28.5225 9.33329 29.5833 9.33329C30.6442 9.33329 31.6616 9.75472 32.4118 10.5049C33.1619 11.255 33.5833 12.2724 33.5833 13.3333H36.25C36.25 11.5652 35.5476 9.86949 34.2974 8.61925C33.0471 7.369 31.3514 6.66663 29.5833 6.66663C27.8152 6.66663 26.1195 7.369 24.8693 8.61925C23.619 9.86949 22.9167 11.5652 22.9167 13.3333V17.3333H5.58333V20H22.9167V28.2333C22.236 27.9708 21.6171 27.5699 21.0993 27.056C19.5992 25.5566 17.565 24.7143 15.444 24.7143C13.323 24.7143 11.2888 25.5566 9.78867 27.056C8.89372 27.9478 7.70985 28.4911 6.45008 28.5879C5.19031 28.6846 3.93736 28.3287 2.91667 27.584V17.3333H0.25V54.6666C0.25 55.0202 0.390476 55.3594 0.640524 55.6094C0.890573 55.8595 1.22971 56 1.58333 56H62.9167C63.2703 56 63.6094 55.8595 63.8595 55.6094C64.1095 55.3594 64.25 55.0202 64.25 54.6666V17.3333H61.5833V34.7066C60.1223 34.0822 58.508 33.9088 56.9477 34.2089C55.3874 34.509 53.9525 35.2688 52.8273 36.3906C51.8272 37.3905 50.4709 37.9522 49.0567 37.9522C47.6425 37.9522 46.2861 37.3905 45.286 36.3906C43.7829 34.8964 41.7495 34.0577 39.63 34.0577C37.5105 34.0577 35.4771 34.8964 33.974 36.3906C32.9739 37.3905 31.6175 37.9522 30.2033 37.9522C28.7891 37.9522 27.4328 37.3905 26.4327 36.3906L24.5473 38.276C26.0488 39.7734 28.0828 40.6144 30.2033 40.6144C32.3239 40.6144 34.3579 39.7734 35.8593 38.276C36.8625 37.2839 38.2165 36.7275 39.6273 36.7275C41.0382 36.7275 42.3922 37.2839 43.3953 38.276C44.8956 39.7757 46.93 40.6182 49.0513 40.6182C51.1726 40.6182 53.2071 39.7757 54.7073 38.276C55.6025 37.383 56.7873 36.8392 58.0481 36.7426C59.3088 36.6461 60.5626 37.0031 61.5833 37.7493V53.3333H2.91667V49.3013C4.37684 49.9335 5.99386 50.1103 7.55614 49.8084C9.11841 49.5065 10.5532 48.74 11.6727 47.6093C12.6728 46.6094 14.0291 46.0478 15.4433 46.0478C16.8575 46.0478 18.2139 46.6094 19.214 47.6093C20.7154 49.1068 22.7494 49.9477 24.87 49.9477C26.9906 49.9477 29.0246 49.1068 30.526 47.6093L28.6407 45.724C27.6405 46.7238 26.2842 47.2855 24.87 47.2855C23.4558 47.2855 22.0995 46.7238 21.0993 45.724C19.5991 44.2242 17.5646 43.3817 15.4433 43.3817C13.322 43.3817 11.2876 44.2242 9.78733 45.724C8.89314 46.6163 7.70987 47.1603 6.45038 47.258C5.1909 47.3558 3.93786 47.001 2.91667 46.2573V30.6346C4.37684 31.2669 5.99386 31.4436 7.55614 31.1417C9.11841 30.8398 10.5532 30.0734 11.6727 28.9426C12.6728 27.9428 14.0291 27.3811 15.4433 27.3811C16.8575 27.3811 18.2139 27.9441 19.214 28.944ZM38.9167 28H25.5833V25.3333H38.9167V28Z" fill="white"/>
</g>
<defs>
<clipPath id="clip0_149_3399">
<rect width="64" height="64" fill="white" transform="translate(0.25)"/>
</clipPath>
</defs>
</svg>
