<svg width="65" height="64" viewBox="0 0 65 64" fill="none" xmlns="http://www.w3.org/2000/svg">
<g clip-path="url(#clip0_149_3426)">
<path d="M58.0833 37.3333V42.6666C58.0833 43.0202 57.9429 43.3593 57.6928 43.6094C57.4428 43.8594 57.1036 43.9999 56.75 43.9999H52.75V17.3333H56.75C57.1036 17.3333 57.4428 17.4737 57.6928 17.7238C57.9429 17.9738 58.0833 18.313 58.0833 18.6666V37.3333Z" fill="#1A1B1D"/>
<path d="M52.75 17.3333V48C52.75 48.3536 52.6095 48.6928 52.3595 48.9428C52.1094 49.1929 51.7703 49.3333 51.4167 49.3333H46.0833L44.75 48V13.3333L46.0833 12H51.4167C51.7703 12 52.1094 12.1405 52.3595 12.3905C52.6095 12.6406 52.75 12.9797 52.75 13.3333V17.3333Z" fill="#E0282E"/>
<path d="M20.75 34.6667V48L19.4167 49.3333H14.0833C13.7297 49.3333 13.3906 49.1929 13.1405 48.9428C12.8905 48.6928 12.75 48.3536 12.75 48V13.3333C12.75 12.9797 12.8905 12.6406 13.1405 12.3905C13.3906 12.1405 13.7297 12 14.0833 12H19.4167L20.75 13.3333V34.6667Z" fill="#E0282E"/>
<path d="M12.75 33.3333V43.9999H8.74999C8.39637 43.9999 8.05723 43.8594 7.80718 43.6094C7.55713 43.3593 7.41666 43.0202 7.41666 42.6666V18.6666C7.41666 18.313 7.55713 17.9738 7.80718 17.7238C8.05723 17.4737 8.39637 17.3333 8.74999 17.3333H12.75V33.3333Z" fill="#1A1B1D"/>
<path d="M44.75 26.6666H20.75V34.6666H44.75V26.6666Z" fill="#636978"/>
<path d="M62.0833 24C62.437 24 62.7761 24.1405 63.0262 24.3905C63.2762 24.6406 63.4167 24.9797 63.4167 25.3333V36C63.4167 36.3536 63.2762 36.6928 63.0262 36.9428C62.7761 37.1929 62.437 37.3333 62.0833 37.3333H58.0833V24H62.0833Z" fill="#B82126"/>
<path d="M7.41668 24V37.3333H3.41668C3.06305 37.3333 2.72392 37.1929 2.47387 36.9428C2.22382 36.6928 2.08334 36.3536 2.08334 36V25.3333C2.08334 24.9797 2.22382 24.6406 2.47387 24.3905C2.72392 24.1405 3.06305 24 3.41668 24H7.41668Z" fill="#B82126"/>
<path d="M0.75 25.3333V36C0.75 36.7072 1.03095 37.3855 1.53105 37.8856C2.03115 38.3857 2.70942 38.6666 3.41667 38.6666H4.75V36H3.41667V25.3333H4.75V22.6666H3.41667C2.70942 22.6666 2.03115 22.9476 1.53105 23.4477C1.03095 23.9478 0.75 24.626 0.75 25.3333H0.75Z" fill="white"/>
<path d="M62.0833 22.6666H60.75V25.3333H62.0833V36H60.75V38.6666H62.0833C62.7906 38.6666 63.4689 38.3857 63.969 37.8856C64.4691 37.3855 64.75 36.7072 64.75 36V25.3333C64.75 24.626 64.4691 23.9478 63.969 23.4477C63.4689 22.9476 62.7906 22.6666 62.0833 22.6666Z" fill="white"/>
<path d="M56.75 16H54.0833V13.3333C54.0833 12.626 53.8024 11.9478 53.3023 11.4477C52.8022 10.9476 52.1239 10.6666 51.4167 10.6666H46.0833C45.7298 10.6667 45.3907 10.8072 45.1407 11.0573L43.8073 12.3906C43.5573 12.6406 43.4168 12.9797 43.4167 13.3333V25.3333H22.0833V13.3333C22.0833 12.9797 21.9427 12.6406 21.6927 12.3906L20.3593 11.0573C20.1094 10.8072 19.7703 10.6667 19.4167 10.6666H14.0833C13.3761 10.6666 12.6978 10.9476 12.1977 11.4477C11.6976 11.9478 11.4167 12.626 11.4167 13.3333V16H8.75001C8.04277 16 7.36449 16.2809 6.86439 16.781C6.36429 17.2811 6.08334 17.9594 6.08334 18.6666V42.6666C6.08334 43.3739 6.36429 44.0522 6.86439 44.5522C7.36449 45.0523 8.04277 45.3333 8.75001 45.3333H11.4167V48C11.4167 48.7072 11.6976 49.3855 12.1977 49.8856C12.6978 50.3857 13.3761 50.6666 14.0833 50.6666H19.4167C19.7703 50.6666 20.1094 50.526 20.3593 50.276L21.6927 48.9426C21.9427 48.6926 22.0833 48.3536 22.0833 48V36H43.4167V48C43.4168 48.3536 43.5573 48.6926 43.8073 48.9426L45.1407 50.276C45.3907 50.526 45.7298 50.6666 46.0833 50.6666H51.4167C52.1239 50.6666 52.8022 50.3857 53.3023 49.8856C53.8024 49.3855 54.0833 48.7072 54.0833 48V45.3333H56.75C57.4573 45.3333 58.1355 45.0523 58.6356 44.5522C59.1357 44.0522 59.4167 43.3739 59.4167 42.6666V18.6666C59.4167 17.9594 59.1357 17.2811 58.6356 16.781C58.1355 16.2809 57.4573 16 56.75 16ZM19.4167 47.448L18.8647 48H14.0833V44C14.0833 43.6463 13.9429 43.3072 13.6928 43.0572C13.4428 42.8071 13.1036 42.6666 12.75 42.6666H8.75001V18.6666H11.4167V33.3333H14.0833V13.3333H18.8647L19.4167 13.8853V47.448ZM22.0833 28H43.4167V33.3333H22.0833V28ZM56.75 42.6666H54.0833V28H51.4167V48H46.6353L46.0833 47.448V13.8853L46.6353 13.3333H51.4167V17.3333C51.4167 17.6869 51.5572 18.0261 51.8072 18.2761C52.0573 18.5262 52.3964 18.6666 52.75 18.6666H56.75V42.6666Z" fill="white"/>
<path d="M54.0833 22.6666H51.4167V25.3333H54.0833V22.6666Z" fill="white"/>
<path d="M14.0833 36H11.4167V38.6667H14.0833V36Z" fill="white"/>
</g>
<defs>
<clipPath id="clip0_149_3426">
<rect width="64" height="64" fill="white" transform="translate(0.75)"/>
</clipPath>
</defs>
</svg>
