<svg width="65" height="64" viewBox="0 0 65 64" fill="none" xmlns="http://www.w3.org/2000/svg">
<g clip-path="url(#clip0_149_3480)">
<path d="M63.75 59H1.75V63H63.75V59Z" fill="#7A828B"/>
<path d="M63.75 61H1.75V63H63.75V61Z" fill="#414952"/>
<path d="M39.75 4V9L36.75 7C36.6105 6.80865 36.4567 6.62813 36.29 6.46C35.653 5.82931 34.8589 5.38047 33.99 5.16C33.8292 4.79455 33.7474 4.39925 33.75 4C33.75 3.20435 34.0661 2.44129 34.6287 1.87868C35.1913 1.31607 35.9543 1 36.75 1C37.5456 1 38.3087 1.31607 38.8713 1.87868C39.4339 2.44129 39.75 3.20435 39.75 4Z" fill="#B82126"/>
<path d="M25.52 34.35L23.32 37.65L19.02 34.22L21.75 24L30.75 22L32.75 24L34.75 22L43.75 24L46.48 34.22L42.18 37.65L39.98 34.35C39.3497 35.481 38.9327 36.7182 38.75 38H26.75C26.5672 36.7182 26.1503 35.481 25.52 34.35Z" fill="#E0282E"/>
<path d="M21.75 26L30.75 24L32.75 26L34.75 24L43.75 26L46.04 34.571L46.48 34.22L43.75 24L34.75 22L32.75 24L30.75 22L21.75 24L19.02 34.22L19.46 34.571L21.75 26Z" fill="#F9686C"/>
<path d="M36.75 59H28.75C29.2755 59.0007 29.7959 58.8976 30.2815 58.6969C30.7671 58.4961 31.2083 58.2015 31.5799 57.8299C31.9515 57.4583 32.2461 57.0171 32.4469 56.5315C32.6476 56.0459 32.7507 55.5255 32.75 55C32.75 56.0609 33.1714 57.0783 33.9216 57.8284C34.6717 58.5786 35.6891 59 36.75 59Z" fill="#B82126"/>
<path d="M26.75 51V59H14.75C13.9584 59.0006 13.1845 58.7664 12.5261 58.3269C11.8677 57.8874 11.3545 57.2625 11.0515 56.5312C10.7485 55.7999 10.6693 54.9951 10.8239 54.2188C10.9785 53.4424 11.36 52.7294 11.92 52.17C12.197 51.8985 12.5099 51.6664 12.85 51.48C13.4341 51.1659 14.0868 51.0011 14.75 51H26.75Z" fill="#B82126"/>
<path d="M52.3 51.32C53.0263 51.6227 53.6466 52.1338 54.0826 52.7887C54.5187 53.4437 54.7509 54.2131 54.75 55C54.7507 55.5254 54.6476 56.0459 54.4469 56.5315C54.2461 57.0171 53.9515 57.4583 53.5799 57.8298C53.2083 58.2014 52.7671 58.496 52.2815 58.6968C51.7959 58.8976 51.2755 59.0006 50.75 59H38.75V51H50.75C51.2834 50.9966 51.8115 51.1057 52.3 51.32Z" fill="#B82126"/>
<path d="M39.75 46L40.75 51H36.75C36.2245 50.9993 35.7041 51.1024 35.2185 51.3031C34.7329 51.5039 34.2917 51.7985 33.9201 52.1701C33.5485 52.5417 33.2539 52.9829 33.0531 53.4685C32.8524 53.9541 32.7493 54.4745 32.75 55C32.75 53.9391 32.3286 52.9217 31.5784 52.1716C30.8283 51.4214 29.8109 51 28.75 51H24.75L25.75 46H39.75Z" fill="#B82126"/>
<path d="M28.75 51C29.8109 51 30.8283 51.4214 31.5784 52.1716C32.3286 52.9217 32.75 53.9391 32.75 55C32.75 56.0609 32.3286 57.0783 31.5784 57.8284C30.8283 58.5786 29.8109 59 28.75 59H26.75V51H28.75Z" fill="#1A1B1D"/>
<path d="M38.75 51V59H36.75C35.6891 59 34.6717 58.5786 33.9216 57.8284C33.1714 57.0783 32.75 56.0609 32.75 55C32.75 53.9391 33.1714 52.9217 33.9216 52.1716C34.6717 51.4214 35.6891 51 36.75 51H38.75Z" fill="#1A1B1D"/>
<path d="M11.05 53.5C10.8013 54.1064 10.7059 54.7648 10.7723 55.4169C10.8387 56.069 11.0648 56.6946 11.4307 57.2385C11.7965 57.7823 12.2908 58.2276 12.8698 58.5348C13.4488 58.8421 14.0946 59.0018 14.75 59H26.75V56H14.75C13.9546 55.9984 13.1777 55.7597 12.5187 55.3144C11.8596 54.8691 11.3483 54.2374 11.05 53.5Z" fill="#85181C"/>
<path d="M53.58 54.83C52.8277 55.5776 51.8106 55.9981 50.75 56H38.75V59H50.75C51.2755 59.0006 51.7959 58.8976 52.2815 58.6968C52.7671 58.4961 53.2083 58.2014 53.5799 57.8299C53.9515 57.4583 54.2461 57.0171 54.4469 56.5315C54.6476 56.0459 54.7507 55.5255 54.75 55C54.7475 54.4873 54.6456 53.9799 54.45 53.506C54.249 53.9998 53.9534 54.4495 53.58 54.83Z" fill="#85181C"/>
<path d="M31.58 54.83C30.8277 55.5776 29.8106 55.9981 28.75 56H26.75V59H28.75C29.405 59.0006 30.0501 58.8401 30.6284 58.5325C31.2067 58.2249 31.7004 57.7797 32.066 57.2362C32.4316 56.6928 32.6579 56.0677 32.7249 55.4161C32.7918 54.7645 32.6974 54.1065 32.45 53.5C32.2499 53.9961 31.9543 54.4479 31.58 54.83Z" fill="black"/>
<path d="M33.05 53.5C32.8013 54.1064 32.7059 54.7648 32.7723 55.4169C32.8387 56.069 33.0648 56.6946 33.4307 57.2385C33.7965 57.7823 34.2908 58.2276 34.8698 58.5348C35.4488 58.8421 36.0946 59.0018 36.75 59H38.75V56H36.75C35.9546 55.9984 35.1777 55.7597 34.5187 55.3144C33.8596 54.8691 33.3483 54.2374 33.05 53.5Z" fill="black"/>
<path d="M34.75 18.59V22L32.75 24L30.75 22V18.59C31.3821 18.8605 32.0625 19 32.75 19C33.4375 19 34.1179 18.8605 34.75 18.59Z" fill="#1A1B1D"/>
<path d="M23.32 37.65L21.75 40L11.75 50L9.75 47L17.75 39L19.02 34.22L23.32 37.65Z" fill="#1A1B1D"/>
<path d="M55.75 47L53.75 50L53.69 49.94L43.75 40L42.18 37.65L46.48 34.22L47.75 39L55.75 47Z" fill="#1A1B1D"/>
<path d="M38.75 46H26.75C26.75 43 27.75 41 27.75 38H37.75C37.75 41 38.75 43 38.75 46Z" fill="#1A1B1D"/>
<path d="M26.896 44C26.801 44.6625 26.7522 45.3308 26.75 46H38.75C38.7478 45.3308 38.699 44.6625 38.604 44H26.896Z" fill="black"/>
<path d="M30.75 18.59C29.8594 18.1973 29.1019 17.5546 28.5694 16.7398C28.0369 15.9251 27.7522 14.9733 27.75 14V9.99999C27.75 8.67391 28.2768 7.40214 29.2145 6.46446C30.1521 5.52677 31.4239 4.99999 32.75 4.99999C33.1687 4.99708 33.5858 5.0509 33.99 5.15999C34.8589 5.38046 35.653 5.8293 36.29 6.45999C36.4567 6.62812 36.6105 6.80864 36.75 6.99999C37.403 7.86344 37.7543 8.91744 37.75 9.99999V14C37.7478 14.9733 37.4631 15.9251 36.9306 16.7398C36.3981 17.5546 35.6406 18.1973 34.75 18.59C34.1179 18.8605 33.4375 19 32.75 19C32.0625 19 31.3821 18.8605 30.75 18.59Z" fill="#1A1B1D"/>
<path d="M34.75 16.59C34.1179 16.8605 33.4375 17 32.75 17C32.0625 17 31.3821 16.8605 30.75 16.59C29.8594 16.1973 29.1019 15.5546 28.5694 14.7398C28.0369 13.9251 27.7522 12.9733 27.75 12V14C27.7522 14.9733 28.0369 15.9251 28.5694 16.7398C29.1019 17.5546 29.8594 18.1973 30.75 18.59C31.3821 18.8605 32.0625 19 32.75 19C33.4375 19 34.1179 18.8605 34.75 18.59C35.6406 18.1973 36.3981 17.5546 36.9306 16.7398C37.4631 15.9251 37.7478 14.9733 37.75 14V12C37.7478 12.9733 37.4631 13.9251 36.9306 14.7398C36.3981 15.5546 35.6406 16.1973 34.75 16.59Z" fill="#CCCCCC"/>
<path d="M42.381 38.776L41.119 37.224L41.549 36.874L46.119 33.225L47.381 34.775L47.111 34.995L42.381 38.776Z" fill="white"/>
<path d="M23.119 38.776L18.119 34.775L19.381 33.225L19.651 33.444L24.381 37.224L23.119 38.776Z" fill="white"/>
<path d="M32.75 25C32.4848 24.9999 32.2305 24.8945 32.043 24.707L30.043 22.707L31.457 21.293L32.75 22.586L34.043 21.293L35.457 22.707L33.457 24.707C33.2695 24.8945 33.0152 24.9999 32.75 25Z" fill="white"/>
<path d="M32.75 20.0001C31.9613 20.0028 31.1798 19.8495 30.4506 19.549C29.7214 19.2484 29.0589 18.8066 28.5012 18.2489C27.9435 17.6912 27.5016 17.0286 27.2011 16.2994C26.9005 15.5702 26.7472 14.7888 26.75 14.0001V10.0001C26.7516 8.40924 27.3842 6.88404 28.5091 5.75916C29.634 4.63429 31.1592 4.00164 32.75 4.00005C33.2588 3.99787 33.7654 4.06516 34.256 4.20005L33.725 6.12805C33.4073 6.04161 33.0793 5.99855 32.75 6.00005C31.6891 6.00005 30.6717 6.42148 29.9216 7.17162C29.1714 7.92177 28.75 8.93919 28.75 10.0001V14.0001C28.7527 14.7797 28.9813 15.5418 29.4081 16.1942C29.8349 16.8466 30.4417 17.3613 31.155 17.6761C31.6619 17.8883 32.2061 17.997 32.7556 17.996C33.3051 17.995 33.8489 17.8841 34.355 17.6701C35.066 17.3549 35.6704 16.8406 36.0954 16.1894C36.5204 15.5381 36.7478 14.7777 36.75 14.0001V10.0001C36.7551 9.13375 36.4738 8.29004 35.95 7.60005L37.55 6.40005C38.3351 7.43538 38.7569 8.70072 38.75 10.0001V14.0001C38.7526 14.7887 38.5993 15.5701 38.2987 16.2993C37.9981 17.0284 37.5562 17.6909 36.9985 18.2486C36.4409 18.8063 35.7784 19.2481 35.0492 19.5487C34.3201 19.8493 33.5387 20.0027 32.75 20.0001Z" fill="white"/>
<path d="M39.75 10C39.5525 9.99969 39.3595 9.94126 39.195 9.832L36.195 7.832C36.0983 7.76728 36.0134 7.68644 35.944 7.593C35.835 7.44175 35.7143 7.29931 35.583 7.167C35.0749 6.66474 34.4422 6.30682 33.75 6.13C33.6027 6.09312 33.4657 6.02316 33.3494 5.92544C33.2331 5.82771 33.1407 5.70479 33.079 5.566C32.8601 5.07306 32.7479 4.53937 32.75 4C32.75 2.93913 33.1714 1.92172 33.9216 1.17157C34.6717 0.421427 35.6891 0 36.75 0C37.8109 0 38.8283 0.421427 39.5784 1.17157C40.3286 1.92172 40.75 2.93913 40.75 4V9C40.75 9.26522 40.6446 9.51957 40.4571 9.70711C40.2696 9.89464 40.0152 10 39.75 10ZM37.45 6.262L38.75 7.132V4C38.75 3.46957 38.5393 2.96086 38.1642 2.58579C37.7891 2.21071 37.2804 2 36.75 2C36.2196 2 35.7109 2.21071 35.3358 2.58579C34.9607 2.96086 34.75 3.46957 34.75 4C34.7499 4.11939 34.7606 4.23854 34.782 4.356C35.611 4.65355 36.3652 5.12824 36.992 5.747C37.1552 5.90901 37.3082 6.08101 37.45 6.262Z" fill="white"/>
<path d="M38.75 39H26.75C26.4848 39 26.2304 38.8946 26.0429 38.7071C25.8554 38.5196 25.75 38.2652 25.75 38C25.6525 37.1693 25.3947 36.3655 24.991 35.633C24.86 35.342 24.726 35.043 24.597 34.733C24.0656 33.5586 23.7774 32.2888 23.75 31V30H25.75V31C25.7811 32.0254 26.0171 33.0342 26.444 33.967C26.564 34.255 26.691 34.537 26.815 34.812C27.1597 35.5123 27.4338 36.2453 27.633 37H37.867C38.0662 36.2453 38.3403 35.5123 38.685 34.812C38.809 34.537 38.936 34.255 39.057 33.964C39.4835 33.0321 39.7191 32.0243 39.75 31V30H41.75V31C41.723 32.2884 41.4352 33.5579 40.904 34.732C40.774 35.043 40.64 35.342 40.504 35.632C40.1019 36.3651 39.8458 37.1693 39.75 38C39.75 38.2652 39.6446 38.5196 39.4571 38.7071C39.2696 38.8946 39.0152 39 38.75 39Z" fill="white"/>
<path d="M27.75 46H25.75C25.7765 44.5857 25.9508 43.1781 26.27 41.8C26.5612 40.5534 26.7221 39.2799 26.75 38H28.75C28.7235 39.4143 28.5492 40.8219 28.23 42.2C27.9388 43.4466 27.7779 44.7201 27.75 46Z" fill="white"/>
<path d="M39.75 46H37.75C37.7221 44.7201 37.5612 43.4466 37.27 42.2C36.9508 40.8219 36.7765 39.4143 36.75 38H38.75C38.7779 39.2799 38.9388 40.5534 39.23 41.8C39.5492 43.1781 39.7235 44.5857 39.75 46Z" fill="white"/>
<path d="M39.77 51.2L38.93 47H26.57L25.73 51.2L23.77 50.8L24.77 45.8C24.8161 45.5741 24.9388 45.3711 25.1174 45.2253C25.296 45.0796 25.5195 45 25.75 45H39.75C39.9805 45 40.204 45.0796 40.3826 45.2253C40.5612 45.3711 40.6839 45.5741 40.73 45.8L41.73 50.8L39.77 51.2Z" fill="white"/>
<path d="M28.75 60V58C29.5457 58 30.3087 57.6839 30.8713 57.1213C31.4339 56.5587 31.75 55.7956 31.75 55C31.75 54.2044 31.4339 53.4413 30.8713 52.8787C30.3087 52.3161 29.5457 52 28.75 52H14.75C14.2519 52.0014 13.7618 52.1254 13.323 52.361C13.0676 52.5012 12.8321 52.6751 12.623 52.878C12.2029 53.2979 11.9168 53.833 11.8011 54.4156C11.6854 54.9982 11.7452 55.602 11.973 56.1506C12.2008 56.6991 12.5863 57.1677 13.0807 57.4969C13.5751 57.8262 14.156 58.0013 14.75 58V60C13.7613 60.0006 12.7946 59.708 11.9721 59.1593C11.1496 58.6105 10.5083 57.8302 10.1292 56.9171C9.7501 56.0039 9.65025 54.9988 9.84227 54.0289C10.0343 53.059 10.5096 52.1678 11.208 51.468C11.552 51.1291 11.941 50.839 12.364 50.606C13.0972 50.2102 13.9169 50.002 14.75 50H28.75C30.0761 50 31.3479 50.5268 32.2855 51.4645C33.2232 52.4021 33.75 53.6739 33.75 55C33.75 56.3261 33.2232 57.5979 32.2855 58.5355C31.3479 59.4732 30.0761 60 28.75 60Z" fill="white"/>
<path d="M50.75 60V58C51.1442 58.0008 51.5347 57.9238 51.899 57.7733C52.2633 57.6228 52.5944 57.4018 52.8731 57.1231C53.1518 56.8444 53.3728 56.5133 53.5233 56.149C53.6737 55.7847 53.7508 55.3942 53.75 55C53.7517 54.4105 53.5784 53.8337 53.2519 53.3429C52.9253 52.8521 52.4604 52.4692 51.916 52.243C51.5486 52.0813 51.1514 51.9985 50.75 52H36.75C35.9544 52 35.1913 52.3161 34.6287 52.8787C34.0661 53.4413 33.75 54.2044 33.75 55C33.75 55.7957 34.0661 56.5587 34.6287 57.1213C35.1913 57.684 35.9544 58 36.75 58V60C35.4239 60 34.1521 59.4732 33.2145 58.5356C32.2768 57.5979 31.75 56.3261 31.75 55C31.75 53.6739 32.2768 52.4022 33.2145 51.4645C34.1521 50.5268 35.4239 50 36.75 50H50.75C51.4239 49.9978 52.0908 50.1365 52.708 50.407C53.4592 50.7274 54.1206 51.2269 54.6342 51.8618C55.1478 52.4968 55.498 53.2479 55.6543 54.0495C55.8106 54.8511 55.7681 55.6788 55.5306 56.4602C55.2932 57.2416 54.8679 57.9529 54.292 58.532C53.3524 59.4713 52.0785 59.9993 50.75 60Z" fill="white"/>
<path d="M27.75 51H25.75V59H27.75V51Z" fill="white"/>
<path d="M39.75 51H37.75V59H39.75V51Z" fill="white"/>
<path d="M53.75 51C53.4877 50.9989 53.2363 50.8947 53.05 50.71L43.05 40.71C43.0038 40.6636 42.9619 40.6131 42.925 40.559L38.925 34.553L40.595 33.453L44.537 39.365L53.604 48.434L54.473 47.134L47.053 39.714C46.9286 39.5894 46.8392 39.4342 46.794 39.264L42.94 24.845L34.533 22.977C34.3108 22.9276 34.112 22.8039 33.9697 22.6262C33.8273 22.4486 33.7498 22.2277 33.75 22V18H35.75V21.2L43.967 23.025C44.1457 23.0648 44.31 23.1529 44.4421 23.2797C44.5742 23.4065 44.6689 23.5671 44.716 23.744L48.65 38.483L56.46 46.293C56.6235 46.4565 56.7253 46.6716 56.7481 46.9016C56.7709 47.1317 56.7133 47.3626 56.585 47.555L54.585 50.555C54.5033 50.6791 54.3949 50.7835 54.2677 50.8605C54.1406 50.9374 53.9979 50.9851 53.85 51C53.817 51 53.783 51 53.75 51Z" fill="white"/>
<path d="M11.75 51C11.717 51 11.685 51 11.65 50.995C11.5029 50.9804 11.3609 50.9334 11.2341 50.8573C11.1074 50.7812 10.9991 50.678 10.917 50.555L8.917 47.555C8.78872 47.3626 8.73107 47.1317 8.75386 46.9016C8.77665 46.6716 8.87848 46.4565 9.042 46.293L16.852 38.483L20.783 23.742C20.8301 23.5651 20.9248 23.4045 21.0569 23.2777C21.189 23.1509 21.3533 23.0628 21.532 23.023L29.75 21.2V18H31.75V22C31.7502 22.2277 31.6727 22.4486 31.5303 22.6262C31.388 22.8039 31.1892 22.9276 30.967 22.977L22.56 24.845L18.716 39.257C18.6708 39.4272 18.5814 39.5824 18.457 39.707L11.037 47.127L11.905 48.427L20.973 39.358L24.915 33.446L26.585 34.546L22.585 40.552C22.5481 40.6061 22.5062 40.6566 22.46 40.703L12.46 50.703C12.3671 50.7969 12.2566 50.8716 12.1347 50.9225C12.0129 50.9735 11.8821 50.9998 11.75 51Z" fill="white"/>
<path d="M63.75 64H1.75C1.48478 64 1.23043 63.8946 1.04289 63.7071C0.855357 63.5196 0.75 63.2652 0.75 63V59C0.75 58.7348 0.855357 58.4804 1.04289 58.2929C1.23043 58.1054 1.48478 58 1.75 58H63.75C64.0152 58 64.2696 58.1054 64.4571 58.2929C64.6446 58.4804 64.75 58.7348 64.75 59V63C64.75 63.2652 64.6446 63.5196 64.4571 63.7071C64.2696 63.8946 64.0152 64 63.75 64ZM2.75 62H62.75V60H2.75V62Z" fill="white"/>
</g>
<defs>
<clipPath id="clip0_149_3480">
<rect width="64" height="64" fill="white" transform="translate(0.75)"/>
</clipPath>
</defs>
</svg>
