<svg width="65" height="65" viewBox="0 0 65 65" fill="none" xmlns="http://www.w3.org/2000/svg">
<g clip-path="url(#clip0_238_9290)">
<path d="M19.5 35.9985H30.5V47.9985H6.5V44.9985H22.5C23.0299 44.997 23.5377 44.7857 23.9125 44.411C24.2872 44.0363 24.4984 43.5285 24.5 42.9985V40.9985C24.4984 40.4686 24.2872 39.9608 23.9125 39.5861C23.5377 39.2113 23.0299 39.0001 22.5 38.9985H6.5V35.9985H19.5Z" fill="black"/>
<path d="M58.5 51.9985V54.9985H42.5C41.9701 55.0001 41.4623 55.2113 41.0875 55.5861C40.7128 55.9608 40.5016 56.4686 40.5 56.9985V58.9985C40.5016 59.5285 40.7128 60.0363 41.0875 60.411C41.4623 60.7857 41.9701 60.997 42.5 60.9985H58.5V63.9985H34.5V51.9985H58.5Z" fill="black"/>
<path d="M24.5 40.9985V42.9985C24.4984 43.5285 24.2872 44.0363 23.9125 44.411C23.5377 44.7857 23.0299 44.997 22.5 44.9985H4.5V38.9985H22.5C23.0299 39.0001 23.5377 39.2113 23.9125 39.5861C24.2872 39.9608 24.4984 40.4686 24.5 40.9985Z" fill="#B82126"/>
<path d="M60.5 54.9985V60.9985H42.5C41.9701 60.997 41.4623 60.7857 41.0875 60.411C40.7128 60.0363 40.5016 59.5285 40.5 58.9985V56.9985C40.5016 56.4686 40.7128 55.9608 41.0875 55.5861C41.4623 55.2113 41.9701 55.0001 42.5 54.9985H60.5Z" fill="#B82126"/>
<path d="M18.5 16.9985H34.5V17.9985L34.51 18.0985C33.3788 18.327 32.3615 18.9398 31.6306 19.8329C30.8997 20.726 30.5002 21.8445 30.5 22.9985V35.9985H19.5V29.9985C19.5 24.9985 10.5 20.9985 10.5 20.9985H14.5C15.5609 20.9985 16.5783 20.5771 17.3284 19.827C18.0786 19.0768 18.5 18.0594 18.5 16.9985Z" fill="#85181C"/>
<path d="M50.5 36.9985H54.5C54.5 36.9985 45.5 40.9985 45.5 45.9985V51.9985H34.5L30.5 47.9985V32.9985H46.5C46.5 34.0594 46.9214 35.0768 47.6716 35.827C48.4217 36.5771 49.4391 36.9985 50.5 36.9985Z" fill="#85181C"/>
<path d="M34.5 6.99854V16.9985H18.5V13.9985C18.4984 13.4686 18.2872 12.9608 17.9125 12.5861C17.5377 12.2113 17.0299 12.0001 16.5 11.9985H7.5C2.5 11.9985 2.5 16.9985 2.5 16.9985V6.99854C2.5 5.67245 3.02678 4.40068 3.96447 3.463C4.90215 2.52532 6.17392 1.99854 7.5 1.99854H29.5C30.1566 1.99854 30.8068 2.12786 31.4134 2.37914C32.02 2.63041 32.5712 2.99871 33.0355 3.463C33.4998 3.92729 33.8681 4.47849 34.1194 5.08512C34.3707 5.69175 34.5 6.34193 34.5 6.99854Z" fill="#B82126"/>
<path d="M18.5 13.9985V16.9985C18.5 18.0594 18.0786 19.0768 17.3284 19.827C16.5783 20.5771 15.5609 20.9985 14.5 20.9985H10.5C10.5 20.9985 19.5 24.9985 19.5 29.9985V35.9985H6.5L2.5 31.9985V16.9985C2.5 16.9985 2.5 11.9985 7.5 11.9985H16.5C17.0299 12.0001 17.5377 12.2113 17.9125 12.5861C18.2872 12.9608 18.4984 13.4686 18.5 13.9985Z" fill="#B82126"/>
<path d="M62.5 32.9985V47.9985L58.5 51.9985H45.5V45.9985C45.5 40.9985 54.5 36.9985 54.5 36.9985H50.5C49.4391 36.9985 48.4217 36.5771 47.6716 35.827C46.9214 35.0768 46.5 34.0594 46.5 32.9985V29.9985C46.5016 29.4686 46.7128 28.9608 47.0875 28.5861C47.4623 28.2113 47.9701 28.0001 48.5 27.9985H57.5C62.5 27.9985 62.5 32.9985 62.5 32.9985Z" fill="#B82126"/>
<path d="M62.5 22.9985V32.9985C62.5 32.9985 62.5 27.9985 57.5 27.9985H48.5C47.9701 28.0001 47.4623 28.2113 47.0875 28.5861C46.7128 28.9608 46.5016 29.4686 46.5 29.9985V32.9985H30.5V22.9985C30.5002 21.8445 30.8997 20.726 31.6306 19.8329C32.3615 18.9398 33.3788 18.327 34.51 18.0985C34.8354 18.0297 35.1674 17.9961 35.5 17.9985H57.5C58.8261 17.9985 60.0979 18.5253 61.0355 19.463C61.9732 20.4007 62.5 21.6725 62.5 22.9985Z" fill="#B82126"/>
<path d="M57.5 27.9985H48.5C47.9701 28.0001 47.4623 28.2113 47.0875 28.5861C46.7128 28.9608 46.5016 29.4686 46.5 29.9985V32.9985C46.5 34.0594 46.9214 35.0768 47.6716 35.827C48.4217 36.5771 49.4391 36.9985 50.5 36.9985H51.5C50.7044 36.9985 49.9413 36.6825 49.3787 36.1199C48.8161 35.5572 48.5 34.7942 48.5 33.9985V32.9985C48.5 32.4681 48.7107 31.9594 49.0858 31.5843C49.4609 31.2092 49.9696 30.9985 50.5 30.9985H57.5C58.0304 30.9985 58.5391 31.2092 58.9142 31.5843C59.2893 31.9594 59.5 32.4681 59.5 32.9985V47.9985C58.8598 48.6388 58.5001 49.5071 58.5 50.4125V51.9985L62.5 47.9985V32.9985C62.5 32.9985 62.5 27.9985 57.5 27.9985Z" fill="#E0282E"/>
<path d="M57.5004 17.9985H35.5004C35.1677 17.9961 34.8358 18.0297 34.5103 18.0985C33.5495 18.2945 32.6674 18.7687 31.974 19.4622C31.2805 20.1556 30.8063 21.0376 30.6104 21.9985H56.5004C57.0308 21.9985 57.5395 22.2092 57.9146 22.5843C58.2896 22.9594 58.5004 23.4681 58.5004 23.9985V28.0795C62.4934 28.6985 62.5004 32.9985 62.5004 32.9985V22.9985C62.5004 21.6725 61.9736 20.4007 61.0359 19.463C60.0982 18.5253 58.8264 17.9985 57.5004 17.9985Z" fill="#E0282E"/>
<path d="M58.5 25.9985H47.5C46.7044 25.9985 45.9413 26.3146 45.3787 26.8772C44.8161 27.4398 44.5 28.2029 44.5 28.9985C44.5 29.2638 44.3946 29.5181 44.2071 29.7056C44.0196 29.8932 43.7652 29.9985 43.5 29.9985H30.5V32.9985H46.5V29.9985C46.5016 29.4686 46.7128 28.9608 47.0875 28.5861C47.4623 28.2113 47.9701 28.0001 48.5 27.9985H57.5C62.5 27.9985 62.5 32.9985 62.5 32.9985V29.9985C62.5 28.9377 62.0786 27.9203 61.3284 27.1701C60.5783 26.42 59.5609 25.9985 58.5 25.9985Z" fill="#9A1C20"/>
<path d="M50.5 36.9985C49.4391 36.9985 48.4217 36.5771 47.6716 35.827C46.9214 35.0768 46.5 34.0594 46.5 32.9985H30.5V35.9985H41.332C42.4849 36.0162 43.5868 36.4771 44.409 37.2855L44.421 37.2975C44.53 37.4015 44.6151 37.5279 44.6703 37.6681C44.7255 37.8082 44.7496 37.9587 44.7407 38.1091C44.7319 38.2595 44.6904 38.4061 44.6191 38.5388C44.5478 38.6715 44.4485 38.7871 44.328 38.8775L43.9 39.1985C43.1548 39.7574 42.55 40.4821 42.1334 41.3153C41.7169 42.1484 41.5 43.0671 41.5 43.9985V44.9985C41.5 45.7942 41.1839 46.5572 40.6213 47.1199C40.0587 47.6825 39.2956 47.9985 38.5 47.9985H30.5L34.5 51.9985H45.5V45.9985C45.5 40.9985 54.5 36.9985 54.5 36.9985H50.5Z" fill="#741213"/>
<path d="M30.5 31.9985H26.5C25.7044 31.9985 24.9413 31.6825 24.3787 31.1199C23.8161 30.5572 23.5 29.7942 23.5 28.9985V27.9985C23.5 27.0671 23.2831 26.1484 22.8666 25.3153C22.45 24.4821 21.8452 23.7574 21.1 23.1985L20.672 22.8775C20.5515 22.7871 20.4522 22.6715 20.3809 22.5388C20.3096 22.4061 20.2681 22.2595 20.2593 22.1091C20.2504 21.9587 20.2745 21.8082 20.3297 21.6681C20.3849 21.5279 20.47 21.4015 20.579 21.2975L20.591 21.2855C21.4132 20.4771 22.5151 20.0162 23.668 19.9985H31.518C32.2465 19.0221 33.3072 18.3462 34.5 18.0985V16.9985H18.5C18.5 18.0594 18.0786 19.0768 17.3284 19.827C16.5783 20.5771 15.5609 20.9985 14.5 20.9985H10.5C10.5 20.9985 19.5 24.9985 19.5 29.9985V35.9985H30.5V31.9985Z" fill="#741213"/>
<path d="M27.518 19.9985C26.8595 20.8602 26.5018 21.9141 26.5 22.9985V31.9985H30.5V22.9985C30.5023 21.9142 30.8599 20.8604 31.518 19.9985H27.518Z" fill="#741213"/>
<path d="M30.5 32.9985V31.9985H26.5V32.9985V35.9985H30.5V32.9985Z" fill="#5E0F0F"/>
<path d="M30.5096 18.0985C29.3131 18.3439 28.2484 19.02 27.5176 19.9985H31.5176C31.8687 19.5314 32.2988 19.1293 32.7886 18.8105C32.8036 18.8015 32.8166 18.7895 32.8306 18.7805C33.054 18.6407 33.2881 18.5187 33.5306 18.4155C33.5666 18.4005 33.5996 18.3785 33.6366 18.3635C33.9157 18.2494 34.2045 18.1607 34.4996 18.0985V17.9985H31.4996C31.1669 17.9961 30.835 18.0297 30.5096 18.0985Z" fill="#5E0F0F"/>
<path d="M59.5 47.9985H45.5V51.9985H58.5V50.4125C58.5001 49.5071 58.8598 48.6388 59.5 47.9985Z" fill="#9A1C20"/>
<path d="M7.5 11.9985H16.5C17.0299 12.0001 17.5377 12.2113 17.9125 12.5861C18.2872 12.9608 18.4984 13.4686 18.5 13.9985V16.9985C18.5 18.0594 18.0786 19.0768 17.3284 19.827C16.5783 20.5771 15.5609 20.9985 14.5 20.9985H13.5C14.2956 20.9985 15.0587 20.6825 15.6213 20.1199C16.1839 19.5572 16.5 18.7942 16.5 17.9985V16.9985C16.5 16.4681 16.2893 15.9594 15.9142 15.5843C15.5391 15.2092 15.0304 14.9985 14.5 14.9985H7.5C6.96957 14.9985 6.46086 15.2092 6.08579 15.5843C5.71071 15.9594 5.5 16.4681 5.5 16.9985V31.9985C6.14016 32.6388 6.49986 33.5071 6.5 34.4125V35.9985L2.5 31.9985V16.9985C2.5 16.9985 2.5 11.9985 7.5 11.9985Z" fill="#E0282E"/>
<path d="M5.5 31.9985H19.5V35.9985H6.5V34.4125C6.49986 33.5071 6.14016 32.6388 5.5 31.9985Z" fill="#9A1C20"/>
<path d="M2.5 28.4985C2.5 29.327 3.17157 29.9985 4 29.9985C4.82843 29.9985 5.5 29.327 5.5 28.4985L5.5 19.4985C5.5 18.6701 4.82843 17.9985 4 17.9985C3.17157 17.9985 2.5 18.6701 2.5 19.4985L2.5 28.4985Z" fill="#F52C32"/>
<path d="M7.5 1.99853H29.5C29.8326 1.99612 30.1646 2.02965 30.49 2.09853C31.4509 2.2945 32.3329 2.76871 33.0264 3.46215C33.7198 4.15559 34.194 5.03764 34.39 5.99853H8.5C7.96957 5.99853 7.46086 6.20925 7.08579 6.58432C6.71071 6.95939 6.5 7.4681 6.5 7.99853V12.0795C2.507 12.6985 2.5 16.9985 2.5 16.9985V6.99853C2.5 5.67245 3.02678 4.40068 3.96447 3.463C4.90215 2.52532 6.17392 1.99853 7.5 1.99853Z" fill="#E0282E"/>
<path d="M6.5 9.99854H17.5C18.2956 9.99854 19.0587 10.3146 19.6213 10.8772C20.1839 11.4398 20.5 12.2029 20.5 12.9985C20.5 13.2638 20.6054 13.5181 20.7929 13.7056C20.9804 13.8932 21.2348 13.9985 21.5 13.9985H34.5V16.9985H18.5V13.9985C18.4984 13.4686 18.2872 12.9608 17.9125 12.5861C17.5377 12.2113 17.0299 12.0001 16.5 11.9985H7.5C2.5 11.9985 2.5 16.9985 2.5 16.9985V13.9985C2.5 12.9377 2.92143 11.9203 3.67157 11.1701C4.42172 10.42 5.43913 9.99854 6.5 9.99854Z" fill="#9A1C20"/>
<path d="M42.5 60.9985C41.9701 60.997 41.4623 60.7857 41.0875 60.411C40.7128 60.0363 40.5016 59.5285 40.5 58.9985V60.9985C40.5016 61.5285 40.7128 62.0363 41.0875 62.411C41.4623 62.7857 41.9701 62.997 42.5 62.9985H58.5V60.9985H42.5Z" fill="#1A1B1D"/>
<path d="M58.5 51.9985H34.5V63.9985H38.5V57.9985C38.5 56.9377 38.9214 55.9203 39.6716 55.1701C40.4217 54.42 41.4391 53.9985 42.5 53.9985H58.5V51.9985Z" fill="#1A1B1D"/>
<path d="M22.5 44.9985C23.0299 44.997 23.5377 44.7857 23.9125 44.411C24.2872 44.0363 24.4984 43.5285 24.5 42.9985V44.9985C24.4984 45.5285 24.2872 46.0363 23.9125 46.411C23.5377 46.7857 23.0299 46.997 22.5 46.9985H6.5V44.9985H22.5Z" fill="#1A1B1D"/>
<path d="M6.5 35.9985H30.5V47.9985H26.5V41.9985C26.5 40.9377 26.0786 39.9203 25.3284 39.1701C24.5783 38.42 23.5609 37.9985 22.5 37.9985H6.5V35.9985Z" fill="#1A1B1D"/>
<path d="M62.5 35.4985C62.5 34.6701 61.8284 33.9985 61 33.9985C60.1716 33.9985 59.5 34.6701 59.5 35.4985V44.4985C59.5 45.327 60.1716 45.9985 61 45.9985C61.8284 45.9985 62.5 45.327 62.5 44.4985V35.4985Z" fill="#F52C32"/>
<path d="M39.5 17.9985H37.5C36.3954 17.9985 35.5 18.894 35.5 19.9985C35.5 21.1031 36.3954 21.9985 37.5 21.9985H39.5C40.6046 21.9985 41.5 21.1031 41.5 19.9985C41.5 18.894 40.6046 17.9985 39.5 17.9985Z" fill="#F52C32"/>
<path d="M53.5 17.9985H44.5C43.3954 17.9985 42.5 18.894 42.5 19.9985C42.5 21.1031 43.3954 21.9985 44.5 21.9985H53.5C54.6046 21.9985 55.5 21.1031 55.5 19.9985C55.5 18.894 54.6046 17.9985 53.5 17.9985Z" fill="#F52C32"/>
<path d="M25.5 5.99854L27.5 5.99854C28.6046 5.99854 29.5 5.1031 29.5 3.99854C29.5 2.89397 28.6046 1.99854 27.5 1.99854H25.5C24.3954 1.99854 23.5 2.89397 23.5 3.99854C23.5 5.1031 24.3954 5.99854 25.5 5.99854Z" fill="#F52C32"/>
<path d="M11.5 5.99854L20.5 5.99854C21.6046 5.99854 22.5 5.1031 22.5 3.99854C22.5 2.89397 21.6046 1.99854 20.5 1.99854L11.5 1.99854C10.3954 1.99854 9.5 2.89397 9.5 3.99854C9.5 5.1031 10.3954 5.99854 11.5 5.99854Z" fill="#F52C32"/>
<path d="M57.8009 45.3085C58.4419 44.667 58.2376 43.4236 57.3446 42.5312C56.4515 41.6387 55.2079 41.4353 54.5669 42.0767C53.9259 42.7182 54.1302 43.9617 55.0233 44.8541C55.9163 45.7465 57.1599 45.95 57.8009 45.3085Z" fill="#F6FAFD"/>
<path d="M52.9944 45.517C53.3164 45.1947 53.2139 44.5701 52.7655 44.1219C52.317 43.6738 51.6923 43.5717 51.3703 43.894C51.0482 44.2163 51.1507 44.8409 51.5992 45.2891C52.0476 45.7372 52.6723 45.8393 52.9944 45.517Z" fill="#F6FAFD"/>
<path d="M60.5 54.9985H57.5V60.9985H60.5V54.9985Z" fill="#E0282E"/>
<path d="M43.5 58.9985C44.0523 58.9985 44.5 58.5508 44.5 57.9985C44.5 57.4463 44.0523 56.9985 43.5 56.9985C42.9477 56.9985 42.5 57.4463 42.5 57.9985C42.5 58.5508 42.9477 58.9985 43.5 58.9985Z" fill="black"/>
<path d="M4.5 44.9985H7.5L7.5 38.9985H4.5L4.5 44.9985Z" fill="#E0282E"/>
<path d="M21.5 42.9985C22.0523 42.9985 22.5 42.5508 22.5 41.9985C22.5 41.4463 22.0523 40.9985 21.5 40.9985C20.9477 40.9985 20.5 41.4463 20.5 41.9985C20.5 42.5508 20.9477 42.9985 21.5 42.9985Z" fill="black"/>
<path d="M62.5 44.9985V47.9985L58.5 51.9985H34.5L30.5 47.9985V22.9985C30.5 21.6725 31.0268 20.4007 31.9645 19.463C32.9021 18.5253 34.1739 17.9985 35.5 17.9985H57.5C58.8261 17.9985 60.0979 18.5253 61.0355 19.463C61.9732 20.4007 62.5 21.6725 62.5 22.9985V42.9985" stroke="white" stroke-width="2" stroke-linejoin="round"/>
<path d="M34.5 51.9985V63.9985H58.5V60.9985" stroke="white" stroke-width="2" stroke-linejoin="round"/>
<path d="M42.5 54.9985H60.5V60.9985H42.5C41.9696 60.9985 41.4609 60.7878 41.0858 60.4128C40.7107 60.0377 40.5 59.529 40.5 58.9985V56.9985C40.5 56.4681 40.7107 55.9594 41.0858 55.5843C41.4609 55.2092 41.9696 54.9985 42.5 54.9985Z" stroke="white" stroke-width="2" stroke-linejoin="round"/>
<path d="M58.5 51.9985V54.9985" stroke="white" stroke-width="2" stroke-linejoin="round"/>
<path d="M62.5 32.9985C62.5 32.9985 62.5 27.9985 57.5 27.9985H48.5C47.9696 27.9985 47.4609 28.2092 47.0858 28.5843C46.7107 28.9594 46.5 29.4681 46.5 29.9985V32.9985C46.5 34.0594 46.9214 35.0768 47.6716 35.827C48.4217 36.5771 49.4391 36.9985 50.5 36.9985H54.5C54.5 36.9985 45.5 40.9985 45.5 45.9985" stroke="white" stroke-width="2" stroke-linejoin="round"/>
<path d="M30.5 32.9985H43.5" stroke="white" stroke-width="2" stroke-linejoin="round"/>
<path d="M27.5 35.9985H6.5L2.5 31.9985V6.99854C2.5 5.67245 3.02678 4.40068 3.96447 3.463C4.90215 2.52532 6.17392 1.99854 7.5 1.99854H29.5C30.1566 1.99854 30.8068 2.12786 31.4134 2.37914C32.02 2.63041 32.5712 2.99871 33.0355 3.463C33.4998 3.92729 33.8681 4.47849 34.1194 5.08512C34.3707 5.69175 34.5 6.34193 34.5 6.99854V14.9985" stroke="white" stroke-width="2" stroke-linejoin="round"/>
<path d="M27.5 47.9985H6.5V44.9985" stroke="white" stroke-width="2" stroke-linejoin="round"/>
<path d="M22.5 44.9985H4.5V38.9985H22.5C23.0304 38.9985 23.5391 39.2092 23.9142 39.5843C24.2893 39.9594 24.5 40.4681 24.5 40.9985V42.9985C24.5 43.529 24.2893 44.0377 23.9142 44.4128C23.5391 44.7878 23.0304 44.9985 22.5 44.9985V44.9985Z" stroke="white" stroke-width="2" stroke-linejoin="round"/>
<path d="M6.5 35.9985V38.9985" stroke="white" stroke-width="2" stroke-linejoin="round"/>
<path d="M2.5 16.9985C2.5 16.9985 2.5 11.9985 7.5 11.9985H16.5C17.0304 11.9985 17.5391 12.2092 17.9142 12.5843C18.2893 12.9594 18.5 13.4681 18.5 13.9985V16.9985C18.5 18.0594 18.0786 19.0768 17.3284 19.827C16.5783 20.5771 15.5609 20.9985 14.5 20.9985H10.5C10.5 20.9985 19.5 24.9985 19.5 29.9985" stroke="white" stroke-width="2" stroke-linejoin="round"/>
<path d="M26.5 16.9985H18.5" stroke="white" stroke-width="2" stroke-linejoin="round"/>
<path d="M30.5 16.9985H28.5" stroke="white" stroke-width="2" stroke-linejoin="round"/>
</g>
<defs>
<clipPath id="clip0_238_9290">
<rect width="64" height="64" fill="white" transform="translate(0.5 0.998535)"/>
</clipPath>
</defs>
</svg>
