<svg width="65" height="64" viewBox="0 0 65 64" fill="none" xmlns="http://www.w3.org/2000/svg">
<g clip-path="url(#clip0_149_2994)">
<path d="M51.75 52C58.3774 52 63.75 46.6274 63.75 40C63.75 33.3726 58.3774 28 51.75 28C45.1226 28 39.75 33.3726 39.75 40C39.75 46.6274 45.1226 52 51.75 52Z" fill="#333940"/>
<path d="M51.75 48C56.1683 48 59.75 44.4183 59.75 40C59.75 35.5817 56.1683 32 51.75 32C47.3317 32 43.75 35.5817 43.75 40C43.75 44.4183 47.3317 48 51.75 48Z" fill="#1A1B1D"/>
<path d="M51.75 43C53.4069 43 54.75 41.6569 54.75 40C54.75 38.3431 53.4069 37 51.75 37C50.0931 37 48.75 38.3431 48.75 40C48.75 41.6569 50.0931 43 51.75 43Z" fill="#9A1C20"/>
<path d="M51.75 42C52.8546 42 53.75 41.1046 53.75 40C53.75 38.8954 52.8546 38 51.75 38C50.6454 38 49.75 38.8954 49.75 40C49.75 41.1046 50.6454 42 51.75 42Z" fill="#B82126"/>
<path d="M13.75 52C20.3774 52 25.75 46.6274 25.75 40C25.75 33.3726 20.3774 28 13.75 28C7.12258 28 1.75 33.3726 1.75 40C1.75 46.6274 7.12258 52 13.75 52Z" fill="#333940"/>
<path d="M13.75 48C18.1683 48 21.75 44.4183 21.75 40C21.75 35.5817 18.1683 32 13.75 32C9.33172 32 5.75 35.5817 5.75 40C5.75 44.4183 9.33172 48 13.75 48Z" fill="#1A1B1D"/>
<path d="M13.75 43C15.4069 43 16.75 41.6569 16.75 40C16.75 38.3431 15.4069 37 13.75 37C12.0931 37 10.75 38.3431 10.75 40C10.75 41.6569 12.0931 43 13.75 43Z" fill="#9A1C20"/>
<path d="M13.75 42C14.8546 42 15.75 41.1046 15.75 40C15.75 38.8954 14.8546 38 13.75 38C12.6454 38 11.75 38.8954 11.75 40C11.75 41.1046 12.6454 42 13.75 42Z" fill="#B82126"/>
<path d="M30.75 43C32.4069 43 33.75 41.6569 33.75 40C33.75 38.3431 32.4069 37 30.75 37C29.0931 37 27.75 38.3431 27.75 40C27.75 41.6569 29.0931 43 30.75 43Z" fill="#B82126"/>
<path d="M37.25 15H40.75L43.75 13H47.75V18H37.25C36.8522 18 36.4706 17.842 36.1893 17.5607C35.908 17.2794 35.75 16.8978 35.75 16.5C35.75 16.1022 35.908 15.7206 36.1893 15.4393C36.4706 15.158 36.8522 15 37.25 15Z" fill="#B82126"/>
<path d="M41.95 16.2L41.25 16.664C40.9213 16.8832 40.5351 17.0001 40.14 17H37.25C37.04 17.0004 36.8325 17.0451 36.6411 17.1313C36.4496 17.2174 36.2785 17.3431 36.139 17.5C36.2785 17.6569 36.4496 17.7826 36.6411 17.8687C36.8325 17.9549 37.04 17.9996 37.25 18H47.75V15H45.913C44.5024 14.9995 43.1234 15.4171 41.95 16.2Z" fill="#9A1C20"/>
<path d="M30.75 43C32.4069 43 33.75 41.6569 33.75 40C33.75 38.3431 32.4069 37 30.75 37C29.0931 37 27.75 38.3431 27.75 40C27.75 41.6569 29.0931 43 30.75 43Z" fill="#B82126"/>
<path d="M30.75 42C31.8546 42 32.75 41.1046 32.75 40C32.75 38.8954 31.8546 38 30.75 38C29.6454 38 28.75 38.8954 28.75 40C28.75 41.1046 29.6454 42 30.75 42Z" fill="#9A1C20"/>
<path d="M13.75 52C20.3774 52 25.75 46.6274 25.75 40C25.75 33.3726 20.3774 28 13.75 28C7.12258 28 1.75 33.3726 1.75 40C1.75 46.6274 7.12258 52 13.75 52Z" stroke="white" stroke-width="2" stroke-linejoin="round"/>
<path d="M13.75 48C18.1683 48 21.75 44.4183 21.75 40C21.75 35.5817 18.1683 32 13.75 32C9.33172 32 5.75 35.5817 5.75 40C5.75 44.4183 9.33172 48 13.75 48Z" stroke="white" stroke-width="2" stroke-linejoin="round"/>
<path d="M51.75 52C58.3774 52 63.75 46.6274 63.75 40C63.75 33.3726 58.3774 28 51.75 28C45.1226 28 39.75 33.3726 39.75 40C39.75 46.6274 45.1226 52 51.75 52Z" stroke="white" stroke-width="2" stroke-linejoin="round"/>
<path d="M51.75 48C56.1683 48 59.75 44.4183 59.75 40C59.75 35.5817 56.1683 32 51.75 32C47.3317 32 43.75 35.5817 43.75 40C43.75 44.4183 47.3317 48 51.75 48Z" stroke="white" stroke-width="2" stroke-linejoin="round"/>
<path d="M49.75 40H33.75" stroke="white" stroke-width="2" stroke-linejoin="round"/>
<path d="M21.75 22H42.75L50.748 37.996" stroke="white" stroke-width="2" stroke-linejoin="round"/>
<path d="M31.75 38L42.75 22V18" stroke="white" stroke-width="2" stroke-linejoin="round"/>
<path d="M14.75 38L25.75 14C25.7556 13.7358 25.7077 13.4732 25.6091 13.228C25.5106 12.9828 25.3635 12.7601 25.1767 12.5733C24.9898 12.3864 24.7671 12.2393 24.5219 12.1408C24.2768 12.0423 24.0142 11.9944 23.75 12H16.75C15.9544 12 15.1913 12.316 14.6287 12.8786C14.0661 13.4412 13.75 14.2043 13.75 15C13.75 15.7956 14.0661 16.5587 14.6287 17.1213C15.1913 17.6839 15.9544 17.9999 16.75 17.9999H20.75" stroke="white" stroke-width="2" stroke-linejoin="round"/>
<path d="M37.25 15H40.75L43.75 13H47.75V18H37.25C36.8522 18 36.4706 17.842 36.1893 17.5607C35.908 17.2794 35.75 16.8978 35.75 16.5C35.75 16.1022 35.908 15.7206 36.1893 15.4393C36.4706 15.158 36.8522 15 37.25 15V15Z" stroke="white" stroke-width="2" stroke-linejoin="round"/>
<path d="M30.75 43C32.4069 43 33.75 41.6569 33.75 40C33.75 38.3431 32.4069 37 30.75 37C29.0931 37 27.75 38.3431 27.75 40C27.75 41.6569 29.0931 43 30.75 43Z" stroke="white" stroke-width="2" stroke-linejoin="round"/>
<path d="M30.75 37V32" stroke="white" stroke-width="2" stroke-linejoin="round"/>
<path d="M28.75 32H32.75" stroke="white" stroke-width="2" stroke-linejoin="round"/>
<path d="M30.75 43V48" stroke="white" stroke-width="2" stroke-linejoin="round"/>
<path d="M28.75 48H32.75" stroke="white" stroke-width="2" stroke-linejoin="round"/>
<path d="M29.75 38L21.75 23" stroke="white" stroke-width="2" stroke-linejoin="round"/>
<path d="M29.75 40H31.75" stroke="white" stroke-width="2" stroke-linejoin="round"/>
<path d="M13.75 43C15.4069 43 16.75 41.6569 16.75 40C16.75 38.3431 15.4069 37 13.75 37C12.0931 37 10.75 38.3431 10.75 40C10.75 41.6569 12.0931 43 13.75 43Z" stroke="white" stroke-width="2" stroke-linejoin="round"/>
<path d="M51.75 43C53.4069 43 54.75 41.6569 54.75 40C54.75 38.3431 53.4069 37 51.75 37C50.0931 37 48.75 38.3431 48.75 40C48.75 41.6569 50.0931 43 51.75 43Z" stroke="white" stroke-width="2" stroke-linejoin="round"/>
<path d="M1.75 52H63.75" stroke="white" stroke-width="2" stroke-linejoin="round"/>
</g>
<defs>
<clipPath id="clip0_149_2994">
<rect width="64" height="64" fill="white" transform="translate(0.75)"/>
</clipPath>
</defs>
</svg>
