<svg width="24" height="24" viewBox="0 0 24 24" fill="none" xmlns="http://www.w3.org/2000/svg">
<path d="M17.0005 9.28003C17.3961 9.28003 17.7827 9.16273 18.1116 8.94297C18.4405 8.72321 18.6969 8.41085 18.8483 8.0454C18.9996 7.67995 19.0392 7.27781 18.9621 6.88985C18.8849 6.50189 18.6944 6.14552 18.4147 5.86582C18.135 5.58611 17.7786 5.39563 17.3907 5.31846C17.0027 5.24129 16.6006 5.2809 16.2351 5.43227C15.8697 5.58365 15.5573 5.83999 15.3376 6.16889C15.1178 6.49779 15.0005 6.88447 15.0005 7.28003C15.0005 7.81046 15.2112 8.31917 15.5863 8.69424C15.9614 9.06932 16.4701 9.28003 17.0005 9.28003ZM2.7105 13.92C2.90866 13.9834 3.09968 14.0672 3.2805 14.17C3.90243 14.5338 4.60998 14.7256 5.3305 14.7256C6.05103 14.7256 6.75857 14.5338 7.3805 14.17C7.77158 13.9511 8.21229 13.8361 8.6605 13.8361C9.10871 13.8361 9.54942 13.9511 9.9405 14.17L10.1505 14.27C10.7573 14.5654 11.4271 14.708 12.1016 14.6854C12.7761 14.6627 13.4349 14.4755 14.0205 14.14C14.4116 13.9211 14.8523 13.8061 15.3005 13.8061C15.7487 13.8061 16.1894 13.9211 16.5805 14.14C17.2142 14.5022 17.9306 14.6951 18.6605 14.7C19.3648 14.6927 20.0548 14.4995 20.6605 14.14C20.8413 14.0372 21.0323 13.9534 21.2305 13.89C21.3783 13.8799 21.522 13.837 21.6512 13.7645C21.7804 13.692 21.8919 13.5917 21.9776 13.4708C22.0633 13.35 22.121 13.2116 22.1467 13.0657C22.1724 12.9198 22.1653 12.77 22.126 12.6271C22.0867 12.4843 22.0161 12.3519 21.9195 12.2397C21.8228 12.1275 21.7023 12.0381 21.5669 11.9781C21.4314 11.9181 21.2843 11.8889 21.1362 11.8927C20.9881 11.8965 20.8427 11.9332 20.7105 12C20.3616 12.1083 20.0261 12.2559 19.7105 12.44C19.3913 12.6243 19.0291 12.7214 18.6605 12.7214C18.2919 12.7214 17.9297 12.6243 17.6105 12.44C16.9178 12.0492 16.1359 11.8439 15.3405 11.8439C14.5451 11.8439 13.7632 12.0492 13.0705 12.44C12.9764 12.486 12.8796 12.5261 12.7805 12.56L14.3405 11C14.3762 10.9537 14.4065 10.9034 14.4305 10.85C14.4757 10.8008 14.5159 10.7472 14.5505 10.69C14.5552 10.6268 14.5552 10.5633 14.5505 10.5C14.5562 10.4368 14.5562 10.3732 14.5505 10.31C14.5553 10.2501 14.5553 10.1899 14.5505 10.13C14.5562 10.0668 14.5562 10.0032 14.5505 9.94003C14.5209 9.88124 14.4875 9.82446 14.4505 9.77003C14.4245 9.71243 14.3909 9.65861 14.3505 9.61003L11.2805 6.28003C11.1997 6.19198 11.1052 6.11767 11.0005 6.06003C10.9308 6.0508 10.8602 6.0508 10.7905 6.06003C10.7342 6.05088 10.6768 6.05088 10.6205 6.06003C10.4874 6.00647 10.3433 5.98588 10.2005 6.00003L6.6605 7.32003C6.41126 7.41029 6.20806 7.59582 6.09555 7.83584C5.98305 8.07585 5.97044 8.35072 6.0605 8.60003C6.15076 8.84927 6.33629 9.05247 6.57631 9.16498C6.81632 9.27748 7.09119 9.29009 7.3405 9.20003L10.2705 8.13003L12.2705 10.25L10.3705 12.15C9.7339 11.9026 9.05036 11.7993 8.36907 11.8477C7.68778 11.8962 7.0257 12.095 6.4305 12.43C6.11126 12.6143 5.74913 12.7114 5.3805 12.7114C5.01187 12.7114 4.64974 12.6143 4.3305 12.43C4.01492 12.2459 3.67943 12.0983 3.3305 11.99C3.20255 11.9423 3.06618 11.9213 2.92979 11.9283C2.79341 11.9352 2.6599 11.9701 2.53749 12.0306C2.41509 12.0912 2.30639 12.1762 2.21809 12.2804C2.12979 12.3845 2.06376 12.5057 2.02408 12.6364C1.9844 12.7671 1.97191 12.9045 1.98737 13.0402C2.00283 13.1758 2.04592 13.3069 2.11398 13.4253C2.18204 13.5437 2.27363 13.6469 2.3831 13.7286C2.49258 13.8102 2.61761 13.8686 2.7505 13.9L2.7105 13.92ZM20.7105 17.01C20.3616 17.1183 20.0261 17.2659 19.7105 17.45C19.3913 17.6343 19.0291 17.7314 18.6605 17.7314C18.2919 17.7314 17.9297 17.6343 17.6105 17.45C16.9178 17.0592 16.1359 16.8539 15.3405 16.8539C14.5451 16.8539 13.7632 17.0592 13.0705 17.45C12.7486 17.6371 12.3828 17.7356 12.0105 17.7356C11.6382 17.7356 11.2724 17.6371 10.9505 17.45C10.2578 17.0592 9.47587 16.8539 8.6805 16.8539C7.88514 16.8539 7.10324 17.0592 6.4105 17.45C6.09126 17.6343 5.72913 17.7314 5.3605 17.7314C4.99187 17.7314 4.62974 17.6343 4.3105 17.45C3.99492 17.2659 3.65943 17.1183 3.3105 17.01C3.18255 16.9623 3.04618 16.9413 2.90979 16.9483C2.77341 16.9552 2.6399 16.9901 2.51749 17.0506C2.39509 17.1112 2.28639 17.1962 2.19809 17.3004C2.10979 17.4045 2.04376 17.5257 2.00408 17.6564C1.9644 17.7871 1.95191 17.9245 1.96737 18.0602C1.98283 18.1958 2.02592 18.3269 2.09398 18.4453C2.16204 18.5637 2.25363 18.6669 2.3631 18.7486C2.47258 18.8302 2.59761 18.8886 2.7305 18.92C2.92866 18.9834 3.11968 19.0672 3.3005 19.17C3.92243 19.5338 4.62998 19.7256 5.3505 19.7256C6.07103 19.7256 6.77857 19.5338 7.4005 19.17C7.79158 18.9511 8.23229 18.8361 8.6805 18.8361C9.12871 18.8361 9.56942 18.9511 9.9605 19.17C10.5878 19.5287 11.2979 19.7174 12.0205 19.7174C12.7431 19.7174 13.4532 19.5287 14.0805 19.17C14.4716 18.9511 14.9123 18.8361 15.3605 18.8361C15.8087 18.8361 16.2494 18.9511 16.6405 19.17C17.2742 19.5322 17.9906 19.7251 18.7205 19.73C19.4248 19.7227 20.1148 19.5295 20.7205 19.17C20.9013 19.0672 21.0923 18.9834 21.2905 18.92C21.4166 18.8819 21.5339 18.8194 21.6358 18.736C21.7377 18.6525 21.8222 18.5499 21.8844 18.4338C21.9466 18.3177 21.9853 18.1905 21.9984 18.0595C22.0115 17.9284 21.9986 17.7961 21.9605 17.67C21.9224 17.544 21.8599 17.4266 21.7764 17.3247C21.693 17.2228 21.5903 17.1384 21.4743 17.0761C21.3582 17.0139 21.231 16.9752 21.1 16.9621C20.9689 16.9491 20.8366 16.9619 20.7105 17V17.01Z" fill="white"/>
</svg>
