<svg width="26" height="26" viewBox="0 0 26 26" fill="none" xmlns="http://www.w3.org/2000/svg">
<g filter="url(#filter0_d_301_1467)">
<path fill-rule="evenodd" clip-rule="evenodd" d="M25 12C25 18.627 19.627 24 13 24C6.373 24 1 18.627 1 12C1 5.373 6.373 0 13 0C19.627 0 25 5.373 25 12ZM13.43 8.859C12.263 9.344 9.93 10.349 6.432 11.873C5.864 12.099 5.566 12.32 5.539 12.536C5.493 12.902 5.951 13.046 6.573 13.241C6.658 13.268 6.746 13.295 6.836 13.325C7.449 13.524 8.273 13.757 8.701 13.766C9.09 13.774 9.524 13.614 10.003 13.286C13.271 11.079 14.958 9.964 15.064 9.94C15.139 9.923 15.243 9.901 15.313 9.964C15.383 10.026 15.376 10.144 15.369 10.176C15.323 10.369 13.529 12.038 12.599 12.902C12.309 13.171 12.104 13.362 12.062 13.406C11.968 13.503 11.872 13.596 11.78 13.685C11.21 14.233 10.784 14.645 11.804 15.317C12.294 15.64 12.686 15.907 13.077 16.173C13.504 16.464 13.93 16.754 14.482 17.116C14.622 17.208 14.756 17.303 14.887 17.396C15.384 17.751 15.831 18.069 16.383 18.019C16.703 17.989 17.035 17.688 17.203 16.789C17.6 14.663 18.382 10.059 18.563 8.161C18.574 8.00341 18.5673 7.84509 18.543 7.689C18.5285 7.56293 18.4671 7.44693 18.371 7.364C18.228 7.247 18.006 7.222 17.906 7.224C17.455 7.232 16.763 7.473 13.43 8.859Z" fill="white"/>
</g>
<defs>
<filter id="filter0_d_301_1467" x="0" y="0" width="26" height="26" filterUnits="userSpaceOnUse" color-interpolation-filters="sRGB">
<feFlood flood-opacity="0" result="BackgroundImageFix"/>
<feColorMatrix in="SourceAlpha" type="matrix" values="0 0 0 0 0 0 0 0 0 0 0 0 0 0 0 0 0 0 127 0" result="hardAlpha"/>
<feOffset dy="1"/>
<feGaussianBlur stdDeviation="0.5"/>
<feComposite in2="hardAlpha" operator="out"/>
<feColorMatrix type="matrix" values="0 0 0 0 0 0 0 0 0 0 0 0 0 0 0 0 0 0 0.25 0"/>
<feBlend mode="normal" in2="BackgroundImageFix" result="effect1_dropShadow_301_1467"/>
<feBlend mode="normal" in="SourceGraphic" in2="effect1_dropShadow_301_1467" result="shape"/>
</filter>
</defs>
</svg>
