<svg width="26" height="26" viewBox="0 0 26 26" fill="none" xmlns="http://www.w3.org/2000/svg">
<g filter="url(#filter0_d_409_6770)">
<path fill-rule="evenodd" clip-rule="evenodd" d="M13 24C19.6274 24 25 18.6274 25 12C25 5.37258 19.6274 0 13 0C6.37258 0 1 5.37258 1 12C1 18.6274 6.37258 24 13 24ZM17.1023 8.05818H19.5364C20.6457 8.05818 19.8366 9.30716 19.3895 9.89673C19.0625 10.3281 18.2913 11.3349 17.8198 11.9501C17.711 12.0921 17.6571 12.268 17.6677 12.4459C17.6783 12.6239 17.7529 12.7923 17.8778 12.9206C17.8778 12.9206 19.3364 14.4448 19.7407 14.8395C20.3151 15.4003 20.3151 16.125 19.2616 16.125H17.0772C16.8723 16.125 16.675 16.0475 16.5256 15.9084L14.8622 14.359C14.7855 14.2876 14.6894 14.2399 14.5857 14.222C14.482 14.204 14.3752 14.2165 14.2786 14.2579C14.182 14.2994 14.0997 14.3679 14.0419 14.4552C13.9841 14.5424 13.9533 14.6445 13.9533 14.7488V15.5807C13.9533 15.7251 13.8955 15.8635 13.7925 15.9656C13.6895 16.0677 13.5499 16.125 13.4043 16.125H12.0146C8.71278 16.125 5.82003 10.3865 5.1485 8.56038C5.12732 8.50384 5.12031 8.44306 5.12806 8.38324C5.13581 8.32342 5.1581 8.26637 5.193 8.21697C5.2279 8.16758 5.27438 8.12732 5.32843 8.09966C5.38249 8.072 5.44251 8.05776 5.50335 8.05818H7.71489C7.81298 8.05803 7.90906 8.08579 7.99171 8.13815C8.07437 8.1905 8.14015 8.26527 8.18123 8.35357C8.65966 9.53396 9.28016 10.6527 10.0293 11.6856C10.1029 11.7672 10.2 11.8245 10.3074 11.8497C10.4149 11.8748 10.5276 11.8667 10.6303 11.8264C10.7329 11.7861 10.8207 11.7155 10.8816 11.6242C10.9425 11.5329 10.9737 11.4252 10.971 11.3158C10.9564 10.5731 10.9404 9.68754 10.9404 9.37973C10.9404 8.13839 10.0111 8.28735 10.0111 8.28735C10.1579 8.08681 10.3539 7.9268 10.5806 7.82252C10.8073 7.71823 11.0571 7.67313 11.3064 7.6915H13.1365C13.3531 7.6915 13.5609 7.77681 13.7141 7.92867C13.8672 8.08052 13.9533 8.28648 13.9533 8.50124V11.0712C13.9533 11.8166 14.4966 12.3208 15.3355 10.7148C15.6473 10.1178 16.6181 8.34532 16.6181 8.34532C16.6651 8.25854 16.7349 8.18601 16.8202 8.13544C16.9055 8.08488 17.003 8.05817 17.1023 8.05818Z" fill="#C41230"/>
</g>
<defs>
<filter id="filter0_d_409_6770" x="0" y="0" width="26" height="26" filterUnits="userSpaceOnUse" color-interpolation-filters="sRGB">
<feFlood flood-opacity="0" result="BackgroundImageFix"/>
<feColorMatrix in="SourceAlpha" type="matrix" values="0 0 0 0 0 0 0 0 0 0 0 0 0 0 0 0 0 0 127 0" result="hardAlpha"/>
<feOffset dy="1"/>
<feGaussianBlur stdDeviation="0.5"/>
<feComposite in2="hardAlpha" operator="out"/>
<feColorMatrix type="matrix" values="0 0 0 0 0 0 0 0 0 0 0 0 0 0 0 0 0 0 0.25 0"/>
<feBlend mode="normal" in2="BackgroundImageFix" result="effect1_dropShadow_409_6770"/>
<feBlend mode="normal" in="SourceGraphic" in2="effect1_dropShadow_409_6770" result="shape"/>
</filter>
</defs>
</svg>
