<svg width="24" height="24" viewBox="0 0 24 24" fill="none" xmlns="http://www.w3.org/2000/svg">
<path d="M2 4H5.5C5.5 4 6 6.5 8.5 6.5C11 6.5 11.5 4 11.5 4H22V20H11.5C11.5 20 11 17.5 8.5 17.5C6 17.5 5.5 20 5.5 20H2V4Z" stroke="white" stroke-width="2" stroke-linecap="round" stroke-linejoin="round"/>
<path d="M8.5 9.5V10.5M8.5 13.5V14.5" stroke="white" stroke-width="2" stroke-linecap="round"/>
<path d="M18.4279 13.7719V15.4999H13.2439V13.7719H14.9479V10.7119C14.8759 10.8079 14.7639 10.9039 14.6119 10.9999C14.4599 11.0959 14.2879 11.1879 14.0959 11.2759C13.9119 11.3639 13.7239 11.4359 13.5319 11.4919C13.3399 11.5399 13.1639 11.5639 13.0039 11.5639V9.78795C13.1399 9.78795 13.3079 9.74795 13.5079 9.66795C13.7079 9.57995 13.9079 9.47195 14.1079 9.34395C14.3159 9.21595 14.4959 9.08795 14.6479 8.95995C14.8079 8.83195 14.9079 8.72795 14.9479 8.64795H16.9039V13.7719H18.4279Z" fill="white"/>
</svg>
