<svg width="26" height="26" viewBox="0 0 26 26" fill="none" xmlns="http://www.w3.org/2000/svg">
<g filter="url(#filter0_d_301_1460)">
<path fill-rule="evenodd" clip-rule="evenodd" d="M13 24C19.6274 24 25 18.6274 25 12C25 5.37258 19.6274 0 13 0C6.37258 0 1 5.37258 1 12C1 18.6274 6.37258 24 13 24ZM14.4476 8.37234C14.4476 7.48815 13.7286 6.76908 12.8444 6.76908C11.9602 6.76908 11.2411 7.48815 11.2411 8.37234C11.2411 9.25387 11.9602 9.97295 12.8444 9.97295C13.7286 9.97295 14.4476 9.25387 14.4476 8.37234ZM16.7167 8.37234C16.7167 10.5056 14.9803 12.242 12.8444 12.242C10.7085 12.242 8.9747 10.5056 8.9747 8.37234C8.9747 6.23643 10.7085 4.5 12.8444 4.5C14.9803 4.5 16.7167 6.23643 16.7167 8.37234ZM16.6581 14.4685C15.9577 14.9079 15.1987 15.2195 14.4104 15.4006L16.5756 17.5632C17.0177 18.0053 17.0177 18.7243 16.5756 19.1664C16.1308 19.6112 15.4144 19.6112 14.9723 19.1664L12.8444 17.0412L10.7191 19.1664C10.4954 19.3875 10.2051 19.4993 9.91482 19.4993C9.62453 19.4993 9.3369 19.3875 9.11318 19.1664C8.67109 18.7243 8.67109 18.0053 9.11318 17.5632L11.2784 15.4006C10.4901 15.2195 9.73105 14.9079 9.03062 14.4685C8.50064 14.1356 8.34085 13.4352 8.67375 12.9052C9.00665 12.3725 9.70709 12.2127 10.2371 12.5483C11.8244 13.5443 13.8644 13.5443 15.449 12.5483C15.9817 12.2127 16.6794 12.3725 17.015 12.9052C17.3479 13.4352 17.1881 14.1356 16.6581 14.4685Z" fill="white"/>
</g>
<defs>
<filter id="filter0_d_301_1460" x="0" y="0" width="26" height="26" filterUnits="userSpaceOnUse" color-interpolation-filters="sRGB">
<feFlood flood-opacity="0" result="BackgroundImageFix"/>
<feColorMatrix in="SourceAlpha" type="matrix" values="0 0 0 0 0 0 0 0 0 0 0 0 0 0 0 0 0 0 127 0" result="hardAlpha"/>
<feOffset dy="1"/>
<feGaussianBlur stdDeviation="0.5"/>
<feComposite in2="hardAlpha" operator="out"/>
<feColorMatrix type="matrix" values="0 0 0 0 0 0 0 0 0 0 0 0 0 0 0 0 0 0 0.25 0"/>
<feBlend mode="normal" in2="BackgroundImageFix" result="effect1_dropShadow_301_1460"/>
<feBlend mode="normal" in="SourceGraphic" in2="effect1_dropShadow_301_1460" result="shape"/>
</filter>
</defs>
</svg>
