<svg width="49" height="48" viewBox="0 0 49 48" fill="none" xmlns="http://www.w3.org/2000/svg">
<g clip-path="url(#clip0_216_4603)">
<path d="M43.9447 6H5.0553C3.84749 6.00136 2.68954 6.4818 1.83554 7.3359C0.981533 8.19 0.501224 9.348 0.5 10.5558V33.0235C0.501224 34.2313 0.981533 35.3893 1.83554 36.2434C2.68954 37.0975 3.84749 37.578 5.0553 37.5793H43.9447C45.1525 37.578 46.3105 37.0975 47.1645 36.2434C48.0185 35.3893 48.4988 34.2313 48.5 33.0235V10.5558C48.4988 9.348 48.0185 8.19 47.1645 7.3359C46.3105 6.4818 45.1525 6.00136 43.9447 6ZM46.7015 33.0235C46.7007 33.7545 46.41 34.4552 45.8932 34.9722C45.3764 35.4891 44.6756 35.7799 43.9447 35.7808H5.0553C4.32435 35.7799 3.62362 35.4891 3.10681 34.9722C2.59 34.4552 2.2993 33.7545 2.29848 33.0235V10.5558C2.2993 9.82487 2.59 9.12408 3.10681 8.60717C3.62362 8.09026 4.32435 7.79944 5.0553 7.79848H43.9447C44.6756 7.79944 45.3764 8.09026 45.8932 8.60717C46.41 9.12408 46.7007 9.82487 46.7015 10.5558V33.0235Z" fill="black"/>
<path d="M16.0222 11.3501C14.6509 11.3462 13.2924 11.6145 12.0255 12.1394C10.7586 12.6643 9.60847 13.4354 8.64176 14.4081C6.946 16.11 5.887 18.3432 5.64235 20.7333C5.39769 23.1233 5.98227 25.5248 7.29803 27.535C7.69093 28.1228 8.14066 28.6707 8.64073 29.1705C8.86734 29.3977 9.09497 29.6058 9.30463 29.7784C9.61425 30.0434 9.94035 30.2885 10.2809 30.5122C12.1577 31.7392 14.3786 32.3316 16.6171 32.2021C18.8556 32.0726 20.9935 31.2281 22.7162 29.7928C22.9556 29.5971 23.1848 29.389 23.4027 29.1695C24.8617 27.7094 25.8552 25.8496 26.2575 23.8251C26.6598 21.8005 26.453 19.7022 25.6632 17.7951C24.8733 15.8881 23.5359 14.258 21.8199 13.1109C20.1039 11.9637 18.0863 11.351 16.0222 11.3501ZM16.0222 22.8538C15.6051 22.8591 15.1912 22.7815 14.8043 22.6256C14.4174 22.4697 14.0654 22.2385 13.7686 21.9455C13.4718 21.6524 13.2361 21.3033 13.0752 20.9185C12.9144 20.5336 12.8316 20.1207 12.8316 19.7036C12.8316 19.2865 12.9144 18.8735 13.0752 18.4887C13.2361 18.1038 13.4718 17.7548 13.7686 17.4617C14.0654 17.1687 14.4174 16.9375 14.8043 16.7816C15.1912 16.6256 15.6051 16.5481 16.0222 16.5534C16.5336 16.5515 17.0378 16.674 17.4912 16.9103C17.9447 17.1466 18.3339 17.4897 18.6253 17.91C18.9166 18.3303 19.1014 18.8151 19.1636 19.3227C19.2259 19.8302 19.1637 20.3453 18.9825 20.8235C18.7503 21.4202 18.3436 21.9331 17.8155 22.2952C17.2875 22.6574 16.6625 22.852 16.0222 22.8538ZM19.7615 26.201C20.4582 26.8914 20.9464 27.764 21.1705 28.7189C21.1345 28.7456 21.1001 28.7754 21.0636 28.8016C21.0271 28.8278 20.9922 28.853 20.9567 28.8766C19.5386 29.859 17.8598 30.3963 16.1349 30.4198C14.4099 30.4433 12.7171 29.952 11.2727 29.0087C11.136 28.9188 11.0034 28.8252 10.8734 28.7281C11.0892 27.8108 11.5462 26.9678 12.197 26.2863C12.8478 25.6048 13.6688 25.1095 14.5752 24.8517C15.4816 24.5939 16.4404 24.5829 17.3525 24.8198C18.2646 25.0568 19.0968 25.5331 19.7631 26.1995L19.7615 26.201ZM22.6252 27.3566C21.9736 25.6965 20.7193 24.3436 19.113 23.5685C19.9187 22.9273 20.505 22.0515 20.7908 21.0623C21.0765 20.0731 21.0476 19.0195 20.708 18.0475C20.3684 17.0754 19.735 16.2331 18.8954 15.637C18.0558 15.041 17.0516 14.7208 16.022 14.7208C14.9923 14.7208 13.9881 15.041 13.1486 15.637C12.309 16.2331 11.6755 17.0754 11.3359 18.0475C10.9963 19.0195 10.9674 20.0731 11.2532 21.0623C11.5389 22.0515 12.1252 22.9273 12.9309 23.5685C11.33 24.3504 10.0801 25.7038 9.42795 27.3618C9.20283 27.1002 8.99316 26.8257 8.80002 26.5396C7.71225 24.8762 7.2293 22.8894 7.43213 20.9123C7.63495 18.9351 8.51121 17.0878 9.91405 15.6799C11.4886 14.1024 13.6119 13.1947 15.8402 13.1465C18.0684 13.0984 20.229 13.9135 21.8703 15.4214C23.5115 16.9293 24.5063 19.0133 24.6466 21.2376C24.7869 23.462 24.0619 25.6544 22.6232 27.3566H22.6252Z" fill="black"/>
<path d="M41.8996 13.1969H31.9031C31.6647 13.1969 31.4359 13.2916 31.2673 13.4603C31.0986 13.6289 31.0039 13.8576 31.0039 14.0961C31.0039 14.3346 31.0986 14.5634 31.2673 14.732C31.4359 14.9006 31.6647 14.9954 31.9031 14.9954H41.8996C42.1381 14.9954 42.3669 14.9006 42.5355 14.732C42.7041 14.5634 42.7989 14.3346 42.7989 14.0961C42.7989 13.8576 42.7041 13.6289 42.5355 13.4603C42.3669 13.2916 42.1381 13.1969 41.8996 13.1969Z" fill="black"/>
<path d="M41.8996 17.9779H31.9031C31.6647 17.9779 31.4359 18.0726 31.2673 18.2413C31.0986 18.4099 31.0039 18.6387 31.0039 18.8771C31.0039 19.1156 31.0986 19.3444 31.2673 19.513C31.4359 19.6816 31.6647 19.7764 31.9031 19.7764H41.8996C42.1381 19.7764 42.3669 19.6816 42.5355 19.513C42.7041 19.3444 42.7989 19.1156 42.7989 18.8771C42.7989 18.6387 42.7041 18.4099 42.5355 18.2413C42.3669 18.0726 42.1381 17.9779 41.8996 17.9779Z" fill="black"/>
<path d="M41.8996 22.7588H31.9031C31.6647 22.7588 31.4359 22.8535 31.2673 23.0222C31.0986 23.1908 31.0039 23.4195 31.0039 23.658C31.0039 23.8965 31.0986 24.1252 31.2673 24.2939C31.4359 24.4625 31.6647 24.5573 31.9031 24.5573H41.8996C42.1381 24.5573 42.3669 24.4625 42.5355 24.2939C42.7041 24.1252 42.7989 23.8965 42.7989 23.658C42.7989 23.4195 42.7041 23.1908 42.5355 23.0222C42.3669 22.8535 42.1381 22.7588 41.8996 22.7588Z" fill="black"/>
<path d="M41.8996 27.5397H31.9031C31.6647 27.5397 31.4359 27.6344 31.2673 27.8031C31.0986 27.9717 31.0039 28.2004 31.0039 28.4389C31.0039 28.6774 31.0986 28.9061 31.2673 29.0748C31.4359 29.2434 31.6647 29.3382 31.9031 29.3382H41.8996C42.1381 29.3382 42.3669 29.2434 42.5355 29.0748C42.7041 28.9061 42.7989 28.6774 42.7989 28.4389C42.7989 28.2004 42.7041 27.9717 42.5355 27.8031C42.3669 27.6344 42.1381 27.5397 41.8996 27.5397Z" fill="black"/>
<path d="M37 46C42.5228 46 47 41.5228 47 36C47 30.4772 42.5228 26 37 26C31.4772 26 27 30.4772 27 36C27 41.5228 31.4772 46 37 46Z" fill="#3FAB5D"/>
<path d="M33 36.5L36 39.5L41 33.5" stroke="white" stroke-linecap="round" stroke-linejoin="round"/>
</g>
<defs>
<clipPath id="clip0_216_4603">
<rect width="48" height="48" fill="white" transform="translate(0.5)"/>
</clipPath>
</defs>
</svg>
