<svg width="49" height="48" viewBox="0 0 49 48" fill="none" xmlns="http://www.w3.org/2000/svg">
<g clip-path="url(#clip0_215_4576)">
<path d="M45.5938 5.81513H43.4844V2.39026C43.4838 1.81857 43.2564 1.27046 42.8522 0.866218C42.4479 0.461971 41.8998 0.234604 41.3281 0.234009H39.8154C39.2437 0.234604 38.6956 0.461971 38.2913 0.866218C37.8871 1.27046 37.6597 1.81857 37.6591 2.39026V5.81513H32.7699V2.39026C32.7693 1.81857 32.5419 1.27046 32.1377 0.866218C31.7334 0.461971 31.1853 0.234604 30.6136 0.234009H29.1009C28.5292 0.234703 27.9812 0.462102 27.5769 0.866327C27.1727 1.27055 26.9453 1.8186 26.9446 2.39026V5.81513H22.0554V2.39026C22.0547 1.8186 21.8273 1.27055 21.4231 0.866327C21.0188 0.462102 20.4708 0.234703 19.8991 0.234009H18.3875C17.8158 0.234703 17.2678 0.462102 16.8636 0.866327C16.4593 1.27055 16.2319 1.8186 16.2313 2.39026V5.81513H11.3409V2.39026C11.3402 1.8186 11.1128 1.27055 10.7086 0.866327C10.3043 0.462102 9.75628 0.234703 9.18463 0.234009H7.67188C7.10021 0.234703 6.55217 0.462102 6.14794 0.866327C5.74372 1.27055 5.51632 1.8186 5.51562 2.39026V5.81513H3.40625C2.63574 5.81603 1.89704 6.12251 1.35221 6.66734C0.807373 7.21217 0.500893 7.95087 0.5 8.72138L0.5 39.2348C0.500794 39.9058 0.767733 40.5492 1.24226 41.0237C1.71679 41.4983 2.36016 41.7652 3.03125 41.766H45.9688C46.6398 41.7652 47.2832 41.4983 47.7577 41.0237C48.2323 40.5492 48.4992 39.9058 48.5 39.2348V8.72138C48.4991 7.95087 48.1926 7.21217 47.6478 6.66734C47.103 6.12251 46.3643 5.81603 45.5938 5.81513ZM38.9716 2.39026C38.9719 2.16657 39.0609 1.95214 39.2191 1.79397C39.3773 1.6358 39.5917 1.54681 39.8154 1.54651H41.3281C41.5518 1.54681 41.7662 1.6358 41.9244 1.79397C42.0826 1.95214 42.1716 2.16657 42.1719 2.39026V5.81513H38.9716V2.39026ZM28.2571 2.39026C28.2574 2.16657 28.3464 1.95214 28.5046 1.79397C28.6628 1.6358 28.8772 1.54681 29.1009 1.54651H30.6125C30.8362 1.54681 31.0506 1.6358 31.2088 1.79397C31.367 1.95214 31.456 2.16657 31.4563 2.39026V5.81513H28.2571V2.39026ZM17.5426 2.39026C17.5429 2.16657 17.6319 1.95214 17.7901 1.79397C17.9483 1.6358 18.1627 1.54681 18.3864 1.54651H19.8991C20.1228 1.54681 20.3372 1.6358 20.4954 1.79397C20.6536 1.95214 20.7426 2.16657 20.7429 2.39026V5.81513H17.5426V2.39026ZM6.82812 2.39026C6.82842 2.16657 6.91741 1.95214 7.07558 1.79397C7.23375 1.6358 7.44819 1.54681 7.67188 1.54651H9.18463C9.40831 1.54681 9.62275 1.6358 9.78092 1.79397C9.93909 1.95214 10.0281 2.16657 10.0284 2.39026V5.81513H6.82812V2.39026ZM1.8125 8.72138C1.813 8.29885 1.98107 7.89376 2.27985 7.59498C2.57863 7.2962 2.98371 7.12813 3.40625 7.12763H45.5938C46.0163 7.12803 46.4215 7.29607 46.7203 7.59487C47.0191 7.89367 47.1871 8.29882 47.1875 8.72138V12.9881H1.8125V8.72138ZM47.1875 39.2348C47.1871 39.5579 47.0586 39.8676 46.8301 40.0961C46.6016 40.3246 46.2919 40.4531 45.9688 40.4535H3.03125C2.70814 40.4531 2.39838 40.3246 2.1699 40.0961C1.94143 39.8676 1.8129 39.5579 1.8125 39.2348V14.3006H47.1875V39.2348Z" fill="black"/>
<path d="M5.65625 22.5237H9.68225C10.0551 22.5232 10.4125 22.3748 10.6761 22.1112C10.9397 21.8476 11.088 21.4902 11.0885 21.1174V18.1444C11.0881 17.7716 10.9398 17.4141 10.6762 17.1505C10.4125 16.8868 10.0551 16.7386 9.68225 16.7382H5.65625C5.28341 16.7386 4.92596 16.8868 4.66232 17.1505C4.39868 17.4141 4.2504 17.7716 4.25 18.1444V21.1174C4.2505 21.4902 4.39881 21.8476 4.66243 22.1112C4.92604 22.3748 5.28344 22.5232 5.65625 22.5237ZM5.5625 18.1444C5.5625 18.1195 5.57238 18.0957 5.58996 18.0781C5.60754 18.0605 5.63139 18.0507 5.65625 18.0507H9.68225C9.70711 18.0507 9.73096 18.0605 9.74854 18.0781C9.76612 18.0957 9.776 18.1195 9.776 18.1444V21.1174C9.7759 21.1422 9.76599 21.166 9.74843 21.1836C9.73087 21.2012 9.70708 21.2111 9.68225 21.2112H5.65625C5.63142 21.2111 5.60763 21.2012 5.59007 21.1836C5.57251 21.166 5.5626 21.1422 5.5625 21.1174V18.1444Z" fill="black"/>
<path d="M16.877 22.5237H20.903C21.2758 22.5232 21.6332 22.3748 21.8968 22.1112C22.1604 21.8476 22.3087 21.4902 22.3092 21.1174V18.1444C22.3088 17.7716 22.1605 17.4141 21.8969 17.1505C21.6332 16.8868 21.2758 16.7386 20.903 16.7382H16.877C16.5041 16.7386 16.1467 16.8868 15.883 17.1505C15.6194 17.4141 15.4711 17.7716 15.4707 18.1444V21.1174C15.4712 21.4902 15.6195 21.8476 15.8831 22.1112C16.1467 22.3748 16.5041 22.5232 16.877 22.5237ZM16.7832 18.1444C16.7833 18.1196 16.7932 18.0958 16.8108 18.0782C16.8283 18.0607 16.8521 18.0508 16.877 18.0507H20.903C20.9278 18.0507 20.9517 18.0605 20.9692 18.0781C20.9868 18.0957 20.9967 18.1195 20.9967 18.1444V21.1174C20.9966 21.1422 20.9867 21.166 20.9691 21.1836C20.9516 21.2012 20.9278 21.2111 20.903 21.2112H16.877C16.8521 21.2111 16.8283 21.2012 16.8108 21.1836C16.7932 21.166 16.7833 21.1422 16.7832 21.1174V18.1444Z" fill="black"/>
<path d="M28.0977 22.5237H32.1237C32.4965 22.5232 32.8539 22.3748 33.1175 22.1112C33.3811 21.8476 33.5294 21.4902 33.5299 21.1174V18.1444C33.5294 17.7716 33.3811 17.4142 33.1175 17.1506C32.8539 16.887 32.4965 16.7387 32.1237 16.7382H28.0977C27.7248 16.7386 27.3674 16.8868 27.1037 17.1505C26.8401 17.4141 26.6918 17.7716 26.6914 18.1444V21.1174C26.6919 21.4902 26.8402 21.8476 27.1038 22.1112C27.3674 22.3748 27.7248 22.5232 28.0977 22.5237ZM28.0039 18.1444C28.0039 18.1195 28.0138 18.0957 28.0314 18.0781C28.0489 18.0605 28.0728 18.0507 28.0977 18.0507H32.1237C32.1485 18.0507 32.1724 18.0605 32.1899 18.0781C32.2075 18.0957 32.2174 18.1195 32.2174 18.1444V21.1174C32.2173 21.1422 32.2074 21.166 32.1898 21.1836C32.1723 21.2012 32.1485 21.2111 32.1237 21.2112H28.0977C28.0728 21.2111 28.049 21.2012 28.0315 21.1836C28.0139 21.166 28.004 21.1422 28.0039 21.1174V18.1444Z" fill="black"/>
<path d="M39.3184 22.5237H43.3444C43.7172 22.5232 44.0746 22.3748 44.3382 22.1112C44.6018 21.8476 44.7501 21.4902 44.7506 21.1174V18.1444C44.7501 17.7716 44.6018 17.4142 44.3382 17.1506C44.0746 16.887 43.7172 16.7387 43.3444 16.7382H39.3184C38.9455 16.7386 38.5881 16.8868 38.3244 17.1505C38.0608 17.4141 37.9125 17.7716 37.9121 18.1444V21.1174C37.9126 21.4902 38.0609 21.8476 38.3245 22.1112C38.5882 22.3748 38.9456 22.5232 39.3184 22.5237ZM39.2246 18.1444C39.2246 18.1195 39.2345 18.0957 39.2521 18.0781C39.2697 18.0605 39.2935 18.0507 39.3184 18.0507H43.3444C43.3692 18.0507 43.3931 18.0605 43.4107 18.0781C43.4282 18.0957 43.4381 18.1195 43.4381 18.1444V21.1174C43.438 21.1422 43.4281 21.166 43.4105 21.1836C43.393 21.2012 43.3692 21.2111 43.3444 21.2112H39.3184C39.2935 21.2111 39.2697 21.2012 39.2522 21.1836C39.2346 21.166 39.2247 21.1422 39.2246 21.1174V18.1444Z" fill="black"/>
<path d="M5.65625 30.2696H9.68225C10.0551 30.2691 10.4125 30.1208 10.6761 29.8572C10.9397 29.5936 11.088 29.2362 11.0885 28.8634V25.8904C11.088 25.5176 10.9397 25.1602 10.6761 24.8966C10.4125 24.6329 10.0551 24.4846 9.68225 24.4841H5.65625C5.28344 24.4846 4.92604 24.6329 4.66243 24.8966C4.39881 25.1602 4.2505 25.5176 4.25 25.8904V28.8634C4.2505 29.2362 4.39881 29.5936 4.66243 29.8572C4.92604 30.1208 5.28344 30.2691 5.65625 30.2696ZM5.5625 25.8904C5.5625 25.8655 5.57238 25.8417 5.58996 25.8241C5.60754 25.8065 5.63139 25.7966 5.65625 25.7966H9.68225C9.70711 25.7966 9.73096 25.8065 9.74854 25.8241C9.76612 25.8417 9.776 25.8655 9.776 25.8904V28.8634C9.7759 28.8882 9.76599 28.912 9.74843 28.9296C9.73087 28.9471 9.70708 28.957 9.68225 28.9571H5.65625C5.63142 28.957 5.60763 28.9471 5.59007 28.9296C5.57251 28.912 5.5626 28.8882 5.5625 28.8634V25.8904Z" fill="black"/>
<path d="M16.877 30.2696H20.903C21.2758 30.2691 21.6332 30.1208 21.8968 29.8572C22.1604 29.5936 22.3087 29.2362 22.3092 28.8634V25.8904C22.3087 25.5176 22.1604 25.1602 21.8968 24.8966C21.6332 24.6329 21.2758 24.4846 20.903 24.4841H16.877C16.5041 24.4846 16.1467 24.6329 15.8831 24.8966C15.6195 25.1602 15.4712 25.5176 15.4707 25.8904V28.8634C15.4712 29.2362 15.6195 29.5936 15.8831 29.8572C16.1467 30.1208 16.5041 30.2691 16.877 30.2696ZM16.7832 25.8904C16.7833 25.8655 16.7932 25.8418 16.8108 25.8242C16.8283 25.8066 16.8521 25.7967 16.877 25.7966H20.903C20.9278 25.7966 20.9517 25.8065 20.9692 25.8241C20.9868 25.8417 20.9967 25.8655 20.9967 25.8904V28.8634C20.9966 28.8882 20.9867 28.912 20.9691 28.9296C20.9516 28.9471 20.9278 28.957 20.903 28.9571H16.877C16.8521 28.957 16.8283 28.9471 16.8108 28.9296C16.7932 28.912 16.7833 28.8882 16.7832 28.8634V25.8904Z" fill="black"/>
<path d="M28.0977 30.2696H32.1237C32.4965 30.2691 32.8539 30.1208 33.1175 29.8572C33.3811 29.5936 33.5294 29.2362 33.5299 28.8634V25.8904C33.5294 25.5176 33.3811 25.1602 33.1175 24.8966C32.8539 24.6329 32.4965 24.4846 32.1237 24.4841H28.0977C27.7248 24.4846 27.3674 24.6329 27.1038 24.8966C26.8402 25.1602 26.6919 25.5176 26.6914 25.8904V28.8634C26.6919 29.2362 26.8402 29.5936 27.1038 29.8572C27.3674 30.1208 27.7248 30.2691 28.0977 30.2696ZM28.0039 25.8904C28.0039 25.8655 28.0138 25.8417 28.0314 25.8241C28.0489 25.8065 28.0728 25.7966 28.0977 25.7966H32.1237C32.1485 25.7966 32.1724 25.8065 32.1899 25.8241C32.2075 25.8417 32.2174 25.8655 32.2174 25.8904V28.8634C32.2173 28.8882 32.2074 28.912 32.1898 28.9296C32.1723 28.9471 32.1485 28.957 32.1237 28.9571H28.0977C28.0728 28.957 28.049 28.9471 28.0315 28.9296C28.0139 28.912 28.004 28.8882 28.0039 28.8634V25.8904Z" fill="black"/>
<path d="M39.3184 30.2696H43.3444C43.7172 30.2691 44.0746 30.1208 44.3382 29.8572C44.6018 29.5936 44.7501 29.2362 44.7506 28.8634V25.8904C44.7501 25.5176 44.6018 25.1602 44.3382 24.8966C44.0746 24.6329 43.7172 24.4846 43.3444 24.4841H39.3184C38.9456 24.4846 38.5882 24.6329 38.3245 24.8966C38.0609 25.1602 37.9126 25.5176 37.9121 25.8904V28.8634C37.9126 29.2362 38.0609 29.5936 38.3245 29.8572C38.5882 30.1208 38.9456 30.2691 39.3184 30.2696ZM39.2246 25.8904C39.2246 25.8655 39.2345 25.8417 39.2521 25.8241C39.2697 25.8065 39.2935 25.7966 39.3184 25.7966H43.3444C43.3692 25.7966 43.3931 25.8065 43.4107 25.8241C43.4282 25.8417 43.4381 25.8655 43.4381 25.8904V28.8634C43.438 28.8882 43.4281 28.912 43.4105 28.9296C43.393 28.9471 43.3692 28.957 43.3444 28.9571H39.3184C39.2935 28.957 39.2697 28.9471 39.2522 28.9296C39.2346 28.912 39.2247 28.8882 39.2246 28.8634V25.8904Z" fill="black"/>
<path d="M5.65625 38.016H9.68225C10.0551 38.0155 10.4125 37.8671 10.6761 37.6035C10.9397 37.3399 11.088 36.9825 11.0885 36.6097V33.6375C11.088 33.2646 10.9397 32.9072 10.6761 32.6436C10.4125 32.38 10.0551 32.2317 9.68225 32.2312H5.65625C5.28344 32.2317 4.92604 32.38 4.66243 32.6436C4.39881 32.9072 4.2505 33.2646 4.25 33.6375V36.6105C4.25069 36.9831 4.3991 37.3403 4.66269 37.6038C4.92629 37.8672 5.28357 38.0155 5.65625 38.016ZM5.5625 33.6375C5.5625 33.6126 5.57238 33.5887 5.58996 33.5712C5.60754 33.5536 5.63139 33.5437 5.65625 33.5437H9.68225C9.70711 33.5437 9.73096 33.5536 9.74854 33.5712C9.76612 33.5887 9.776 33.6126 9.776 33.6375V36.6105C9.776 36.6353 9.76612 36.6592 9.74854 36.6767C9.73096 36.6943 9.70711 36.7042 9.68225 36.7042H5.65625C5.63139 36.7042 5.60754 36.6943 5.58996 36.6767C5.57238 36.6592 5.5625 36.6353 5.5625 36.6105V33.6375Z" fill="black"/>
<path d="M16.877 38.016H20.903C21.2758 38.0155 21.6332 37.8671 21.8968 37.6035C22.1604 37.3399 22.3087 36.9825 22.3092 36.6097V33.6375C22.3087 33.2646 22.1604 32.9072 21.8968 32.6436C21.6332 32.38 21.2758 32.2317 20.903 32.2312H16.877C16.5041 32.2317 16.1467 32.38 15.8831 32.6436C15.6195 32.9072 15.4712 33.2646 15.4707 33.6375V36.6105C15.4714 36.9831 15.6198 37.3403 15.8834 37.6038C16.147 37.8672 16.5043 38.0155 16.877 38.016ZM16.7832 33.6375C16.7833 33.6126 16.7932 33.5888 16.8108 33.5713C16.8283 33.5537 16.8521 33.5438 16.877 33.5437H20.903C20.9278 33.5437 20.9517 33.5536 20.9692 33.5712C20.9868 33.5887 20.9967 33.6126 20.9967 33.6375V36.6105C20.9967 36.6353 20.9868 36.6592 20.9692 36.6767C20.9517 36.6943 20.9278 36.7042 20.903 36.7042H16.877C16.8521 36.7041 16.8283 36.6942 16.8108 36.6766C16.7932 36.6591 16.7833 36.6353 16.7832 36.6105V33.6375Z" fill="black"/>
<path d="M33.0564 32.5894C32.9181 32.4837 32.7435 32.4373 32.571 32.4604C32.3985 32.4834 32.2422 32.5741 32.1365 32.7124L29.399 36.2914L27.8615 34.35C27.808 34.2825 27.7417 34.2262 27.6665 34.1843C27.5912 34.1424 27.5084 34.1157 27.4228 34.1058C27.3373 34.0959 27.2506 34.1029 27.1677 34.1265C27.0849 34.1501 27.0075 34.1898 26.94 34.2433C26.8724 34.2968 26.8161 34.3631 26.7742 34.4384C26.7323 34.5136 26.7057 34.5964 26.6958 34.682C26.6859 34.7676 26.6929 34.8543 26.7165 34.9371C26.7401 35.02 26.7798 35.0974 26.8333 35.1649L28.8958 37.7674C28.9572 37.8449 29.0353 37.9075 29.1244 37.9506C29.2134 37.9936 29.311 38.016 29.4099 38.016H29.4155C29.5154 38.0151 29.6137 37.9914 29.7031 37.9467C29.7924 37.9021 29.8704 37.8377 29.9312 37.7584L33.1787 33.5093C33.2311 33.4409 33.2695 33.3628 33.2917 33.2795C33.3139 33.1962 33.3195 33.1094 33.3082 33.024C33.2968 32.9386 33.2687 32.8562 33.2255 32.7816C33.1823 32.7071 33.1249 32.6417 33.0564 32.5894Z" fill="black"/>
<path d="M44.2768 32.5894C44.1385 32.4837 43.9639 32.4373 43.7914 32.4604C43.6189 32.4834 43.4626 32.5741 43.3569 32.7124L40.6217 36.2914L39.0842 34.35C39.0307 34.2825 38.9644 34.2262 38.8891 34.1843C38.8139 34.1424 38.7311 34.1157 38.6455 34.1058C38.5599 34.0959 38.4732 34.1029 38.3904 34.1265C38.3075 34.1501 38.2301 34.1898 38.1626 34.2433C38.0951 34.2968 38.0388 34.3631 37.9969 34.4384C37.955 34.5136 37.9283 34.5964 37.9184 34.682C37.9085 34.7676 37.9156 34.8543 37.9391 34.9371C37.9627 35.02 38.0024 35.0974 38.0559 35.1649L40.1184 37.7674C40.1799 37.8449 40.2581 37.9075 40.3472 37.9506C40.4363 37.9937 40.534 38.016 40.6329 38.016H40.6386C40.7384 38.0151 40.8368 37.9914 40.9261 37.9467C41.0155 37.9021 41.0935 37.8377 41.1542 37.7584L44.4013 33.5093C44.4535 33.4407 44.4918 33.3625 44.5138 33.2792C44.5358 33.1958 44.5412 33.109 44.5296 33.0235C44.5181 32.9381 44.4898 32.8558 44.4464 32.7813C44.403 32.7068 44.3454 32.6416 44.2768 32.5894Z" fill="black"/>
<path d="M37 46C42.5228 46 47 41.5228 47 36C47 30.4772 42.5228 26 37 26C31.4772 26 27 30.4772 27 36C27 41.5228 31.4772 46 37 46Z" fill="#3FAB5D"/>
<path d="M33 36.5L36 39.5L41 33.5" stroke="white" stroke-linecap="round" stroke-linejoin="round"/>
</g>
<defs>
<clipPath id="clip0_215_4576">
<rect width="48" height="48" fill="white" transform="translate(0.5)"/>
</clipPath>
</defs>
</svg>
