<svg width="1195" height="745" viewBox="0 0 1195 745" fill="none" xmlns="http://www.w3.org/2000/svg">
<path fill-rule="evenodd" clip-rule="evenodd" d="M1028.3 226.399L263.268 886.363L805.598 1515.04L1566.12 525.103L1028.3 226.399ZM1016.93 260.976L308.484 872.124L810.699 1454.3L1514.97 537.586L1016.93 260.976Z" fill="#222226"/>
<path fill-rule="evenodd" clip-rule="evenodd" d="M1430.31 687.243L470.229 235.194L489.898 1296.19L598.133 1226.11L500.199 267.304L1418.91 694.627L1430.31 687.243Z" fill="#C41230"/>
<path fill-rule="evenodd" clip-rule="evenodd" d="M411.07 1125.42L609.468 181.181L1368.32 777.077L1354.24 782.2L625.341 209.993L509.958 1089.43L411.07 1125.42Z" fill="#828286"/>
<path fill-rule="evenodd" clip-rule="evenodd" d="M1101.6 376.026L244.077 910.334L683.148 1615.01L1587.02 753.974L1101.6 376.026ZM1085.04 408.441L290.946 903.226L697.54 1555.78L1534.55 758.432L1085.04 408.441Z" fill="#96979A"/>
<path d="M290.946 903.226L1085.04 408.441L1534.55 758.432L697.54 1555.78L290.946 903.226Z" fill="#DDDDE1"/>
</svg>
