<svg width="1188" height="300" viewBox="0 0 1188 300" fill="none" xmlns="http://www.w3.org/2000/svg">
<path fill-rule="evenodd" clip-rule="evenodd" d="M1021.3 46.3987L256.268 706.363L798.598 1335.04L1559.12 345.103L1021.3 46.3987ZM1009.93 80.9763L301.484 692.124L803.699 1274.3L1507.97 357.586L1009.93 80.9763Z" fill="#222226"/>
<path d="M190.078 780.952L895.704 57.8175L1457.16 309.304L784.319 1360.81L190.078 780.952Z" fill="#AAACAF"/>
<path d="M479.326 582.987L1086.5 230.251L1541.82 621.676L939.156 1343.19L479.326 582.987Z" fill="#96979A"/>
<path fill-rule="evenodd" clip-rule="evenodd" d="M1470.17 494.598L464.659 83.1568L540.849 1166.91L647.808 1089.53L496.998 114.403L1458.9 502.75L1470.17 494.598Z" fill="#C41230"/>
<path fill-rule="evenodd" clip-rule="evenodd" d="M461.451 995.943L614.39 20.044L1421.75 589.195L1407.63 595.177L632.142 48.6635L560.655 953.924L461.451 995.943Z" fill="#828286"/>
</svg>
