<svg width="36" height="24" viewBox="0 0 36 24" fill="none" xmlns="http://www.w3.org/2000/svg">
<path fill-rule="evenodd" clip-rule="evenodd" d="M14.5 1C13.3954 1 12.5 1.89543 12.5 3V3.5C12.5 3.67265 12.5219 3.84019 12.563 4H22.437C22.4781 3.84019 22.5 3.67265 22.5 3.5V3C22.5 1.89543 21.6046 1 20.5 1H14.5Z" fill="white"/>
<path d="M9.5 4.5H25.5C26.3284 4.5 27 5.17157 27 6V18C27 18.8284 26.3284 19.5 25.5 19.5H9.5C8.67157 19.5 8 18.8284 8 18V6C8 5.17157 8.67157 4.5 9.5 4.5Z" stroke="white" stroke-linecap="round" stroke-linejoin="round"/>
<path d="M15.8721 7.65087C16.3038 7.23413 16.8894 7 17.5 7C18.1106 7 18.6962 7.23413 19.1279 7.65087C19.5597 8.06762 19.8022 8.63285 19.8022 9.22222C19.8022 9.81159 19.5597 10.3768 19.1279 10.7936C18.6962 11.2103 18.1106 11.4444 17.5 11.4444C16.8894 11.4444 16.3038 11.2103 15.8721 10.7936C15.4403 10.3768 15.1977 9.81159 15.1977 9.22222C15.1977 8.63285 15.4403 8.06762 15.8721 7.65087Z" fill="#EBEBEE"/>
<path d="M13.5079 14.0022C13.4158 13.1667 14.1456 12.5556 14.91 12.5556H20.09C20.8555 12.5556 21.5842 13.1667 21.4921 14.0022C21.4242 14.6233 21.2227 15.3956 20.5896 16.0089C19.9484 16.6289 18.9573 17 17.5 17C16.0427 17 15.0515 16.6289 14.4104 16.0089C13.7784 15.3956 13.577 14.6244 13.5079 14.0022Z" fill="#EBEBEE"/>
</svg>
