<svg width="449" height="283" viewBox="0 0 449 283" fill="none" xmlns="http://www.w3.org/2000/svg">
<g clip-path="url(#clip0_238_14091)">
<path d="M211.822 17.6593C213.251 12.3246 218.735 9.15877 224.069 10.5882L404.733 58.9969C410.068 60.4264 413.234 65.9097 411.804 71.2444L383.334 177.496C381.905 182.831 376.422 185.997 371.087 184.567L190.423 136.159C185.088 134.729 181.922 129.246 183.352 123.911L211.822 17.6593Z" fill="black"/>
<g clip-path="url(#clip1_238_14091)">
<path d="M233.417 111.9C232.598 111.68 231.75 111.939 231.47 112.982C231.191 114.024 231.797 114.673 232.661 114.904C233.115 115.026 233.412 115.008 233.709 114.991L233.794 114.673C233.44 114.724 233.109 114.684 232.7 114.574C231.973 114.38 231.582 113.838 231.788 113.067C231.995 112.296 232.65 112.034 233.332 112.217C233.695 112.315 233.956 112.433 234.283 112.666L234.368 112.349C234.12 112.185 233.826 112.009 233.417 111.9ZM237.905 113.151L237.542 113.054L236.776 115.91L237.14 116.007L239.569 114.034L238.913 116.482L239.231 116.567L239.997 113.711L239.587 113.602L237.262 115.554L237.905 113.151ZM245.452 115.173L244.687 118.029L244.369 117.944L245.049 115.405L243.776 115.064C242.965 117.179 242.708 117.596 242.162 117.45L242.026 117.413L242.099 117.141L242.189 117.166C242.508 117.251 242.705 117.061 243.543 114.662L245.452 115.173V115.173ZM250.01 116.346C249.556 116.224 249.213 116.23 248.768 116.256L248.683 116.573C249.037 116.523 249.38 116.517 249.88 116.651C250.471 116.81 250.786 117.088 250.604 117.768L250.543 117.995C250.319 117.741 249.979 117.552 249.479 117.418C248.797 117.236 248.2 117.464 248.054 118.008C247.884 118.643 248.254 119.082 248.981 119.277C249.39 119.387 249.791 119.348 250.215 119.219L250.175 119.549L250.448 119.622L250.898 117.944C251.198 117.004 250.874 116.577 250.01 116.346ZM249.112 118.972C248.748 118.875 248.284 118.605 248.418 118.106C248.527 117.698 249.031 117.638 249.485 117.76C249.849 117.858 250.234 118.058 250.458 118.312L250.312 118.856C250.094 118.944 249.612 119.106 249.112 118.972ZM261.058 119.306C260.558 119.172 260.306 119.202 259.963 119.207L259.878 119.525C260.278 119.486 260.563 119.514 260.927 119.611C261.518 119.77 261.842 120.197 261.693 120.934L260.057 120.496L259.984 120.768L261.62 121.206C261.405 121.829 260.932 122.139 260.25 121.956C259.886 121.859 259.547 121.671 259.253 121.495L259.168 121.812C259.462 121.988 259.756 122.164 260.165 122.274C260.983 122.493 261.753 122.165 262.021 121.168C262.345 120.137 261.876 119.525 261.058 119.306ZM266.918 123.986L267.281 124.083L268.047 121.227L267.683 121.13L267.343 122.399L265.57 121.924L265.91 120.655L265.592 120.57L264.826 123.426L265.145 123.511L265.485 122.242L267.258 122.717L266.918 123.986ZM271.077 123.74L273.486 124.385L273.547 124.159C273.778 123.297 273.502 122.689 272.638 122.458C271.82 122.238 271.016 122.509 270.737 123.552C270.458 124.594 271.018 125.23 271.836 125.45C272.427 125.608 272.725 125.591 273.079 125.54L273.176 125.177C272.673 125.237 272.331 125.242 271.967 125.145C271.57 124.99 270.858 124.556 271.077 123.74ZM272.565 122.73C273.202 122.9 273.365 123.381 273.207 123.971L271.162 123.423C271.414 122.664 272.065 122.596 272.565 122.73ZM278.424 123.959C278.015 123.85 277.615 123.888 277.293 123.997L277.275 123.7L277.048 123.639L275.979 127.629L276.297 127.714L276.662 126.354C276.84 126.596 277.168 126.83 277.577 126.939C278.395 127.159 279.211 126.843 279.478 125.845C279.803 124.815 279.242 124.179 278.424 123.959ZM277.662 126.622C277.162 126.488 276.938 126.234 276.759 125.991L277.196 124.359C277.484 124.193 277.884 124.155 278.339 124.277C279.021 124.459 279.366 124.989 279.172 125.715C278.977 126.44 278.389 126.817 277.662 126.622ZM284.737 126.04L284.822 125.722L283.049 125.247L282.284 128.103L282.647 128.201L283.328 125.662L284.737 126.04V126.04ZM288.141 126.612L287.777 126.514L287.012 129.37L287.375 129.468L289.804 127.495L289.148 129.943L289.467 130.028L290.232 127.172L289.823 127.062L287.497 129.014L288.141 126.612ZM295.96 128.707L294.824 128.402C293.778 128.122 293.317 128.387 293.147 129.022C293.013 129.521 293.292 129.935 293.768 130.16C293.146 130.479 292.525 130.799 292.455 130.877L292.91 130.999C293.37 130.734 293.774 130.502 294.21 130.327C294.574 130.425 294.859 130.452 295.098 130.468L294.819 131.511L295.183 131.608L295.96 128.707V128.707ZM294.217 129.94C293.58 129.77 293.368 129.47 293.477 129.062C293.599 128.609 293.932 128.455 294.705 128.662L295.478 128.869L295.15 130.093C294.944 130.135 294.626 130.05 294.217 129.94ZM305.792 131.293C305.383 131.183 304.995 131.176 304.652 131.182L304.567 131.499C304.967 131.46 305.343 131.513 305.662 131.598C306.207 131.744 306.34 131.974 306.267 132.246C306.182 132.563 305.849 132.717 305.394 132.595L304.576 132.376L304.503 132.648L305.276 132.855C305.912 133.026 306.067 133.358 305.994 133.63C305.909 133.948 305.666 134.126 304.984 133.943C304.575 133.833 304.281 133.657 303.975 133.527L303.89 133.844C304.184 134.02 304.49 134.151 304.899 134.26C305.809 134.504 306.224 134.227 306.358 133.728C306.467 133.32 306.222 132.963 305.825 132.808C306.213 132.814 306.534 132.706 306.643 132.298C306.798 131.902 306.565 131.5 305.792 131.293ZM312.089 135.798L311.634 135.676L312.326 133.092L310.372 132.568C309.761 134.3 309.467 134.853 309.27 135.043L308.861 134.933L308.533 136.157L308.851 136.242L309.106 135.29L311.652 135.973L311.397 136.925L311.715 137.01L312.043 135.786L312.089 135.798ZM311.316 135.591L309.634 135.14C309.946 134.884 310.162 134.261 310.65 132.983L311.923 133.324L311.316 135.591V135.591ZM317.021 134.301C316.203 134.082 315.387 134.398 315.12 135.396C314.853 136.393 315.401 137.074 316.219 137.294C317.083 137.525 317.853 137.197 318.12 136.199C318.388 135.202 317.839 134.521 317.021 134.301ZM316.936 134.619C317.663 134.814 317.951 135.377 317.757 136.102C317.587 136.737 317.123 137.195 316.304 136.976C315.441 136.745 315.268 136.115 315.438 135.481C315.645 134.71 316.254 134.436 316.936 134.619ZM323.022 135.909C322.613 135.8 322.213 135.838 321.891 135.947L321.873 135.65L321.646 135.589L320.577 139.579L320.941 139.676L321.305 138.316C321.484 138.558 321.811 138.792 322.22 138.901C323.039 139.121 323.854 138.805 324.121 137.807C324.355 136.753 323.795 136.117 323.022 135.909ZM322.26 138.572C321.76 138.438 321.536 138.184 321.357 137.941L321.794 136.309C322.082 136.143 322.437 136.093 322.937 136.227C323.573 136.397 323.964 136.939 323.77 137.665C323.576 138.39 322.987 138.767 322.26 138.572ZM328.978 137.505C328.159 137.286 327.344 137.602 327.076 138.599C326.809 139.597 327.358 140.278 328.176 140.497C329.04 140.729 329.81 140.401 330.077 139.403C330.344 138.406 329.796 137.724 328.978 137.505ZM328.893 137.823C329.62 138.017 329.908 138.58 329.713 139.306C329.543 139.94 329.079 140.399 328.261 140.18C327.443 139.961 327.225 139.319 327.395 138.685C327.601 137.914 328.211 137.64 328.893 137.823ZM333.603 138.793L332.837 141.649L334.11 141.99C335.065 142.246 335.456 142.059 335.602 141.515C335.711 141.107 335.42 140.738 335.011 140.628C335.399 140.635 335.708 140.572 335.818 140.164C335.927 139.756 335.694 139.353 334.875 139.134L333.603 138.793ZM333.836 139.196L334.745 139.439C335.336 139.598 335.481 139.782 335.408 140.054C335.323 140.372 335.048 140.492 334.547 140.358L333.593 140.102L333.836 139.196ZM333.508 140.42L334.462 140.675C335.099 140.846 335.265 141.134 335.18 141.451C335.083 141.814 334.865 141.901 334.138 141.706L333.228 141.462L333.508 140.42ZM340.439 141.645C339.939 141.511 339.539 141.55 339.23 141.613L339.558 140.389L339.24 140.304L338.487 143.114C339.053 143.363 339.326 143.436 339.69 143.534C340.735 143.814 341.196 143.549 341.366 142.914C341.467 142.358 341.167 141.84 340.439 141.645ZM339.763 143.262C339.399 143.164 339.093 143.034 338.878 142.928L339.145 141.93C339.454 141.867 339.9 141.841 340.264 141.938C340.855 142.097 341.1 142.454 341.003 142.817C340.869 143.315 340.536 143.469 339.763 143.262ZM344.588 143.437L346.998 144.083L347.059 143.856C347.289 142.995 347.014 142.387 346.15 142.155C345.377 141.948 344.574 142.219 344.294 143.261C344.015 144.304 344.575 144.94 345.394 145.159C345.985 145.318 346.327 145.312 346.636 145.249L346.734 144.887C346.23 144.946 345.933 144.964 345.524 144.854C345.082 144.687 344.415 144.265 344.588 143.437ZM346.077 142.427C346.714 142.598 346.877 143.079 346.719 143.668L344.673 143.12C344.971 142.374 345.622 142.305 346.077 142.427Z" fill="white"/>
<path d="M233.865 95.4997C233.585 96.5424 232.491 97.1723 231.445 96.8921L223.853 94.8578L225.371 89.1911L232.963 91.2254C234.009 91.5055 234.642 92.5983 234.363 93.641L233.865 95.4997ZM233.7 103.57L234.064 102.21L232.132 98.874C233.857 98.8017 235.303 97.5858 235.729 95.9992L236.239 94.0951C236.798 92.0098 235.474 89.8573 233.474 89.3213L224.018 86.7876L220.471 100.025L222.38 100.537L223.4 96.7287L229.629 98.3976L232.382 103.217L233.7 103.57ZM247.086 103.075C246.807 104.118 245.712 104.748 244.666 104.468L238.984 102.945C237.938 102.665 237.305 101.572 237.584 100.529L239.103 94.8626C239.382 93.8199 240.477 93.19 241.522 93.4702L247.205 94.9928C248.251 95.273 248.884 96.3658 248.604 97.4085L247.086 103.075V103.075ZM250.456 97.9533C251.003 95.9132 249.691 93.7155 247.646 93.1673L242.008 91.6568C239.917 91.0964 237.786 92.3231 237.227 94.4084L235.708 100.075C235.137 102.206 236.37 104.334 238.461 104.894L244.144 106.417C246.235 106.977 248.412 105.763 248.983 103.632L250.502 97.9654L250.456 97.9533ZM257.108 108.044L264.977 101.407L262.341 111.244L264.25 111.756L267.797 98.5183L265.888 98.0067L258.019 104.644L254.522 94.9614L252.613 94.4497L249.066 107.687L250.975 108.199L253.611 98.3614L257.108 108.044ZM278.062 103.309C279.107 103.59 279.74 104.682 279.461 105.725L278.453 109.488L268.997 106.954L270.005 103.191C270.284 102.149 271.379 101.519 272.424 101.799L278.062 103.309ZM281.37 106.237C281.884 104.139 280.605 101.999 278.605 101.463L272.922 99.9402C270.786 99.3677 268.675 100.697 268.141 102.692L265.614 112.121L267.524 112.633L268.544 108.825L277.955 111.346L276.934 115.155L278.844 115.666L281.37 106.237ZM296.984 106.339L295.074 105.827L292.39 115.846L285.618 103.293L283.709 102.782L280.162 116.019L282.071 116.531L284.792 106.376L291.527 119.065L293.437 119.576L296.984 106.339ZM297.282 110.5L299.191 111.012L300.199 107.249L298.29 106.737L297.282 110.5ZM312.051 120.483C312.61 118.397 311.286 116.245 309.286 115.709L303.603 114.186C302.557 113.906 301.924 112.813 302.204 111.77C302.483 110.728 303.578 110.098 304.623 110.378L310.306 111.901C311.352 112.181 311.985 113.274 311.705 114.316L313.615 114.828C314.128 112.73 312.85 110.59 310.85 110.054L305.167 108.532C303.03 107.959 300.874 109.276 300.34 111.271C299.769 113.402 301.105 115.509 303.151 116.057L308.833 117.58C309.879 117.86 310.512 118.953 310.232 119.995C309.953 121.038 308.858 121.668 307.813 121.388L302.13 119.865C301.085 119.585 300.452 118.492 300.731 117.449L298.822 116.938C298.342 119.093 299.529 121.209 301.62 121.769L307.303 123.292C309.394 123.852 311.504 122.523 312.051 120.483ZM326.778 122.437L332.461 123.959L331.951 125.863C331.672 126.906 330.577 127.536 329.531 127.256L323.849 125.733C322.803 125.453 322.17 124.36 322.45 123.317L323.968 117.651C324.247 116.608 325.342 115.978 326.388 116.258L332.07 117.781C333.116 118.061 333.749 119.154 333.469 120.197L335.379 120.708C335.892 118.611 334.614 116.47 332.614 115.934L326.931 114.412C324.794 113.839 322.638 115.157 322.104 117.151L320.586 122.818C320.015 124.949 321.338 127.101 323.384 127.649L329.067 129.172C331.203 129.745 333.314 128.415 333.86 126.375L334.869 122.612L327.322 120.59L326.824 122.449L326.778 122.437ZM349.091 123.362L349.844 120.551L347.934 120.04L347.388 122.08L341.275 125.981L337.944 119.501L338.49 117.461L336.581 116.949L335.828 119.76L339.846 127.493L338.729 131.664L340.638 132.175L341.756 128.005L349.091 123.362ZM355.078 134.295L362.947 127.658L360.311 137.495L362.221 138.007L365.768 124.769L363.858 124.258L355.989 130.895L352.493 121.212L350.583 120.701L347.036 133.938L348.946 134.45L351.582 124.612L355.078 134.295Z" fill="white"/>
<path d="M296.858 80.2611C296.141 82.9359 293.376 84.5272 290.693 83.8085L271.236 78.5948L275.135 64.0426L294.593 69.2562C297.275 69.975 298.874 72.7357 298.157 75.4104L296.858 80.2611ZM296.523 100.968L297.446 97.5221L292.482 88.9523C296.893 88.6765 300.617 85.69 301.722 81.5646L303.022 76.7138C304.467 71.3191 300.984 65.7698 295.892 64.4055L271.57 57.8884L262.472 91.8436L267.336 93.147L269.936 83.4455L285.939 87.7334L293.068 100.042L296.523 100.968Z" fill="white"/>
<path d="M329.427 94.1871L328.127 99.0378C327.411 101.713 324.645 103.304 321.963 102.585L307.37 98.6749C304.688 97.9562 303.088 95.1954 303.805 92.5207L307.704 77.9685C308.421 75.2938 311.186 73.7025 313.869 74.4212L328.462 78.3314C331.144 79.0501 332.743 81.8109 332.026 84.4856L336.891 85.789C338.2 80.3577 334.944 74.8694 329.762 73.4807L315.168 69.5705C309.713 68.1087 304.213 71.5424 302.84 76.6651L298.941 91.2173C297.471 96.7027 300.887 102.137 306.07 103.526L320.663 107.436C326.119 108.898 331.619 105.464 332.992 100.341L335.591 90.6398L316.133 85.4261L329.427 94.1871Z" fill="white"/>
<path fill-rule="evenodd" clip-rule="evenodd" d="M224.662 70.1971L292.303 71.0723L286.591 79.1138L224.662 70.1971Z" fill="#F5333F"/>
<path fill-rule="evenodd" clip-rule="evenodd" d="M286.591 79.1139L319.951 100.637L292.303 71.0724L286.591 79.1139Z" fill="black"/>
<path fill-rule="evenodd" clip-rule="evenodd" d="M319.951 100.637L372.71 97.7678L314.116 94.4091L319.951 100.637Z" fill="#F5333F"/>
<path d="M274.661 65.8105L269.797 64.5071L266.371 77.2913L271.236 78.5947L274.661 65.8105Z" fill="white"/>
<path d="M329.426 94.187L328.127 99.0378C327.847 100.08 327.274 100.947 326.522 101.572L331.841 102.997C332.357 102.163 332.736 101.293 332.991 100.341L334.291 95.4904L329.426 94.187Z" fill="white"/>
<path fill-rule="evenodd" clip-rule="evenodd" d="M297.446 97.5221C295.354 96.9618 278.565 96.1558 278.565 96.1558L296.523 100.968L297.446 97.5221Z" fill="white"/>
<path d="M254.403 122.868L254.543 116.346L255.179 122.881L254.403 122.868Z" fill="white"/>
<path d="M300.55 128.673L300.41 135.195L299.774 128.66L300.55 128.673Z" fill="white"/>
</g>
<rect x="312.463" y="-104.355" width="170.625" height="256.952" transform="rotate(60 312.463 -104.355)" fill="url(#paint0_linear_238_14091)" fill-opacity="0.15"/>
</g>
<g clip-path="url(#clip2_238_14091)">
<path d="M14.5882 137.61C13.1588 132.276 16.3246 126.792 21.6593 125.363L202.323 76.954C207.658 75.5246 213.141 78.6904 214.571 84.0251L243.041 190.277C244.47 195.612 241.304 201.095 235.97 202.524L55.3057 250.933C49.9711 252.363 44.4877 249.197 43.0583 243.862L14.5882 137.61Z" fill="#C41230"/>
<g clip-path="url(#clip3_238_14091)">
<path d="M80.409 208.428C79.5907 208.647 78.9848 209.295 79.2641 210.338C79.5435 211.381 80.3924 211.639 81.2562 211.408C81.7108 211.286 81.9593 211.122 82.2077 210.958L82.1227 210.641C81.8409 210.862 81.5348 210.993 81.1257 211.103C80.3983 211.297 79.7889 211.023 79.5824 210.253C79.3759 209.482 79.8121 208.928 80.494 208.745C80.8577 208.648 81.1426 208.62 81.5428 208.659L81.4577 208.341C81.1607 208.324 80.8181 208.318 80.409 208.428ZM84.9219 207.267L84.5582 207.365L85.3234 210.221L85.6871 210.123L86.8042 207.2L87.4601 209.648L87.7784 209.563L87.0131 206.707L86.6039 206.817L85.5657 209.67L84.9219 207.267ZM92.4685 205.245L93.2338 208.101L92.9156 208.186L92.2353 205.648L90.9624 205.989C91.3181 208.226 91.3032 208.716 90.7577 208.862L90.6213 208.898L90.5484 208.626L90.6393 208.602C90.9576 208.517 91.0332 208.253 90.5591 205.757L92.4685 205.245V205.245ZM97.0026 203.982C96.5479 204.103 96.254 204.279 95.8813 204.525L95.9663 204.842C96.2481 204.621 96.542 204.445 97.0421 204.311C97.6331 204.153 98.0454 204.237 98.2276 204.917L98.2883 205.143C97.967 205.035 97.579 205.042 97.0789 205.176C96.397 205.359 95.9941 205.855 96.1399 206.399C96.3099 207.034 96.8496 207.229 97.577 207.035C97.9861 206.925 98.3134 206.692 98.6163 206.367L98.7468 206.673L99.0196 206.599L98.5701 204.922C98.3605 203.958 97.8663 203.75 97.0026 203.982ZM97.5374 206.705C97.1737 206.803 96.6372 206.801 96.5036 206.302C96.3942 205.894 96.8003 205.591 97.2549 205.469C97.6186 205.371 98.052 205.352 98.3734 205.461L98.5191 206.005C98.3737 206.189 98.0375 206.571 97.5374 206.705ZM108.05 201.022C107.55 201.156 107.347 201.307 107.053 201.483L107.138 201.8C107.465 201.567 107.726 201.449 108.089 201.351C108.68 201.193 109.175 201.4 109.414 202.114L107.778 202.552L107.851 202.824L109.487 202.386C109.612 203.032 109.357 203.538 108.676 203.721C108.312 203.818 107.924 203.825 107.581 203.819L107.666 204.137C108.009 204.142 108.351 204.148 108.761 204.038C109.579 203.819 110.082 203.149 109.814 202.152C109.581 201.097 108.868 200.802 108.05 201.022ZM115.465 202.144L115.828 202.047L115.063 199.191L114.699 199.288L115.039 200.558L113.266 201.033L112.926 199.763L112.608 199.849L113.373 202.705L113.692 202.62L113.351 201.35L115.125 200.875L115.465 202.144ZM118.943 199.852L121.353 199.206L121.292 198.98C121.061 198.118 120.518 197.729 119.655 197.961C118.836 198.18 118.276 198.816 118.555 199.859C118.835 200.901 119.638 201.172 120.456 200.953C121.047 200.794 121.296 200.631 121.578 200.409L121.48 200.047C121.074 200.35 120.781 200.526 120.417 200.623C119.996 200.687 119.162 200.668 118.943 199.852ZM119.728 198.233C120.364 198.062 120.746 198.397 120.904 198.986L118.858 199.534C118.697 198.752 119.227 198.367 119.728 198.233ZM125.416 196.368C125.007 196.478 124.68 196.711 124.456 196.966L124.292 196.718L124.064 196.779L125.133 200.768L125.452 200.683L125.087 199.323C125.363 199.444 125.763 199.482 126.172 199.372C126.991 199.153 127.539 198.472 127.272 197.474C127.038 196.42 126.235 196.149 125.416 196.368ZM126.087 199.055C125.587 199.189 125.266 199.081 124.99 198.96L124.553 197.328C124.719 197.041 125.047 196.807 125.501 196.686C126.183 196.503 126.747 196.789 126.941 197.514C127.136 198.24 126.815 198.86 126.087 199.055ZM131.923 195.013L131.838 194.696L130.065 195.171L130.831 198.027L131.194 197.93L130.514 195.391L131.923 195.013V195.013ZM135.157 193.807L134.793 193.904L135.559 196.76L135.922 196.663L137.04 193.74L137.695 196.188L138.014 196.102L137.248 193.246L136.839 193.356L135.801 196.209L135.157 193.807ZM142.977 191.712L141.84 192.016C140.794 192.296 140.528 192.756 140.698 193.391C140.832 193.89 141.28 194.11 141.805 194.066C141.426 194.654 141.047 195.241 141.026 195.344L141.481 195.222C141.747 194.762 141.981 194.359 142.271 193.99C142.635 193.892 142.896 193.774 143.111 193.668L143.39 194.71L143.754 194.613L142.977 191.712V191.712ZM142.083 193.651C141.447 193.822 141.113 193.668 141.004 193.26C140.883 192.807 141.095 192.507 141.867 192.3L142.64 192.093L142.968 193.317C142.811 193.457 142.493 193.542 142.083 193.651ZM152.784 189.035C152.375 189.145 152.036 189.333 151.742 189.509L151.827 189.826C152.154 189.593 152.506 189.45 152.824 189.365C153.369 189.218 153.6 189.351 153.673 189.623C153.758 189.94 153.546 190.24 153.091 190.362L152.273 190.581L152.346 190.853L153.118 190.646C153.755 190.476 154.055 190.687 154.128 190.959C154.213 191.276 154.092 191.551 153.41 191.734C153.001 191.844 152.658 191.838 152.328 191.878L152.413 192.196C152.755 192.201 153.086 192.161 153.495 192.051C154.404 191.808 154.625 191.36 154.492 190.861C154.382 190.453 153.991 190.266 153.57 190.331C153.909 190.143 154.134 189.888 154.024 189.48C153.96 189.06 153.557 188.828 152.784 189.035ZM160.49 189.788L160.035 189.91L159.343 187.326L157.388 187.85C157.725 189.655 157.747 190.28 157.671 190.544L157.262 190.653L157.59 191.877L157.908 191.792L157.653 190.84L160.199 190.158L160.454 191.11L160.772 191.025L160.444 189.801L160.49 189.788ZM159.717 189.996L158.035 190.446C158.177 190.068 158.053 189.421 157.837 188.07L159.11 187.729L159.717 189.996V189.996ZM164.013 186.026C163.195 186.245 162.647 186.927 162.914 187.924C163.181 188.922 163.997 189.237 164.815 189.018C165.679 188.787 166.182 188.118 165.914 187.12C165.647 186.123 164.832 185.807 164.013 186.026ZM164.098 186.344C164.826 186.149 165.356 186.492 165.551 187.218C165.721 187.852 165.548 188.482 164.73 188.701C163.866 188.932 163.402 188.474 163.232 187.839C163.026 187.068 163.416 186.526 164.098 186.344ZM170.014 184.418C169.605 184.528 169.278 184.761 169.054 185.016L168.89 184.768L168.663 184.829L169.731 188.818L170.095 188.721L169.731 187.361C170.007 187.481 170.407 187.52 170.816 187.41C171.634 187.191 172.183 186.51 171.915 185.512C171.59 184.482 170.787 184.211 170.014 184.418ZM170.685 187.105C170.185 187.239 169.864 187.131 169.588 187.01L169.151 185.378C169.317 185.091 169.599 184.87 170.099 184.736C170.736 184.565 171.345 184.839 171.54 185.564C171.734 186.29 171.413 186.91 170.685 187.105ZM175.97 182.822C175.151 183.042 174.603 183.723 174.87 184.72C175.138 185.718 175.953 186.034 176.771 185.814C177.635 185.583 178.138 184.914 177.871 183.916C177.604 182.919 176.788 182.603 175.97 182.822ZM176.055 183.14C176.782 182.945 177.313 183.289 177.507 184.014C177.677 184.649 177.505 185.278 176.686 185.497C175.868 185.716 175.359 185.27 175.189 184.635C174.982 183.865 175.373 183.323 176.055 183.14ZM180.619 181.625L181.384 184.481L182.657 184.14C183.612 183.884 183.857 183.527 183.711 182.983C183.602 182.575 183.166 182.401 182.756 182.51C183.096 182.322 183.332 182.113 183.223 181.705C183.114 181.297 182.71 181.065 181.892 181.284L180.619 181.625ZM181.022 181.857L181.931 181.614C182.523 181.455 182.741 181.543 182.814 181.815C182.899 182.132 182.72 182.374 182.22 182.508L181.265 182.764L181.022 181.857ZM181.35 183.081L182.305 182.826C182.941 182.655 183.229 182.821 183.314 183.138C183.412 183.501 183.266 183.686 182.539 183.88L181.63 184.124L181.35 183.081ZM187.966 180.677C187.466 180.811 187.139 181.044 186.902 181.254L186.574 180.029L186.256 180.115L187.009 182.925C187.625 182.858 187.897 182.785 188.261 182.687C189.307 182.407 189.573 181.947 189.403 181.312C189.212 180.78 188.694 180.482 187.966 180.677ZM188.188 182.415C187.825 182.513 187.494 182.553 187.255 182.568L186.987 181.571C187.224 181.362 187.597 181.116 187.96 181.019C188.551 180.86 188.942 181.047 189.04 181.41C189.173 181.908 188.961 182.208 188.188 182.415ZM192.455 180.154L194.865 179.509L194.804 179.282C194.573 178.421 194.03 178.032 193.166 178.263C192.394 178.47 191.833 179.106 192.113 180.149C192.392 181.192 193.195 181.462 194.014 181.243C194.605 181.085 194.899 180.909 195.135 180.7L195.038 180.337C194.632 180.64 194.383 180.804 193.974 180.914C193.507 180.99 192.719 180.958 192.455 180.154ZM193.239 178.535C193.876 178.365 194.258 178.7 194.416 179.289L192.37 179.837C192.254 179.042 192.785 178.657 193.239 178.535Z" fill="white"/>
<path d="M72.5968 194.001C72.8761 195.044 72.2432 196.137 71.1975 196.417L63.6054 198.451L62.087 192.784L69.6791 190.75C70.7248 190.47 71.8193 191.1 72.0987 192.142L72.5968 194.001ZM76.4893 201.072L76.1249 199.712L72.7835 197.789C74.2411 196.864 74.8858 195.088 74.4607 193.502L73.9505 191.598C73.3917 189.512 71.1693 188.31 69.169 188.846L59.7129 191.38L63.2599 204.617L65.1693 204.106L64.1489 200.297L70.3772 198.629L75.1709 201.426L76.4893 201.072ZM87.8345 193.951C88.1139 194.994 87.4809 196.086 86.4353 196.367L80.7526 197.889C79.707 198.169 78.6124 197.54 78.333 196.497L76.8146 190.83C76.5352 189.787 77.1682 188.695 78.2138 188.414L83.8965 186.892C84.9422 186.612 86.0367 187.242 86.3161 188.284L87.8345 193.951V193.951ZM88.1922 187.83C87.6456 185.79 85.411 184.542 83.3652 185.091L77.7279 186.601C75.6367 187.161 74.404 189.29 74.9628 191.375L76.4812 197.042C77.0521 199.172 79.1837 200.399 81.2749 199.839L86.9576 198.316C89.0489 197.756 90.327 195.615 89.7561 193.485L88.2377 187.818L88.1922 187.83ZM98.998 193.243L102.494 183.561L105.13 193.398L107.04 192.886L103.493 179.649L101.583 180.161L98.087 189.843L90.2178 183.206L88.3084 183.718L91.8554 196.955L93.7648 196.443L91.1288 186.606L98.998 193.243ZM114.777 178.666C115.823 178.386 116.917 179.016 117.197 180.058L118.205 183.821L108.749 186.355L107.741 182.592C107.461 181.549 108.094 180.457 109.14 180.176L114.777 178.666ZM119.106 179.547C118.502 177.474 116.325 176.259 114.325 176.795L108.642 178.318C106.505 178.89 105.342 181.097 105.877 183.092L108.403 192.521L110.313 192.009L109.293 188.201L118.703 185.68L119.723 189.488L121.633 188.976L119.106 179.547ZM132.679 171.828L130.77 172.34L133.454 182.359L121.314 174.874L119.404 175.385L122.951 188.623L124.861 188.111L122.14 177.956L134.317 185.578L136.226 185.066L132.679 171.828ZM135.018 175.283L136.927 174.772L135.919 171.009L134.01 171.52L135.018 175.283ZM152.799 176.544C152.241 174.458 150.018 173.256 148.018 173.792L142.335 175.315C141.29 175.595 140.195 174.965 139.916 173.922C139.636 172.88 140.269 171.787 141.315 171.507L146.998 169.984C148.043 169.704 149.138 170.334 149.417 171.376L151.327 170.865C150.722 168.792 148.545 167.577 146.545 168.113L140.862 169.636C138.726 170.208 137.517 172.427 138.052 174.422C138.623 176.552 140.833 177.709 142.879 177.161L148.561 175.638C149.607 175.358 150.702 175.988 150.981 177.031C151.26 178.074 150.627 179.166 149.582 179.447L143.899 180.969C142.853 181.249 141.759 180.62 141.479 179.577L139.57 180.088C140.232 182.195 142.318 183.434 144.409 182.873L150.092 181.351C152.183 180.79 153.346 178.584 152.799 176.544ZM166.531 170.872L172.214 169.349L172.724 171.254C173.003 172.296 172.37 173.389 171.325 173.669L165.642 175.192C164.596 175.472 163.502 174.842 163.222 173.799L161.704 168.133C161.425 167.09 162.058 165.997 163.103 165.717L168.786 164.194C169.832 163.914 170.926 164.544 171.205 165.587L173.115 165.075C172.511 163.002 170.334 161.787 168.333 162.323L162.651 163.846C160.514 164.419 159.306 166.637 159.84 168.632L161.358 174.299C161.929 176.43 164.152 177.632 166.198 177.084L171.88 175.561C174.017 174.988 175.18 172.782 174.633 170.742L173.625 166.979L166.078 169.001L166.576 170.86L166.531 170.872ZM186.317 160.517L185.563 157.707L183.654 158.218L184.201 160.258L180.857 166.693L174.732 162.747L174.186 160.707L172.276 161.218L173.029 164.029L180.376 168.717L181.494 172.888L183.403 172.376L182.286 168.206L186.317 160.517ZM196.968 166.992L200.465 157.31L203.1 167.147L205.01 166.635L201.463 153.398L199.553 153.909L196.057 163.592L188.188 156.955L186.279 157.466L189.826 170.704L191.735 170.192L189.099 160.355L196.968 166.992Z" fill="white"/>
<path d="M119.531 149.308C120.248 151.983 118.649 154.743 115.966 155.462L96.5087 160.676L92.6095 146.123L112.067 140.91C114.749 140.191 117.515 141.782 118.231 144.457L119.531 149.308ZM129.594 167.407L128.671 163.962L120.088 159.022C123.769 156.578 125.501 152.13 124.395 148.004L123.096 143.154C121.65 137.759 115.859 134.695 110.767 136.059L86.4453 142.576L95.5436 176.531L100.408 175.228L97.8085 165.526L113.811 161.239L126.139 168.333L129.594 167.407Z" fill="white"/>
<path d="M154.7 145.083L156 149.934C156.716 152.609 155.117 155.37 152.435 156.088L137.842 159.999C135.16 160.717 132.394 159.126 131.678 156.451L127.778 141.899C127.062 139.224 128.661 136.464 131.343 135.745L145.936 131.835C148.619 131.116 151.384 132.707 152.1 135.382L156.965 134.079C155.383 128.72 149.819 125.595 144.637 126.984L130.043 130.894C124.588 132.356 121.541 138.08 122.914 143.202L126.813 157.755C128.283 163.24 133.959 166.238 139.142 164.849L153.735 160.939C159.19 159.477 162.237 153.754 160.864 148.631L158.265 138.929L138.807 144.143L154.7 145.083Z" fill="white"/>
<path fill-rule="evenodd" clip-rule="evenodd" d="M51.9763 176.69L110.992 143.627L110.067 153.447L51.9763 176.69Z" fill="#F5333F"/>
<path fill-rule="evenodd" clip-rule="evenodd" d="M110.067 153.447L149.719 155.407L110.993 143.627L110.067 153.447Z" fill="#C41230"/>
<path fill-rule="evenodd" clip-rule="evenodd" d="M149.719 155.407L193.976 126.542L141.552 152.931L149.719 155.407Z" fill="#F5333F"/>
<path d="M93.0832 147.891L88.2188 149.195L91.6443 161.979L96.5087 160.676L93.0832 147.891Z" fill="white"/>
<path d="M154.7 145.083L155.999 149.934C156.279 150.977 156.216 152.014 155.877 152.931L161.196 151.506C161.226 150.526 161.119 149.583 160.864 148.631L159.564 143.78L154.7 145.083Z" fill="white"/>
<path fill-rule="evenodd" clip-rule="evenodd" d="M128.672 163.962C126.581 164.522 111.638 172.219 111.638 172.219L129.595 167.407L128.672 163.962Z" fill="white"/>
<path d="M104.068 207.433L100.928 201.715L104.747 207.057L104.068 207.433Z" fill="white"/>
<path d="M146.934 189.388L150.075 195.106L146.256 189.764L146.934 189.388Z" fill="white"/>
</g>
<rect x="158.592" y="-49.7637" width="170.625" height="364.147" transform="rotate(60 158.592 -49.7637)" fill="url(#paint1_linear_238_14091)" fill-opacity="0.15"/>
</g>
<g filter="url(#filter0_f_238_14091)">
<rect x="48" y="266" width="246" height="3" rx="1.5" fill="url(#paint2_linear_238_14091)" fill-opacity="0.6"/>
</g>
<g filter="url(#filter1_f_238_14091)">
<rect x="168" y="253" width="246" height="10" rx="5" fill="url(#paint3_linear_238_14091)" fill-opacity="0.2"/>
</g>
<defs>
<filter id="filter0_f_238_14091" x="40" y="258" width="262" height="19" filterUnits="userSpaceOnUse" color-interpolation-filters="sRGB">
<feFlood flood-opacity="0" result="BackgroundImageFix"/>
<feBlend mode="normal" in="SourceGraphic" in2="BackgroundImageFix" result="shape"/>
<feGaussianBlur stdDeviation="4" result="effect1_foregroundBlur_238_14091"/>
</filter>
<filter id="filter1_f_238_14091" x="153" y="238" width="276" height="40" filterUnits="userSpaceOnUse" color-interpolation-filters="sRGB">
<feFlood flood-opacity="0" result="BackgroundImageFix"/>
<feBlend mode="normal" in="SourceGraphic" in2="BackgroundImageFix" result="shape"/>
<feGaussianBlur stdDeviation="7.5" result="effect1_foregroundBlur_238_14091"/>
</filter>
<linearGradient id="paint0_linear_238_14091" x1="397.775" y1="-104.355" x2="397.775" y2="152.596" gradientUnits="userSpaceOnUse">
<stop stop-color="white"/>
<stop offset="0.822917" stop-color="white" stop-opacity="0"/>
</linearGradient>
<linearGradient id="paint1_linear_238_14091" x1="243.904" y1="-49.7637" x2="243.904" y2="314.383" gradientUnits="userSpaceOnUse">
<stop offset="0.104167" stop-color="white"/>
<stop offset="0.678749" stop-color="white" stop-opacity="0"/>
</linearGradient>
<linearGradient id="paint2_linear_238_14091" x1="48" y1="269" x2="294" y2="269" gradientUnits="userSpaceOnUse">
<stop/>
<stop offset="1" stop-opacity="0.2"/>
</linearGradient>
<linearGradient id="paint3_linear_238_14091" x1="168" y1="263.002" x2="414" y2="263.002" gradientUnits="userSpaceOnUse">
<stop stop-opacity="0.5"/>
<stop offset="0.822917"/>
<stop offset="1" stop-opacity="0.3"/>
</linearGradient>
<clipPath id="clip0_238_14091">
<path d="M211.822 17.6593C213.251 12.3246 218.735 9.15877 224.069 10.5882L404.733 58.9969C410.068 60.4264 413.234 65.9097 411.804 71.2444L383.334 177.496C381.905 182.831 376.422 185.997 371.087 184.567L190.423 136.159C185.088 134.729 181.922 129.246 183.352 123.911L211.822 17.6593Z" fill="white"/>
</clipPath>
<clipPath id="clip1_238_14091">
<rect width="154.375" height="75.5625" fill="white" transform="translate(231.744 43.7673) rotate(15)"/>
</clipPath>
<clipPath id="clip2_238_14091">
<path d="M14.5882 137.61C13.1588 132.276 16.3246 126.792 21.6593 125.363L202.323 76.954C207.658 75.5246 213.141 78.6904 214.571 84.0251L243.041 190.277C244.47 195.612 241.304 201.095 235.97 202.524L55.3057 250.933C49.9711 252.363 44.4877 249.197 43.0583 243.862L14.5882 137.61Z" fill="white"/>
</clipPath>
<clipPath id="clip3_238_14091">
<rect width="154.375" height="75.5625" fill="white" transform="translate(44.8945 150.26) rotate(-15)"/>
</clipPath>
</defs>
</svg>
