<svg width="1440" height="420" viewBox="0 0 1440 420" fill="none" xmlns="http://www.w3.org/2000/svg">
<path fill-rule="evenodd" clip-rule="evenodd" d="M1175.63 34.8176L470 757.952L1064.24 1337.81L1737.08 286.304L1175.63 34.8176ZM1167.26 70.2431L513.829 739.889L1064.12 1276.85L1687.18 303.127L1167.26 70.2431Z" fill="#222226"/>
<path d="M540 747.952L1245.63 24.8177L1807.08 276.304L1134.24 1327.81L540 747.952Z" fill="url(#paint0_linear_337_5531)"/>
<path fill-rule="evenodd" clip-rule="evenodd" d="M570 587.5L533.5 640L564.895 635.763L574.001 599.5L1171.6 278.96L1294.34 537.329L1382 525.5L1196.96 217.526L570 587.5Z" fill="#1D1D21"/>
<path fill-rule="evenodd" clip-rule="evenodd" d="M597.541 440.429L246.721 757.644L260.09 761.482L1032.77 69.3658L1222.31 1037.71L1349.2 1074.14L1052.57 28.9883L656.05 387.524L290.245 127.388L290.473 132.383L597.541 440.429Z" fill="#3B3F45"/>
<path fill-rule="evenodd" clip-rule="evenodd" d="M956.7 315.14L932.681 675.747L945.78 671.369L979.091 267.106L465.038 251.94L536.946 302.755L956.7 315.14ZM458.398 300.438L407.766 250.25L51.3017 239.733L284.44 865.104L97.5381 289.791L458.398 300.438Z" fill="#C41230"/>
<defs>
<linearGradient id="paint0_linear_337_5531" x1="1232.92" y1="44.5" x2="1561.13" y2="890.33" gradientUnits="userSpaceOnUse">
<stop stop-color="#0A0A0A"/>
<stop offset="0.554697"/>
</linearGradient>
</defs>
</svg>
