<svg width="1440" height="420" viewBox="0 0 1440 420" fill="none" xmlns="http://www.w3.org/2000/svg">
<rect width="1440" height="420" fill="#1A1B1D"/>
<path fill-rule="evenodd" clip-rule="evenodd" d="M1175.63 34.8176L470 757.952L1064.24 1337.81L1737.08 286.304L1175.63 34.8176ZM1167.26 70.243L513.829 739.889L1064.11 1276.85L1687.18 303.127L1167.26 70.243Z" fill="#222226"/>
<path d="M540 747.952L1245.63 24.8177L1807.08 276.304L1134.24 1327.81L540 747.952Z" fill="url(#paint0_linear_308_5596)"/>
<path fill-rule="evenodd" clip-rule="evenodd" d="M615.287 103.489L101.945 991.568L831.73 1413.41L1230.65 210.445L615.287 103.489ZM615.921 140.438L140.55 962.827L816.354 1353.47L1185.76 239.483L615.921 140.438Z" fill="#2D2D34"/>
<path fill-rule="evenodd" clip-rule="evenodd" d="M471.287 146.489L-42.0547 1034.57L687.73 1456.41L1086.65 253.445L471.287 146.489ZM471.921 183.438L-3.45006 1005.83L672.354 1396.47L1041.76 282.483L471.921 183.438Z" fill="#C41230"/>
<path fill-rule="evenodd" clip-rule="evenodd" d="M328.52 201.79L-166.499 1100.21L571.784 1507L945.943 296.102L328.52 201.79ZM329.911 238.718L-128.492 1070.68L555.182 1447.38L901.664 326.055L329.911 238.718Z" fill="#4E4E54"/>
<defs>
<linearGradient id="paint0_linear_308_5596" x1="1232.92" y1="44.5" x2="1561.13" y2="890.33" gradientUnits="userSpaceOnUse">
<stop stop-color="#0A0A0A"/>
<stop offset="0.554697"/>
</linearGradient>
</defs>
</svg>
