<svg width="24" height="17" viewBox="0 0 24 17" fill="none" xmlns="http://www.w3.org/2000/svg">
<rect x="8" y="1" width="8" height="3" rx="1" fill="#C41230"/>
<rect x="4" y="3" width="16" height="12" rx="1" fill="black"/>
<path d="M10.779 5.5207C11.1029 5.1873 11.542 5 12 5C12.4579 5 12.8971 5.1873 13.221 5.5207C13.5448 5.8541 13.7267 6.30628 13.7267 6.77778C13.7267 7.24927 13.5448 7.70146 13.221 8.03486C12.8971 8.36825 12.4579 8.55556 12 8.55556C11.542 8.55556 11.1029 8.36825 10.779 8.03486C10.4552 7.70146 10.2733 7.24927 10.2733 6.77778C10.2733 6.30628 10.4552 5.8541 10.779 5.5207Z" fill="white"/>
<path d="M9.00591 10.6018C8.93684 9.93333 9.48421 9.44444 10.0575 9.44444H13.9425C14.5166 9.44444 15.0631 9.93333 14.9941 10.6018C14.9431 11.0987 14.7921 11.7164 14.3172 12.2071C13.8363 12.7031 13.093 13 12 13C10.907 13 10.1637 12.7031 9.68278 12.2071C9.2088 11.7164 9.05771 11.0996 9.00591 10.6018Z" fill="white"/>
</svg>
