<svg width="202" height="80" viewBox="0 0 202 80" fill="none" xmlns="http://www.w3.org/2000/svg">
<path d="M20.1847 64.8C20.1847 66.2154 19.0154 67.3846 17.6 67.3846H7.32313V59.6923H17.6C19.0154 59.6923 20.1847 60.8615 20.1847 62.2769V64.8ZM22.7077 75.0769V73.2307L19.1385 69.6615C21.2924 68.9846 22.7077 66.9538 22.7077 64.8V62.2154C22.7077 59.3846 20.3077 57.1077 17.6 57.1077H4.80005V75.0769H7.38466V69.9077H15.8154L20.9231 75.0769H22.7077ZM39.4462 69.9077C39.4462 71.3231 38.277 72.4923 36.8616 72.4923H29.1693C27.7539 72.4923 26.5847 71.3231 26.5847 69.9077V62.2154C26.5847 60.8 27.7539 59.6307 29.1693 59.6307H36.8616C38.277 59.6307 39.4462 60.8 39.4462 62.2154V69.9077V69.9077ZM41.9693 62.2769C41.9693 59.5077 39.5693 57.1692 36.8001 57.1692H29.1693C26.3385 57.1692 24.0616 59.4461 24.0616 62.2769V69.9692C24.0616 72.8615 26.3385 75.1384 29.1693 75.1384H36.8616C39.6924 75.1384 42.0308 72.8615 42.0308 69.9692V62.2769H41.9693ZM53.7847 72.8L61.477 61.7231V75.0769H64.0616V57.1077H61.477L53.7847 68.1846L46.0924 57.1077H43.5077V75.0769H46.0924V61.7231L53.7847 72.8ZM78.6462 59.6923C80.0616 59.6923 81.2308 60.8615 81.2308 62.2769V67.3846H68.4308V62.2769C68.4308 60.8615 69.6 59.6923 71.0154 59.6923H78.6462ZM83.8154 62.2769C83.7539 59.4461 81.4154 57.1692 78.7077 57.1692H71.0154C68.1231 57.1692 65.9077 59.5692 65.9077 62.2769V75.0769H68.4924V69.9077H81.2308V75.0769H83.8154V62.2769ZM103.569 57.1077H100.985V70.7077L88.1847 57.1077H85.6001V75.0769H88.1847V61.2923L100.985 75.0769H103.569V57.1077ZM105.354 62.2769H107.939V57.1692H105.354V62.2769ZM127.385 69.9077C127.385 67.0769 124.985 64.8 122.277 64.8H114.585C113.169 64.8 112 63.6307 112 62.2154C112 60.8 113.169 59.6307 114.585 59.6307H122.277C123.692 59.6307 124.862 60.8 124.862 62.2154H127.446C127.385 59.3846 125.046 57.1077 122.339 57.1077H114.646C111.754 57.1077 109.477 59.5077 109.477 62.2154C109.477 65.1077 111.877 67.323 114.646 67.323H122.339C123.754 67.323 124.923 68.4923 124.923 69.9077C124.923 71.3231 123.754 72.4923 122.339 72.4923H114.646C113.231 72.4923 112.062 71.3231 112.062 69.9077H109.477C109.6 72.8 111.815 75.0769 114.646 75.0769H122.339C125.169 75.0769 127.385 72.6769 127.385 69.9077ZM146.646 67.3846H154.339V69.9692C154.339 71.3846 153.169 72.5538 151.754 72.5538H144.062C142.646 72.5538 141.477 71.3846 141.477 69.9692V62.2769C141.477 60.8615 142.646 59.6923 144.062 59.6923H151.754C153.169 59.6923 154.339 60.8615 154.339 62.2769H156.923C156.862 59.4461 154.523 57.1692 151.815 57.1692H144.123C141.231 57.1692 138.954 59.5692 138.954 62.2769V69.9692C138.954 72.8615 141.354 75.1384 144.123 75.1384H151.815C154.708 75.1384 156.923 72.7384 156.923 69.9692V64.8615H146.708V67.3846H146.646ZM175.139 60.9846V57.1692H172.554V59.9384L166.154 66.9538L159.754 59.8769V57.1077H157.169V60.923L164.862 69.3538V75.0154H167.446V69.3538L175.139 60.9846ZM186.4 72.8L194.092 61.7231V75.0769H196.677V57.1077H194.092L186.4 68.1846L178.708 57.1077H176.123V75.0769H178.708V61.7231L186.4 72.8Z" fill="white"/>
<path fill-rule="evenodd" clip-rule="evenodd" d="M0 35.8769L85.7231 14.0308L81.2308 26.1538L0 35.8769Z" fill="#F5333F"/>
<path fill-rule="evenodd" clip-rule="evenodd" d="M91.7363 29.5423C90.6741 30.2769 89.3864 30.7076 88 30.7076H61.6615V10.9538H88C91.6308 10.9538 94.5846 13.9076 94.5846 17.5384V19.5661L107.508 27.6386V17.5384C107.508 13.9076 110.462 10.9538 114.092 10.9538H133.846C137.477 10.9538 140.431 13.9076 140.431 17.5384H147.015C146.831 10.2153 140.862 4.36914 133.846 4.36914H114.092C107.338 4.36914 101.922 9.56884 101.047 15.7774C100.141 9.30004 94.3298 4.36914 88 4.36914H55.0769V50.4614H61.6615V37.2922H83.3231L96.4923 50.4614H101.169V45.7845L92 36.6153C94.7413 35.6913 97.0355 33.9656 98.6434 31.7701L91.7363 29.5423ZM100.923 32.5054V37.2922C100.923 44.7384 107.077 50.4614 114.092 50.4614H133.846C141.231 50.4614 147.015 44.2461 147.015 37.2922V24.123H120.677L140.431 30.7076V37.2922C140.431 40.923 137.477 43.8768 133.846 43.8768H114.092C110.462 43.8768 107.508 40.923 107.508 37.2922V34.6292L100.923 32.5054Z" fill="white"/>
<path fill-rule="evenodd" clip-rule="evenodd" d="M130.646 42.0924L196.308 20.554L121.169 36.1847L130.646 42.0924Z" fill="#F5333F"/>
<path d="M61.6615 13.3538H55.0769V30.7076H61.6615V13.3538Z" fill="white"/>
<path d="M140.431 30.7078V37.2924C140.431 38.7078 140 40.0001 139.262 41.0462H146.462C146.831 39.8155 147.015 38.5847 147.015 37.2924V30.7078H140.431Z" fill="white"/>
<path fill-rule="evenodd" clip-rule="evenodd" d="M101.169 45.7847C98.3385 45.7847 76.8616 50.4616 76.8616 50.4616H101.169V45.7847Z" fill="white"/>
</svg>
