<svg width="18" height="13" viewBox="0 0 18 13" fill="none" xmlns="http://www.w3.org/2000/svg">
<path d="M13.1666 4.23333C13.4963 4.23333 13.8185 4.13558 14.0926 3.95244C14.3667 3.76931 14.5803 3.50901 14.7064 3.20447C14.8326 2.89992 14.8656 2.56481 14.8013 2.24151C14.737 1.91821 14.5782 1.62124 14.3451 1.38815C14.1121 1.15506 13.8151 0.996328 13.4918 0.932019C13.1685 0.86771 12.8334 0.900716 12.5288 1.02686C12.2243 1.15301 11.964 1.36663 11.7809 1.64071C11.5977 1.91479 11.5 2.23703 11.5 2.56666C11.5 3.00869 11.6756 3.43261 11.9881 3.74517C12.3007 4.05773 12.7246 4.23333 13.1666 4.23333ZM1.2583 8.1C1.42343 8.15278 1.58262 8.2226 1.7333 8.30833C2.25158 8.61151 2.8412 8.7713 3.44164 8.7713C4.04207 8.7713 4.63169 8.61151 5.14997 8.30833C5.47587 8.12585 5.84313 8.03003 6.21664 8.03003C6.59014 8.03003 6.9574 8.12585 7.2833 8.30833L7.4583 8.39166C7.96397 8.63784 8.52216 8.75666 9.08425 8.73778C9.64634 8.71889 10.1953 8.56288 10.6833 8.28333C11.0092 8.10085 11.3765 8.00503 11.75 8.00503C12.1235 8.00503 12.4907 8.10085 12.8166 8.28333C13.3448 8.58515 13.9417 8.74587 14.55 8.75C15.1369 8.7439 15.7119 8.58292 16.2166 8.28333C16.3673 8.1976 16.5265 8.12778 16.6916 8.075C16.8148 8.06652 16.9345 8.03078 17.0422 7.97036C17.1499 7.90994 17.2428 7.82635 17.3142 7.72564C17.3856 7.62493 17.4337 7.50961 17.4551 7.38802C17.4765 7.26643 17.4706 7.1416 17.4379 7.02257C17.4051 6.90353 17.3463 6.79326 17.2658 6.69972C17.1852 6.60619 17.0848 6.53172 16.9719 6.48172C16.8591 6.43171 16.7365 6.40741 16.6131 6.41057C16.4896 6.41373 16.3685 6.44427 16.2583 6.49999C15.9675 6.59024 15.688 6.71325 15.425 6.86666C15.1589 7.02026 14.8572 7.10112 14.55 7.10112C14.2428 7.10112 13.941 7.02026 13.675 6.86666C13.0977 6.541 12.4461 6.36988 11.7833 6.36988C11.1205 6.36988 10.4689 6.541 9.89164 6.86666C9.81324 6.90498 9.73252 6.93838 9.64997 6.96666L10.95 5.66666C10.9798 5.62806 11.0049 5.58611 11.025 5.54166C11.0627 5.50067 11.0962 5.456 11.125 5.40833C11.1289 5.35562 11.1289 5.3027 11.125 5.24999C11.1297 5.19732 11.1297 5.14433 11.125 5.09166C11.129 5.04174 11.129 4.99158 11.125 4.94166C11.1297 4.88899 11.1297 4.836 11.125 4.78333C11.1003 4.73434 11.0725 4.68702 11.0416 4.64166C11.02 4.59366 10.992 4.54881 10.9583 4.50833L8.39997 1.73333C8.33266 1.65995 8.25385 1.59803 8.16664 1.54999C8.10856 1.54231 8.04972 1.54231 7.99164 1.54999C7.94472 1.54237 7.89688 1.54237 7.84997 1.54999C7.73904 1.50536 7.61896 1.4882 7.49997 1.49999L4.54997 2.59999C4.34227 2.67521 4.17294 2.82982 4.07918 3.02983C3.98542 3.22985 3.97492 3.4589 4.04997 3.66666C4.12519 3.87436 4.27979 4.04369 4.47981 4.13745C4.67982 4.23121 4.90888 4.24171 5.11664 4.16666L7.5583 3.27499L9.22497 5.04166L7.64164 6.62499C7.11114 6.41877 6.54152 6.33274 5.97378 6.37308C5.40604 6.41343 4.85431 6.57916 4.3583 6.85833C4.09227 7.01192 3.79049 7.09278 3.4833 7.09278C3.17611 7.09278 2.87434 7.01192 2.6083 6.85833C2.34532 6.70492 2.06575 6.58191 1.77497 6.49166C1.66835 6.45188 1.5547 6.43436 1.44105 6.44018C1.32739 6.446 1.21613 6.47504 1.11413 6.5255C1.01213 6.57597 0.921542 6.64679 0.847959 6.73361C0.774376 6.82042 0.719355 6.92139 0.686287 7.03029C0.65322 7.13918 0.642807 7.25369 0.655691 7.36677C0.668575 7.47984 0.704483 7.58907 0.761201 7.68774C0.817918 7.7864 0.894244 7.8724 0.985471 7.94044C1.0767 8.00847 1.1809 8.0571 1.29164 8.08333L1.2583 8.1ZM16.2583 10.675C15.9675 10.7652 15.688 10.8883 15.425 11.0417C15.1589 11.1953 14.8572 11.2761 14.55 11.2761C14.2428 11.2761 13.941 11.1953 13.675 11.0417C13.0977 10.716 12.4461 10.5449 11.7833 10.5449C11.1205 10.5449 10.4689 10.716 9.89164 11.0417C9.62335 11.1975 9.31859 11.2796 9.0083 11.2796C8.69802 11.2796 8.39326 11.1975 8.12497 11.0417C7.54769 10.716 6.89611 10.5449 6.2333 10.5449C5.5705 10.5449 4.91892 10.716 4.34164 11.0417C4.0756 11.1953 3.77383 11.2761 3.46664 11.2761C3.15945 11.2761 2.85767 11.1953 2.59164 11.0417C2.32865 10.8883 2.04908 10.7652 1.7583 10.675C1.65168 10.6352 1.53804 10.6177 1.42438 10.6235C1.31073 10.6293 1.19947 10.6584 1.09746 10.7088C0.995461 10.7593 0.904875 10.8301 0.831292 10.9169C0.757709 11.0038 0.702688 11.1047 0.669621 11.2136C0.636553 11.3225 0.626141 11.437 0.639025 11.5501C0.651909 11.6632 0.687816 11.7724 0.744534 11.8711C0.801252 11.9697 0.877577 12.0557 0.968805 12.1238C1.06003 12.1918 1.16423 12.2404 1.27497 12.2667C1.4401 12.3194 1.59929 12.3893 1.74997 12.475C2.26824 12.7782 2.85787 12.938 3.4583 12.938C4.05874 12.938 4.64836 12.7782 5.16664 12.475C5.49253 12.2925 5.8598 12.1967 6.2333 12.1967C6.60681 12.1967 6.97407 12.2925 7.29997 12.475C7.82272 12.7739 8.41446 12.9311 9.01664 12.9311C9.61881 12.9311 10.2106 12.7739 10.7333 12.475C11.0592 12.2925 11.4265 12.1967 11.8 12.1967C12.1735 12.1967 12.5407 12.2925 12.8666 12.475C13.3948 12.7768 13.9917 12.9375 14.6 12.9417C15.1869 12.9356 15.7619 12.7746 16.2666 12.475C16.4173 12.3893 16.5765 12.3194 16.7416 12.2667C16.8467 12.2349 16.9445 12.1828 17.0294 12.1133C17.1143 12.0438 17.1847 11.9582 17.2365 11.8615C17.2884 11.7647 17.3207 11.6587 17.3316 11.5495C17.3424 11.4403 17.3317 11.3301 17.3 11.225C17.2682 11.1199 17.2161 11.0222 17.1466 10.9372C17.0771 10.8523 16.9915 10.7819 16.8948 10.7301C16.798 10.6782 16.6921 10.646 16.5828 10.6351C16.4736 10.6242 16.3634 10.6349 16.2583 10.6667V10.675Z" fill="black"/>
</svg>
