<svg width="64" height="65" viewBox="0 0 64 65" fill="none" xmlns="http://www.w3.org/2000/svg">
<g clip-path="url(#clip0_238_9276)">
<path d="M57.3333 38.3318V43.6652C57.3333 44.0188 57.1929 44.3579 56.9428 44.608C56.6928 44.858 56.3536 44.9985 56 44.9985H52V18.3318H56C56.3536 18.3318 56.6928 18.4723 56.9428 18.7224C57.1929 18.9724 57.3333 19.3116 57.3333 19.6652V38.3318Z" fill="#1A1B1D"/>
<path d="M52 18.3319V48.9985C52 49.3522 51.8595 49.6913 51.6095 49.9413C51.3594 50.1914 51.0203 50.3319 50.6667 50.3319H45.3333L44 48.9985V14.3319L45.3333 12.9985H50.6667C51.0203 12.9985 51.3594 13.139 51.6095 13.3891C51.8595 13.6391 52 13.9782 52 14.3319V18.3319Z" fill="#E0282E"/>
<path d="M20 35.6652V48.9985L18.6667 50.3319H13.3333C12.9797 50.3319 12.6406 50.1914 12.3905 49.9413C12.1405 49.6913 12 49.3522 12 48.9985V14.3319C12 13.9782 12.1405 13.6391 12.3905 13.3891C12.6406 13.139 12.9797 12.9985 13.3333 12.9985H18.6667L20 14.3319V35.6652Z" fill="#E0282E"/>
<path d="M12.0003 34.3318V44.9985H8.00033C7.6467 44.9985 7.30757 44.858 7.05752 44.608C6.80747 44.3579 6.66699 44.0188 6.66699 43.6652V19.6652C6.66699 19.3116 6.80747 18.9724 7.05752 18.7224C7.30757 18.4723 7.6467 18.3318 8.00033 18.3318H12.0003V34.3318Z" fill="#1A1B1D"/>
<path d="M44 27.6652H20V35.6652H44V27.6652Z" fill="#636978"/>
<path d="M61.333 24.9985C61.6866 24.9985 62.0258 25.139 62.2758 25.3891C62.5259 25.6391 62.6663 25.9782 62.6663 26.3319V36.9985C62.6663 37.3522 62.5259 37.6913 62.2758 37.9413C62.0258 38.1914 61.6866 38.3319 61.333 38.3319H57.333V24.9985H61.333Z" fill="#B82126"/>
<path d="M6.66634 24.9985V38.3319H2.66634C2.31272 38.3319 1.97358 38.1914 1.72353 37.9413C1.47348 37.6913 1.33301 37.3522 1.33301 36.9985V26.3319C1.33301 25.9782 1.47348 25.6391 1.72353 25.3891C1.97358 25.139 2.31272 24.9985 2.66634 24.9985H6.66634Z" fill="#B82126"/>
<path d="M0 26.3319V36.9985C0 37.7058 0.280952 38.384 0.781049 38.8841C1.28115 39.3842 1.95942 39.6652 2.66667 39.6652H4V36.9985H2.66667V26.3319H4V23.6652H2.66667C1.95942 23.6652 1.28115 23.9461 0.781049 24.4462C0.280952 24.9463 0 25.6246 0 26.3319H0Z" fill="white"/>
<path d="M61.3333 23.6652H60V26.3319H61.3333V36.9985H60V39.6652H61.3333C62.0406 39.6652 62.7189 39.3842 63.219 38.8841C63.7191 38.384 64 37.7058 64 36.9985V26.3319C64 25.6246 63.7191 24.9463 63.219 24.4462C62.7189 23.9461 62.0406 23.6652 61.3333 23.6652Z" fill="white"/>
<path d="M55.9997 16.9985H53.333V14.3319C53.333 13.6246 53.0521 12.9463 52.552 12.4462C52.0519 11.9461 51.3736 11.6652 50.6663 11.6652H45.333C44.9794 11.6653 44.6403 11.8058 44.3903 12.0559L43.057 13.3892C42.8069 13.6392 42.6664 13.9783 42.6663 14.3319V26.3319H21.333V14.3319C21.3329 13.9783 21.1924 13.6392 20.9423 13.3892L19.609 12.0559C19.359 11.8058 19.0199 11.6653 18.6663 11.6652H13.333C12.6258 11.6652 11.9475 11.9461 11.4474 12.4462C10.9473 12.9463 10.6663 13.6246 10.6663 14.3319V16.9985H7.99967C7.29243 16.9985 6.61415 17.2795 6.11406 17.7796C5.61396 18.2797 5.33301 18.9579 5.33301 19.6652V43.6652C5.33301 44.3724 5.61396 45.0507 6.11406 45.5508C6.61415 46.0509 7.29243 46.3319 7.99967 46.3319H10.6663V48.9985C10.6663 49.7058 10.9473 50.384 11.4474 50.8841C11.9475 51.3842 12.6258 51.6652 13.333 51.6652H18.6663C19.0199 51.6651 19.359 51.5246 19.609 51.2745L20.9423 49.9412C21.1924 49.6912 21.3329 49.3521 21.333 48.9985V36.9985H42.6663V48.9985C42.6664 49.3521 42.8069 49.6912 43.057 49.9412L44.3903 51.2745C44.6403 51.5246 44.9794 51.6651 45.333 51.6652H50.6663C51.3736 51.6652 52.0519 51.3842 52.552 50.8841C53.0521 50.384 53.333 49.7058 53.333 48.9985V46.3319H55.9997C56.7069 46.3319 57.3852 46.0509 57.8853 45.5508C58.3854 45.0507 58.6663 44.3724 58.6663 43.6652V19.6652C58.6663 18.9579 58.3854 18.2797 57.8853 17.7796C57.3852 17.2795 56.7069 16.9985 55.9997 16.9985ZM18.6663 48.4465L18.1143 48.9985H13.333V44.9985C13.333 44.6449 13.1925 44.3058 12.9425 44.0557C12.6924 43.8057 12.3533 43.6652 11.9997 43.6652H7.99967V19.6652H10.6663V34.3319H13.333V14.3319H18.1143L18.6663 14.8839V48.4465ZM21.333 28.9985H42.6663V34.3319H21.333V28.9985ZM55.9997 43.6652H53.333V28.9985H50.6663V48.9985H45.885L45.333 48.4465V14.8839L45.885 14.3319H50.6663V18.3319C50.6663 18.6855 50.8068 19.0246 51.0569 19.2747C51.3069 19.5247 51.6461 19.6652 51.9997 19.6652H55.9997V43.6652Z" fill="white"/>
<path d="M53.3337 23.6652H50.667V26.3319H53.3337V23.6652Z" fill="white"/>
<path d="M13.3337 36.9985H10.667V39.6652H13.3337V36.9985Z" fill="white"/>
</g>
<defs>
<clipPath id="clip0_238_9276">
<rect width="64" height="64" fill="white" transform="translate(0 0.998535)"/>
</clipPath>
</defs>
</svg>
