<svg width="65" height="65" viewBox="0 0 65 65" fill="none" xmlns="http://www.w3.org/2000/svg">
<g clip-path="url(#clip0_238_9263)">
<path d="M24.4997 30.9185V30.3319H40.4997V34.3319L40.4197 36.4119C41.9968 36.5277 43.4789 37.2096 44.593 38.3319C45.8432 39.5817 47.5386 40.2838 49.3063 40.2838C51.0741 40.2838 52.7695 39.5817 54.0197 38.3319C55.2232 37.1289 56.8416 36.4324 58.5426 36.3853C60.2436 36.3381 61.8981 36.944 63.1663 38.0785V55.6652H1.83301V29.2519C3.10127 30.3864 4.75576 30.9923 6.45675 30.9452C8.15774 30.898 9.77615 30.2015 10.9797 28.9985C12.2299 27.7487 13.9252 27.0466 15.693 27.0466C17.4608 27.0466 19.1562 27.7487 20.4063 28.9985C21.502 30.1007 22.9517 30.7807 24.4997 30.9185Z" fill="#B82126"/>
<path d="M40.4999 29.9719V24.9985H63.1666V38.0785C61.8983 36.944 60.2438 36.3381 58.5429 36.3853C56.8419 36.4324 55.2234 37.1289 54.0199 38.3319C52.7697 39.5817 51.0744 40.2838 49.3066 40.2838C47.5388 40.2838 45.8434 39.5817 44.5933 38.3319C43.4792 37.2096 41.997 36.5277 40.4199 36.4119L40.4999 34.3319V29.9719Z" fill="#E0282E"/>
<path d="M63.1667 19.6652V24.9985H40.5V19.6652H59.1667H63.1667Z" fill="#1A1B1D"/>
<path d="M40.5 29.9719V30.3319H24.5V24.9985H40.5V29.9719Z" fill="#E0282E"/>
<path d="M40.5 19.6652V24.9985H24.5V19.6652H33.8333H36.5H40.5Z" fill="#1A1B1D"/>
<path d="M24.4997 30.3319V30.9185C22.9517 30.7806 21.502 30.1007 20.4063 28.9985C19.1562 27.7487 17.4608 27.0466 15.693 27.0466C13.9252 27.0466 12.2299 27.7487 10.9797 28.9985C9.77615 30.2015 8.15774 30.898 6.45675 30.9452C4.75576 30.9923 3.10127 30.3864 1.83301 29.2519V24.9985H24.4997V30.3319Z" fill="#E0282E"/>
<path d="M24.4997 19.6652V24.9985H1.83301V19.6652H5.83301H24.4997Z" fill="#1A1B1D"/>
<path d="M7.83367 37.3892L5.94434 39.2745C7.44577 40.772 9.47978 41.613 11.6003 41.613C13.7209 41.613 15.7549 40.772 17.2563 39.2745L15.371 37.3892C14.371 38.3878 13.0156 38.9487 11.6023 38.9487C10.1891 38.9487 8.83365 38.3878 7.83367 37.3892Z" fill="white"/>
<path d="M57.1668 48.6079L59.0521 46.7225C57.5509 45.2247 55.5168 44.3835 53.3961 44.3835C51.2755 44.3835 49.2414 45.2247 47.7401 46.7225C46.74 47.7224 45.3837 48.2841 43.9695 48.2841C42.5553 48.2841 41.199 47.7224 40.1988 46.7225L38.3135 48.6079C39.8137 50.1076 41.8482 50.9502 43.9695 50.9502C46.0908 50.9502 48.1253 50.1076 49.6255 48.6079C50.6256 47.608 51.9819 47.0463 53.3961 47.0463C54.8104 47.0463 56.1667 47.608 57.1668 48.6079Z" fill="white"/>
<path d="M19.464 29.9425C20.4875 30.9592 21.7669 31.6802 23.1667 32.0292V34.3319H25.8333V31.6652H39.1667V34.3319H41.8333V31.9959C43.1977 32.3801 44.6401 32.3921 46.0107 32.0308C47.3813 31.6695 48.6303 30.948 49.628 29.9412C50.6282 28.9413 51.9845 28.3797 53.3987 28.3797C54.8129 28.3797 56.1692 28.9413 57.1693 29.9412L59.0547 28.0559C57.5534 26.558 55.5193 25.7169 53.3987 25.7169C51.278 25.7169 49.2439 26.558 47.7427 28.0559C46.986 28.8177 46.0151 29.331 44.9594 29.5273C43.9037 29.7235 42.8133 29.5935 41.8333 29.1545V20.9985H59.1667V18.3319H41.8333V14.3319C41.8333 13.271 42.2548 12.2536 43.0049 11.5034C43.7551 10.7533 44.7725 10.3319 45.8333 10.3319C46.8942 10.3319 47.9116 10.7533 48.6618 11.5034C49.4119 12.2536 49.8333 13.271 49.8333 14.3319H52.5C52.5 12.5637 51.7976 10.8681 50.5474 9.61781C49.2971 8.36757 47.6014 7.66519 45.8333 7.66519C44.0652 7.66519 42.3695 8.36757 41.1193 9.61781C39.869 10.8681 39.1667 12.5637 39.1667 14.3319V18.3319H36.5V20.9985H39.1667V23.6652H25.8333V20.9985H33.8333V18.3319H25.8333V14.3319C25.8333 13.271 26.2548 12.2536 27.0049 11.5034C27.7551 10.7533 28.7725 10.3319 29.8333 10.3319C30.8942 10.3319 31.9116 10.7533 32.6618 11.5034C33.4119 12.2536 33.8333 13.271 33.8333 14.3319H36.5C36.5 12.5637 35.7976 10.8681 34.5474 9.61781C33.2971 8.36757 31.6014 7.66519 29.8333 7.66519C28.0652 7.66519 26.3695 8.36757 25.1193 9.61781C23.869 10.8681 23.1667 12.5637 23.1667 14.3319V18.3319H5.83333V20.9985H23.1667V29.2319C22.486 28.9694 21.8671 28.5685 21.3493 28.0545C19.8492 26.5552 17.815 25.7129 15.694 25.7129C13.573 25.7129 11.5388 26.5552 10.0387 28.0545C9.14372 28.9464 7.95985 29.4896 6.70008 29.5864C5.44031 29.6832 4.18736 29.3272 3.16667 28.5825V18.3319H0.5V55.6652C0.5 56.0188 0.640476 56.358 0.890524 56.608C1.14057 56.858 1.47971 56.9985 1.83333 56.9985H63.1667C63.5203 56.9985 63.8594 56.858 64.1095 56.608C64.3595 56.358 64.5 56.0188 64.5 55.6652V18.3319H61.8333V35.7052C60.3723 35.0807 58.758 34.9074 57.1977 35.2075C55.6374 35.5076 54.2025 36.2673 53.0773 37.3892C52.0772 38.389 50.7209 38.9507 49.3067 38.9507C47.8925 38.9507 46.5361 38.389 45.536 37.3892C44.0329 35.8949 41.9995 35.0562 39.88 35.0562C37.7605 35.0562 35.7271 35.8949 34.224 37.3892C33.2239 38.389 31.8675 38.9507 30.4533 38.9507C29.0391 38.9507 27.6828 38.389 26.6827 37.3892L24.7973 39.2745C26.2988 40.772 28.3328 41.613 30.4533 41.613C32.5739 41.613 34.6079 40.772 36.1093 39.2745C37.1125 38.2825 38.4665 37.726 39.8773 37.726C41.2882 37.726 42.6422 38.2825 43.6453 39.2745C45.1456 40.7743 47.18 41.6168 49.3013 41.6168C51.4226 41.6168 53.4571 40.7743 54.9573 39.2745C55.8525 38.3816 57.0373 37.8378 58.2981 37.7412C59.5588 37.6446 60.8126 38.0016 61.8333 38.7479V54.3319H3.16667V50.2999C4.62684 50.9321 6.24386 51.1089 7.80614 50.807C9.36841 50.5051 10.8032 49.7386 11.9227 48.6079C12.9228 47.608 14.2791 47.0463 15.6933 47.0463C17.1075 47.0463 18.4639 47.608 19.464 48.6079C20.9654 50.1053 22.9994 50.9463 25.12 50.9463C27.2406 50.9463 29.2746 50.1053 30.776 48.6079L28.8907 46.7225C27.8905 47.7224 26.5342 48.284 25.12 48.284C23.7058 48.284 22.3495 47.7224 21.3493 46.7225C19.8491 45.2228 17.8146 44.3802 15.6933 44.3802C13.572 44.3802 11.5376 45.2228 10.0373 46.7225C9.14314 47.6149 7.95987 48.1588 6.70038 48.2566C5.4409 48.3544 4.18786 47.9995 3.16667 47.2559V31.6332C4.62684 32.2654 6.24386 32.4422 7.80614 32.1403C9.36841 31.8384 10.8032 31.0719 11.9227 29.9412C12.9228 28.9413 14.2791 28.3797 15.6933 28.3797C17.1075 28.3797 18.4639 28.9427 19.464 29.9425ZM39.1667 28.9985H25.8333V26.3319H39.1667V28.9985Z" fill="white"/>
</g>
<defs>
<clipPath id="clip0_238_9263">
<rect width="64" height="64" fill="white" transform="translate(0.5 0.998535)"/>
</clipPath>
</defs>
</svg>
