<svg width="64" height="64" viewBox="0 0 64 64" fill="none" xmlns="http://www.w3.org/2000/svg">
<g clip-path="url(#clip0_298_6178)">
<path d="M5 35C3.67441 34.9984 2.40356 34.4711 1.46622 33.5338C0.528882 32.5964 0.00158786 31.3256 0 30L0 20C0.00158786 18.6744 0.528882 17.4036 1.46622 16.4662C2.40356 15.5289 3.67441 15.0016 5 15H22V17H5C4.20435 17 3.44129 17.3161 2.87868 17.8787C2.31607 18.4413 2 19.2044 2 20V30C2 30.7956 2.31607 31.5587 2.87868 32.1213C3.44129 32.6839 4.20435 33 5 33V35Z" fill="white"/>
<path d="M59 35V33C59.7956 33 60.5587 32.6839 61.1213 32.1213C61.6839 31.5587 62 30.7956 62 30V20C62 19.2044 61.6839 18.4413 61.1213 17.8787C60.5587 17.3161 59.7956 17 59 17H50V15H59C60.3256 15.0016 61.5964 15.5289 62.5338 16.4662C63.4711 17.4036 63.9984 18.6744 64 20V30C63.9984 31.3256 63.4711 32.5964 62.5338 33.5338C61.5964 34.4711 60.3256 34.9984 59 35Z" fill="white"/>
<path d="M59 53H5C3.67441 52.9984 2.40356 52.4711 1.46622 51.5338C0.528882 50.5964 0.00158786 49.3256 0 48L0 38C0.00158786 36.6744 0.528882 35.4036 1.46622 34.4662C2.40356 33.5289 3.67441 33.0016 5 33H22V35H5C4.20435 35 3.44129 35.3161 2.87868 35.8787C2.31607 36.4413 2 37.2044 2 38V48C2 48.7956 2.31607 49.5587 2.87868 50.1213C3.44129 50.6839 4.20435 51 5 51H59C59.7957 51 60.5587 50.6839 61.1213 50.1213C61.6839 49.5587 62 48.7956 62 48V38C62 37.2044 61.6839 36.4413 61.1213 35.8787C60.5587 35.3161 59.7957 35 59 35H50V33H59C60.3256 33.0016 61.5964 33.5289 62.5338 34.4662C63.4711 35.4036 63.9984 36.6744 64 38V48C63.9984 49.3256 63.4711 50.5964 62.5338 51.5338C61.5964 52.4711 60.3256 52.9984 59 53Z" fill="white"/>
<path d="M50 45H22C21.7348 45 21.4804 44.8946 21.2929 44.7071C21.1054 44.5196 21 44.2652 21 44V15C21 13.9391 21.4214 12.9217 22.1716 12.1716C22.9217 11.4214 23.9391 11 25 11H53C54.0609 11 55.0783 11.4214 55.8284 12.1716C56.5786 12.9217 57 13.9391 57 15V16H55V15C55 14.4696 54.7893 13.9609 54.4142 13.5858C54.0391 13.2107 53.5304 13 53 13C52.4696 13 51.9609 13.2107 51.5858 13.5858C51.2107 13.9609 51 14.4696 51 15V44C51 44.2652 50.8946 44.5196 50.7071 44.7071C50.5196 44.8946 50.2652 45 50 45ZM23 43H49V15C48.9989 14.2976 49.1842 13.6074 49.537 13H25C24.4696 13 23.9609 13.2107 23.5858 13.5858C23.2107 13.9609 23 14.4696 23 15V43Z" fill="white"/>
<path d="M50 36H22V38H50V36Z" fill="white"/>
<path d="M25 44H23V48H25V44Z" fill="white"/>
<path d="M29 44H27V48H29V44Z" fill="white"/>
<path d="M33 44H31V48H33V44Z" fill="white"/>
<path d="M37 44H35V48H37V44Z" fill="white"/>
<path d="M41 44H39V48H41V44Z" fill="white"/>
<path d="M45 44H43V48H45V44Z" fill="white"/>
<path d="M49 44H47V48H49V44Z" fill="white"/>
<path d="M22 26H7C6.20435 26 5.44129 25.6839 4.87868 25.1213C4.31607 24.5587 4 23.7956 4 23C4 22.2044 4.31607 21.4413 4.87868 20.8787C5.44129 20.3161 6.20435 20 7 20H16V22H7C6.73478 22 6.48043 22.1054 6.29289 22.2929C6.10536 22.4804 6 22.7348 6 23C6 23.2652 6.10536 23.5196 6.29289 23.7071C6.48043 23.8946 6.73478 24 7 24H22V26Z" fill="white"/>
<path d="M57 30H53V28H57C57.2652 28 57.5196 27.8946 57.7071 27.7071C57.8946 27.5196 58 27.2652 58 27C58 26.7348 57.8946 26.4804 57.7071 26.2929C57.5196 26.1054 57.2652 26 57 26H50V24H57C57.7956 24 58.5587 24.3161 59.1213 24.8787C59.6839 25.4413 60 26.2044 60 27C60 27.7956 59.6839 28.5587 59.1213 29.1213C58.5587 29.6839 57.7956 30 57 30Z" fill="white"/>
<path d="M22 44H7C6.20435 44 5.44129 43.6839 4.87868 43.1213C4.31607 42.5587 4 41.7956 4 41C4 40.2044 4.31607 39.4413 4.87868 38.8787C5.44129 38.3161 6.20435 38 7 38H16V40H7C6.73478 40 6.48043 40.1054 6.29289 40.2929C6.10536 40.4804 6 40.7348 6 41C6 41.2652 6.10536 41.5196 6.29289 41.7071C6.48043 41.8946 6.73478 42 7 42H22V44Z" fill="white"/>
<path d="M57 48H53V46H57C57.2652 46 57.5196 45.8946 57.7071 45.7071C57.8946 45.5196 58 45.2652 58 45C58 44.7348 57.8946 44.4804 57.7071 44.2929C57.5196 44.1054 57.2652 44 57 44H50V42H57C57.7956 42 58.5587 42.3161 59.1213 42.8787C59.6839 43.4413 60 44.2044 60 45C60 45.7956 59.6839 46.5587 59.1213 47.1213C58.5587 47.6839 57.7956 48 57 48Z" fill="white"/>
<path d="M45.023 33.048C38.299 33.048 33.11 31.348 29.578 27.979C26.8319 25.3606 25.1936 21.7894 25 18H26H27C27.2123 21.251 28.6339 24.3047 30.985 26.56C34.453 29.848 39.823 31.35 46.953 31.004L47.047 33.004C46.3577 33.0333 45.683 33.048 45.023 33.048Z" fill="white"/>
<path d="M46 27C34.44 27 31.2 18.7 31.063 18.351L32.935 17.651C33.05 17.946 35.872 25 46 25V27Z" fill="white"/>
</g>
<defs>
<clipPath id="clip0_298_6178">
<rect width="64" height="64" fill="white"/>
</clipPath>
</defs>
</svg>
