<svg width="64" height="64" viewBox="0 0 64 64" fill="none" xmlns="http://www.w3.org/2000/svg">
<path d="M41.631 38.776L40.369 37.224L40.799 36.874L45.369 33.225L46.631 34.775L46.361 34.995L41.631 38.776Z" fill="white"/>
<path d="M22.369 38.776L17.369 34.775L18.631 33.225L18.901 33.444L23.631 37.224L22.369 38.776Z" fill="white"/>
<path d="M32 25C31.7348 24.9999 31.4805 24.8945 31.293 24.707L29.293 22.707L30.707 21.293L32 22.586L33.293 21.293L34.707 22.707L32.707 24.707C32.5195 24.8945 32.2652 24.9999 32 25Z" fill="white"/>
<path d="M32 20.0001C31.2113 20.0028 30.4298 19.8495 29.7006 19.549C28.9714 19.2484 28.3089 18.8066 27.7512 18.2489C27.1935 17.6912 26.7516 17.0286 26.4511 16.2994C26.1505 15.5702 25.9972 14.7888 26 14.0001V10.0001C26.0016 8.40924 26.6342 6.88404 27.7591 5.75916C28.884 4.63429 30.4092 4.00164 32 4.00005C32.5088 3.99787 33.0154 4.06516 33.506 4.20005L32.975 6.12805C32.6573 6.04161 32.3293 5.99855 32 6.00005C30.9391 6.00005 29.9217 6.42148 29.1716 7.17162C28.4214 7.92177 28 8.93919 28 10.0001V14.0001C28.0027 14.7797 28.2313 15.5418 28.6581 16.1942C29.0849 16.8466 29.6917 17.3613 30.405 17.6761C30.9119 17.8883 31.4561 17.997 32.0056 17.996C32.5551 17.995 33.0989 17.8841 33.605 17.6701C34.316 17.3549 34.9204 16.8406 35.3454 16.1894C35.7704 15.5381 35.9978 14.7777 36 14.0001V10.0001C36.0051 9.13375 35.7238 8.29004 35.2 7.60005L36.8 6.40005C37.5851 7.43538 38.0069 8.70072 38 10.0001V14.0001C38.0026 14.7887 37.8493 15.5701 37.5487 16.2993C37.2481 17.0284 36.8062 17.6909 36.2485 18.2486C35.6909 18.8063 35.0284 19.2481 34.2992 19.5487C33.5701 19.8493 32.7887 20.0027 32 20.0001Z" fill="white"/>
<path d="M39 10C38.8025 9.99969 38.6095 9.94126 38.445 9.832L35.445 7.832C35.3483 7.76728 35.2634 7.68644 35.194 7.593C35.085 7.44175 34.9643 7.29931 34.833 7.167C34.3249 6.66474 33.6922 6.30682 33 6.13C32.8527 6.09312 32.7157 6.02316 32.5994 5.92544C32.4831 5.82771 32.3907 5.70479 32.329 5.566C32.1101 5.07306 31.9979 4.53937 32 4C32 2.93913 32.4214 1.92172 33.1716 1.17157C33.9217 0.421427 34.9391 0 36 0C37.0609 0 38.0783 0.421427 38.8284 1.17157C39.5786 1.92172 40 2.93913 40 4V9C40 9.26522 39.8946 9.51957 39.7071 9.70711C39.5196 9.89464 39.2652 10 39 10ZM36.7 6.262L38 7.132V4C38 3.46957 37.7893 2.96086 37.4142 2.58579C37.0391 2.21071 36.5304 2 36 2C35.4696 2 34.9609 2.21071 34.5858 2.58579C34.2107 2.96086 34 3.46957 34 4C33.9999 4.11939 34.0106 4.23854 34.032 4.356C34.861 4.65355 35.6152 5.12824 36.242 5.747C36.4052 5.90901 36.5582 6.08101 36.7 6.262Z" fill="white"/>
<path d="M38 39H26C25.7348 39 25.4804 38.8946 25.2929 38.7071C25.1054 38.5196 25 38.2652 25 38C24.9025 37.1693 24.6447 36.3655 24.241 35.633C24.11 35.342 23.976 35.043 23.847 34.733C23.3156 33.5586 23.0274 32.2888 23 31V30H25V31C25.0311 32.0254 25.2671 33.0342 25.694 33.967C25.814 34.255 25.941 34.537 26.065 34.812C26.4097 35.5123 26.6838 36.2453 26.883 37H37.117C37.3162 36.2453 37.5903 35.5123 37.935 34.812C38.059 34.537 38.186 34.255 38.307 33.964C38.7335 33.0321 38.9691 32.0243 39 31V30H41V31C40.973 32.2884 40.6852 33.5579 40.154 34.732C40.024 35.043 39.89 35.342 39.754 35.632C39.3519 36.3651 39.0958 37.1693 39 38C39 38.2652 38.8946 38.5196 38.7071 38.7071C38.5196 38.8946 38.2652 39 38 39Z" fill="white"/>
<path d="M27 46H25C25.0265 44.5857 25.2008 43.1781 25.52 41.8C25.8112 40.5534 25.9721 39.2799 26 38H28C27.9735 39.4143 27.7992 40.8219 27.48 42.2C27.1888 43.4466 27.0279 44.7201 27 46Z" fill="white"/>
<path d="M39 46H37C36.9721 44.7201 36.8112 43.4466 36.52 42.2C36.2008 40.8219 36.0265 39.4143 36 38H38C38.0279 39.2799 38.1888 40.5534 38.48 41.8C38.7992 43.1781 38.9735 44.5857 39 46Z" fill="white"/>
<path d="M39.02 51.2L38.18 47H25.82L24.98 51.2L23.02 50.8L24.02 45.8C24.0661 45.5741 24.1888 45.3711 24.3674 45.2253C24.546 45.0796 24.7695 45 25 45H39C39.2305 45 39.454 45.0796 39.6326 45.2253C39.8112 45.3711 39.9339 45.5741 39.98 45.8L40.98 50.8L39.02 51.2Z" fill="white"/>
<path d="M28 60V58C28.7957 58 29.5587 57.6839 30.1213 57.1213C30.6839 56.5587 31 55.7956 31 55C31 54.2044 30.6839 53.4413 30.1213 52.8787C29.5587 52.3161 28.7957 52 28 52H14C13.5019 52.0014 13.0118 52.1254 12.573 52.361C12.3176 52.5012 12.0821 52.6751 11.873 52.878C11.4529 53.2979 11.1668 53.833 11.0511 54.4156C10.9354 54.9982 10.9952 55.602 11.223 56.1506C11.4508 56.6991 11.8363 57.1677 12.3307 57.4969C12.8251 57.8262 13.406 58.0013 14 58V60C13.0113 60.0006 12.0446 59.708 11.2221 59.1593C10.3996 58.6105 9.75829 57.8302 9.37919 56.9171C9.0001 56.0039 8.90025 54.9988 9.09227 54.0289C9.2843 53.059 9.75957 52.1678 10.458 51.468C10.802 51.1291 11.191 50.839 11.614 50.606C12.3472 50.2102 13.1669 50.002 14 50H28C29.3261 50 30.5979 50.5268 31.5355 51.4645C32.4732 52.4021 33 53.6739 33 55C33 56.3261 32.4732 57.5979 31.5355 58.5355C30.5979 59.4732 29.3261 60 28 60Z" fill="white"/>
<path d="M50 60V58C50.3942 58.0008 50.7847 57.9238 51.149 57.7733C51.5133 57.6228 51.8444 57.4018 52.1231 57.1231C52.4018 56.8444 52.6228 56.5133 52.7733 56.149C52.9237 55.7847 53.0008 55.3942 53 55C53.0017 54.4105 52.8284 53.8337 52.5019 53.3429C52.1753 52.8521 51.7104 52.4692 51.166 52.243C50.7986 52.0813 50.4014 51.9985 50 52H36C35.2044 52 34.4413 52.3161 33.8787 52.8787C33.3161 53.4413 33 54.2044 33 55C33 55.7957 33.3161 56.5587 33.8787 57.1213C34.4413 57.684 35.2044 58 36 58V60C34.6739 60 33.4021 59.4732 32.4645 58.5356C31.5268 57.5979 31 56.3261 31 55C31 53.6739 31.5268 52.4022 32.4645 51.4645C33.4021 50.5268 34.6739 50 36 50H50C50.6739 49.9978 51.3408 50.1365 51.958 50.407C52.7092 50.7274 53.3706 51.2269 53.8842 51.8618C54.3978 52.4968 54.748 53.2479 54.9043 54.0495C55.0606 54.8511 55.0181 55.6788 54.7806 56.4602C54.5432 57.2416 54.1179 57.9529 53.542 58.532C52.6024 59.4713 51.3285 59.9993 50 60Z" fill="white"/>
<path d="M27 51H25V59H27V51Z" fill="white"/>
<path d="M39 51H37V59H39V51Z" fill="white"/>
<path d="M53 51C52.7377 50.9989 52.4863 50.8947 52.3 50.71L42.3 40.71C42.2538 40.6636 42.2119 40.6131 42.175 40.559L38.175 34.553L39.845 33.453L43.787 39.365L52.854 48.434L53.723 47.134L46.303 39.714C46.1786 39.5894 46.0892 39.4342 46.044 39.264L42.19 24.845L33.783 22.977C33.5608 22.9276 33.362 22.8039 33.2197 22.6262C33.0773 22.4486 32.9998 22.2277 33 22V18H35V21.2L43.217 23.025C43.3957 23.0648 43.56 23.1529 43.6921 23.2797C43.8242 23.4065 43.9189 23.5671 43.966 23.744L47.9 38.483L55.71 46.293C55.8735 46.4565 55.9753 46.6716 55.9981 46.9016C56.0209 47.1317 55.9633 47.3626 55.835 47.555L53.835 50.555C53.7533 50.6791 53.6449 50.7835 53.5177 50.8605C53.3906 50.9374 53.2479 50.9851 53.1 51C53.067 51 53.033 51 53 51Z" fill="white"/>
<path d="M11 51C10.967 51 10.935 51 10.9 50.995C10.7529 50.9804 10.6109 50.9334 10.4841 50.8573C10.3574 50.7812 10.2491 50.678 10.167 50.555L8.167 47.555C8.03872 47.3626 7.98107 47.1317 8.00386 46.9016C8.02665 46.6716 8.12848 46.4565 8.292 46.293L16.102 38.483L20.033 23.742C20.0801 23.5651 20.1748 23.4045 20.3069 23.2777C20.439 23.1509 20.6033 23.0628 20.782 23.023L29 21.2V18H31V22C31.0002 22.2277 30.9227 22.4486 30.7803 22.6262C30.638 22.8039 30.4392 22.9276 30.217 22.977L21.81 24.845L17.966 39.257C17.9208 39.4272 17.8314 39.5824 17.707 39.707L10.287 47.127L11.155 48.427L20.223 39.358L24.165 33.446L25.835 34.546L21.835 40.552C21.7981 40.6061 21.7562 40.6566 21.71 40.703L11.71 50.703C11.6171 50.7969 11.5066 50.8716 11.3847 50.9225C11.2629 50.9735 11.1321 50.9998 11 51Z" fill="white"/>
<path d="M63 64H1C0.734784 64 0.48043 63.8946 0.292893 63.7071C0.105357 63.5196 0 63.2652 0 63V59C0 58.7348 0.105357 58.4804 0.292893 58.2929C0.48043 58.1054 0.734784 58 1 58H63C63.2652 58 63.5196 58.1054 63.7071 58.2929C63.8946 58.4804 64 58.7348 64 59V63C64 63.2652 63.8946 63.5196 63.7071 63.7071C63.5196 63.8946 63.2652 64 63 64ZM2 62H62V60H2V62Z" fill="white"/>
</svg>
